<svg width="66" height="50" viewBox="0 0 66 50" fill="none" xmlns="http://www.w3.org/2000/svg">
<g opacity="0.2">
<path d="M21.059 49.8499C17.3931 49.8499 14.2813 49.2531 11.7237 48.0596C9.16615 46.8234 7.07745 45.161 5.45764 43.0723C3.83784 40.9409 2.64429 38.5112 1.87702 35.7831C1.15236 33.0124 0.790039 30.1138 0.790039 27.0873V23.5067C0.790039 19.2014 1.51469 15.3224 2.96399 11.8696C4.4133 8.41687 6.62988 5.68877 9.61373 3.68533C12.5976 1.63925 16.4127 0.616211 21.059 0.616211C25.6626 0.616211 29.4564 1.63925 32.4402 3.68533C35.4241 5.68877 37.6194 8.41687 39.0261 11.8696C40.4753 15.3224 41.2 19.2014 41.2 23.5067V27.0873C41.2 30.1138 40.8164 33.0124 40.0491 35.7831C39.3244 38.5112 38.1522 40.9409 36.5324 43.0723C34.9552 45.161 32.8878 46.8234 30.3302 48.0596C27.7726 49.2531 24.6822 49.8499 21.059 49.8499ZM21.059 41.5377C24.8527 41.5377 27.6448 40.2376 29.4351 37.6374C31.2254 34.9945 32.1205 30.9024 32.1205 25.3609C32.1205 19.4785 31.2041 15.2797 29.3711 12.7648C27.5382 10.2072 24.7675 8.92839 21.059 8.92839C17.3078 8.92839 14.4945 10.2072 12.6189 12.7648C10.786 15.2797 9.86949 19.4358 9.86949 25.233C9.86949 30.8171 10.786 34.9306 12.6189 37.5734C14.4518 40.2163 17.2652 41.5377 21.059 41.5377Z" fill="url(#paint0_linear_596_4674)"/>
<path d="M56.9841 48.635V7.58565L59.7975 9.75961H47.4571V1.95895H65.9996V48.635H56.9841Z" fill="url(#paint1_linear_596_4674)"/>
</g>
<defs>
<linearGradient id="paint0_linear_596_4674" x1="33.3948" y1="0.616211" x2="33.0993" y2="43.7519" gradientUnits="userSpaceOnUse">
<stop stop-color="white"/>
<stop offset="1" stop-color="white" stop-opacity="0"/>
</linearGradient>
<linearGradient id="paint1_linear_596_4674" x1="33.3948" y1="0.616211" x2="33.0993" y2="43.7519" gradientUnits="userSpaceOnUse">
<stop stop-color="white"/>
<stop offset="1" stop-color="white" stop-opacity="0"/>
</linearGradient>
</defs>
</svg>
