<svg width="1440" height="1024" viewBox="0 0 1440 1024" fill="none" xmlns="http://www.w3.org/2000/svg">
<g clip-path="url(#clip0_3_2)">
<path d="M585.231 287.491L585.115 287.495C585.459 281.085 585.352 274.658 584.796 268.261L584.79 268.189L584.778 268.117C583.453 259.857 584.818 255.633 587.592 253.222C590.577 250.628 595.761 249.545 603.607 249.178C665.065 247.003 723.492 221.941 767.425 178.908C811.358 135.875 837.625 77.9773 841.072 16.5757C841.824 4.51069 844.309 -1.94453 848.674 -5.49641C853.108 -9.10472 860.002 -10.1741 870.901 -9.93743L870.902 -9.93743C871.623 -9.92182 872.337 -9.90647 873.043 -9.89128C888.854 -9.55112 900.681 -9.29668 909.491 -8.18158C918.739 -7.01107 924.125 -4.9428 927.272 -1.34391C930.413 2.24842 931.719 7.82058 931.537 17.1047C931.356 26.3271 929.734 38.6849 927.535 55.4432L927.521 55.5508C927.521 55.551 927.521 55.5512 927.521 55.5513C907.461 208.084 773.366 330.364 617.926 337.819C609.295 338.234 602.974 338.525 598.258 338.232C593.516 337.938 590.853 337.067 589.192 335.552C587.547 334.052 586.504 331.569 585.93 327.036C585.358 322.517 585.295 316.412 585.231 308.051L585.231 308.05C585.196 303.947 585.208 299.853 585.22 295.746C585.225 293.686 585.231 291.623 585.231 289.553L585.231 287.491Z" stroke="url(#paint0_linear_3_2)" stroke-width="4"/>
<mask id="path-2-inside-1_3_2" fill="white">
<path d="M583.164 734.498C582.698 680.188 583.434 678.446 640.169 686.847C720.099 696.811 793.73 735.338 847.487 795.323C901.243 855.309 931.498 932.708 932.672 1013.25C933.341 1031.01 926.576 1035.49 909.939 1036.03C844.856 1038.13 844.871 1038.62 834.33 973.938C818.024 873.869 717.595 783.868 614.666 780.992C587.729 780.242 578.209 773.597 582.991 747.674C583.414 743.287 583.472 738.872 583.164 734.475"/>
</mask>
<path d="M640.169 686.847L639.583 690.804L639.629 690.811L639.674 690.817L640.169 686.847ZM932.672 1013.25L928.673 1013.31L928.674 1013.35L928.675 1013.4L932.672 1013.25ZM909.939 1036.03L910.068 1040.03L910.069 1040.03L909.939 1036.03ZM834.33 973.938L830.383 974.581L830.383 974.581L834.33 973.938ZM614.666 780.992L614.777 776.994L614.777 776.994L614.666 780.992ZM582.991 747.674L586.925 748.399L586.956 748.23L586.973 748.058L582.991 747.674ZM587.164 734.464C587.047 720.796 587.015 710.787 587.87 703.42C588.732 695.989 590.407 692.257 592.816 690.196C595.251 688.113 599.353 686.945 607.177 687.11C614.915 687.273 625.331 688.694 639.583 690.804L640.755 682.89C626.639 680.8 615.688 679.288 607.346 679.112C599.09 678.938 592.399 680.025 587.616 684.116C582.808 688.229 580.841 694.591 579.923 702.498C578.998 710.47 579.048 721.045 579.164 734.532L587.164 734.464ZM639.674 690.817C718.646 700.661 791.396 738.726 844.508 797.993L850.465 792.654C796.065 731.949 721.551 692.961 640.664 682.878L639.674 690.817ZM844.508 797.993C897.62 857.26 927.512 933.731 928.673 1013.31L936.672 1013.19C935.483 931.685 904.866 853.358 850.465 792.654L844.508 797.993ZM928.675 1013.4C928.997 1021.96 927.44 1025.98 925.08 1028.16C922.557 1030.49 918.063 1031.77 909.81 1032.04L910.069 1040.03C918.453 1039.76 925.66 1038.52 930.511 1034.04C935.525 1029.4 937.016 1022.3 936.67 1013.1L928.675 1013.4ZM909.811 1032.04C893.439 1032.56 881.494 1032.97 872.438 1032.32C863.39 1031.67 857.97 1029.99 854.208 1026.92C850.45 1023.86 847.717 1018.9 845.294 1010.15C842.868 1001.4 840.929 989.556 838.278 973.294L830.383 974.581C833.003 990.659 835.014 1003.01 837.584 1012.29C840.156 1021.57 843.463 1028.49 849.154 1033.13C854.842 1037.76 862.28 1039.61 871.864 1040.3C881.439 1040.99 893.898 1040.55 910.068 1040.03L909.811 1032.04ZM838.278 973.294C829.951 922.193 800.205 873.886 759.631 838.021C719.054 802.153 667.347 778.463 614.777 776.994L614.554 784.991C664.913 786.398 714.886 809.146 754.332 844.015C793.781 878.885 822.403 925.614 830.383 974.581L838.278 973.294ZM614.777 776.994C608.161 776.81 602.84 776.266 598.636 775.231C594.439 774.198 591.611 772.738 589.719 770.902C586.119 767.41 584.575 761.139 586.925 748.399L579.058 746.948C576.625 760.132 577.45 770.145 584.148 776.644C587.405 779.803 591.709 781.765 596.724 782.999C601.731 784.232 607.701 784.8 614.554 784.991L614.777 776.994ZM586.973 748.058C587.417 743.45 587.478 738.813 587.154 734.196L579.174 734.755C579.466 738.931 579.411 743.123 579.01 747.29L586.973 748.058Z" fill="url(#paint1_linear_3_2)" mask="url(#path-2-inside-1_3_2)"/>
<path d="M827.667 509.29L824.685 510.936L827.575 512.738L828.634 511.041C827.575 512.738 827.575 512.738 827.575 512.738L827.576 512.739L827.578 512.74L827.587 512.746L827.621 512.767L827.756 512.851C827.873 512.924 828.047 513.032 828.27 513.17C828.716 513.448 829.36 513.847 830.154 514.338C831.741 515.319 833.928 516.665 836.325 518.123C841.101 521.03 846.767 524.418 850.167 526.242C1015.63 615.109 1111.08 752.603 1143.19 937.979C1147 964.901 1149.15 992.03 1149.66 1019.21L1149.66 1019.25L1149.66 1019.28C1150.01 1026.13 1148.89 1029.93 1146.38 1031.95C1143.76 1034.06 1138.94 1034.85 1130.22 1033.67L1130.2 1033.67L1130.19 1033.66C1113.69 1031.7 1097.01 1031.7 1080.51 1033.66C1070.71 1034.66 1065.53 1033.23 1062.65 1030.27C1059.7 1027.23 1058.58 1022.02 1058.53 1013.81C1057.44 818.482 927.841 646.495 745.369 583.157C701.049 567.287 654.315 559.21 607.239 559.282L607.231 559.282L607.222 559.282C597.614 559.378 586.435 557.942 578.042 554.121C573.858 552.216 570.489 549.775 568.308 546.757C566.161 543.785 565.081 540.142 565.629 535.598L565.631 535.576L565.633 535.555C566.468 527.085 566.827 506.051 566.802 485.145C566.777 464.247 566.368 443.245 565.637 434.772C565.522 432.984 565.931 432.308 566.206 432.046C566.505 431.761 567.171 431.46 568.638 431.553C571.618 431.742 576.088 433.425 581.466 435.829C583.543 436.757 585.757 437.794 588.017 438.852C591.394 440.433 594.875 442.063 598.158 443.453C603.636 445.773 609.102 447.674 613.445 447.734C809.861 450.456 989.732 325.649 1043.53 124.926L1043.53 124.925C1053.13 89.1161 1061.21 52.3184 1058.33 14.644C1057.5 3.83122 1059.36 -2.37438 1063.14 -5.79817C1066.98 -9.26597 1073.42 -10.4572 1083.29 -9.59458C1095.75 -8.19072 1108.33 -8.21716 1120.79 -9.67339L1120.82 -9.67671L1120.85 -9.68084C1134.23 -11.6339 1141.45 -9.40691 1145.35 -4.58618C1149.42 0.430228 1150.52 8.91741 1149.79 21.1331C1136.99 233.374 1037.95 391.423 852.55 495.491C848.399 497.815 842.18 501.264 836.996 504.134C834.404 505.568 832.072 506.858 830.388 507.788C829.546 508.253 828.865 508.629 828.396 508.888L827.855 509.187L827.715 509.264L827.679 509.284L827.67 509.289L827.668 509.29L827.668 509.29L827.697 509.343L827.667 509.29Z" stroke="url(#paint2_linear_3_2)" stroke-width="4"/>
<mask id="mask0_3_2" style="mask-type:alpha" maskUnits="userSpaceOnUse" x="0" y="0" width="857" height="1024">
<rect width="857" height="1024" fill="#D9D9D9"/>
</mask>
<g mask="url(#mask0_3_2)">
<g filter="url(#filter0_b_3_2)">
<path d="M126.926 1025C90.9813 1025.02 6.60718 1037.69 -24.5 1019.5C-55.6072 1001.31 -32.3442 953.898 -50.2275 922.406L-225.117 614.006C-242.732 582.954 -252 547.788 -252 512C-252 476.211 -242.732 441.046 -225.117 409.993L-50.2274 101.593C-32.3441 70.101 -50.1071 16.1905 -19 -1.99995C12.1072 -20.1904 90.9814 -2.01556 126.926 -1.99994L473.074 -1.99991C509.019 -2.01548 544.33 7.55578 575.437 25.7462C606.544 43.9367 632.344 70.1011 650.228 101.594L825.117 409.993C842.732 441.046 852 476.211 852 512C852 547.788 842.732 582.953 825.117 614.006L650.228 922.406C632.345 953.898 606.545 980.063 575.437 998.253C544.33 1016.44 509.019 1025.02 473.074 1025L126.926 1025Z" fill="url(#paint3_linear_3_2)" fill-opacity="0.11"/>
<path d="M-51.5323 923.146L-51.5319 923.147C-47.2093 930.758 -45.3419 939.388 -44.5315 948.438C-43.9452 954.987 -43.9166 961.656 -43.8881 968.285C-43.877 970.855 -43.866 973.418 -43.8225 975.967C-43.5152 993.984 -41.5992 1011.24 -25.2572 1020.79C-17.2024 1025.5 -5.84064 1028.15 7.06995 1029.53C20.0143 1030.91 34.6781 1031.03 49.4446 1030.58C63.8442 1030.14 78.3834 1029.16 91.5624 1028.27L92.5768 1028.2C106.046 1027.29 118.002 1026.5 126.927 1026.5L473.073 1026.5C473.074 1026.5 473.074 1026.5 473.074 1026.5C509.257 1026.52 544.835 1017.89 576.195 999.548C607.531 981.224 633.519 954.868 651.532 923.147L651.533 923.146L826.422 614.746C844.165 583.467 853.5 548.046 853.5 512C853.5 475.953 844.165 440.532 826.422 409.253L651.532 100.854L651.532 100.853C633.519 69.1319 607.531 42.7759 576.194 24.4514C544.858 6.1268 509.285 -3.51565 473.074 -3.49991L126.927 -3.49994C118.035 -3.50385 106.447 -4.63239 93.4994 -6.05561C90.8722 -6.34443 88.1903 -6.64521 85.4662 -6.95075C74.799 -8.14692 63.4843 -9.41572 52.2699 -10.3223C38.1914 -11.4605 24.2065 -12.0341 11.766 -11.1727C-0.644685 -10.3132 -11.6824 -8.01668 -19.7572 -3.29475C-36.0547 6.23546 -39.3908 25.0705 -41.0672 44.6807C-41.3402 47.8746 -41.5687 51.0892 -41.7972 54.3039C-42.2796 61.0914 -42.7622 67.8796 -43.6642 74.4759C-44.9892 84.1654 -47.1982 93.2214 -51.5318 100.853L-51.5322 100.853L-226.421 409.253C-244.165 440.532 -253.5 475.953 -253.5 512C-253.5 548.047 -244.165 583.468 -226.422 614.746L-51.5323 923.146Z" stroke="url(#paint4_linear_3_2)" stroke-width="3" stroke-linecap="round"/>
</g>
</g>
<circle cx="1081" cy="294" r="20" fill="#F6AF45"/>
<circle cx="1032" cy="658" r="20" fill="#E24FCD"/>
<circle cx="1146" cy="900" r="20" fill="#56C6FE"/>
<circle cx="1144" cy="125" r="20" fill="#9E73FE"/>
<path d="M763.653 187.143C761.504 187.144 759.393 186.573 757.534 185.489C755.674 184.404 754.132 182.844 753.062 180.967L742.607 162.581C741.554 160.73 741 158.634 741 156.5C741 154.367 741.554 152.27 742.607 150.419L753.062 132.033C754.132 130.156 755.674 128.596 757.534 127.512C759.393 126.427 761.504 125.856 763.653 125.857L784.347 125.857C786.495 125.856 788.606 126.427 790.466 127.512C792.326 128.596 793.868 130.156 794.937 132.033L805.392 150.419C806.446 152.27 807 154.367 807 156.5C807 158.634 806.446 160.73 805.392 162.581L794.937 180.967C793.868 182.844 792.326 184.404 790.466 185.489C788.606 186.573 786.495 187.144 784.347 187.143L763.653 187.143Z" fill="url(#paint5_linear_3_2)"/>
<path d="M765.244 181.833L765.245 181.833L782.755 181.833L782.755 181.833C784.467 181.834 786.15 181.379 787.633 180.514C789.115 179.65 790.345 178.406 791.198 176.908C791.198 176.908 791.198 176.908 791.199 176.908L800.045 161.351L800.045 161.351C800.885 159.875 801.327 158.202 801.327 156.5C801.327 154.798 800.885 153.125 800.045 151.649L800.045 151.649L791.198 136.092C790.346 134.594 789.115 133.35 787.633 132.486C786.15 131.621 784.467 131.166 782.755 131.167L782.755 131.167L765.245 131.167L765.244 131.167C763.532 131.166 761.849 131.621 760.367 132.486C758.884 133.35 757.654 134.594 756.801 136.092L765.244 181.833ZM765.244 181.833C763.532 181.834 761.849 181.379 760.367 180.514C758.884 179.65 757.654 178.406 756.801 176.908L747.954 161.351L747.954 161.351C747.114 159.875 746.672 158.202 746.672 156.5C746.672 154.798 747.114 153.125 747.954 151.649L747.954 151.649L756.801 136.092L765.244 181.833Z" stroke="black" stroke-opacity="0.3" stroke-width="1.19093"/>
<path fill-rule="evenodd" clip-rule="evenodd" d="M799.844 152.765L791.348 138.341C790.463 136.839 789.185 135.591 787.644 134.723C786.103 133.856 784.354 133.399 782.573 133.4L765.427 133.4C763.647 133.399 761.898 133.856 760.357 134.723C758.816 135.591 757.538 136.839 756.652 138.341L748.157 152.765C748.351 152.212 748.595 151.676 748.886 151.163L757.25 136.455C758.106 134.953 759.34 133.705 760.827 132.838C762.315 131.97 764.004 131.513 765.723 131.514L782.278 131.514C783.997 131.513 785.686 131.97 787.173 132.838C788.661 133.705 789.895 134.953 790.75 136.455L799.114 151.163C799.406 151.676 799.65 152.212 799.844 152.765Z" fill="white" fill-opacity="0.8"/>
<path d="M763.849 156.344L773.883 139.956L783.918 156.344L773.883 162.19L763.849 156.344Z" fill="#17204D"/>
<path d="M773.883 164.031L783.596 158.001L773.883 171.811L763.941 158.001L773.883 164.031Z" fill="#17204D"/>
<mask id="mask1_3_2" style="mask-type:alpha" maskUnits="userSpaceOnUse" x="725" y="111" width="98" height="92">
<path d="M758.95 201.71C755.824 201.712 752.754 200.876 750.049 199.289C747.344 197.702 745.101 195.418 743.545 192.67L728.338 165.757C726.806 163.047 726 159.978 726 156.855C726 153.732 726.806 150.663 728.338 147.953L743.545 121.04C745.101 118.292 747.344 116.009 750.049 114.421C752.754 112.834 755.824 111.999 758.95 112L789.05 112C792.176 111.999 795.246 112.834 797.951 114.421C800.656 116.009 802.9 118.292 804.455 121.04L819.662 147.953C821.194 150.663 822 153.732 822 156.855C822 159.978 821.194 163.047 819.662 165.757L804.455 192.67C802.9 195.418 800.656 197.702 797.951 199.289C795.246 200.876 792.176 201.712 789.05 201.71L758.95 201.71Z" fill="white" stroke="white" stroke-opacity="0.2" stroke-width="0.746383"/>
</mask>
<g mask="url(#mask1_3_2)">
<path d="M774 207.5L798 199.5C798 199.5 763.261 187.115 752.5 168.5C741.909 150.179 748 114.5 748 114.5L723.5 130C721.333 137.167 717 151.8 717 153C717 154.2 733 185.5 741 201L774 207.5Z" fill="black" fill-opacity="0.1"/>
</g>
<mask id="mask2_3_2" style="mask-type:alpha" maskUnits="userSpaceOnUse" x="725" y="111" width="98" height="92">
<path d="M758.95 201.71C755.824 201.712 752.754 200.876 750.049 199.289C747.344 197.702 745.101 195.418 743.545 192.67L728.338 165.757C726.806 163.047 726 159.978 726 156.855C726 153.732 726.806 150.663 728.338 147.953L743.545 121.04C745.101 118.292 747.344 116.009 750.049 114.421C752.754 112.834 755.824 111.999 758.95 112L789.05 112C792.176 111.999 795.246 112.834 797.951 114.421C800.656 116.009 802.9 118.292 804.455 121.04L819.662 147.953C821.194 150.663 822 153.732 822 156.855C822 159.978 821.194 163.047 819.662 165.757L804.455 192.67C802.9 195.418 800.656 197.702 797.951 199.289C795.246 200.876 792.176 201.712 789.05 201.71L758.95 201.71Z" fill="white" stroke="white" stroke-opacity="0.2" stroke-width="0.746383"/>
</mask>
<g mask="url(#mask2_3_2)">
<path d="M828 132.5L834.5 166C834.5 166 783.5 196 783 154.5C782.5 113 748 114.5 748 114.5L779 91.9999C776.833 99.1666 792 98.7998 792 99.9998C792 101.2 807 98.9999 815 114.5L828 132.5Z" fill="white" fill-opacity="0.1"/>
</g>
<path d="M758.95 201.71C755.824 201.712 752.754 200.877 750.049 199.289C747.344 197.702 745.101 195.418 743.545 192.67L728.338 165.757C726.806 163.047 726 159.978 726 156.855C726 153.732 726.806 150.663 728.338 147.954L743.545 121.04C745.101 118.292 747.344 116.009 750.049 114.421C752.754 112.834 755.824 111.999 758.95 112L789.05 112C792.176 111.999 795.246 112.834 797.951 114.421C800.656 116.009 802.9 118.292 804.455 121.04L819.662 147.954C821.194 150.663 822 153.732 822 156.855C822 159.978 821.194 163.047 819.662 165.757L804.455 192.67C802.9 195.418 800.656 197.702 797.951 199.289C795.246 200.877 792.176 201.712 789.05 201.71L758.95 201.71Z" fill="white" fill-opacity="0.08" stroke="white" stroke-opacity="0.2" stroke-width="0.746383"/>
<mask id="mask3_3_2" style="mask-type:alpha" maskUnits="userSpaceOnUse" x="725" y="111" width="98" height="92">
<path d="M758.95 201.71C755.824 201.712 752.754 200.876 750.049 199.289C747.344 197.702 745.101 195.418 743.545 192.67L728.338 165.757C726.806 163.047 726 159.978 726 156.855C726 153.732 726.806 150.663 728.338 147.953L743.545 121.04C745.101 118.292 747.344 116.009 750.049 114.421C752.754 112.834 755.824 111.999 758.95 112L789.05 112C792.176 111.999 795.246 112.834 797.951 114.421C800.656 116.009 802.9 118.292 804.455 121.04L819.662 147.953C821.194 150.663 822 153.732 822 156.855C822 159.978 821.194 163.047 819.662 165.757L804.455 192.67C802.9 195.418 800.656 197.702 797.951 199.289C795.246 200.876 792.176 201.712 789.05 201.71L758.95 201.71Z" fill="white" stroke="white" stroke-opacity="0.2" stroke-width="0.746383"/>
</mask>
<g mask="url(#mask3_3_2)">
<path d="M828 132.5L834.5 166C834.5 166 803.5 192.5 803 151C802.5 109.5 772.5 112.5 772.5 112.5L779 91.9999C776.833 99.1666 792 98.7998 792 99.9998C792 101.2 807 98.9999 815 114.5L828 132.5Z" fill="url(#paint6_linear_3_2)" fill-opacity="0.4"/>
</g>
<path d="M937.653 337.143C935.504 337.144 933.393 336.573 931.534 335.489C929.674 334.404 928.132 332.844 927.062 330.967L916.607 312.581C915.554 310.73 915 308.634 915 306.5C915 304.367 915.554 302.27 916.607 300.419L927.062 282.033C928.132 280.156 929.674 278.596 931.534 277.512C933.393 276.427 935.504 275.856 937.653 275.857L958.347 275.857C960.495 275.856 962.606 276.427 964.466 277.512C966.326 278.596 967.868 280.156 968.937 282.033L979.392 300.419C980.446 302.27 981 304.367 981 306.5C981 308.634 980.446 310.73 979.392 312.581L968.937 330.967C967.868 332.844 966.326 334.404 964.466 335.489C962.606 336.573 960.495 337.144 958.347 337.143L937.653 337.143Z" fill="url(#paint7_linear_3_2)"/>
<path d="M939.244 331.833L939.245 331.833L956.755 331.833L956.755 331.833C958.467 331.834 960.15 331.379 961.633 330.514C963.115 329.65 964.345 328.406 965.198 326.908C965.198 326.908 965.198 326.908 965.199 326.908L974.045 311.351L974.045 311.351C974.885 309.875 975.327 308.202 975.327 306.5C975.327 304.798 974.885 303.125 974.045 301.649L974.045 301.649L965.198 286.092C964.346 284.594 963.115 283.35 961.633 282.486C960.15 281.621 958.467 281.166 956.755 281.167L956.755 281.167L939.245 281.167L939.244 281.167C937.532 281.166 935.849 281.621 934.367 282.486C932.884 283.35 931.654 284.594 930.801 286.092L939.244 331.833ZM939.244 331.833C937.532 331.834 935.849 331.379 934.367 330.514C932.884 329.65 931.654 328.406 930.801 326.908L921.954 311.351L921.954 311.351C921.114 309.875 920.672 308.202 920.672 306.5C920.672 304.798 921.114 303.125 921.954 301.649L921.954 301.649L930.801 286.092L939.244 331.833Z" stroke="black" stroke-opacity="0.3" stroke-width="1.19093"/>
<path fill-rule="evenodd" clip-rule="evenodd" d="M973.844 302.765L965.348 288.341C964.463 286.839 963.185 285.591 961.644 284.723C960.103 283.856 958.354 283.399 956.573 283.4L939.427 283.4C937.647 283.399 935.898 283.856 934.357 284.723C932.816 285.591 931.538 286.839 930.652 288.341L922.157 302.765C922.351 302.212 922.595 301.676 922.886 301.163L931.25 286.455C932.106 284.953 933.34 283.705 934.827 282.838C936.315 281.97 938.004 281.513 939.723 281.514L956.278 281.514C957.997 281.513 959.686 281.97 961.173 282.838C962.661 283.705 963.895 284.953 964.75 286.455L973.114 301.163C973.406 301.676 973.65 302.212 973.844 302.765Z" fill="white" fill-opacity="0.8"/>
<path d="M957.543 311.566C957.347 309.298 955.028 307.78 955.028 307.78C955.028 307.78 957.985 306.978 958.289 303.474C958.482 301.239 957.074 298.906 953.539 297.866L954.757 293.264L951.857 292.496L950.641 297.087L948.235 296.449L949.451 291.859L946.545 291.09L945.329 295.681L940.657 294.443L939.889 297.341L942.733 298.093L939.023 312.111L936.178 311.354L935.362 314.428L940.034 315.666L938.819 320.265L941.736 321.05L942.954 316.451L945.36 317.088L944.131 321.693L947.045 322.456L948.263 317.856L948.937 318.032C954.615 319.458 957.878 315.478 957.543 311.566ZM947.542 299.367C947.542 299.367 948.722 299.671 950.415 300.127C952.022 300.56 953.246 301.979 952.868 303.58C952.491 305.182 950.817 306.201 949.06 305.766C947.447 305.363 946.059 304.972 946.059 304.972L947.542 299.367ZM947.674 314.403C945.997 313.995 943.832 313.386 943.832 313.386L945.368 307.565C945.368 307.565 947.324 308.124 949.065 308.543C951.147 309.057 952.418 310.424 951.96 312.254C951.502 314.084 949.934 314.953 947.674 314.403Z" fill="#17204D"/>
<mask id="mask4_3_2" style="mask-type:alpha" maskUnits="userSpaceOnUse" x="899" y="261" width="98" height="92">
<path d="M932.95 351.71C929.824 351.712 926.754 350.876 924.049 349.289C921.344 347.702 919.101 345.418 917.545 342.67L902.338 315.757C900.806 313.047 900 309.978 900 306.855C900 303.732 900.806 300.663 902.338 297.953L917.545 271.04C919.101 268.292 921.344 266.009 924.049 264.421C926.754 262.834 929.824 261.999 932.95 262L963.05 262C966.176 261.999 969.246 262.834 971.951 264.421C974.656 266.009 976.9 268.292 978.455 271.04L993.662 297.953C995.194 300.663 996 303.732 996 306.855C996 309.978 995.194 313.047 993.662 315.757L978.455 342.67C976.9 345.418 974.656 347.702 971.951 349.289C969.246 350.876 966.176 351.712 963.05 351.71L932.95 351.71Z" fill="white" stroke="white" stroke-opacity="0.2" stroke-width="0.746383"/>
</mask>
<g mask="url(#mask4_3_2)">
<path d="M948 357.5L972 349.5C972 349.5 937.261 337.115 926.5 318.5C915.909 300.179 922 264.5 922 264.5L897.5 280C895.333 287.167 891 301.8 891 303C891 304.2 907 335.5 915 351L948 357.5Z" fill="black" fill-opacity="0.1"/>
</g>
<mask id="mask5_3_2" style="mask-type:alpha" maskUnits="userSpaceOnUse" x="899" y="261" width="98" height="92">
<path d="M932.95 351.71C929.824 351.712 926.754 350.876 924.049 349.289C921.344 347.702 919.101 345.418 917.545 342.67L902.338 315.757C900.806 313.047 900 309.978 900 306.855C900 303.732 900.806 300.663 902.338 297.953L917.545 271.04C919.101 268.292 921.344 266.009 924.049 264.421C926.754 262.834 929.824 261.999 932.95 262L963.05 262C966.176 261.999 969.246 262.834 971.951 264.421C974.656 266.009 976.9 268.292 978.455 271.04L993.662 297.953C995.194 300.663 996 303.732 996 306.855C996 309.978 995.194 313.047 993.662 315.757L978.455 342.67C976.9 345.418 974.656 347.702 971.951 349.289C969.246 350.876 966.176 351.712 963.05 351.71L932.95 351.71Z" fill="white" stroke="white" stroke-opacity="0.2" stroke-width="0.746383"/>
</mask>
<g mask="url(#mask5_3_2)">
<path d="M1002 282.5L1008.5 316C1008.5 316 957.5 346 957 304.5C956.5 263 922 264.5 922 264.5L953 242C950.833 249.167 966 248.8 966 250C966 251.2 981 249 989 264.5L1002 282.5Z" fill="white" fill-opacity="0.1"/>
</g>
<path d="M932.95 351.71C929.824 351.712 926.754 350.877 924.049 349.289C921.344 347.702 919.101 345.418 917.545 342.67L902.338 315.757C900.806 313.047 900 309.978 900 306.855C900 303.732 900.806 300.663 902.338 297.954L917.545 271.04C919.101 268.292 921.344 266.009 924.049 264.421C926.754 262.834 929.824 261.999 932.95 262L963.05 262C966.176 261.999 969.246 262.834 971.951 264.421C974.656 266.009 976.9 268.292 978.455 271.04L993.662 297.954C995.194 300.663 996 303.732 996 306.855C996 309.978 995.194 313.047 993.662 315.757L978.455 342.67C976.9 345.418 974.656 347.702 971.951 349.289C969.246 350.877 966.176 351.712 963.05 351.71L932.95 351.71Z" fill="white" fill-opacity="0.08" stroke="white" stroke-opacity="0.2" stroke-width="0.746383"/>
<mask id="mask6_3_2" style="mask-type:alpha" maskUnits="userSpaceOnUse" x="899" y="261" width="98" height="92">
<path d="M932.95 351.71C929.824 351.712 926.754 350.876 924.049 349.289C921.344 347.702 919.101 345.418 917.545 342.67L902.338 315.757C900.806 313.047 900 309.978 900 306.855C900 303.732 900.806 300.663 902.338 297.953L917.545 271.04C919.101 268.292 921.344 266.009 924.049 264.421C926.754 262.834 929.824 261.999 932.95 262L963.05 262C966.176 261.999 969.246 262.834 971.951 264.421C974.656 266.009 976.9 268.292 978.455 271.04L993.662 297.953C995.194 300.663 996 303.732 996 306.855C996 309.978 995.194 313.047 993.662 315.757L978.455 342.67C976.9 345.418 974.656 347.702 971.951 349.289C969.246 350.876 966.176 351.712 963.05 351.71L932.95 351.71Z" fill="white" stroke="white" stroke-opacity="0.2" stroke-width="0.746383"/>
</mask>
<g mask="url(#mask6_3_2)">
<path d="M1002 282.5L1008.5 316C1008.5 316 977.5 342.5 977 301C976.5 259.5 946.5 262.5 946.5 262.5L953 242C950.833 249.167 966 248.8 966 250C966 251.2 981 249 989 264.5L1002 282.5Z" fill="url(#paint8_linear_3_2)" fill-opacity="0.4"/>
</g>
<path d="M894.653 170.143C892.504 170.144 890.393 169.573 888.534 168.489C886.674 167.404 885.132 165.844 884.062 163.967L873.607 145.581C872.554 143.73 872 141.634 872 139.5C872 137.367 872.554 135.27 873.607 133.419L884.062 115.033C885.132 113.156 886.674 111.596 888.534 110.512C890.393 109.427 892.504 108.856 894.653 108.857L915.347 108.857C917.495 108.856 919.606 109.427 921.466 110.512C923.326 111.596 924.868 113.156 925.937 115.033L936.392 133.419C937.446 135.27 938 137.367 938 139.5C938 141.634 937.446 143.73 936.392 145.581L925.937 163.967C924.868 165.844 923.326 167.404 921.466 168.489C919.606 169.573 917.495 170.144 915.347 170.143L894.653 170.143Z" fill="url(#paint9_linear_3_2)"/>
<path d="M896.244 164.833L896.245 164.833L913.755 164.833L913.755 164.833C915.467 164.834 917.15 164.379 918.633 163.514C920.115 162.65 921.345 161.406 922.198 159.908C922.198 159.908 922.198 159.908 922.199 159.908L931.045 144.351L931.045 144.351C931.885 142.875 932.327 141.202 932.327 139.5C932.327 137.798 931.885 136.125 931.045 134.649L931.045 134.649L922.198 119.092C921.346 117.594 920.115 116.35 918.633 115.486C917.15 114.621 915.467 114.166 913.755 114.167L913.755 114.167L896.245 114.167L896.244 114.167C894.532 114.166 892.849 114.621 891.367 115.486C889.884 116.35 888.654 117.594 887.801 119.092L896.244 164.833ZM896.244 164.833C894.532 164.834 892.849 164.379 891.367 163.514C889.884 162.65 888.654 161.406 887.801 159.908L878.954 144.351L878.954 144.351C878.114 142.875 877.672 141.202 877.672 139.5C877.672 137.798 878.114 136.125 878.954 134.649L878.954 134.649L887.801 119.092L896.244 164.833Z" stroke="black" stroke-opacity="0.3" stroke-width="1.19093"/>
<path fill-rule="evenodd" clip-rule="evenodd" d="M930.844 135.765L922.348 121.341C921.463 119.839 920.185 118.591 918.644 117.723C917.103 116.856 915.354 116.399 913.573 116.4L896.427 116.4C894.647 116.399 892.898 116.856 891.357 117.723C889.816 118.591 888.538 119.839 887.652 121.341L879.157 135.765C879.351 135.212 879.595 134.676 879.886 134.163L888.25 119.455C889.106 117.953 890.34 116.705 891.827 115.838C893.315 114.97 895.004 114.513 896.723 114.514L913.278 114.514C914.997 114.513 916.686 114.97 918.173 115.838C919.661 116.705 920.895 117.953 921.75 119.455L930.114 134.163C930.406 134.676 930.65 135.212 930.844 135.765Z" fill="white" fill-opacity="0.8"/>
<path d="M910.897 134.865L898.881 141.809C898.66 141.935 898.41 142.001 898.155 142.001C897.9 142.001 897.65 141.935 897.428 141.809L893.581 139.593C893.362 139.463 893.182 139.279 893.057 139.059C892.932 138.838 892.867 138.589 892.868 138.335V133.904C892.868 133.649 892.935 133.398 893.063 133.178C893.19 132.957 893.374 132.774 893.595 132.646L897.431 130.43C897.652 130.304 897.903 130.237 898.158 130.237C898.412 130.237 898.663 130.304 898.884 130.43L902.721 132.646C902.941 132.774 903.125 132.957 903.252 133.178C903.38 133.398 903.447 133.649 903.447 133.904V136.03C903.447 136.093 903.464 136.156 903.496 136.211C903.527 136.266 903.573 136.311 903.628 136.343C903.682 136.375 903.745 136.392 903.808 136.393C903.872 136.393 903.934 136.377 903.989 136.346L905.987 135.192C906.097 135.128 906.188 135.036 906.252 134.926C906.315 134.815 906.348 134.69 906.348 134.563V132.227C906.347 131.972 906.281 131.722 906.154 131.502C906.027 131.281 905.844 131.098 905.624 130.97L898.87 127.08C898.649 126.952 898.399 126.885 898.144 126.885C897.888 126.885 897.638 126.952 897.417 127.08L890.677 130.97C890.457 131.097 890.273 131.28 890.146 131.501C890.018 131.722 889.951 131.972 889.951 132.227V140.012C889.951 140.267 890.018 140.517 890.146 140.738C890.273 140.958 890.457 141.142 890.677 141.269L897.417 145.159C897.638 145.287 897.888 145.354 898.144 145.354C898.399 145.354 898.649 145.287 898.87 145.159L910.885 138.215C911.107 138.089 911.357 138.022 911.612 138.022C911.867 138.022 912.117 138.089 912.338 138.215L916.175 140.431C916.396 140.558 916.579 140.742 916.707 140.962C916.834 141.183 916.901 141.433 916.902 141.688V146.12C916.901 146.375 916.834 146.625 916.707 146.846C916.579 147.067 916.396 147.25 916.175 147.377L912.35 149.593C912.128 149.72 911.878 149.786 911.623 149.786C911.368 149.786 911.118 149.72 910.897 149.593L907.06 147.377C906.839 147.25 906.656 147.067 906.529 146.846C906.401 146.625 906.334 146.375 906.334 146.12V143.991C906.334 143.927 906.317 143.865 906.286 143.81C906.254 143.755 906.208 143.709 906.153 143.677C906.098 143.645 906.036 143.629 905.972 143.629C905.909 143.629 905.846 143.646 905.792 143.678L903.794 144.829C903.684 144.893 903.593 144.985 903.529 145.095C903.466 145.206 903.433 145.331 903.433 145.458V147.797C903.433 148.051 903.5 148.301 903.627 148.522C903.754 148.743 903.937 148.926 904.157 149.054L910.897 152.944C911.117 153.071 911.368 153.139 911.623 153.139C911.878 153.139 912.129 153.071 912.35 152.944L919.089 149.054C919.31 148.927 919.494 148.743 919.621 148.523C919.749 148.302 919.816 148.052 919.816 147.797V140.012C919.816 139.757 919.749 139.507 919.621 139.286C919.494 139.065 919.31 138.882 919.089 138.754L912.35 134.865C912.129 134.737 911.878 134.67 911.623 134.67C911.368 134.67 911.117 134.737 910.897 134.865V134.865Z" fill="#17204D"/>
<mask id="mask7_3_2" style="mask-type:alpha" maskUnits="userSpaceOnUse" x="856" y="94" width="98" height="92">
<path d="M889.95 184.71C886.824 184.712 883.754 183.876 881.049 182.289C878.344 180.702 876.101 178.418 874.545 175.67L859.338 148.757C857.806 146.047 857 142.978 857 139.855C857 136.732 857.806 133.663 859.338 130.953L874.545 104.04C876.101 101.292 878.344 99.0087 881.049 97.4213C883.754 95.8339 886.824 94.9986 889.95 95L920.05 95C923.176 94.9986 926.246 95.8339 928.951 97.4213C931.656 99.0088 933.9 101.292 935.455 104.04L950.662 130.953C952.194 133.663 953 136.732 953 139.855C953 142.978 952.194 146.047 950.662 148.757L935.455 175.67C933.9 178.418 931.656 180.702 928.951 182.289C926.246 183.876 923.176 184.712 920.05 184.71L889.95 184.71Z" fill="white" stroke="white" stroke-opacity="0.2" stroke-width="0.746383"/>
</mask>
<g mask="url(#mask7_3_2)">
<path d="M905 190.5L929 182.5C929 182.5 894.261 170.115 883.5 151.5C872.909 133.179 879 97.4999 879 97.4999L854.5 113C852.333 120.167 848 134.8 848 136C848 137.2 864 168.5 872 184L905 190.5Z" fill="black" fill-opacity="0.1"/>
</g>
<mask id="mask8_3_2" style="mask-type:alpha" maskUnits="userSpaceOnUse" x="856" y="94" width="98" height="92">
<path d="M889.95 184.71C886.824 184.712 883.754 183.876 881.049 182.289C878.344 180.702 876.101 178.418 874.545 175.67L859.338 148.757C857.806 146.047 857 142.978 857 139.855C857 136.732 857.806 133.663 859.338 130.953L874.545 104.04C876.101 101.292 878.344 99.0087 881.049 97.4213C883.754 95.8339 886.824 94.9986 889.95 95L920.05 95C923.176 94.9986 926.246 95.8339 928.951 97.4213C931.656 99.0088 933.9 101.292 935.455 104.04L950.662 130.953C952.194 133.663 953 136.732 953 139.855C953 142.978 952.194 146.047 950.662 148.757L935.455 175.67C933.9 178.418 931.656 180.702 928.951 182.289C926.246 183.876 923.176 184.712 920.05 184.71L889.95 184.71Z" fill="white" stroke="white" stroke-opacity="0.2" stroke-width="0.746383"/>
</mask>
<g mask="url(#mask8_3_2)">
<path d="M959 115.5L965.5 149C965.5 149 914.5 179 914 137.5C913.5 95.9999 879 97.4999 879 97.4999L910 74.9999C907.833 82.1666 923 81.7998 923 82.9998C923 84.1998 938 81.9999 946 97.4999L959 115.5Z" fill="white" fill-opacity="0.1"/>
</g>
<path d="M889.95 184.71C886.824 184.712 883.754 183.877 881.049 182.289C878.344 180.702 876.101 178.418 874.545 175.67L859.338 148.757C857.806 146.047 857 142.978 857 139.855C857 136.732 857.806 133.663 859.338 130.954L874.545 104.04C876.101 101.292 878.344 99.0089 881.049 97.4214C883.754 95.834 886.824 94.9988 889.95 95.0001L920.05 95.0001C923.176 94.9988 926.246 95.834 928.951 97.4215C931.656 99.0089 933.9 101.292 935.455 104.04L950.662 130.954C952.194 133.663 953 136.732 953 139.855C953 142.978 952.194 146.047 950.662 148.757L935.455 175.67C933.9 178.418 931.656 180.702 928.951 182.289C926.246 183.877 923.176 184.712 920.05 184.71L889.95 184.71Z" fill="white" fill-opacity="0.08" stroke="white" stroke-opacity="0.2" stroke-width="0.746383"/>
<mask id="mask9_3_2" style="mask-type:alpha" maskUnits="userSpaceOnUse" x="856" y="94" width="98" height="92">
<path d="M889.95 184.71C886.824 184.712 883.754 183.876 881.049 182.289C878.344 180.702 876.101 178.418 874.545 175.67L859.338 148.757C857.806 146.047 857 142.978 857 139.855C857 136.732 857.806 133.663 859.338 130.953L874.545 104.04C876.101 101.292 878.344 99.0087 881.049 97.4213C883.754 95.8339 886.824 94.9986 889.95 95L920.05 95C923.176 94.9986 926.246 95.8339 928.951 97.4213C931.656 99.0088 933.9 101.292 935.455 104.04L950.662 130.953C952.194 133.663 953 136.732 953 139.855C953 142.978 952.194 146.047 950.662 148.757L935.455 175.67C933.9 178.418 931.656 180.702 928.951 182.289C926.246 183.876 923.176 184.712 920.05 184.71L889.95 184.71Z" fill="white" stroke="white" stroke-opacity="0.2" stroke-width="0.746383"/>
</mask>
<g mask="url(#mask9_3_2)">
<path d="M959 115.5L965.5 149C965.5 149 934.5 175.5 934 134C933.5 92.4999 903.5 95.4999 903.5 95.4999L910 74.9999C907.833 82.1666 923 81.7998 923 82.9998C923 84.1998 938 81.9999 946 97.4999L959 115.5Z" fill="url(#paint10_linear_3_2)" fill-opacity="0.4"/>
</g>
<path d="M935.653 753.143C933.504 753.144 931.393 752.573 929.534 751.489C927.674 750.404 926.132 748.844 925.062 746.967L914.607 728.581C913.554 726.73 913 724.634 913 722.5C913 720.367 913.554 718.27 914.607 716.419L925.062 698.033C926.132 696.156 927.674 694.596 929.534 693.512C931.393 692.427 933.504 691.856 935.653 691.857L956.347 691.857C958.495 691.856 960.606 692.427 962.466 693.512C964.326 694.596 965.868 696.156 966.937 698.033L977.392 716.419C978.446 718.27 979 720.367 979 722.5C979 724.634 978.446 726.73 977.392 728.581L966.937 746.967C965.868 748.844 964.326 750.404 962.466 751.489C960.606 752.573 958.495 753.144 956.347 753.143L935.653 753.143Z" fill="url(#paint11_linear_3_2)"/>
<path d="M937.244 747.833L937.245 747.833L954.755 747.833L954.755 747.833C956.467 747.834 958.15 747.379 959.633 746.514C961.115 745.65 962.345 744.406 963.198 742.908C963.198 742.908 963.198 742.908 963.199 742.908L972.045 727.351L972.045 727.351C972.885 725.875 973.327 724.202 973.327 722.5C973.327 720.798 972.885 719.125 972.045 717.649L972.045 717.649L963.198 702.092C962.346 700.594 961.115 699.35 959.633 698.486C958.15 697.621 956.467 697.166 954.755 697.167L954.755 697.167L937.245 697.167L937.244 697.167C935.532 697.166 933.849 697.621 932.367 698.486C930.884 699.35 929.654 700.594 928.801 702.092L937.244 747.833ZM937.244 747.833C935.532 747.834 933.849 747.379 932.367 746.514C930.884 745.65 929.654 744.406 928.801 742.908L919.954 727.351L919.954 727.351C919.114 725.875 918.672 724.202 918.672 722.5C918.672 720.798 919.114 719.125 919.954 717.649L919.954 717.649L928.801 702.092L937.244 747.833Z" stroke="black" stroke-opacity="0.3" stroke-width="1.19093"/>
<path fill-rule="evenodd" clip-rule="evenodd" d="M971.844 718.765L963.348 704.341C962.463 702.839 961.185 701.591 959.644 700.723C958.103 699.856 956.354 699.399 954.573 699.4L937.427 699.4C935.647 699.399 933.898 699.856 932.357 700.723C930.816 701.591 929.538 702.839 928.652 704.341L920.157 718.765C920.351 718.212 920.595 717.676 920.886 717.163L929.25 702.455C930.106 700.953 931.34 699.705 932.827 698.838C934.315 697.97 936.004 697.513 937.723 697.514L954.278 697.514C955.997 697.513 957.686 697.97 959.173 698.838C960.661 699.705 961.895 700.953 962.75 702.455L971.114 717.163C971.406 717.676 971.65 718.212 971.844 718.765Z" fill="white" fill-opacity="0.8"/>
<path d="M953.637 726.36V722.87L950.798 724.507V728L953.637 726.36Z" fill="#17204D"/>
<path d="M953.637 717.407L950.692 715.705L945.883 718.483L941.074 715.705L938.129 717.407V720.5L943.019 723.325V729.185L945.883 730.839L948.747 729.185V723.325L953.637 720.5V717.407Z" fill="#17204D"/>
<path d="M958.555 717.661V714.568L955.61 712.866L952.743 714.52L955.688 716.222V719.315L958.555 717.661Z" fill="#17204D"/>
<path d="M936.078 719.315V716.222L939.023 714.52L936.156 712.866L933.211 714.568V717.661L936.078 719.315Z" fill="#17204D"/>
<path d="M938.129 726.36L940.968 728V724.507L938.129 722.87V726.36Z" fill="#17204D"/>
<path d="M948.747 731.554L945.883 733.208L943.019 731.554V734.863L945.883 736.517L948.747 734.863V731.554Z" fill="#17204D"/>
<path d="M948.641 714.52L945.883 712.928L943.125 714.52L945.883 716.113L948.641 714.52Z" fill="#17204D"/>
<path d="M955.688 721.685V727.545L950.798 730.37V733.678L958.555 729.199V720.031L955.688 721.685Z" fill="#17204D"/>
<path d="M940.968 730.37L936.078 727.545V721.685L933.211 720.031V729.199L940.968 733.678V730.37Z" fill="#17204D"/>
<path d="M941.074 713.336L945.883 710.561L950.692 713.336L953.559 711.681L945.883 707.25L938.208 711.681L941.074 713.336Z" fill="#17204D"/>
<mask id="mask10_3_2" style="mask-type:alpha" maskUnits="userSpaceOnUse" x="897" y="677" width="98" height="92">
<path d="M930.95 767.71C927.824 767.712 924.754 766.876 922.049 765.289C919.344 763.702 917.101 761.418 915.545 758.67L900.338 731.757C898.806 729.047 898 725.978 898 722.855C898 719.732 898.806 716.663 900.338 713.953L915.545 687.04C917.101 684.292 919.344 682.009 922.049 680.421C924.754 678.834 927.824 677.999 930.95 678L961.05 678C964.176 677.999 967.246 678.834 969.951 680.421C972.656 682.009 974.9 684.292 976.455 687.04L991.662 713.953C993.194 716.663 994 719.732 994 722.855C994 725.978 993.194 729.047 991.662 731.757L976.455 758.67C974.9 761.418 972.656 763.702 969.951 765.289C967.246 766.876 964.176 767.712 961.05 767.71L930.95 767.71Z" fill="white" stroke="white" stroke-opacity="0.2" stroke-width="0.746383"/>
</mask>
<g mask="url(#mask10_3_2)">
<path d="M946 773.5L970 765.5C970 765.5 935.261 753.115 924.5 734.5C913.909 716.179 920 680.5 920 680.5L895.5 696C893.333 703.167 889 717.8 889 719C889 720.2 905 751.5 913 767L946 773.5Z" fill="black" fill-opacity="0.1"/>
</g>
<mask id="mask11_3_2" style="mask-type:alpha" maskUnits="userSpaceOnUse" x="897" y="677" width="98" height="92">
<path d="M930.95 767.71C927.824 767.712 924.754 766.876 922.049 765.289C919.344 763.702 917.101 761.418 915.545 758.67L900.338 731.757C898.806 729.047 898 725.978 898 722.855C898 719.732 898.806 716.663 900.338 713.953L915.545 687.04C917.101 684.292 919.344 682.009 922.049 680.421C924.754 678.834 927.824 677.999 930.95 678L961.05 678C964.176 677.999 967.246 678.834 969.951 680.421C972.656 682.009 974.9 684.292 976.455 687.04L991.662 713.953C993.194 716.663 994 719.732 994 722.855C994 725.978 993.194 729.047 991.662 731.757L976.455 758.67C974.9 761.418 972.656 763.702 969.951 765.289C967.246 766.876 964.176 767.712 961.05 767.71L930.95 767.71Z" fill="white" stroke="white" stroke-opacity="0.2" stroke-width="0.746383"/>
</mask>
<g mask="url(#mask11_3_2)">
<path d="M1000 698.5L1006.5 732C1006.5 732 955.5 762 955 720.5C954.5 679 920 680.5 920 680.5L951 658C948.833 665.167 964 664.8 964 666C964 667.2 979 665 987 680.5L1000 698.5Z" fill="white" fill-opacity="0.1"/>
</g>
<path d="M930.95 767.71C927.824 767.712 924.754 766.877 922.049 765.289C919.344 763.702 917.101 761.418 915.545 758.67L900.338 731.757C898.806 729.047 898 725.978 898 722.855C898 719.732 898.806 716.663 900.338 713.954L915.545 687.04C917.101 684.292 919.344 682.009 922.049 680.421C924.754 678.834 927.824 677.999 930.95 678L961.05 678C964.176 677.999 967.246 678.834 969.951 680.421C972.656 682.009 974.9 684.292 976.455 687.04L991.662 713.954C993.194 716.663 994 719.732 994 722.855C994 725.978 993.194 729.047 991.662 731.757L976.455 758.67C974.9 761.418 972.656 763.702 969.951 765.289C967.246 766.877 964.176 767.712 961.05 767.71L930.95 767.71Z" fill="white" fill-opacity="0.08" stroke="white" stroke-opacity="0.2" stroke-width="0.746383"/>
<mask id="mask12_3_2" style="mask-type:alpha" maskUnits="userSpaceOnUse" x="897" y="677" width="98" height="92">
<path d="M930.95 767.71C927.824 767.712 924.754 766.876 922.049 765.289C919.344 763.702 917.101 761.418 915.545 758.67L900.338 731.757C898.806 729.047 898 725.978 898 722.855C898 719.732 898.806 716.663 900.338 713.953L915.545 687.04C917.101 684.292 919.344 682.009 922.049 680.421C924.754 678.834 927.824 677.999 930.95 678L961.05 678C964.176 677.999 967.246 678.834 969.951 680.421C972.656 682.009 974.9 684.292 976.455 687.04L991.662 713.953C993.194 716.663 994 719.732 994 722.855C994 725.978 993.194 729.047 991.662 731.757L976.455 758.67C974.9 761.418 972.656 763.702 969.951 765.289C967.246 766.876 964.176 767.712 961.05 767.71L930.95 767.71Z" fill="white" stroke="white" stroke-opacity="0.2" stroke-width="0.746383"/>
</mask>
<g mask="url(#mask12_3_2)">
<path d="M1000 698.5L1006.5 732C1006.5 732 975.5 758.5 975 717C974.5 675.5 944.5 678.5 944.5 678.5L951 658C948.833 665.167 964 664.8 964 666C964 667.2 979 665 987 680.5L1000 698.5Z" fill="url(#paint12_linear_3_2)" fill-opacity="0.4"/>
</g>
<path d="M905.653 952.143C903.504 952.144 901.393 951.573 899.534 950.489C897.674 949.404 896.132 947.844 895.062 945.967L884.607 927.581C883.554 925.73 883 923.634 883 921.5C883 919.367 883.554 917.27 884.607 915.419L895.062 897.033C896.132 895.156 897.674 893.596 899.534 892.512C901.393 891.427 903.504 890.856 905.653 890.857L926.347 890.857C928.495 890.856 930.606 891.427 932.466 892.512C934.326 893.596 935.868 895.156 936.937 897.033L947.392 915.419C948.446 917.27 949 919.367 949 921.5C949 923.634 948.446 925.73 947.392 927.581L936.937 945.967C935.868 947.844 934.326 949.404 932.466 950.489C930.606 951.573 928.495 952.144 926.347 952.143L905.653 952.143Z" fill="url(#paint13_linear_3_2)"/>
<path d="M907.244 946.833L907.245 946.833L924.755 946.833L924.755 946.833C926.467 946.834 928.15 946.379 929.633 945.514C931.115 944.65 932.345 943.406 933.198 941.908C933.198 941.908 933.198 941.908 933.199 941.908L942.045 926.351L942.045 926.351C942.885 924.875 943.327 923.202 943.327 921.5C943.327 919.798 942.885 918.125 942.045 916.649L942.045 916.649L933.198 901.092C932.346 899.594 931.115 898.35 929.633 897.486C928.15 896.621 926.467 896.166 924.755 896.167L924.755 896.167L907.245 896.167L907.244 896.167C905.532 896.166 903.849 896.621 902.367 897.486C900.884 898.35 899.654 899.594 898.801 901.092L907.244 946.833ZM907.244 946.833C905.532 946.834 903.849 946.379 902.367 945.514C900.884 944.65 899.654 943.406 898.801 941.908L889.954 926.351L889.954 926.351C889.114 924.875 888.672 923.202 888.672 921.5C888.672 919.798 889.114 918.125 889.954 916.649L889.954 916.649L898.801 901.092L907.244 946.833Z" stroke="black" stroke-opacity="0.3" stroke-width="1.19093"/>
<path fill-rule="evenodd" clip-rule="evenodd" d="M941.844 917.765L933.348 903.341C932.463 901.839 931.185 900.591 929.644 899.723C928.103 898.856 926.354 898.399 924.573 898.4L907.427 898.4C905.647 898.399 903.898 898.856 902.357 899.723C900.816 900.591 899.538 901.839 898.652 903.341L890.157 917.765C890.351 917.212 890.595 916.676 890.886 916.163L899.25 901.455C900.106 899.953 901.34 898.705 902.827 897.838C904.315 896.97 906.004 896.514 907.723 896.514L924.278 896.514C925.997 896.514 927.686 896.97 929.173 897.838C930.661 898.705 931.895 899.953 932.75 901.455L941.114 916.163C941.406 916.676 941.65 917.212 941.844 917.765Z" fill="white" fill-opacity="0.8"/>
<path d="M924.249 915.749H901.85L907.517 910.099H929.916L924.249 915.749Z" fill="#17204D"/>
<path d="M924.249 933.342H901.85L907.517 927.695H929.916" fill="#17204D"/>
<path d="M907.517 924.546H929.916L924.249 918.896H901.85" fill="#17204D"/>
<mask id="mask13_3_2" style="mask-type:alpha" maskUnits="userSpaceOnUse" x="867" y="876" width="98" height="92">
<path d="M900.95 966.71C897.824 966.712 894.754 965.876 892.049 964.289C889.344 962.702 887.101 960.418 885.545 957.67L870.338 930.757C868.806 928.047 868 924.978 868 921.855C868 918.732 868.806 915.663 870.338 912.953L885.545 886.04C887.101 883.292 889.344 881.009 892.049 879.421C894.754 877.834 897.824 876.999 900.95 877L931.05 877C934.176 876.999 937.246 877.834 939.951 879.421C942.656 881.009 944.9 883.292 946.455 886.04L961.662 912.953C963.194 915.663 964 918.732 964 921.855C964 924.978 963.194 928.047 961.662 930.757L946.455 957.67C944.9 960.418 942.656 962.702 939.951 964.289C937.246 965.876 934.176 966.712 931.05 966.71L900.95 966.71Z" fill="white" stroke="white" stroke-opacity="0.2" stroke-width="0.746383"/>
</mask>
<g mask="url(#mask13_3_2)">
<path d="M916 972.5L940 964.5C940 964.5 905.261 952.115 894.5 933.5C883.909 915.179 890 879.5 890 879.5L865.5 895C863.333 902.167 859 916.8 859 918C859 919.2 875 950.5 883 966L916 972.5Z" fill="black" fill-opacity="0.1"/>
</g>
<mask id="mask14_3_2" style="mask-type:alpha" maskUnits="userSpaceOnUse" x="867" y="876" width="98" height="92">
<path d="M900.95 966.71C897.824 966.712 894.754 965.876 892.049 964.289C889.344 962.702 887.101 960.418 885.545 957.67L870.338 930.757C868.806 928.047 868 924.978 868 921.855C868 918.732 868.806 915.663 870.338 912.953L885.545 886.04C887.101 883.292 889.344 881.009 892.049 879.421C894.754 877.834 897.824 876.999 900.95 877L931.05 877C934.176 876.999 937.246 877.834 939.951 879.421C942.656 881.009 944.9 883.292 946.455 886.04L961.662 912.953C963.194 915.663 964 918.732 964 921.855C964 924.978 963.194 928.047 961.662 930.757L946.455 957.67C944.9 960.418 942.656 962.702 939.951 964.289C937.246 965.876 934.176 966.712 931.05 966.71L900.95 966.71Z" fill="white" stroke="white" stroke-opacity="0.2" stroke-width="0.746383"/>
</mask>
<g mask="url(#mask14_3_2)">
<path d="M970 897.5L976.5 931C976.5 931 925.5 961 925 919.5C924.5 878 890 879.5 890 879.5L921 857C918.833 864.167 934 863.8 934 865C934 866.2 949 864 957 879.5L970 897.5Z" fill="white" fill-opacity="0.1"/>
</g>
<path d="M900.95 966.71C897.824 966.712 894.754 965.877 892.049 964.289C889.344 962.702 887.101 960.418 885.545 957.67L870.338 930.757C868.806 928.047 868 924.978 868 921.855C868 918.732 868.806 915.663 870.338 912.954L885.545 886.04C887.101 883.292 889.344 881.009 892.049 879.421C894.754 877.834 897.824 876.999 900.95 877L931.05 877C934.176 876.999 937.246 877.834 939.951 879.421C942.656 881.009 944.9 883.292 946.455 886.04L961.662 912.954C963.194 915.663 964 918.732 964 921.855C964 924.978 963.194 928.047 961.662 930.757L946.455 957.67C944.9 960.418 942.656 962.702 939.951 964.289C937.246 965.877 934.176 966.712 931.05 966.71L900.95 966.71Z" fill="white" fill-opacity="0.08" stroke="white" stroke-opacity="0.2" stroke-width="0.746383"/>
<mask id="mask15_3_2" style="mask-type:alpha" maskUnits="userSpaceOnUse" x="867" y="876" width="98" height="92">
<path d="M900.95 966.71C897.824 966.712 894.754 965.876 892.049 964.289C889.344 962.702 887.101 960.418 885.545 957.67L870.338 930.757C868.806 928.047 868 924.978 868 921.855C868 918.732 868.806 915.663 870.338 912.953L885.545 886.04C887.101 883.292 889.344 881.009 892.049 879.421C894.754 877.834 897.824 876.999 900.95 877L931.05 877C934.176 876.999 937.246 877.834 939.951 879.421C942.656 881.009 944.9 883.292 946.455 886.04L961.662 912.953C963.194 915.663 964 918.732 964 921.855C964 924.978 963.194 928.047 961.662 930.757L946.455 957.67C944.9 960.418 942.656 962.702 939.951 964.289C937.246 965.876 934.176 966.712 931.05 966.71L900.95 966.71Z" fill="white" stroke="white" stroke-opacity="0.2" stroke-width="0.746383"/>
</mask>
<g mask="url(#mask15_3_2)">
<path d="M970 897.5L976.5 931C976.5 931 945.5 957.5 945 916C944.5 874.5 914.5 877.5 914.5 877.5L921 857C918.833 864.167 934 863.8 934 865C934 866.2 949 864 957 879.5L970 897.5Z" fill="url(#paint14_linear_3_2)" fill-opacity="0.4"/>
</g>
<path d="M767.653 890.143C765.504 890.144 763.393 889.573 761.534 888.489C759.674 887.404 758.132 885.844 757.062 883.967L746.607 865.581C745.554 863.73 745 861.634 745 859.5C745 857.367 745.554 855.27 746.607 853.419L757.062 835.033C758.132 833.156 759.674 831.596 761.534 830.512C763.393 829.427 765.504 828.856 767.653 828.857L788.347 828.857C790.495 828.856 792.606 829.427 794.466 830.512C796.326 831.596 797.868 833.156 798.937 835.033L809.392 853.419C810.446 855.27 811 857.367 811 859.5C811 861.634 810.446 863.73 809.392 865.581L798.937 883.967C797.868 885.844 796.326 887.404 794.466 888.489C792.606 889.573 790.495 890.144 788.347 890.143L767.653 890.143Z" fill="url(#paint15_linear_3_2)"/>
<path d="M769.244 884.833L769.245 884.833L786.755 884.833L786.755 884.833C788.467 884.834 790.15 884.379 791.633 883.514C793.115 882.65 794.345 881.406 795.198 879.908C795.198 879.908 795.198 879.908 795.199 879.908L804.045 864.351L804.045 864.351C804.885 862.875 805.327 861.202 805.327 859.5C805.327 857.798 804.885 856.125 804.045 854.649L804.045 854.649L795.198 839.092C794.346 837.594 793.115 836.35 791.633 835.486C790.15 834.621 788.467 834.166 786.755 834.167L786.755 834.167L769.245 834.167L769.244 834.167C767.532 834.166 765.849 834.621 764.367 835.486C762.884 836.35 761.654 837.594 760.801 839.092L769.244 884.833ZM769.244 884.833C767.532 884.834 765.849 884.379 764.367 883.514C762.884 882.65 761.654 881.406 760.801 879.908L751.954 864.351L751.954 864.351C751.114 862.875 750.672 861.202 750.672 859.5C750.672 857.798 751.114 856.125 751.954 854.649L751.954 854.649L760.801 839.092L769.244 884.833Z" stroke="black" stroke-opacity="0.3" stroke-width="1.19093"/>
<path fill-rule="evenodd" clip-rule="evenodd" d="M803.844 855.765L795.348 841.341C794.463 839.839 793.185 838.591 791.644 837.723C790.103 836.856 788.354 836.399 786.573 836.4L769.427 836.4C767.647 836.399 765.898 836.856 764.357 837.723C762.816 838.591 761.538 839.839 760.652 841.341L752.157 855.765C752.351 855.212 752.595 854.676 752.886 854.163L761.25 839.455C762.106 837.953 763.34 836.705 764.827 835.838C766.315 834.97 768.004 834.514 769.723 834.514L786.278 834.514C787.997 834.514 789.686 834.97 791.173 835.838C792.661 836.705 793.895 837.953 794.75 839.455L803.114 854.163C803.406 854.676 803.65 855.212 803.844 855.765Z" fill="white" fill-opacity="0.8"/>
<path d="M772.826 861.57C774.033 861.57 775.011 860.592 775.011 859.385C775.011 858.178 774.033 857.2 772.826 857.2C771.619 857.2 770.641 858.178 770.641 859.385C770.641 860.592 771.619 861.57 772.826 861.57Z" fill="#17204D"/>
<path d="M782.941 861.57C784.148 861.57 785.126 860.592 785.126 859.385C785.126 858.178 784.148 857.2 782.941 857.2C781.734 857.2 780.756 858.178 780.756 859.385C780.756 860.592 781.734 861.57 782.941 861.57Z" fill="#17204D"/>
<path d="M775.354 865.949C776.561 865.949 777.54 864.97 777.54 863.764C777.54 862.557 776.561 861.578 775.354 861.578C774.148 861.578 773.169 862.557 773.169 863.764C773.169 864.97 774.148 865.949 775.354 865.949Z" fill="#17204D"/>
<path d="M780.412 857.192C781.619 857.192 782.597 856.213 782.597 855.006C782.597 853.8 781.619 852.821 780.412 852.821C779.205 852.821 778.227 853.8 778.227 855.006C778.227 856.213 779.205 857.192 780.412 857.192Z" fill="#17204D"/>
<path d="M780.412 865.949C781.619 865.949 782.597 864.97 782.597 863.764C782.597 862.557 781.619 861.578 780.412 861.578C779.205 861.578 778.227 862.557 778.227 863.764C778.227 864.97 779.205 865.949 780.412 865.949Z" fill="#17204D"/>
<path d="M775.354 857.192C776.561 857.192 777.54 856.213 777.54 855.006C777.54 853.8 776.561 852.821 775.354 852.821C774.148 852.821 773.169 853.8 773.169 855.006C773.169 856.213 774.148 857.192 775.354 857.192Z" fill="#17204D"/>
<path d="M789.055 860.575C789.688 860.575 790.2 860.062 790.2 859.43C790.2 858.797 789.688 858.284 789.055 858.284C788.422 858.284 787.909 858.797 787.909 859.43C787.909 860.062 788.422 860.575 789.055 860.575Z" fill="#17204D"/>
<path d="M766.712 860.575C767.345 860.575 767.857 860.062 767.857 859.43C767.857 858.797 767.345 858.284 766.712 858.284C766.079 858.284 765.566 858.797 765.566 859.43C765.566 860.062 766.079 860.575 766.712 860.575Z" fill="#17204D"/>
<path d="M762.649 860.156C763.05 860.156 763.375 859.831 763.375 859.43C763.375 859.028 763.05 858.703 762.649 858.703C762.248 858.703 761.922 859.028 761.922 859.43C761.922 859.831 762.248 860.156 762.649 860.156Z" fill="#17204D"/>
<path d="M793.118 860.156C793.519 860.156 793.844 859.831 793.844 859.43C793.844 859.028 793.519 858.703 793.118 858.703C792.716 858.703 792.391 859.028 792.391 859.43C792.391 859.831 792.716 860.156 793.118 860.156Z" fill="#17204D"/>
<path d="M783.469 850.899C784.102 850.899 784.615 850.386 784.615 849.753C784.615 849.12 784.102 848.608 783.469 848.608C782.836 848.608 782.323 849.12 782.323 849.753C782.323 850.386 782.836 850.899 783.469 850.899Z" fill="#17204D"/>
<path d="M772.298 870.252C772.93 870.252 773.443 869.739 773.443 869.106C773.443 868.473 772.93 867.961 772.298 867.961C771.665 867.961 771.152 868.473 771.152 869.106C771.152 869.739 771.665 870.252 772.298 870.252Z" fill="#17204D"/>
<path d="M770.266 873.348C770.667 873.348 770.993 873.023 770.993 872.621C770.993 872.22 770.667 871.895 770.266 871.895C769.865 871.895 769.54 872.22 769.54 872.621C769.54 873.023 769.865 873.348 770.266 873.348Z" fill="#17204D"/>
<path d="M785.5 846.964C785.902 846.964 786.227 846.639 786.227 846.238C786.227 845.837 785.902 845.511 785.5 845.511C785.099 845.511 784.774 845.837 784.774 846.238C784.774 846.639 785.099 846.964 785.5 846.964Z" fill="#17204D"/>
<path d="M772.298 850.899C772.93 850.899 773.443 850.386 773.443 849.753C773.443 849.12 772.93 848.608 772.298 848.608C771.665 848.608 771.152 849.12 771.152 849.753C771.152 850.386 771.665 850.899 772.298 850.899Z" fill="#17204D"/>
<path d="M783.469 870.252C784.102 870.252 784.615 869.739 784.615 869.106C784.615 868.473 784.102 867.961 783.469 867.961C782.836 867.961 782.323 868.473 782.323 869.106C782.323 869.739 782.836 870.252 783.469 870.252Z" fill="#17204D"/>
<path d="M785.5 873.348C785.902 873.348 786.227 873.023 786.227 872.621C786.227 872.22 785.902 871.895 785.5 871.895C785.099 871.895 784.774 872.22 784.774 872.621C784.774 873.023 785.099 873.348 785.5 873.348Z" fill="#17204D"/>
<path d="M770.266 846.964C770.667 846.964 770.993 846.639 770.993 846.238C770.993 845.837 770.667 845.511 770.266 845.511C769.865 845.511 769.54 845.837 769.54 846.238C769.54 846.639 769.865 846.964 770.266 846.964Z" fill="#17204D"/>
<path d="M777.883 852.005C778.612 852.005 779.202 851.415 779.202 850.686C779.202 849.958 778.612 849.368 777.883 849.368C777.155 849.368 776.564 849.958 776.564 850.686C776.564 851.415 777.155 852.005 777.883 852.005Z" fill="#17204D"/>
<path d="M777.883 846.375C778.382 846.375 778.786 845.971 778.786 845.472C778.786 844.974 778.382 844.57 777.883 844.57C777.385 844.57 776.981 844.974 776.981 845.472C776.981 845.971 777.385 846.375 777.883 846.375Z" fill="#17204D"/>
<path d="M777.883 869.492C778.612 869.492 779.202 868.901 779.202 868.173C779.202 867.444 778.612 866.854 777.883 866.854C777.155 866.854 776.564 867.444 776.564 868.173C776.564 868.901 777.155 869.492 777.883 869.492Z" fill="#17204D"/>
<path d="M777.883 874.29C778.382 874.29 778.786 873.886 778.786 873.387C778.786 872.889 778.382 872.485 777.883 872.485C777.385 872.485 776.981 872.889 776.981 873.387C776.981 873.886 777.385 874.29 777.883 874.29Z" fill="#17204D"/>
<path d="M770.311 856.378C771.039 856.378 771.63 855.788 771.63 855.059C771.63 854.331 771.039 853.741 770.311 853.741C769.582 853.741 768.992 854.331 768.992 855.059C768.992 855.788 769.582 856.378 770.311 856.378Z" fill="#17204D"/>
<path d="M765.795 853.352C766.294 853.352 766.698 852.948 766.698 852.45C766.698 851.951 766.294 851.547 765.795 851.547C765.297 851.547 764.893 851.951 764.893 852.45C764.893 852.948 765.297 853.352 765.795 853.352Z" fill="#17204D"/>
<path d="M785.456 865.119C786.184 865.119 786.775 864.528 786.775 863.8C786.775 863.072 786.184 862.481 785.456 862.481C784.727 862.481 784.137 863.072 784.137 863.8C784.137 864.528 784.727 865.119 785.456 865.119Z" fill="#17204D"/>
<path d="M789.971 867.312C790.47 867.312 790.874 866.908 790.874 866.41C790.874 865.911 790.47 865.507 789.971 865.507C789.473 865.507 789.069 865.911 789.069 866.41C789.069 866.908 789.473 867.312 789.971 867.312Z" fill="#17204D"/>
<path d="M770.311 865.119C771.039 865.119 771.63 864.528 771.63 863.8C771.63 863.072 771.039 862.481 770.311 862.481C769.582 862.481 768.992 863.072 768.992 863.8C768.992 864.528 769.582 865.119 770.311 865.119Z" fill="#17204D"/>
<path d="M765.795 867.312C766.294 867.312 766.698 866.908 766.698 866.41C766.698 865.911 766.294 865.507 765.795 865.507C765.297 865.507 764.893 865.911 764.893 866.41C764.893 866.908 765.297 867.312 765.795 867.312Z" fill="#17204D"/>
<path d="M785.456 856.378C786.184 856.378 786.775 855.788 786.775 855.059C786.775 854.331 786.184 853.741 785.456 853.741C784.727 853.741 784.137 854.331 784.137 855.059C784.137 855.788 784.727 856.378 785.456 856.378Z" fill="#17204D"/>
<path d="M789.971 853.352C790.47 853.352 790.874 852.948 790.874 852.45C790.874 851.951 790.47 851.547 789.971 851.547C789.473 851.547 789.069 851.951 789.069 852.45C789.069 852.948 789.473 853.352 789.971 853.352Z" fill="#17204D"/>
<mask id="mask16_3_2" style="mask-type:alpha" maskUnits="userSpaceOnUse" x="729" y="814" width="98" height="92">
<path d="M762.95 904.71C759.824 904.712 756.754 903.876 754.049 902.289C751.344 900.702 749.101 898.418 747.545 895.67L732.338 868.757C730.806 866.047 730 862.978 730 859.855C730 856.732 730.806 853.663 732.338 850.953L747.545 824.04C749.101 821.292 751.344 819.009 754.049 817.421C756.754 815.834 759.824 814.999 762.95 815L793.05 815C796.176 814.999 799.246 815.834 801.951 817.421C804.656 819.009 806.9 821.292 808.455 824.04L823.662 850.953C825.194 853.663 826 856.732 826 859.855C826 862.978 825.194 866.047 823.662 868.757L808.455 895.67C806.9 898.418 804.656 900.702 801.951 902.289C799.246 903.876 796.176 904.712 793.05 904.71L762.95 904.71Z" fill="white" stroke="white" stroke-opacity="0.2" stroke-width="0.746383"/>
</mask>
<g mask="url(#mask16_3_2)">
<path d="M778 910.5L802 902.5C802 902.5 767.261 890.115 756.5 871.5C745.909 853.179 752 817.5 752 817.5L727.5 833C725.333 840.167 721 854.8 721 856C721 857.2 737 888.5 745 904L778 910.5Z" fill="black" fill-opacity="0.1"/>
</g>
<mask id="mask17_3_2" style="mask-type:alpha" maskUnits="userSpaceOnUse" x="729" y="814" width="98" height="92">
<path d="M762.95 904.71C759.824 904.712 756.754 903.876 754.049 902.289C751.344 900.702 749.101 898.418 747.545 895.67L732.338 868.757C730.806 866.047 730 862.978 730 859.855C730 856.732 730.806 853.663 732.338 850.953L747.545 824.04C749.101 821.292 751.344 819.009 754.049 817.421C756.754 815.834 759.824 814.999 762.95 815L793.05 815C796.176 814.999 799.246 815.834 801.951 817.421C804.656 819.009 806.9 821.292 808.455 824.04L823.662 850.953C825.194 853.663 826 856.732 826 859.855C826 862.978 825.194 866.047 823.662 868.757L808.455 895.67C806.9 898.418 804.656 900.702 801.951 902.289C799.246 903.876 796.176 904.712 793.05 904.71L762.95 904.71Z" fill="white" stroke="white" stroke-opacity="0.2" stroke-width="0.746383"/>
</mask>
<g mask="url(#mask17_3_2)">
<path d="M832 835.5L838.5 869C838.5 869 787.5 899 787 857.5C786.5 816 752 817.5 752 817.5L783 795C780.833 802.167 796 801.8 796 803C796 804.2 811 802 819 817.5L832 835.5Z" fill="white" fill-opacity="0.1"/>
</g>
<path d="M762.95 904.71C759.824 904.712 756.754 903.877 754.049 902.289C751.344 900.702 749.101 898.418 747.545 895.67L732.338 868.757C730.806 866.047 730 862.978 730 859.855C730 856.732 730.806 853.663 732.338 850.954L747.545 824.04C749.101 821.292 751.344 819.009 754.049 817.421C756.754 815.834 759.824 814.999 762.95 815L793.05 815C796.176 814.999 799.246 815.834 801.951 817.421C804.656 819.009 806.9 821.292 808.455 824.04L823.662 850.954C825.194 853.663 826 856.732 826 859.855C826 862.978 825.194 866.047 823.662 868.757L808.455 895.67C806.9 898.418 804.656 900.702 801.951 902.289C799.246 903.877 796.176 904.712 793.05 904.71L762.95 904.71Z" fill="white" fill-opacity="0.08" stroke="white" stroke-opacity="0.2" stroke-width="0.746383"/>
<mask id="mask18_3_2" style="mask-type:alpha" maskUnits="userSpaceOnUse" x="729" y="814" width="98" height="92">
<path d="M762.95 904.71C759.824 904.712 756.754 903.876 754.049 902.289C751.344 900.702 749.101 898.418 747.545 895.67L732.338 868.757C730.806 866.047 730 862.978 730 859.855C730 856.732 730.806 853.663 732.338 850.953L747.545 824.04C749.101 821.292 751.344 819.009 754.049 817.421C756.754 815.834 759.824 814.999 762.95 815L793.05 815C796.176 814.999 799.246 815.834 801.951 817.421C804.656 819.009 806.9 821.292 808.455 824.04L823.662 850.953C825.194 853.663 826 856.732 826 859.855C826 862.978 825.194 866.047 823.662 868.757L808.455 895.67C806.9 898.418 804.656 900.702 801.951 902.289C799.246 903.876 796.176 904.712 793.05 904.71L762.95 904.71Z" fill="white" stroke="white" stroke-opacity="0.2" stroke-width="0.746383"/>
</mask>
<g mask="url(#mask18_3_2)">
<path d="M832 835.5L838.5 869C838.5 869 807.5 895.5 807 854C806.5 812.5 776.5 815.5 776.5 815.5L783 795C780.833 802.167 796 801.8 796 803C796 804.2 811 802 819 817.5L832 835.5Z" fill="url(#paint16_linear_3_2)" fill-opacity="0.4"/>
</g>
<path d="M963.411 471.907C963.413 464.068 961.344 456.367 957.414 449.585C953.483 442.802 947.831 437.178 941.028 433.283L874.394 395.152C867.683 391.311 860.085 389.291 852.353 389.291C844.621 389.291 837.024 391.311 830.313 395.152L763.678 433.283C756.876 437.178 751.224 442.802 747.293 449.585C743.363 456.367 741.294 464.068 741.296 471.907V547.377C741.294 555.216 743.363 562.916 747.293 569.699C751.224 576.481 756.876 582.105 763.678 586.001L830.313 624.131C837.024 627.972 844.621 629.993 852.353 629.993C860.085 629.993 867.683 627.972 874.394 624.131L941.028 586.001C947.831 582.105 953.484 576.481 957.414 569.698C961.344 562.915 963.413 555.214 963.411 547.375V471.907ZM965.703 471.907V547.377C965.705 555.619 963.529 563.716 959.396 570.847C955.263 577.979 949.32 583.892 942.167 587.988L875.532 626.118C868.475 630.157 860.484 632.282 852.353 632.282C844.221 632.282 836.231 630.157 829.174 626.118L762.539 587.988C755.386 583.891 749.443 577.978 745.31 570.846C741.178 563.715 739.003 555.618 739.006 547.375V471.907C739.003 463.665 741.179 455.568 745.312 448.436C749.445 441.305 755.389 435.392 762.542 431.296L829.176 393.166C836.234 389.126 844.224 387.001 852.355 387.001C860.487 387.001 868.477 389.126 875.535 393.166L942.169 431.296C949.322 435.392 955.265 441.305 959.398 448.437C963.53 455.568 965.705 463.665 965.703 471.907Z" stroke="#919097" stroke-width="4"/>
<path d="M963.439 547.385C963.441 555.225 961.371 562.927 957.439 569.711C953.508 576.495 947.854 582.12 941.05 586.016L874.4 624.153C867.687 627.995 860.088 630.016 852.354 630.016C844.62 630.016 837.02 627.995 830.308 624.153L763.657 586.015C756.853 582.119 751.199 576.494 747.267 569.71C743.336 562.927 741.266 555.225 741.267 547.385V471.898C741.267 464.059 743.337 456.358 747.268 449.575C751.2 442.792 756.853 437.168 763.657 433.273L830.308 395.128C837.02 391.287 844.62 389.266 852.354 389.266C860.088 389.266 867.687 391.287 874.4 395.128L941.05 433.273C947.853 437.168 953.506 442.792 957.438 449.575C961.37 456.358 963.44 464.059 963.439 471.898V547.385Z" fill="#1D1B29"/>
<path d="M872.535 468.268V473.078C872.535 476.178 870.771 478.691 867.676 478.691H841.254C838.161 478.691 836.451 476.178 836.451 473.078V468.268C836.451 465.168 838.161 462.656 841.254 462.656H867.676C870.771 462.656 872.535 465.168 872.535 468.268Z" fill="#CB3CFE"/>
<path d="M820.908 556.453C819.847 556.379 818.783 556.389 817.723 556.481C815.164 556.897 814.629 555.713 814.519 553.357C814.195 544.166 810.448 535.429 804.013 528.858C797.578 522.288 788.92 518.36 779.737 517.845C776.067 517.617 775.385 516.325 775.456 513.042C775.676 502.89 775.562 502.887 785.669 504.217C808.811 507.261 827.354 527.595 828.484 551.168C828.732 556.345 828.707 556.373 823.698 556.413C822.768 556.421 821.838 556.413 820.908 556.413V556.453Z" fill="#2DF5FE"/>
<path d="M887.983 556.424C879.793 556.495 879.533 556.384 880.799 547.831C882.301 535.781 888.109 524.681 897.152 516.577C906.195 508.473 917.863 503.911 930.005 503.734C932.683 503.633 933.359 504.653 933.439 507.16C933.756 516.972 933.829 516.97 924.078 518.559C908.993 521.018 895.424 536.158 894.995 551.675C894.883 555.736 893.884 557.171 889.971 556.449C889.31 556.386 888.644 556.378 887.982 556.424" fill="#F6AF44"/>
<path d="M854.298 519.421C855.805 518.916 855.99 517.637 856.531 516.629C869.974 491.598 890.578 476.56 918.613 471.702C922.685 471.129 926.789 470.804 930.901 470.73C932.993 470.625 933.743 471.364 933.385 474.003C933.091 476.468 933.091 478.959 933.385 481.424C933.692 484.418 932.571 485.057 930.095 485.071C900.773 485.228 874.959 504.684 865.449 532.072C863.07 538.722 861.86 545.733 861.872 552.795C861.901 555.744 860.997 556.857 857.964 556.491C855.446 556.243 852.911 556.227 850.39 556.445C847.88 556.612 847.212 555.543 847.246 553.183C847.65 523.702 826.127 495.383 796.008 487.314C790.667 485.643 785.08 484.892 779.488 485.093C776.181 485.346 775.247 484.007 775.509 481.001C775.717 479.144 775.712 477.269 775.494 475.413C774.901 471.319 776.774 470.483 780.461 470.706C812.559 472.641 836.478 487.628 852.215 515.669C852.916 516.918 853.604 518.18 854.298 519.417" fill="url(#paint17_linear_3_2)"/>
</g>
<defs>
<filter id="filter0_b_3_2" x="-349" y="-107.088" width="1298" height="1233.4" filterUnits="userSpaceOnUse" color-interpolation-filters="sRGB">
<feFlood flood-opacity="0" result="BackgroundImageFix"/>
<feGaussianBlur in="BackgroundImageFix" stdDeviation="47"/>
<feComposite in2="SourceAlpha" operator="in" result="effect1_backgroundBlur_3_2"/>
<feBlend mode="normal" in="SourceGraphic" in2="effect1_backgroundBlur_3_2" result="shape"/>
</filter>
<linearGradient id="paint0_linear_3_2" x1="581.978" y1="118.02" x2="933.553" y2="118.02" gradientUnits="userSpaceOnUse">
<stop stop-color="white"/>
<stop offset="1" stop-color="white" stop-opacity="0"/>
</linearGradient>
<linearGradient id="paint1_linear_3_2" x1="581.515" y1="813.541" x2="932.717" y2="813.541" gradientUnits="userSpaceOnUse">
<stop stop-color="white"/>
<stop offset="1" stop-color="white" stop-opacity="0"/>
</linearGradient>
<linearGradient id="paint2_linear_3_2" x1="563" y1="374.5" x2="1152" y2="374.5" gradientUnits="userSpaceOnUse">
<stop stop-color="white"/>
<stop offset="1" stop-color="white" stop-opacity="0"/>
</linearGradient>
<linearGradient id="paint3_linear_3_2" x1="722" y1="466.5" x2="14.5" y2="433" gradientUnits="userSpaceOnUse">
<stop stop-color="#1D1B29"/>
<stop offset="1" stop-color="white" stop-opacity="0"/>
</linearGradient>
<linearGradient id="paint4_linear_3_2" x1="3.99997" y1="512.238" x2="851.719" y2="512.417" gradientUnits="userSpaceOnUse">
<stop stop-color="white"/>
<stop offset="1" stop-color="white" stop-opacity="0"/>
</linearGradient>
<linearGradient id="paint5_linear_3_2" x1="774" y1="187.143" x2="774" y2="125.857" gradientUnits="userSpaceOnUse">
<stop stop-color="#E1E6F0"/>
<stop offset="1" stop-color="#939CCC"/>
</linearGradient>
<linearGradient id="paint6_linear_3_2" x1="816.758" y1="103.788" x2="777.485" y2="139.789" gradientUnits="userSpaceOnUse">
<stop stop-color="white"/>
<stop offset="1" stop-color="white" stop-opacity="0"/>
</linearGradient>
<linearGradient id="paint7_linear_3_2" x1="948" y1="337.143" x2="948" y2="275.857" gradientUnits="userSpaceOnUse">
<stop stop-color="#E1E6F0"/>
<stop offset="1" stop-color="#939CCC"/>
</linearGradient>
<linearGradient id="paint8_linear_3_2" x1="990.758" y1="253.788" x2="951.485" y2="289.789" gradientUnits="userSpaceOnUse">
<stop stop-color="white"/>
<stop offset="1" stop-color="white" stop-opacity="0"/>
</linearGradient>
<linearGradient id="paint9_linear_3_2" x1="905" y1="170.143" x2="905" y2="108.857" gradientUnits="userSpaceOnUse">
<stop stop-color="#E1E6F0"/>
<stop offset="1" stop-color="#939CCC"/>
</linearGradient>
<linearGradient id="paint10_linear_3_2" x1="947.758" y1="86.7883" x2="908.485" y2="122.789" gradientUnits="userSpaceOnUse">
<stop stop-color="white"/>
<stop offset="1" stop-color="white" stop-opacity="0"/>
</linearGradient>
<linearGradient id="paint11_linear_3_2" x1="946" y1="753.143" x2="946" y2="691.857" gradientUnits="userSpaceOnUse">
<stop stop-color="#E1E6F0"/>
<stop offset="1" stop-color="#939CCC"/>
</linearGradient>
<linearGradient id="paint12_linear_3_2" x1="988.758" y1="669.788" x2="949.485" y2="705.789" gradientUnits="userSpaceOnUse">
<stop stop-color="white"/>
<stop offset="1" stop-color="white" stop-opacity="0"/>
</linearGradient>
<linearGradient id="paint13_linear_3_2" x1="916" y1="952.143" x2="916" y2="890.857" gradientUnits="userSpaceOnUse">
<stop stop-color="#E1E6F0"/>
<stop offset="1" stop-color="#939CCC"/>
</linearGradient>
<linearGradient id="paint14_linear_3_2" x1="958.758" y1="868.788" x2="919.485" y2="904.789" gradientUnits="userSpaceOnUse">
<stop stop-color="white"/>
<stop offset="1" stop-color="white" stop-opacity="0"/>
</linearGradient>
<linearGradient id="paint15_linear_3_2" x1="778" y1="890.143" x2="778" y2="828.857" gradientUnits="userSpaceOnUse">
<stop stop-color="#E1E6F0"/>
<stop offset="1" stop-color="#939CCC"/>
</linearGradient>
<linearGradient id="paint16_linear_3_2" x1="820.758" y1="806.788" x2="781.485" y2="842.789" gradientUnits="userSpaceOnUse">
<stop stop-color="white"/>
<stop offset="1" stop-color="white" stop-opacity="0"/>
</linearGradient>
<linearGradient id="paint17_linear_3_2" x1="775.386" y1="508.892" x2="933.44" y2="506.273" gradientUnits="userSpaceOnUse">
<stop stop-color="#29FAFE"/>
<stop offset="0.522" stop-color="#DA2CFE"/>
<stop offset="1" stop-color="#F7B53B"/>
</linearGradient>
<clipPath id="clip0_3_2">
<rect width="1440" height="1024" fill="white"/>
</clipPath>
</defs>
</svg>
