<svg width="24" height="24" viewBox="0 0 24 24" fill="none" xmlns="http://www.w3.org/2000/svg">
<path d="M12.0003 21.7479C11.5079 21.7484 11.0202 21.6515 10.5654 21.4627C10.1106 21.2739 9.69762 20.997 9.35029 20.6479L8.90829 20.2069C8.76758 20.0665 8.57707 19.9874 8.37829 19.9869H7.75729C6.76358 19.9859 5.81088 19.5906 5.10822 18.888C4.40556 18.1853 4.01035 17.2326 4.00929 16.2389V15.6179C4.00878 15.4191 3.9297 15.2286 3.78929 15.0879L3.34829 14.6459C2.64603 13.9428 2.25159 12.9897 2.25159 11.9959C2.25159 11.0022 2.64603 10.049 3.34829 9.34592L3.78929 8.90392C3.9297 8.76322 4.00878 8.5727 4.00929 8.37392V7.75692C4.01035 6.76321 4.40556 5.81051 5.10822 5.10785C5.81088 4.4052 6.76358 4.00998 7.75729 4.00892H8.37829C8.57707 4.00842 8.76758 3.92934 8.90829 3.78892L9.35029 3.34792C10.0534 2.64567 11.0065 2.25122 12.0003 2.25122C12.994 2.25122 13.9472 2.64567 14.6503 3.34792L15.0923 3.78892C15.233 3.92934 15.4235 4.00842 15.6223 4.00892H16.2433C17.237 4.00998 18.1897 4.4052 18.8924 5.10785C19.595 5.81051 19.9902 6.76321 19.9913 7.75692V8.37792C19.9918 8.5767 20.0709 8.76722 20.2113 8.90792L20.6523 9.34992C21.3545 10.053 21.749 11.0062 21.749 11.9999C21.749 12.9937 21.3545 13.9468 20.6523 14.6499L20.2113 15.0919C20.0709 15.2326 19.9918 15.4231 19.9913 15.6219V16.2429C19.9902 17.2366 19.595 18.1893 18.8924 18.892C18.1897 19.5946 17.237 19.9899 16.2433 19.9909H15.6223C15.4237 19.9915 15.2333 20.0701 15.0923 20.2099L14.6503 20.6519C14.3026 21.0003 13.8895 21.2764 13.4347 21.4645C12.9799 21.6526 12.4924 21.7489 12.0003 21.7479ZM11.5303 14.5299L15.5303 10.5299C15.6628 10.3877 15.7349 10.1997 15.7315 10.0054C15.728 9.8111 15.6493 9.62571 15.5119 9.4883C15.3745 9.35089 15.1891 9.27217 14.9948 9.26875C14.8005 9.26532 14.6125 9.33744 14.4703 9.46992L11.0003 12.9389L9.53029 11.4699C9.38811 11.3374 9.20007 11.2653 9.00576 11.2687C8.81146 11.2722 8.62608 11.3509 8.48867 11.4883C8.35125 11.6257 8.27254 11.8111 8.26911 12.0054C8.26568 12.1997 8.33781 12.3877 8.47029 12.5299L10.4703 14.5299C10.5398 14.5997 10.6224 14.6551 10.7133 14.6929C10.8043 14.7306 10.9018 14.7501 11.0003 14.7501C11.0988 14.7501 11.1963 14.7306 11.2872 14.6929C11.3782 14.6551 11.4608 14.5997 11.5303 14.5299Z" fill="white"/>
</svg>
