<svg width="394" height="348" viewBox="0 0 394 348" fill="none" xmlns="http://www.w3.org/2000/svg">
<g filter="url(#filter0_i_268_4855)">
<path d="M127.683 209.07C122.39 206.017 118.009 201.602 114.981 196.271C111.954 190.94 110.387 184.882 110.441 178.71L111 118.287C111.056 112.202 112.691 106.22 115.743 100.933C118.796 95.6458 123.159 91.2384 128.401 88.1482L180.449 57.452C185.768 54.3195 191.797 52.6469 197.928 52.6034C204.059 52.5599 210.073 54.1469 215.363 57.2041L266.317 86.6227C271.61 89.6753 275.991 94.0903 279.019 99.4213C282.046 104.752 283.613 110.81 283.559 116.982L283 177.406C282.944 183.49 281.309 189.473 278.257 194.76C275.204 200.047 270.841 204.454 265.599 207.544L213.551 238.241C208.232 241.373 202.203 243.046 196.072 243.089C189.942 243.133 183.927 241.546 178.637 238.489L127.683 209.07Z" fill="url(#paint0_linear_268_4855)"/>
</g>
<path d="M109.941 178.706L109.941 178.706L110.5 118.282C110.557 112.111 112.215 106.044 115.31 100.683C118.406 95.3214 122.831 90.8517 128.147 87.7175L180.195 57.0213L180.196 57.0212C185.589 53.8443 191.705 52.1476 197.924 52.1034C204.144 52.0592 210.246 53.6693 215.613 56.7712L266.567 86.1897C271.937 89.2868 276.382 93.7662 279.454 99.1744C282.525 104.583 284.113 110.727 284.059 116.987L284.059 116.987L283.5 177.41C283.443 183.581 281.785 189.649 278.69 195.01C275.594 200.371 271.169 204.841 265.853 207.975L213.805 238.671L213.804 238.672C208.411 241.848 202.295 243.545 196.076 243.589C189.856 243.633 183.754 242.023 178.387 238.922C178.387 238.922 178.387 238.922 178.387 238.921L109.941 178.706ZM109.941 178.706C109.887 184.966 111.475 191.11 114.546 196.518C117.618 201.926 122.063 206.406 127.433 209.503L109.941 178.706Z" stroke="url(#paint1_linear_268_4855)" stroke-linecap="round"/>
<mask id="mask0_268_4855" style="mask-type:alpha" maskUnits="userSpaceOnUse" x="110" y="52" width="174" height="192">
<path d="M127.683 209.07C122.39 206.017 118.009 201.602 114.981 196.271C111.954 190.94 110.387 184.882 110.441 178.71L111 118.287C111.056 112.202 112.691 106.22 115.743 100.933C118.796 95.6458 123.159 91.2384 128.401 88.1482L180.449 57.452C185.768 54.3195 191.797 52.6469 197.928 52.6034C204.059 52.5599 210.073 54.1469 215.363 57.2041L266.317 86.6227C271.61 89.6753 275.991 94.0903 279.019 99.4213C282.046 104.752 283.613 110.81 283.559 116.982L283 177.406C282.944 183.49 281.309 189.473 278.257 194.76C275.204 200.047 270.841 204.454 265.599 207.544L213.551 238.241C208.232 241.373 202.203 243.046 196.072 243.089C189.942 243.133 183.927 241.546 178.637 238.489L127.683 209.07Z" fill="white"/>
</mask>
<g mask="url(#mask0_268_4855)">
<path opacity="0.2" d="M187.437 248.563C184.091 248.563 181.252 248.019 178.918 246.93C176.584 245.802 174.678 244.285 173.2 242.379C171.722 240.434 170.633 238.217 169.933 235.727C169.271 233.199 168.941 230.554 168.941 227.792V224.525C168.941 220.596 169.602 217.056 170.924 213.905C172.247 210.755 174.27 208.265 176.993 206.437C179.715 204.57 183.197 203.636 187.437 203.636C191.637 203.636 195.099 204.57 197.822 206.437C200.545 208.265 202.548 210.755 203.832 213.905C205.154 217.056 205.816 220.596 205.816 224.525V227.792C205.816 230.554 205.466 233.199 204.765 235.727C204.104 238.217 203.035 240.434 201.556 242.379C200.117 244.285 198.231 245.802 195.897 246.93C193.563 248.019 190.743 248.563 187.437 248.563ZM187.437 240.978C190.898 240.978 193.446 239.792 195.08 237.419C196.714 235.008 197.531 231.273 197.531 226.217C197.531 220.849 196.694 217.017 195.022 214.722C193.349 212.388 190.821 211.222 187.437 211.222C184.014 211.222 181.446 212.388 179.735 214.722C178.062 217.017 177.226 220.81 177.226 226.1C177.226 231.196 178.062 234.949 179.735 237.361C181.407 239.772 183.975 240.978 187.437 240.978ZM217.631 247.455V209.996L220.198 211.98H208.937V204.862H225.858V247.455H217.631Z" fill="url(#paint2_linear_268_4855)"/>
</g>
<path d="M240.108 135.587C239.687 135.673 239.287 135.841 238.931 136.081C238.575 136.321 238.27 136.629 238.033 136.988C237.796 137.346 237.632 137.748 237.551 138.169C237.469 138.591 237.471 139.025 237.557 139.445C239.223 147.6 238.324 156.071 234.985 163.695C231.647 171.319 226.031 177.724 218.908 182.03C211.786 186.337 203.505 188.334 195.202 187.749C186.9 187.163 178.982 184.024 172.534 178.76C166.086 173.497 161.425 166.367 159.189 158.35C156.953 150.333 157.252 141.82 160.046 133.979C162.839 126.139 167.99 119.354 174.791 114.557C181.593 109.759 189.712 107.183 198.035 107.182C202.137 107.178 206.216 107.803 210.129 109.035C210.951 109.278 211.835 109.189 212.591 108.787C213.347 108.385 213.916 107.702 214.174 106.885C214.432 106.068 214.359 105.183 213.972 104.419C213.584 103.655 212.912 103.074 212.1 102.801C202.306 99.7315 191.776 99.9668 182.129 103.47C172.482 106.974 164.255 113.552 158.713 122.19C153.172 130.829 150.624 141.05 151.462 151.279C152.3 161.507 156.477 171.177 163.35 178.799C170.224 186.421 179.412 191.572 189.5 193.459C199.588 195.346 210.017 193.865 219.181 189.243C228.344 184.621 235.734 177.114 240.213 167.88C244.691 158.646 246.01 148.195 243.966 138.137C243.88 137.717 243.713 137.317 243.472 136.961C243.232 136.605 242.924 136.3 242.565 136.063C242.207 135.826 241.806 135.662 241.384 135.58C240.962 135.499 240.529 135.501 240.108 135.587Z" fill="white"/>
<path d="M234.864 113.411H233.43V111.977C233.43 111.406 233.204 110.859 232.8 110.455C232.397 110.052 231.849 109.825 231.279 109.825C230.708 109.825 230.161 110.052 229.758 110.455C229.354 110.859 229.128 111.406 229.128 111.977V113.411H227.693C227.123 113.411 226.576 113.637 226.172 114.041C225.769 114.444 225.542 114.991 225.542 115.562C225.542 116.133 225.769 116.68 226.172 117.083C226.576 117.487 227.123 117.713 227.693 117.713H229.128V119.147C229.128 119.718 229.354 120.265 229.758 120.669C230.161 121.072 230.708 121.299 231.279 121.299C231.849 121.299 232.397 121.072 232.8 120.669C233.204 120.265 233.43 119.718 233.43 119.147V117.713H234.864C235.435 117.713 235.982 117.487 236.385 117.083C236.789 116.68 237.016 116.133 237.016 115.562C237.016 114.991 236.789 114.444 236.385 114.041C235.982 113.637 235.435 113.411 234.864 113.411ZM244.904 115.562C244.904 118.257 244.104 120.891 242.607 123.131C241.11 125.372 238.982 127.118 236.493 128.149C234.003 129.181 231.264 129.45 228.621 128.925C225.978 128.399 223.55 127.101 221.645 125.196C219.739 123.291 218.442 120.863 217.916 118.22C217.39 115.577 217.66 112.838 218.691 110.348C219.723 107.859 221.469 105.731 223.709 104.234C225.95 102.736 228.584 101.937 231.279 101.937C234.891 101.942 238.354 103.379 240.908 105.933C243.462 108.487 244.899 111.95 244.904 115.562ZM240.601 115.562C240.601 113.718 240.054 111.916 239.03 110.383C238.006 108.85 236.55 107.655 234.846 106.949C233.143 106.244 231.269 106.059 229.46 106.419C227.652 106.779 225.991 107.667 224.687 108.97C223.383 110.274 222.496 111.935 222.136 113.743C221.776 115.552 221.961 117.426 222.666 119.129C223.372 120.833 224.567 122.289 226.1 123.313C227.633 124.337 229.435 124.884 231.279 124.884C233.75 124.881 236.12 123.898 237.867 122.15C239.615 120.403 240.598 118.033 240.601 115.562Z" fill="white"/>
<path d="M202.615 135.893V137.278C202.615 138.17 202.107 138.894 201.216 138.894H193.608C192.717 138.894 192.225 138.17 192.225 137.278V135.893C192.225 135 192.717 134.276 193.608 134.276H201.216C202.107 134.276 202.615 135 202.615 135.893Z" fill="#37EAFE"/>
<path d="M187.749 161.285C187.444 161.263 187.137 161.266 186.832 161.292C186.095 161.411 185.941 161.072 185.909 160.393C185.816 157.747 184.737 155.231 182.884 153.339C181.031 151.448 178.538 150.317 175.894 150.168C174.837 150.102 174.641 149.73 174.662 148.785C174.725 145.862 174.692 145.861 177.602 146.243C184.266 147.119 189.605 152.975 189.93 159.764C190.002 161.254 189.996 161.263 188.552 161.274C188.284 161.276 188.016 161.274 187.749 161.274L187.749 161.285Z" fill="#37EAFE"/>
<path d="M207.064 161.277C204.706 161.297 204.63 161.265 204.995 158.803C205.428 155.333 207.1 152.137 209.704 149.803C212.308 147.47 215.667 146.157 219.164 146.106C219.935 146.077 220.129 146.37 220.153 147.092C220.244 149.918 220.265 149.917 217.457 150.375C213.113 151.082 209.207 155.442 209.082 159.91C209.049 161.079 208.761 161.492 207.636 161.285C207.445 161.266 207.253 161.264 207.063 161.277" fill="#37EAFE"/>
<path d="M197.363 150.621C197.797 150.475 197.85 150.108 198.006 149.817C201.877 142.61 207.81 138.279 215.882 136.881C217.055 136.715 218.236 136.621 219.42 136.599C220.023 136.569 220.239 136.782 220.135 137.542C220.051 138.251 220.051 138.969 220.135 139.678C220.224 140.54 219.901 140.725 219.188 140.729C210.747 140.776 203.313 146.376 200.576 154.264C199.89 156.179 199.541 158.198 199.544 160.231C199.553 161.079 199.292 161.401 198.419 161.296C197.694 161.224 196.964 161.22 196.238 161.283C195.515 161.331 195.323 161.022 195.333 160.343C195.45 151.855 189.253 143.701 180.58 141.377C179.027 140.96 177.442 140.613 175.822 140.737C174.869 140.81 174.601 140.424 174.677 139.559C174.737 139.024 174.736 138.484 174.674 137.949C174.502 136.771 175.043 136.53 176.103 136.594C185.345 137.151 192.232 141.467 196.764 149.54C196.966 149.901 197.165 150.264 197.363 150.621Z" fill="#37EAFE"/>
<path d="M55.5 307.768L50.175 296.443H54.375L58.2 304.918L57.475 304.693H59.575L58.8 304.918L62.25 296.443H66.225L61.325 307.768H55.5ZM56.4 314.693V307.193H60.425V314.693H56.4ZM73.5391 315.168C72.3391 315.168 71.2724 314.985 70.3391 314.618C69.4057 314.235 68.6141 313.718 67.9641 313.068C67.3307 312.418 66.8474 311.676 66.5141 310.843C66.1807 309.993 66.0141 309.101 66.0141 308.168V307.593C66.0141 306.643 66.1807 305.743 66.5141 304.893C66.8641 304.026 67.3641 303.268 68.0141 302.618C68.6807 301.968 69.4807 301.46 70.4141 301.093C71.3474 300.71 72.3891 300.518 73.5391 300.518C74.7224 300.518 75.7724 300.71 76.6891 301.093C77.6224 301.46 78.4141 301.968 79.0641 302.618C79.7141 303.268 80.2141 304.026 80.5641 304.893C80.9141 305.743 81.0891 306.643 81.0891 307.593V308.168C81.0891 309.101 80.9224 309.993 80.5891 310.843C80.2557 311.676 79.7641 312.418 79.1141 313.068C78.4807 313.718 77.6974 314.235 76.7641 314.618C75.8307 314.985 74.7557 315.168 73.5391 315.168ZM73.5391 311.793C74.3224 311.793 74.9724 311.626 75.4891 311.293C76.0057 310.96 76.3974 310.493 76.6641 309.893C76.9474 309.293 77.0891 308.626 77.0891 307.893C77.0891 307.11 76.9474 306.426 76.6641 305.843C76.3807 305.243 75.9724 304.768 75.4391 304.418C74.9224 304.068 74.2891 303.893 73.5391 303.893C72.8057 303.893 72.1724 304.068 71.6391 304.418C71.1057 304.768 70.6974 305.243 70.4141 305.843C70.1474 306.426 70.0141 307.11 70.0141 307.893C70.0141 308.626 70.1474 309.293 70.4141 309.893C70.6807 310.493 71.0807 310.96 71.6141 311.293C72.1474 311.626 72.7891 311.793 73.5391 311.793ZM88.5057 315.118C86.9223 315.118 85.7057 314.61 84.8557 313.593C84.0057 312.56 83.5807 311.01 83.5807 308.943V300.993H87.5807V309.143C87.5807 309.876 87.789 310.46 88.2057 310.893C88.6223 311.326 89.1807 311.543 89.8807 311.543C90.5973 311.543 91.1807 311.318 91.6307 310.868C92.0807 310.418 92.3057 309.81 92.3057 309.043V300.993H96.3057V314.693H93.1307V308.918H93.4057C93.4057 310.301 93.2223 311.46 92.8557 312.393C92.5057 313.31 91.9807 313.993 91.2807 314.443C90.5807 314.893 89.714 315.118 88.6807 315.118H88.5057ZM107.343 314.768V313.518H112.743C114.093 313.518 115.26 313.301 116.243 312.868C117.243 312.435 118.068 311.843 118.718 311.093C119.368 310.343 119.851 309.493 120.168 308.543C120.501 307.576 120.668 306.576 120.668 305.543C120.668 304.46 120.501 303.443 120.168 302.493C119.851 301.543 119.36 300.701 118.693 299.968C118.026 299.235 117.201 298.66 116.218 298.243C115.235 297.826 114.076 297.618 112.743 297.618H107.343V296.368H112.593C114.21 296.368 115.61 296.626 116.793 297.143C117.976 297.643 118.951 298.318 119.718 299.168C120.501 300.018 121.085 300.976 121.468 302.043C121.851 303.11 122.043 304.21 122.043 305.343V305.743C122.043 306.826 121.86 307.91 121.493 308.993C121.126 310.06 120.551 311.026 119.768 311.893C119.001 312.76 118.026 313.46 116.843 313.993C115.66 314.51 114.243 314.768 112.593 314.768H107.343ZM106.468 314.768V296.368H107.818V314.768H106.468ZM131.338 315.118C130.221 315.118 129.255 314.926 128.438 314.543C127.621 314.143 126.955 313.618 126.438 312.968C125.921 312.301 125.53 311.56 125.263 310.743C125.013 309.91 124.888 309.068 124.888 308.218V307.968C124.888 307.101 125.013 306.268 125.263 305.468C125.53 304.668 125.921 303.943 126.438 303.293C126.971 302.626 127.63 302.11 128.413 301.743C129.213 301.36 130.138 301.168 131.188 301.168C132.521 301.168 133.638 301.468 134.538 302.068C135.455 302.651 136.146 303.418 136.613 304.368C137.08 305.318 137.313 306.318 137.313 307.368V308.268H125.513V307.168H136.438L136.038 307.668C136.038 306.651 135.846 305.743 135.463 304.943C135.096 304.143 134.546 303.518 133.813 303.068C133.096 302.601 132.221 302.368 131.188 302.368C130.071 302.368 129.138 302.626 128.388 303.143C127.638 303.66 127.071 304.351 126.688 305.218C126.321 306.085 126.138 307.043 126.138 308.093C126.138 309.143 126.321 310.11 126.688 310.993C127.071 311.86 127.646 312.568 128.413 313.118C129.18 313.651 130.155 313.918 131.338 313.918C132.605 313.918 133.621 313.626 134.388 313.043C135.171 312.46 135.646 311.76 135.813 310.943H137.113C136.93 311.76 136.58 312.485 136.063 313.118C135.546 313.751 134.888 314.243 134.088 314.593C133.305 314.943 132.388 315.118 131.338 315.118ZM141.125 319.693V301.568H142.175V307.168L141.775 307.343C141.791 306.11 142.05 305.035 142.55 304.118C143.066 303.185 143.766 302.46 144.65 301.943C145.533 301.426 146.558 301.168 147.725 301.168C148.725 301.168 149.616 301.36 150.4 301.743C151.183 302.11 151.841 302.618 152.375 303.268C152.925 303.901 153.341 304.626 153.625 305.443C153.908 306.26 154.05 307.118 154.05 308.018V308.268C154.05 309.118 153.908 309.951 153.625 310.768C153.341 311.568 152.925 312.301 152.375 312.968C151.841 313.618 151.183 314.143 150.4 314.543C149.616 314.926 148.725 315.118 147.725 315.118C146.558 315.118 145.525 314.851 144.625 314.318C143.741 313.785 143.05 313.051 142.55 312.118C142.05 311.168 141.783 310.093 141.75 308.893L142.45 310.643V319.693H141.125ZM147.55 313.918C148.65 313.918 149.583 313.651 150.35 313.118C151.133 312.568 151.725 311.86 152.125 310.993C152.525 310.11 152.725 309.16 152.725 308.143C152.725 307.076 152.516 306.11 152.1 305.243C151.7 304.36 151.108 303.66 150.325 303.143C149.558 302.626 148.633 302.368 147.55 302.368C146.55 302.368 145.658 302.593 144.875 303.043C144.108 303.476 143.5 304.085 143.05 304.868C142.6 305.635 142.375 306.518 142.375 307.518V308.793C142.375 309.743 142.591 310.61 143.025 311.393C143.475 312.16 144.083 312.776 144.85 313.243C145.633 313.693 146.533 313.918 147.55 313.918ZM163.793 315.118C162.693 315.118 161.718 314.918 160.868 314.518C160.018 314.118 159.301 313.593 158.718 312.943C158.151 312.293 157.718 311.568 157.418 310.768C157.134 309.951 156.993 309.118 156.993 308.268V308.018C156.993 307.151 157.143 306.31 157.443 305.493C157.743 304.676 158.184 303.943 158.768 303.293C159.351 302.643 160.059 302.126 160.893 301.743C161.743 301.36 162.709 301.168 163.793 301.168C164.859 301.168 165.809 301.36 166.643 301.743C167.493 302.126 168.209 302.643 168.793 303.293C169.376 303.943 169.818 304.676 170.118 305.493C170.434 306.31 170.593 307.151 170.593 308.018V308.268C170.593 309.118 170.443 309.951 170.143 310.768C169.843 311.568 169.401 312.293 168.818 312.943C168.251 313.593 167.543 314.118 166.693 314.518C165.859 314.918 164.893 315.118 163.793 315.118ZM163.793 313.893C164.959 313.893 165.943 313.626 166.743 313.093C167.559 312.56 168.176 311.86 168.593 310.993C169.026 310.11 169.243 309.16 169.243 308.143C169.243 307.093 169.026 306.135 168.593 305.268C168.159 304.385 167.534 303.685 166.718 303.168C165.918 302.635 164.943 302.368 163.793 302.368C162.659 302.368 161.676 302.635 160.843 303.168C160.026 303.685 159.401 304.385 158.968 305.268C158.534 306.135 158.318 307.093 158.318 308.143C158.318 309.16 158.526 310.11 158.943 310.993C159.376 311.86 160.001 312.56 160.818 313.093C161.634 313.626 162.626 313.893 163.793 313.893ZM178.546 315.068C176.913 315.068 175.654 314.693 174.771 313.943C173.904 313.193 173.463 312.235 173.446 311.068H174.746C174.746 311.818 175.038 312.476 175.621 313.043C176.221 313.593 177.196 313.868 178.546 313.868C179.863 313.868 180.829 313.593 181.446 313.043C182.063 312.476 182.371 311.81 182.371 311.043C182.371 310.293 182.088 309.718 181.521 309.318C180.971 308.918 180.221 308.668 179.271 308.568L177.721 308.393C176.571 308.26 175.654 307.901 174.971 307.318C174.304 306.735 173.971 305.943 173.971 304.943C173.971 304.226 174.154 303.585 174.521 303.018C174.888 302.451 175.413 302.001 176.096 301.668C176.796 301.335 177.613 301.168 178.546 301.168C179.913 301.168 181.013 301.501 181.846 302.168C182.696 302.835 183.129 303.743 183.146 304.893H181.846C181.863 304.176 181.579 303.576 180.996 303.093C180.429 302.61 179.613 302.368 178.546 302.368C177.429 302.368 176.596 302.626 176.046 303.143C175.513 303.66 175.246 304.268 175.246 304.968C175.246 305.551 175.454 306.051 175.871 306.468C176.304 306.885 176.954 307.143 177.821 307.243L179.371 307.418C180.604 307.535 181.621 307.893 182.421 308.493C183.238 309.093 183.646 309.951 183.646 311.068C183.646 311.818 183.438 312.493 183.021 313.093C182.621 313.693 182.046 314.176 181.296 314.543C180.546 314.893 179.629 315.068 178.546 315.068ZM188.407 314.693V301.568H189.757V314.693H188.407ZM186.232 302.718V301.568H189.757V302.718H186.232ZM188.532 298.818C188.182 298.818 187.915 298.726 187.732 298.543C187.549 298.343 187.457 298.093 187.457 297.793C187.457 297.476 187.549 297.218 187.732 297.018C187.915 296.818 188.19 296.718 188.557 296.718C188.907 296.718 189.174 296.818 189.357 297.018C189.54 297.218 189.632 297.476 189.632 297.793C189.632 298.093 189.54 298.343 189.357 298.543C189.19 298.726 188.915 298.818 188.532 298.818ZM199.308 314.818C198.492 314.818 197.775 314.701 197.158 314.468C196.542 314.218 196.067 313.801 195.733 313.218C195.4 312.635 195.233 311.851 195.233 310.868V297.293H196.533V311.093C196.533 311.893 196.75 312.518 197.183 312.968C197.633 313.401 198.25 313.618 199.033 313.618H201.483V314.818H199.308ZM192.733 302.643V301.568H201.483V302.643H192.733ZM217.565 315.118C216.015 315.118 214.723 314.876 213.69 314.393C212.656 313.893 211.881 313.218 211.365 312.368C210.848 311.501 210.59 310.526 210.59 309.443H211.94C211.94 310.276 212.131 311.026 212.515 311.693C212.915 312.36 213.531 312.893 214.365 313.293C215.198 313.676 216.265 313.868 217.565 313.868C218.781 313.868 219.798 313.693 220.615 313.343C221.431 312.993 222.04 312.518 222.44 311.918C222.856 311.301 223.065 310.593 223.065 309.793C223.065 308.81 222.698 307.976 221.965 307.293C221.231 306.593 220.115 306.168 218.615 306.018L216.44 305.843C214.923 305.71 213.723 305.226 212.84 304.393C211.956 303.56 211.515 302.468 211.515 301.118C211.515 300.151 211.74 299.285 212.19 298.518C212.64 297.735 213.315 297.118 214.215 296.668C215.115 296.201 216.223 295.968 217.54 295.968C218.873 295.968 219.998 296.218 220.915 296.718C221.831 297.201 222.523 297.86 222.99 298.693C223.473 299.51 223.715 300.435 223.715 301.468H222.365C222.365 300.718 222.198 300.026 221.865 299.393C221.531 298.743 221.006 298.218 220.29 297.818C219.59 297.418 218.673 297.218 217.54 297.218C216.44 297.218 215.548 297.401 214.865 297.768C214.181 298.118 213.673 298.593 213.34 299.193C213.023 299.776 212.865 300.418 212.865 301.118C212.865 302.118 213.181 302.918 213.815 303.518C214.465 304.118 215.39 304.476 216.59 304.593L218.765 304.768C219.981 304.868 221.006 305.151 221.84 305.618C222.69 306.068 223.331 306.651 223.765 307.368C224.198 308.085 224.415 308.893 224.415 309.793C224.415 310.81 224.148 311.726 223.615 312.543C223.081 313.343 222.306 313.976 221.29 314.443C220.273 314.893 219.031 315.118 217.565 315.118ZM233.317 314.818C232.501 314.818 231.784 314.701 231.167 314.468C230.551 314.218 230.076 313.801 229.742 313.218C229.409 312.635 229.242 311.851 229.242 310.868V297.293H230.542V311.093C230.542 311.893 230.759 312.518 231.192 312.968C231.642 313.401 232.259 313.618 233.042 313.618H235.492V314.818H233.317ZM226.742 302.643V301.568H235.492V302.643H226.742ZM247.343 314.693V310.768H247.093V305.943C247.093 304.893 246.818 304.085 246.268 303.518C245.718 302.935 244.81 302.643 243.543 302.643C243.093 302.643 242.635 302.66 242.168 302.693C241.701 302.71 241.26 302.735 240.843 302.768C240.426 302.785 240.051 302.818 239.718 302.868V301.668C240.051 301.618 240.401 301.576 240.768 301.543C241.151 301.51 241.535 301.485 241.918 301.468C242.301 301.451 242.668 301.443 243.018 301.443C244.335 301.443 245.385 301.618 246.168 301.968C246.951 302.301 247.518 302.818 247.868 303.518C248.218 304.201 248.393 305.076 248.393 306.143V314.693H247.343ZM242.768 315.043C241.885 315.043 241.093 314.885 240.393 314.568C239.693 314.251 239.135 313.785 238.718 313.168C238.318 312.551 238.118 311.801 238.118 310.918C238.118 310.068 238.31 309.343 238.693 308.743C239.093 308.143 239.66 307.685 240.393 307.368C241.143 307.051 242.043 306.893 243.093 306.893H247.218V307.968H242.968C241.835 307.968 240.96 308.243 240.343 308.793C239.743 309.326 239.443 310.035 239.443 310.918C239.443 311.851 239.768 312.593 240.418 313.143C241.068 313.676 241.918 313.943 242.968 313.943C243.618 313.943 244.251 313.818 244.868 313.568C245.485 313.318 246.001 312.901 246.418 312.318C246.835 311.718 247.06 310.918 247.093 309.918L247.593 310.493C247.543 311.51 247.293 312.36 246.843 313.043C246.41 313.71 245.843 314.21 245.143 314.543C244.443 314.876 243.651 315.043 242.768 315.043ZM259.906 315.118C258.706 315.118 257.656 314.843 256.756 314.293C255.873 313.726 255.181 312.976 254.681 312.043C254.198 311.11 253.948 310.076 253.931 308.943H254.406V314.693H253.356V296.443H254.681V305.793L254.056 307.368C254.09 306.118 254.348 305.035 254.831 304.118C255.331 303.185 256.023 302.46 256.906 301.943C257.79 301.426 258.815 301.168 259.981 301.168C260.965 301.168 261.848 301.36 262.631 301.743C263.415 302.11 264.073 302.618 264.606 303.268C265.156 303.901 265.573 304.626 265.856 305.443C266.14 306.243 266.281 307.093 266.281 307.993V308.243C266.281 309.11 266.14 309.951 265.856 310.768C265.59 311.568 265.181 312.301 264.631 312.968C264.081 313.618 263.406 314.143 262.606 314.543C261.823 314.926 260.923 315.118 259.906 315.118ZM259.781 313.918C260.881 313.918 261.815 313.651 262.581 313.118C263.365 312.568 263.956 311.851 264.356 310.968C264.756 310.085 264.956 309.135 264.956 308.118C264.956 307.051 264.748 306.085 264.331 305.218C263.915 304.335 263.323 303.643 262.556 303.143C261.79 302.626 260.865 302.368 259.781 302.368C258.781 302.368 257.89 302.593 257.106 303.043C256.34 303.476 255.731 304.085 255.281 304.868C254.831 305.635 254.606 306.518 254.606 307.518V308.793C254.606 309.743 254.823 310.61 255.256 311.393C255.706 312.16 256.315 312.776 257.081 313.243C257.865 313.693 258.765 313.918 259.781 313.918ZM270.399 314.693V296.443H271.724V314.693H270.399ZM268.424 297.568V296.443H271.724V297.568H268.424ZM282.217 315.118C281.1 315.118 280.134 314.926 279.317 314.543C278.5 314.143 277.834 313.618 277.317 312.968C276.8 312.301 276.409 311.56 276.142 310.743C275.892 309.91 275.767 309.068 275.767 308.218V307.968C275.767 307.101 275.892 306.268 276.142 305.468C276.409 304.668 276.8 303.943 277.317 303.293C277.85 302.626 278.509 302.11 279.292 301.743C280.092 301.36 281.017 301.168 282.067 301.168C283.4 301.168 284.517 301.468 285.417 302.068C286.334 302.651 287.025 303.418 287.492 304.368C287.959 305.318 288.192 306.318 288.192 307.368V308.268H276.392V307.168H287.317L286.917 307.668C286.917 306.651 286.725 305.743 286.342 304.943C285.975 304.143 285.425 303.518 284.692 303.068C283.975 302.601 283.1 302.368 282.067 302.368C280.95 302.368 280.017 302.626 279.267 303.143C278.517 303.66 277.95 304.351 277.567 305.218C277.2 306.085 277.017 307.043 277.017 308.093C277.017 309.143 277.2 310.11 277.567 310.993C277.95 311.86 278.525 312.568 279.292 313.118C280.059 313.651 281.034 313.918 282.217 313.918C283.484 313.918 284.5 313.626 285.267 313.043C286.05 312.46 286.525 311.76 286.692 310.943H287.992C287.809 311.76 287.459 312.485 286.942 313.118C286.425 313.751 285.767 314.243 284.967 314.593C284.184 314.943 283.267 315.118 282.217 315.118ZM297.379 315.118C296.295 315.118 295.345 314.918 294.529 314.518C293.729 314.118 293.054 313.585 292.504 312.918C291.97 312.251 291.57 311.51 291.304 310.693C291.037 309.876 290.904 309.051 290.904 308.218V307.968C290.904 307.118 291.037 306.285 291.304 305.468C291.57 304.651 291.97 303.926 292.504 303.293C293.054 302.643 293.729 302.126 294.529 301.743C295.345 301.36 296.295 301.168 297.379 301.168C298.429 301.168 299.362 301.36 300.179 301.743C301.012 302.126 301.687 302.668 302.204 303.368C302.737 304.051 303.07 304.876 303.204 305.843H301.904C301.754 304.843 301.287 304.018 300.504 303.368C299.72 302.701 298.679 302.368 297.379 302.368C296.229 302.368 295.27 302.626 294.504 303.143C293.737 303.66 293.162 304.351 292.779 305.218C292.412 306.085 292.229 307.043 292.229 308.093C292.229 309.11 292.42 310.06 292.804 310.943C293.187 311.826 293.762 312.543 294.529 313.093C295.295 313.626 296.245 313.893 297.379 313.893C298.262 313.893 299.037 313.735 299.704 313.418C300.387 313.085 300.937 312.651 301.354 312.118C301.77 311.568 302.02 310.968 302.104 310.318H303.404C303.287 311.285 302.954 312.126 302.404 312.843C301.854 313.543 301.145 314.101 300.279 314.518C299.412 314.918 298.445 315.118 297.379 315.118ZM312.743 315.118C311.643 315.118 310.668 314.918 309.818 314.518C308.968 314.118 308.251 313.593 307.668 312.943C307.101 312.293 306.668 311.568 306.368 310.768C306.084 309.951 305.943 309.118 305.943 308.268V308.018C305.943 307.151 306.093 306.31 306.393 305.493C306.693 304.676 307.134 303.943 307.718 303.293C308.301 302.643 309.009 302.126 309.843 301.743C310.693 301.36 311.659 301.168 312.743 301.168C313.809 301.168 314.759 301.36 315.593 301.743C316.443 302.126 317.159 302.643 317.743 303.293C318.326 303.943 318.768 304.676 319.068 305.493C319.384 306.31 319.543 307.151 319.543 308.018V308.268C319.543 309.118 319.393 309.951 319.093 310.768C318.793 311.568 318.351 312.293 317.768 312.943C317.201 313.593 316.493 314.118 315.643 314.518C314.809 314.918 313.843 315.118 312.743 315.118ZM312.743 313.893C313.909 313.893 314.893 313.626 315.693 313.093C316.509 312.56 317.126 311.86 317.543 310.993C317.976 310.11 318.193 309.16 318.193 308.143C318.193 307.093 317.976 306.135 317.543 305.268C317.109 304.385 316.484 303.685 315.668 303.168C314.868 302.635 313.893 302.368 312.743 302.368C311.609 302.368 310.626 302.635 309.793 303.168C308.976 303.685 308.351 304.385 307.918 305.268C307.484 306.135 307.268 307.093 307.268 308.143C307.268 309.16 307.476 310.11 307.893 310.993C308.326 311.86 308.951 312.56 309.768 313.093C310.584 313.626 311.576 313.893 312.743 313.893ZM324.271 314.693V301.568H325.621V314.693H324.271ZM322.096 302.718V301.568H325.621V302.718H322.096ZM324.396 298.818C324.046 298.818 323.779 298.726 323.596 298.543C323.413 298.343 323.321 298.093 323.321 297.793C323.321 297.476 323.413 297.218 323.596 297.018C323.779 296.818 324.054 296.718 324.421 296.718C324.771 296.718 325.038 296.818 325.221 297.018C325.404 297.218 325.496 297.476 325.496 297.793C325.496 298.093 325.404 298.343 325.221 298.543C325.054 298.726 324.779 298.818 324.396 298.818ZM330.798 314.693V301.568H331.848V306.943H331.548C331.548 305.793 331.731 304.793 332.098 303.943C332.481 303.076 333.039 302.41 333.773 301.943C334.523 301.46 335.448 301.218 336.548 301.218H336.623C338.273 301.218 339.514 301.735 340.348 302.768C341.181 303.785 341.598 305.176 341.598 306.943V314.693H340.248V306.643C340.248 305.393 339.906 304.385 339.223 303.618C338.556 302.835 337.589 302.443 336.323 302.443C335.039 302.443 334.014 302.843 333.248 303.643C332.498 304.426 332.123 305.468 332.123 306.768V314.693H330.798Z" fill="white"/>
<defs>
<filter id="filter0_i_268_4855" x="109.439" y="49.6613" width="182.239" height="194.429" filterUnits="userSpaceOnUse" color-interpolation-filters="sRGB">
<feFlood flood-opacity="0" result="BackgroundImageFix"/>
<feBlend mode="normal" in="SourceGraphic" in2="BackgroundImageFix" result="shape"/>
<feColorMatrix in="SourceAlpha" type="matrix" values="0 0 0 0 0 0 0 0 0 0 0 0 0 0 0 0 0 0 127 0" result="hardAlpha"/>
<feOffset dx="7.11792" dy="-1.94125"/>
<feGaussianBlur stdDeviation="13.9123"/>
<feComposite in2="hardAlpha" operator="arithmetic" k2="-1" k3="1"/>
<feColorMatrix type="matrix" values="0 0 0 0 0.113725 0 0 0 0 0.105882 0 0 0 0 0.160784 0 0 0 1 0"/>
<feBlend mode="normal" in2="shape" result="effect1_innerShadow_268_4855"/>
</filter>
<linearGradient id="paint0_linear_268_4855" x1="111.855" y1="192.46" x2="218.02" y2="143.171" gradientUnits="userSpaceOnUse">
<stop stop-color="#136167"/>
<stop offset="1" stop-color="#1D1B29"/>
</linearGradient>
<linearGradient id="paint1_linear_268_4855" x1="137.903" y1="80" x2="279.252" y2="195.574" gradientUnits="userSpaceOnUse">
<stop stop-color="white"/>
<stop offset="1" stop-color="white" stop-opacity="0"/>
</linearGradient>
<linearGradient id="paint2_linear_268_4855" x1="197.179" y1="190.455" x2="197.179" y2="264.455" gradientUnits="userSpaceOnUse">
<stop stop-color="white"/>
<stop offset="1" stop-color="white" stop-opacity="0"/>
</linearGradient>
</defs>
</svg>
