<svg width="394" height="351" viewBox="0 0 394 351" fill="none" xmlns="http://www.w3.org/2000/svg">
<path d="M127.683 210.436C122.391 207.384 118.009 202.969 114.981 197.638C111.954 192.307 110.388 186.249 110.441 180.076L111.001 119.653C111.056 113.569 112.691 107.586 115.744 102.299C118.796 97.012 123.16 92.6046 128.401 89.5144L180.45 58.8182C185.768 55.6857 191.798 54.0131 197.928 53.9696C204.059 53.9261 210.073 55.5131 215.363 58.5703L266.317 87.9889C271.61 91.0414 275.992 95.4565 279.019 100.787C282.047 106.119 283.613 112.176 283.559 118.349L283 178.772C282.944 184.856 281.309 190.839 278.257 196.126C275.204 201.413 270.841 205.82 265.599 208.911L213.551 239.607C208.232 242.739 202.203 244.412 196.072 244.456C189.942 244.499 183.927 242.912 178.638 239.855L127.683 210.436Z" fill="url(#paint0_linear_493_4572)"/>
<path fill-rule="evenodd" clip-rule="evenodd" d="M283.56 118.349L283 178.772C282.945 184.856 281.31 190.839 278.257 196.126C275.205 201.413 270.841 205.82 265.6 208.911L213.551 239.607C208.233 242.739 202.203 244.412 196.073 244.456C189.942 244.499 183.928 242.912 178.638 239.855L127.683 210.436C122.391 207.384 118.009 202.969 114.982 197.638C111.954 192.307 110.388 186.249 110.441 180.076L111.001 119.653C111.056 113.569 112.691 107.586 115.744 102.299C118.796 97.012 123.16 92.6046 128.401 89.5144L180.45 58.8182C185.768 55.6857 191.798 54.0131 197.928 53.9696C204.059 53.9261 210.073 55.5131 215.363 58.5703L266.318 87.9889C271.61 91.0414 275.992 95.4565 279.019 100.787C282.047 106.119 283.613 112.176 283.56 118.349ZM266.817 87.1226C266.817 87.1227 266.817 87.1228 266.818 87.1228C272.265 90.2647 276.774 94.8085 279.889 100.294C283.004 105.779 284.615 112.01 284.56 118.357L284.56 118.358L284 178.781C284 178.781 284 178.781 284 178.781C283.943 185.039 282.261 191.19 279.123 196.626C275.985 202.062 271.498 206.594 266.108 209.772C266.107 209.772 266.107 209.772 266.107 209.772L214.059 240.468L214.059 240.469C208.589 243.69 202.388 245.411 196.08 245.456C189.772 245.5 183.582 243.867 178.138 240.721L127.183 211.302C121.736 208.16 117.227 203.617 114.112 198.131C110.997 192.646 109.386 186.415 109.441 180.068L109.441 180.067L110.001 119.644C110.001 119.644 110.001 119.644 110.001 119.644C110.058 113.386 111.739 107.235 114.878 101.799C118.016 96.3632 122.503 91.8312 127.893 88.653C127.893 88.653 127.893 88.653 127.894 88.653L179.942 57.9568L179.942 57.9565C185.411 54.7353 191.613 53.0144 197.921 52.9696C204.229 52.9248 210.419 54.5578 215.863 57.7043M266.817 87.1226L215.864 57.7045L266.817 87.1226Z" fill="url(#paint1_linear_493_4572)"/>
<mask id="mask0_493_4572" style="mask-type:alpha" maskUnits="userSpaceOnUse" x="109" y="52" width="174" height="192">
<path d="M126.586 209.436C121.294 206.384 116.912 201.969 113.885 196.638C110.857 191.307 109.291 185.249 109.344 179.076L109.904 118.653C109.959 112.569 111.594 106.586 114.647 101.299C117.699 96.012 122.063 91.6046 127.305 88.5144L179.353 57.8182C184.671 54.6857 190.701 53.0131 196.831 52.9696C202.962 52.926 208.976 54.5131 214.266 57.5703L265.221 86.9889C270.513 90.0414 274.895 94.4565 277.922 99.7875C280.95 105.119 282.516 111.176 282.463 117.349L281.903 177.772C281.848 183.856 280.213 189.839 277.16 195.126C274.108 200.413 269.744 204.82 264.503 207.911L212.454 238.607C207.136 241.739 201.106 243.412 194.976 243.456C188.845 243.499 182.831 241.912 177.541 238.855L126.586 209.436Z" fill="white"/>
</mask>
<g mask="url(#mask0_493_4572)">
<path opacity="0.2" d="M186.34 248.93C182.995 248.93 180.156 248.385 177.822 247.296C175.488 246.168 173.582 244.651 172.104 242.745C170.626 240.8 169.537 238.583 168.836 236.093C168.175 233.565 167.844 230.92 167.844 228.158V224.891C167.844 220.962 168.506 217.422 169.828 214.272C171.151 211.121 173.173 208.631 175.896 206.803C178.619 204.936 182.101 204.003 186.34 204.003C190.541 204.003 194.003 204.936 196.726 206.803C199.449 208.631 201.452 211.121 202.736 214.272C204.058 217.422 204.72 220.962 204.72 224.891V228.158C204.72 230.92 204.369 233.565 203.669 236.093C203.008 238.583 201.938 240.8 200.46 242.745C199.021 244.651 197.134 246.168 194.801 247.296C192.467 248.385 189.647 248.93 186.34 248.93ZM186.34 241.344C189.802 241.344 192.35 240.158 193.984 237.785C195.617 235.374 196.434 231.639 196.434 226.583C196.434 221.215 195.598 217.383 193.925 215.088C192.253 212.755 189.724 211.588 186.34 211.588C182.917 211.588 180.35 212.755 178.639 215.088C176.966 217.383 176.13 221.176 176.13 226.466C176.13 231.562 176.966 235.315 178.639 237.727C180.311 240.139 182.878 241.344 186.34 241.344ZM216.535 247.821V210.362L219.102 212.346H207.841V205.228H224.761V247.821H216.535Z" fill="url(#paint2_linear_493_4572)"/>
</g>
<path d="M239.012 135.953C238.591 136.039 238.191 136.207 237.835 136.447C237.479 136.687 237.174 136.996 236.937 137.354C236.7 137.712 236.536 138.114 236.455 138.535C236.373 138.957 236.375 139.391 236.461 139.812C238.127 147.967 237.228 156.437 233.889 164.061C230.551 171.685 224.935 178.09 217.812 182.397C210.69 186.703 202.409 188.7 194.106 188.115C185.804 187.529 177.886 184.39 171.438 179.126C164.99 173.863 160.329 166.734 158.093 158.716C155.857 150.699 156.156 142.186 158.95 134.346C161.743 126.505 166.894 119.721 173.695 114.923C180.497 110.125 188.616 107.549 196.939 107.548C201.041 107.545 205.12 108.169 209.033 109.401C209.855 109.644 210.739 109.555 211.495 109.153C212.251 108.751 212.82 108.068 213.078 107.251C213.336 106.434 213.263 105.549 212.876 104.785C212.488 104.021 211.816 103.44 211.004 103.167C201.21 100.098 190.68 100.333 181.033 103.837C171.386 107.34 163.159 113.918 157.618 122.556C152.076 131.195 149.528 141.416 150.366 151.645C151.204 161.874 155.381 171.543 162.254 179.165C169.128 186.787 178.316 191.938 188.404 193.825C198.492 195.712 208.921 194.231 218.085 189.609C227.248 184.987 234.638 177.481 239.117 168.246C243.595 159.012 244.914 148.561 242.87 138.504C242.785 138.083 242.617 137.683 242.376 137.327C242.136 136.971 241.828 136.666 241.469 136.429C241.111 136.192 240.71 136.028 240.288 135.947C239.866 135.865 239.433 135.867 239.012 135.953Z" fill="white"/>
<path d="M233.768 113.777H232.334V112.343C232.334 111.772 232.107 111.225 231.704 110.822C231.3 110.418 230.753 110.191 230.183 110.191C229.612 110.191 229.065 110.418 228.662 110.822C228.258 111.225 228.031 111.772 228.031 112.343V113.777H226.597C226.027 113.777 225.48 114.004 225.076 114.407C224.673 114.81 224.446 115.358 224.446 115.928C224.446 116.499 224.673 117.046 225.076 117.449C225.48 117.853 226.027 118.079 226.597 118.079H228.031V119.514C228.031 120.084 228.258 120.631 228.662 121.035C229.065 121.438 229.612 121.665 230.183 121.665C230.753 121.665 231.3 121.438 231.704 121.035C232.107 120.631 232.334 120.084 232.334 119.514V118.079H233.768C234.339 118.079 234.886 117.853 235.289 117.449C235.693 117.046 235.919 116.499 235.919 115.928C235.919 115.358 235.693 114.81 235.289 114.407C234.886 114.004 234.339 113.777 233.768 113.777ZM243.807 115.928C243.807 118.623 243.008 121.257 241.511 123.498C240.014 125.738 237.886 127.484 235.397 128.516C232.907 129.547 230.168 129.817 227.525 129.291C224.882 128.765 222.454 127.468 220.549 125.562C218.643 123.657 217.346 121.229 216.82 118.586C216.294 115.943 216.564 113.204 217.595 110.714C218.626 108.225 220.373 106.097 222.613 104.6C224.854 103.103 227.488 102.304 230.183 102.304C233.795 102.308 237.258 103.745 239.812 106.299C242.366 108.853 243.803 112.316 243.807 115.928ZM239.505 115.928C239.505 114.084 238.958 112.282 237.934 110.749C236.909 109.216 235.454 108.021 233.75 107.316C232.047 106.61 230.172 106.425 228.364 106.785C226.556 107.145 224.895 108.033 223.591 109.336C222.287 110.64 221.399 112.301 221.04 114.109C220.68 115.918 220.865 117.792 221.57 119.496C222.276 121.199 223.471 122.655 225.004 123.679C226.537 124.703 228.339 125.25 230.183 125.25C232.654 125.247 235.024 124.264 236.771 122.516C238.519 120.769 239.502 118.4 239.505 115.928Z" fill="white"/>
<path d="M201.518 136.259V137.644C201.518 138.536 201.01 139.26 200.12 139.26H192.511C191.621 139.26 191.128 138.536 191.128 137.644V136.259C191.128 135.366 191.62 134.643 192.511 134.643H200.12C201.01 134.643 201.518 135.366 201.518 136.259Z" fill="#37EAFE"/>
<path d="M186.652 161.651C186.347 161.629 186.04 161.632 185.735 161.659C184.998 161.777 184.844 161.438 184.813 160.759C184.719 158.113 183.64 155.597 181.787 153.705C179.934 151.814 177.441 150.683 174.797 150.534C173.741 150.469 173.544 150.096 173.565 149.151C173.628 146.228 173.595 146.227 176.506 146.609C183.169 147.485 188.508 153.341 188.834 160.13C188.905 161.62 188.899 161.629 187.456 161.64C187.188 161.642 186.92 161.64 186.652 161.64L186.652 161.651Z" fill="#37EAFE"/>
<path d="M205.967 161.643C203.61 161.664 203.534 161.632 203.899 159.169C204.331 155.699 206.004 152.503 208.607 150.17C211.211 147.836 214.571 146.523 218.067 146.472C218.838 146.443 219.033 146.736 219.056 147.459C219.147 150.284 219.168 150.283 216.361 150.741C212.017 151.449 208.11 155.808 207.985 160.276C207.953 161.445 207.664 161.858 206.539 161.651C206.349 161.632 206.157 161.63 205.966 161.643" fill="#37EAFE"/>
<path d="M196.267 150.987C196.701 150.842 196.754 150.474 196.91 150.183C200.781 142.976 206.713 138.645 214.786 137.247C215.958 137.081 217.14 136.987 218.324 136.966C218.927 136.935 219.142 137.148 219.039 137.908C218.954 138.618 218.954 139.335 219.039 140.045C219.127 140.907 218.805 141.091 218.092 141.095C209.651 141.142 202.217 146.743 199.479 154.63C198.793 156.545 198.445 158.564 198.448 160.597C198.456 161.445 198.196 161.767 197.322 161.662C196.597 161.59 195.867 161.586 195.141 161.649C194.419 161.697 194.227 161.388 194.236 160.71C194.354 152.221 188.156 144.067 179.484 141.743C177.931 141.327 176.345 140.979 174.726 141.103C173.773 141.176 173.505 140.791 173.581 139.925C173.641 139.39 173.64 138.85 173.577 138.315C173.405 137.137 173.946 136.896 175.006 136.96C184.249 137.517 191.136 141.833 195.667 149.907C195.87 150.267 196.068 150.63 196.267 150.987Z" fill="#37EAFE"/>
<path d="M55.5 310.5L50.175 299.175H54.375L58.2 307.65L57.475 307.425H59.575L58.8 307.65L62.25 299.175H66.225L61.325 310.5H55.5ZM56.4 317.425V309.925H60.425V317.425H56.4ZM73.5391 317.9C72.3391 317.9 71.2724 317.717 70.3391 317.35C69.4057 316.967 68.6141 316.45 67.9641 315.8C67.3307 315.15 66.8474 314.408 66.5141 313.575C66.1807 312.725 66.0141 311.833 66.0141 310.9V310.325C66.0141 309.375 66.1807 308.475 66.5141 307.625C66.8641 306.758 67.3641 306 68.0141 305.35C68.6807 304.7 69.4807 304.192 70.4141 303.825C71.3474 303.442 72.3891 303.25 73.5391 303.25C74.7224 303.25 75.7724 303.442 76.6891 303.825C77.6224 304.192 78.4141 304.7 79.0641 305.35C79.7141 306 80.2141 306.758 80.5641 307.625C80.9141 308.475 81.0891 309.375 81.0891 310.325V310.9C81.0891 311.833 80.9224 312.725 80.5891 313.575C80.2557 314.408 79.7641 315.15 79.1141 315.8C78.4807 316.45 77.6974 316.967 76.7641 317.35C75.8307 317.717 74.7557 317.9 73.5391 317.9ZM73.5391 314.525C74.3224 314.525 74.9724 314.358 75.4891 314.025C76.0057 313.692 76.3974 313.225 76.6641 312.625C76.9474 312.025 77.0891 311.358 77.0891 310.625C77.0891 309.842 76.9474 309.158 76.6641 308.575C76.3807 307.975 75.9724 307.5 75.4391 307.15C74.9224 306.8 74.2891 306.625 73.5391 306.625C72.8057 306.625 72.1724 306.8 71.6391 307.15C71.1057 307.5 70.6974 307.975 70.4141 308.575C70.1474 309.158 70.0141 309.842 70.0141 310.625C70.0141 311.358 70.1474 312.025 70.4141 312.625C70.6807 313.225 71.0807 313.692 71.6141 314.025C72.1474 314.358 72.7891 314.525 73.5391 314.525ZM88.5057 317.85C86.9223 317.85 85.7057 317.342 84.8557 316.325C84.0057 315.292 83.5807 313.742 83.5807 311.675V303.725H87.5807V311.875C87.5807 312.608 87.789 313.192 88.2057 313.625C88.6223 314.058 89.1807 314.275 89.8807 314.275C90.5973 314.275 91.1807 314.05 91.6307 313.6C92.0807 313.15 92.3057 312.542 92.3057 311.775V303.725H96.3057V317.425H93.1307V311.65H93.4057C93.4057 313.033 93.2223 314.192 92.8557 315.125C92.5057 316.042 91.9807 316.725 91.2807 317.175C90.5807 317.625 89.714 317.85 88.6807 317.85H88.5057ZM107.343 317.5V316.25H112.743C114.093 316.25 115.26 316.033 116.243 315.6C117.243 315.167 118.068 314.575 118.718 313.825C119.368 313.075 119.851 312.225 120.168 311.275C120.501 310.308 120.668 309.308 120.668 308.275C120.668 307.192 120.501 306.175 120.168 305.225C119.851 304.275 119.36 303.433 118.693 302.7C118.026 301.967 117.201 301.392 116.218 300.975C115.235 300.558 114.076 300.35 112.743 300.35H107.343V299.1H112.593C114.21 299.1 115.61 299.358 116.793 299.875C117.976 300.375 118.951 301.05 119.718 301.9C120.501 302.75 121.085 303.708 121.468 304.775C121.851 305.842 122.043 306.942 122.043 308.075V308.475C122.043 309.558 121.86 310.642 121.493 311.725C121.126 312.792 120.551 313.758 119.768 314.625C119.001 315.492 118.026 316.192 116.843 316.725C115.66 317.242 114.243 317.5 112.593 317.5H107.343ZM106.468 317.5V299.1H107.818V317.5H106.468ZM131.338 317.85C130.221 317.85 129.255 317.658 128.438 317.275C127.621 316.875 126.955 316.35 126.438 315.7C125.921 315.033 125.53 314.292 125.263 313.475C125.013 312.642 124.888 311.8 124.888 310.95V310.7C124.888 309.833 125.013 309 125.263 308.2C125.53 307.4 125.921 306.675 126.438 306.025C126.971 305.358 127.63 304.842 128.413 304.475C129.213 304.092 130.138 303.9 131.188 303.9C132.521 303.9 133.638 304.2 134.538 304.8C135.455 305.383 136.146 306.15 136.613 307.1C137.08 308.05 137.313 309.05 137.313 310.1V311H125.513V309.9H136.438L136.038 310.4C136.038 309.383 135.846 308.475 135.463 307.675C135.096 306.875 134.546 306.25 133.813 305.8C133.096 305.333 132.221 305.1 131.188 305.1C130.071 305.1 129.138 305.358 128.388 305.875C127.638 306.392 127.071 307.083 126.688 307.95C126.321 308.817 126.138 309.775 126.138 310.825C126.138 311.875 126.321 312.842 126.688 313.725C127.071 314.592 127.646 315.3 128.413 315.85C129.18 316.383 130.155 316.65 131.338 316.65C132.605 316.65 133.621 316.358 134.388 315.775C135.171 315.192 135.646 314.492 135.813 313.675H137.113C136.93 314.492 136.58 315.217 136.063 315.85C135.546 316.483 134.888 316.975 134.088 317.325C133.305 317.675 132.388 317.85 131.338 317.85ZM141.125 322.425V304.3H142.175V309.9L141.775 310.075C141.791 308.842 142.05 307.767 142.55 306.85C143.066 305.917 143.766 305.192 144.65 304.675C145.533 304.158 146.558 303.9 147.725 303.9C148.725 303.9 149.616 304.092 150.4 304.475C151.183 304.842 151.841 305.35 152.375 306C152.925 306.633 153.341 307.358 153.625 308.175C153.908 308.992 154.05 309.85 154.05 310.75V311C154.05 311.85 153.908 312.683 153.625 313.5C153.341 314.3 152.925 315.033 152.375 315.7C151.841 316.35 151.183 316.875 150.4 317.275C149.616 317.658 148.725 317.85 147.725 317.85C146.558 317.85 145.525 317.583 144.625 317.05C143.741 316.517 143.05 315.783 142.55 314.85C142.05 313.9 141.783 312.825 141.75 311.625L142.45 313.375V322.425H141.125ZM147.55 316.65C148.65 316.65 149.583 316.383 150.35 315.85C151.133 315.3 151.725 314.592 152.125 313.725C152.525 312.842 152.725 311.892 152.725 310.875C152.725 309.808 152.516 308.842 152.1 307.975C151.7 307.092 151.108 306.392 150.325 305.875C149.558 305.358 148.633 305.1 147.55 305.1C146.55 305.1 145.658 305.325 144.875 305.775C144.108 306.208 143.5 306.817 143.05 307.6C142.6 308.367 142.375 309.25 142.375 310.25V311.525C142.375 312.475 142.591 313.342 143.025 314.125C143.475 314.892 144.083 315.508 144.85 315.975C145.633 316.425 146.533 316.65 147.55 316.65ZM163.793 317.85C162.693 317.85 161.718 317.65 160.868 317.25C160.018 316.85 159.301 316.325 158.718 315.675C158.151 315.025 157.718 314.3 157.418 313.5C157.134 312.683 156.993 311.85 156.993 311V310.75C156.993 309.883 157.143 309.042 157.443 308.225C157.743 307.408 158.184 306.675 158.768 306.025C159.351 305.375 160.059 304.858 160.893 304.475C161.743 304.092 162.709 303.9 163.793 303.9C164.859 303.9 165.809 304.092 166.643 304.475C167.493 304.858 168.209 305.375 168.793 306.025C169.376 306.675 169.818 307.408 170.118 308.225C170.434 309.042 170.593 309.883 170.593 310.75V311C170.593 311.85 170.443 312.683 170.143 313.5C169.843 314.3 169.401 315.025 168.818 315.675C168.251 316.325 167.543 316.85 166.693 317.25C165.859 317.65 164.893 317.85 163.793 317.85ZM163.793 316.625C164.959 316.625 165.943 316.358 166.743 315.825C167.559 315.292 168.176 314.592 168.593 313.725C169.026 312.842 169.243 311.892 169.243 310.875C169.243 309.825 169.026 308.867 168.593 308C168.159 307.117 167.534 306.417 166.718 305.9C165.918 305.367 164.943 305.1 163.793 305.1C162.659 305.1 161.676 305.367 160.843 305.9C160.026 306.417 159.401 307.117 158.968 308C158.534 308.867 158.318 309.825 158.318 310.875C158.318 311.892 158.526 312.842 158.943 313.725C159.376 314.592 160.001 315.292 160.818 315.825C161.634 316.358 162.626 316.625 163.793 316.625ZM178.546 317.8C176.913 317.8 175.654 317.425 174.771 316.675C173.904 315.925 173.463 314.967 173.446 313.8H174.746C174.746 314.55 175.038 315.208 175.621 315.775C176.221 316.325 177.196 316.6 178.546 316.6C179.863 316.6 180.829 316.325 181.446 315.775C182.063 315.208 182.371 314.542 182.371 313.775C182.371 313.025 182.088 312.45 181.521 312.05C180.971 311.65 180.221 311.4 179.271 311.3L177.721 311.125C176.571 310.992 175.654 310.633 174.971 310.05C174.304 309.467 173.971 308.675 173.971 307.675C173.971 306.958 174.154 306.317 174.521 305.75C174.888 305.183 175.413 304.733 176.096 304.4C176.796 304.067 177.613 303.9 178.546 303.9C179.913 303.9 181.013 304.233 181.846 304.9C182.696 305.567 183.129 306.475 183.146 307.625H181.846C181.863 306.908 181.579 306.308 180.996 305.825C180.429 305.342 179.613 305.1 178.546 305.1C177.429 305.1 176.596 305.358 176.046 305.875C175.513 306.392 175.246 307 175.246 307.7C175.246 308.283 175.454 308.783 175.871 309.2C176.304 309.617 176.954 309.875 177.821 309.975L179.371 310.15C180.604 310.267 181.621 310.625 182.421 311.225C183.238 311.825 183.646 312.683 183.646 313.8C183.646 314.55 183.438 315.225 183.021 315.825C182.621 316.425 182.046 316.908 181.296 317.275C180.546 317.625 179.629 317.8 178.546 317.8ZM188.407 317.425V304.3H189.757V317.425H188.407ZM186.232 305.45V304.3H189.757V305.45H186.232ZM188.532 301.55C188.182 301.55 187.915 301.458 187.732 301.275C187.549 301.075 187.457 300.825 187.457 300.525C187.457 300.208 187.549 299.95 187.732 299.75C187.915 299.55 188.19 299.45 188.557 299.45C188.907 299.45 189.174 299.55 189.357 299.75C189.54 299.95 189.632 300.208 189.632 300.525C189.632 300.825 189.54 301.075 189.357 301.275C189.19 301.458 188.915 301.55 188.532 301.55ZM199.308 317.55C198.492 317.55 197.775 317.433 197.158 317.2C196.542 316.95 196.067 316.533 195.733 315.95C195.4 315.367 195.233 314.583 195.233 313.6V300.025H196.533V313.825C196.533 314.625 196.75 315.25 197.183 315.7C197.633 316.133 198.25 316.35 199.033 316.35H201.483V317.55H199.308ZM192.733 305.375V304.3H201.483V305.375H192.733ZM217.565 317.85C216.015 317.85 214.723 317.608 213.69 317.125C212.656 316.625 211.881 315.95 211.365 315.1C210.848 314.233 210.59 313.258 210.59 312.175H211.94C211.94 313.008 212.131 313.758 212.515 314.425C212.915 315.092 213.531 315.625 214.365 316.025C215.198 316.408 216.265 316.6 217.565 316.6C218.781 316.6 219.798 316.425 220.615 316.075C221.431 315.725 222.04 315.25 222.44 314.65C222.856 314.033 223.065 313.325 223.065 312.525C223.065 311.542 222.698 310.708 221.965 310.025C221.231 309.325 220.115 308.9 218.615 308.75L216.44 308.575C214.923 308.442 213.723 307.958 212.84 307.125C211.956 306.292 211.515 305.2 211.515 303.85C211.515 302.883 211.74 302.017 212.19 301.25C212.64 300.467 213.315 299.85 214.215 299.4C215.115 298.933 216.223 298.7 217.54 298.7C218.873 298.7 219.998 298.95 220.915 299.45C221.831 299.933 222.523 300.592 222.99 301.425C223.473 302.242 223.715 303.167 223.715 304.2H222.365C222.365 303.45 222.198 302.758 221.865 302.125C221.531 301.475 221.006 300.95 220.29 300.55C219.59 300.15 218.673 299.95 217.54 299.95C216.44 299.95 215.548 300.133 214.865 300.5C214.181 300.85 213.673 301.325 213.34 301.925C213.023 302.508 212.865 303.15 212.865 303.85C212.865 304.85 213.181 305.65 213.815 306.25C214.465 306.85 215.39 307.208 216.59 307.325L218.765 307.5C219.981 307.6 221.006 307.883 221.84 308.35C222.69 308.8 223.331 309.383 223.765 310.1C224.198 310.817 224.415 311.625 224.415 312.525C224.415 313.542 224.148 314.458 223.615 315.275C223.081 316.075 222.306 316.708 221.29 317.175C220.273 317.625 219.031 317.85 217.565 317.85ZM233.317 317.55C232.501 317.55 231.784 317.433 231.167 317.2C230.551 316.95 230.076 316.533 229.742 315.95C229.409 315.367 229.242 314.583 229.242 313.6V300.025H230.542V313.825C230.542 314.625 230.759 315.25 231.192 315.7C231.642 316.133 232.259 316.35 233.042 316.35H235.492V317.55H233.317ZM226.742 305.375V304.3H235.492V305.375H226.742ZM247.343 317.425V313.5H247.093V308.675C247.093 307.625 246.818 306.817 246.268 306.25C245.718 305.667 244.81 305.375 243.543 305.375C243.093 305.375 242.635 305.392 242.168 305.425C241.701 305.442 241.26 305.467 240.843 305.5C240.426 305.517 240.051 305.55 239.718 305.6V304.4C240.051 304.35 240.401 304.308 240.768 304.275C241.151 304.242 241.535 304.217 241.918 304.2C242.301 304.183 242.668 304.175 243.018 304.175C244.335 304.175 245.385 304.35 246.168 304.7C246.951 305.033 247.518 305.55 247.868 306.25C248.218 306.933 248.393 307.808 248.393 308.875V317.425H247.343ZM242.768 317.775C241.885 317.775 241.093 317.617 240.393 317.3C239.693 316.983 239.135 316.517 238.718 315.9C238.318 315.283 238.118 314.533 238.118 313.65C238.118 312.8 238.31 312.075 238.693 311.475C239.093 310.875 239.66 310.417 240.393 310.1C241.143 309.783 242.043 309.625 243.093 309.625H247.218V310.7H242.968C241.835 310.7 240.96 310.975 240.343 311.525C239.743 312.058 239.443 312.767 239.443 313.65C239.443 314.583 239.768 315.325 240.418 315.875C241.068 316.408 241.918 316.675 242.968 316.675C243.618 316.675 244.251 316.55 244.868 316.3C245.485 316.05 246.001 315.633 246.418 315.05C246.835 314.45 247.06 313.65 247.093 312.65L247.593 313.225C247.543 314.242 247.293 315.092 246.843 315.775C246.41 316.442 245.843 316.942 245.143 317.275C244.443 317.608 243.651 317.775 242.768 317.775ZM259.906 317.85C258.706 317.85 257.656 317.575 256.756 317.025C255.873 316.458 255.181 315.708 254.681 314.775C254.198 313.842 253.948 312.808 253.931 311.675H254.406V317.425H253.356V299.175H254.681V308.525L254.056 310.1C254.09 308.85 254.348 307.767 254.831 306.85C255.331 305.917 256.023 305.192 256.906 304.675C257.79 304.158 258.815 303.9 259.981 303.9C260.965 303.9 261.848 304.092 262.631 304.475C263.415 304.842 264.073 305.35 264.606 306C265.156 306.633 265.573 307.358 265.856 308.175C266.14 308.975 266.281 309.825 266.281 310.725V310.975C266.281 311.842 266.14 312.683 265.856 313.5C265.59 314.3 265.181 315.033 264.631 315.7C264.081 316.35 263.406 316.875 262.606 317.275C261.823 317.658 260.923 317.85 259.906 317.85ZM259.781 316.65C260.881 316.65 261.815 316.383 262.581 315.85C263.365 315.3 263.956 314.583 264.356 313.7C264.756 312.817 264.956 311.867 264.956 310.85C264.956 309.783 264.748 308.817 264.331 307.95C263.915 307.067 263.323 306.375 262.556 305.875C261.79 305.358 260.865 305.1 259.781 305.1C258.781 305.1 257.89 305.325 257.106 305.775C256.34 306.208 255.731 306.817 255.281 307.6C254.831 308.367 254.606 309.25 254.606 310.25V311.525C254.606 312.475 254.823 313.342 255.256 314.125C255.706 314.892 256.315 315.508 257.081 315.975C257.865 316.425 258.765 316.65 259.781 316.65ZM270.399 317.425V299.175H271.724V317.425H270.399ZM268.424 300.3V299.175H271.724V300.3H268.424ZM282.217 317.85C281.1 317.85 280.134 317.658 279.317 317.275C278.5 316.875 277.834 316.35 277.317 315.7C276.8 315.033 276.409 314.292 276.142 313.475C275.892 312.642 275.767 311.8 275.767 310.95V310.7C275.767 309.833 275.892 309 276.142 308.2C276.409 307.4 276.8 306.675 277.317 306.025C277.85 305.358 278.509 304.842 279.292 304.475C280.092 304.092 281.017 303.9 282.067 303.9C283.4 303.9 284.517 304.2 285.417 304.8C286.334 305.383 287.025 306.15 287.492 307.1C287.959 308.05 288.192 309.05 288.192 310.1V311H276.392V309.9H287.317L286.917 310.4C286.917 309.383 286.725 308.475 286.342 307.675C285.975 306.875 285.425 306.25 284.692 305.8C283.975 305.333 283.1 305.1 282.067 305.1C280.95 305.1 280.017 305.358 279.267 305.875C278.517 306.392 277.95 307.083 277.567 307.95C277.2 308.817 277.017 309.775 277.017 310.825C277.017 311.875 277.2 312.842 277.567 313.725C277.95 314.592 278.525 315.3 279.292 315.85C280.059 316.383 281.034 316.65 282.217 316.65C283.484 316.65 284.5 316.358 285.267 315.775C286.05 315.192 286.525 314.492 286.692 313.675H287.992C287.809 314.492 287.459 315.217 286.942 315.85C286.425 316.483 285.767 316.975 284.967 317.325C284.184 317.675 283.267 317.85 282.217 317.85ZM297.379 317.85C296.295 317.85 295.345 317.65 294.529 317.25C293.729 316.85 293.054 316.317 292.504 315.65C291.97 314.983 291.57 314.242 291.304 313.425C291.037 312.608 290.904 311.783 290.904 310.95V310.7C290.904 309.85 291.037 309.017 291.304 308.2C291.57 307.383 291.97 306.658 292.504 306.025C293.054 305.375 293.729 304.858 294.529 304.475C295.345 304.092 296.295 303.9 297.379 303.9C298.429 303.9 299.362 304.092 300.179 304.475C301.012 304.858 301.687 305.4 302.204 306.1C302.737 306.783 303.07 307.608 303.204 308.575H301.904C301.754 307.575 301.287 306.75 300.504 306.1C299.72 305.433 298.679 305.1 297.379 305.1C296.229 305.1 295.27 305.358 294.504 305.875C293.737 306.392 293.162 307.083 292.779 307.95C292.412 308.817 292.229 309.775 292.229 310.825C292.229 311.842 292.42 312.792 292.804 313.675C293.187 314.558 293.762 315.275 294.529 315.825C295.295 316.358 296.245 316.625 297.379 316.625C298.262 316.625 299.037 316.467 299.704 316.15C300.387 315.817 300.937 315.383 301.354 314.85C301.77 314.3 302.02 313.7 302.104 313.05H303.404C303.287 314.017 302.954 314.858 302.404 315.575C301.854 316.275 301.145 316.833 300.279 317.25C299.412 317.65 298.445 317.85 297.379 317.85ZM312.743 317.85C311.643 317.85 310.668 317.65 309.818 317.25C308.968 316.85 308.251 316.325 307.668 315.675C307.101 315.025 306.668 314.3 306.368 313.5C306.084 312.683 305.943 311.85 305.943 311V310.75C305.943 309.883 306.093 309.042 306.393 308.225C306.693 307.408 307.134 306.675 307.718 306.025C308.301 305.375 309.009 304.858 309.843 304.475C310.693 304.092 311.659 303.9 312.743 303.9C313.809 303.9 314.759 304.092 315.593 304.475C316.443 304.858 317.159 305.375 317.743 306.025C318.326 306.675 318.768 307.408 319.068 308.225C319.384 309.042 319.543 309.883 319.543 310.75V311C319.543 311.85 319.393 312.683 319.093 313.5C318.793 314.3 318.351 315.025 317.768 315.675C317.201 316.325 316.493 316.85 315.643 317.25C314.809 317.65 313.843 317.85 312.743 317.85ZM312.743 316.625C313.909 316.625 314.893 316.358 315.693 315.825C316.509 315.292 317.126 314.592 317.543 313.725C317.976 312.842 318.193 311.892 318.193 310.875C318.193 309.825 317.976 308.867 317.543 308C317.109 307.117 316.484 306.417 315.668 305.9C314.868 305.367 313.893 305.1 312.743 305.1C311.609 305.1 310.626 305.367 309.793 305.9C308.976 306.417 308.351 307.117 307.918 308C307.484 308.867 307.268 309.825 307.268 310.875C307.268 311.892 307.476 312.842 307.893 313.725C308.326 314.592 308.951 315.292 309.768 315.825C310.584 316.358 311.576 316.625 312.743 316.625ZM324.271 317.425V304.3H325.621V317.425H324.271ZM322.096 305.45V304.3H325.621V305.45H322.096ZM324.396 301.55C324.046 301.55 323.779 301.458 323.596 301.275C323.413 301.075 323.321 300.825 323.321 300.525C323.321 300.208 323.413 299.95 323.596 299.75C323.779 299.55 324.054 299.45 324.421 299.45C324.771 299.45 325.038 299.55 325.221 299.75C325.404 299.95 325.496 300.208 325.496 300.525C325.496 300.825 325.404 301.075 325.221 301.275C325.054 301.458 324.779 301.55 324.396 301.55ZM330.798 317.425V304.3H331.848V309.675H331.548C331.548 308.525 331.731 307.525 332.098 306.675C332.481 305.808 333.039 305.142 333.773 304.675C334.523 304.192 335.448 303.95 336.548 303.95H336.623C338.273 303.95 339.514 304.467 340.348 305.5C341.181 306.517 341.598 307.908 341.598 309.675V317.425H340.248V309.375C340.248 308.125 339.906 307.117 339.223 306.35C338.556 305.567 337.589 305.175 336.323 305.175C335.039 305.175 334.014 305.575 333.248 306.375C332.498 307.158 332.123 308.2 332.123 309.5V317.425H330.798Z" fill="white"/>
<defs>
<linearGradient id="paint0_linear_493_4572" x1="111.855" y1="193.826" x2="218.02" y2="144.537" gradientUnits="userSpaceOnUse">
<stop stop-color="#136167"/>
<stop offset="1" stop-color="#1D1B29"/>
</linearGradient>
<linearGradient id="paint1_linear_493_4572" x1="137.285" y1="80.6242" x2="280.156" y2="197.415" gradientUnits="userSpaceOnUse">
<stop stop-color="white"/>
<stop offset="1" stop-color="white" stop-opacity="0"/>
</linearGradient>
<linearGradient id="paint2_linear_493_4572" x1="196.083" y1="190.821" x2="196.083" y2="264.821" gradientUnits="userSpaceOnUse">
<stop stop-color="white"/>
<stop offset="1" stop-color="white" stop-opacity="0"/>
</linearGradient>
</defs>
</svg>
