<svg width="353" height="351" viewBox="0 0 353 351" fill="none" xmlns="http://www.w3.org/2000/svg">
<path d="M107.146 210.436C101.853 207.384 97.4714 202.969 94.4438 197.638C91.4162 192.307 89.8499 186.249 89.9035 180.076L90.463 119.653C90.5185 113.569 92.1536 107.586 95.206 102.299C98.2584 97.012 102.622 92.6046 107.864 89.5144L159.912 58.8182C165.231 55.6857 171.26 54.0131 177.391 53.9696C183.521 53.9261 189.536 55.5131 194.825 58.5703L245.78 87.9889C251.072 91.0414 255.454 95.4565 258.482 100.787C261.509 106.119 263.075 112.176 263.022 118.349L262.462 178.772C262.407 184.856 260.772 190.839 257.719 196.126C254.667 201.413 250.303 205.82 245.062 208.911L193.013 239.607C187.695 242.739 181.665 244.412 175.535 244.456C169.404 244.499 163.39 242.912 158.1 239.855L107.146 210.436Z" fill="url(#paint0_linear_493_4658)"/>
<path fill-rule="evenodd" clip-rule="evenodd" d="M263.022 118.349L262.462 178.772C262.407 184.856 260.772 190.839 257.72 196.126C254.667 201.413 250.303 205.82 245.062 208.911L193.014 239.607C187.695 242.739 181.666 244.412 175.535 244.456C169.404 244.499 163.39 242.912 158.1 239.855L107.146 210.436C101.853 207.384 97.4716 202.969 94.444 197.638C91.4163 192.307 89.8501 186.249 89.9037 180.076L90.4632 119.653C90.5187 113.569 92.1537 107.586 95.2062 102.299C98.2586 97.012 102.622 92.6046 107.864 89.5144L159.912 58.8182C165.231 55.6857 171.26 54.0131 177.391 53.9696C183.521 53.9261 189.536 55.5131 194.826 58.5703L245.78 87.9889C251.072 91.0414 255.454 95.4565 258.482 100.787C261.509 106.119 263.076 112.176 263.022 118.349ZM246.28 87.1226C246.28 87.1227 246.28 87.1228 246.28 87.1228C251.727 90.2647 256.236 94.8085 259.351 100.294C262.466 105.779 264.077 112.01 264.022 118.357L264.022 118.358L263.462 178.781C263.462 178.781 263.462 178.781 263.462 178.781C263.405 185.039 261.724 191.19 258.586 196.626C255.447 202.062 250.96 206.594 245.57 209.772C245.57 209.772 245.57 209.772 245.57 209.772L193.522 240.468L193.521 240.469C188.052 243.69 181.85 245.411 175.542 245.456C169.234 245.5 163.045 243.867 157.6 240.721L106.646 211.302C101.199 208.16 96.6896 203.617 93.5744 198.131C90.4592 192.646 88.8486 186.415 88.9037 180.068L88.9037 180.067L89.4633 119.644C89.4633 119.644 89.4633 119.644 89.4633 119.644C89.5203 113.386 91.2018 107.235 94.3402 101.799C97.4785 96.3632 101.965 91.8312 107.356 88.653C107.356 88.653 107.356 88.653 107.356 88.653L159.404 57.9568L159.405 57.9565C164.874 54.7353 171.076 53.0144 177.384 52.9696C183.692 52.9248 189.881 54.5578 195.326 57.7043M246.28 87.1226L195.326 57.7045L246.28 87.1226Z" fill="url(#paint1_linear_493_4658)"/>
<mask id="mask0_493_4658" style="mask-type:alpha" maskUnits="userSpaceOnUse" x="88" y="52" width="174" height="191">
<path d="M106.004 208.969C100.725 205.924 96.3545 201.52 93.3345 196.203C90.3146 190.885 88.7524 184.843 88.8058 178.686L89.3639 118.416C89.4192 112.347 91.0501 106.38 94.0948 101.106C97.1395 95.8326 101.492 91.4364 106.72 88.354L158.636 57.7358C163.941 54.6113 169.956 52.9429 176.071 52.8995C182.186 52.8561 188.185 54.4392 193.461 57.4886L244.286 86.8324C249.565 89.8772 253.936 94.2811 256.956 99.5985C259.976 104.916 261.538 110.959 261.484 117.115L260.926 177.385C260.871 183.454 259.24 189.421 256.195 194.695C253.151 199.968 248.798 204.365 243.57 207.447L191.654 238.065C186.349 241.19 180.335 242.858 174.22 242.902C168.105 242.945 162.105 241.362 156.829 238.313L106.004 208.969Z" fill="white"/>
</mask>
<g mask="url(#mask0_493_4658)">
<path opacity="0.2" d="M160.024 247.506C156.688 247.506 153.855 246.963 151.527 245.877C149.199 244.751 147.298 243.238 145.824 241.337C144.35 239.397 143.263 237.186 142.565 234.702C141.905 232.181 141.575 229.542 141.575 226.787V223.528C141.575 219.61 142.235 216.079 143.554 212.936C144.873 209.794 146.891 207.31 149.607 205.487C152.323 203.625 155.795 202.693 160.024 202.693C164.215 202.693 167.668 203.625 170.384 205.487C173.1 207.31 175.098 209.794 176.378 212.936C177.697 216.079 178.357 219.61 178.357 223.528V226.787C178.357 229.542 178.008 232.181 177.309 234.702C176.65 237.186 175.583 239.397 174.108 241.337C172.673 243.238 170.791 244.751 168.463 245.877C166.135 246.963 163.322 247.506 160.024 247.506ZM160.024 239.94C163.477 239.94 166.019 238.757 167.648 236.39C169.278 233.985 170.093 230.26 170.093 225.216C170.093 219.862 169.258 216.04 167.59 213.751C165.922 211.423 163.4 210.259 160.024 210.259C156.61 210.259 154.049 211.423 152.342 213.751C150.674 216.04 149.84 219.823 149.84 225.1C149.84 230.182 150.674 233.926 152.342 236.332C154.011 238.738 156.571 239.94 160.024 239.94ZM197.184 247.506C193.925 247.506 191.112 246.885 188.745 245.644C186.417 244.402 184.632 242.753 183.391 240.697C182.149 238.602 181.529 236.274 181.529 233.713H189.502C189.502 235.769 190.181 237.438 191.539 238.718C192.935 239.96 194.817 240.581 197.184 240.581C198.775 240.581 200.133 240.29 201.258 239.708C202.422 239.087 203.314 238.253 203.935 237.205C204.556 236.119 204.866 234.877 204.866 233.48C204.866 231.385 204.187 229.678 202.829 228.359C201.471 227.001 199.609 226.322 197.242 226.322C196.078 226.322 195.05 226.477 194.158 226.787C193.304 227.098 192.547 227.505 191.888 228.01L188.105 221.491L202.073 211.947L201.549 210.958H183.274V203.916H211.035V212.412L196.66 221.957L192.179 221.142C192.916 220.909 193.711 220.735 194.565 220.618C195.419 220.463 196.35 220.386 197.358 220.386C200.579 220.386 203.334 220.948 205.623 222.073C207.951 223.16 209.735 224.673 210.977 226.613C212.218 228.553 212.839 230.784 212.839 233.306V234.062C212.839 236.507 212.218 238.757 210.977 240.813C209.735 242.831 207.951 244.46 205.623 245.702C203.295 246.905 200.482 247.506 197.184 247.506Z" fill="url(#paint2_linear_493_4658)"/>
</g>
<path d="M175.581 184.583C173.462 184.585 171.364 184.168 169.407 183.355C167.45 182.543 165.673 181.352 164.179 179.85L162.277 177.952C161.671 177.348 160.851 177.007 159.996 177.005H157.324C153.048 177.001 148.949 175.3 145.925 172.277C142.902 169.253 141.201 165.154 141.197 160.878V158.206C141.194 157.35 140.854 156.531 140.25 155.925L138.352 154.023C135.331 150.998 133.633 146.897 133.633 142.621C133.633 138.345 135.331 134.243 138.352 131.218L140.25 129.316C140.854 128.71 141.194 127.891 141.197 127.035V124.38C141.201 120.105 142.902 116.005 145.925 112.982C148.949 109.958 153.048 108.258 157.324 108.253H159.996C160.851 108.251 161.671 107.911 162.277 107.306L164.179 105.409C167.204 102.387 171.305 100.69 175.581 100.69C179.857 100.69 183.959 102.387 186.984 105.409L188.886 107.306C189.491 107.911 190.311 108.251 191.167 108.253H193.839C198.114 108.258 202.214 109.958 205.237 112.982C208.261 116.005 209.961 120.105 209.966 124.38V127.053C209.968 127.908 210.308 128.728 210.913 129.333L212.81 131.235C215.832 134.261 217.529 138.362 217.529 142.638C217.529 146.914 215.832 151.015 212.81 154.041L210.913 155.942C210.308 156.548 209.968 157.368 209.966 158.223V160.895C209.961 165.171 208.261 169.27 205.237 172.294C202.214 175.317 198.114 177.018 193.839 177.023H191.167C190.312 177.025 189.493 177.363 188.886 177.965L186.984 179.867C185.488 181.366 183.711 182.554 181.754 183.363C179.797 184.173 177.699 184.587 175.581 184.583ZM157.324 114.707C154.76 114.711 152.301 115.731 150.488 117.544C148.675 119.358 147.654 121.816 147.651 124.38V127.053C147.654 128.324 147.404 129.584 146.918 130.759C146.431 131.934 145.716 133.001 144.815 133.899L142.913 135.796C141.1 137.611 140.082 140.072 140.082 142.638C140.082 145.203 141.1 147.664 142.913 149.479L144.815 151.377C145.716 152.274 146.431 153.341 146.918 154.516C147.404 155.691 147.654 156.951 147.651 158.223V160.895C147.654 163.46 148.675 165.918 150.488 167.731C152.301 169.544 154.76 170.565 157.324 170.568H159.996C162.563 170.574 165.023 171.593 166.842 173.404L168.74 175.306C170.581 177.068 173.032 178.051 175.581 178.051C178.13 178.051 180.581 177.068 182.423 175.306L184.321 173.404C186.139 171.593 188.6 170.574 191.167 170.568H193.839C196.403 170.565 198.861 169.544 200.675 167.731C202.488 165.918 203.508 163.46 203.512 160.895V158.223C203.509 156.951 203.758 155.691 204.245 154.516C204.732 153.341 205.446 152.274 206.347 151.377L208.249 149.479C210.062 147.664 211.081 145.203 211.081 142.638C211.081 140.072 210.062 137.611 208.249 135.796L206.347 133.899C205.446 133.001 204.732 131.934 204.245 130.759C203.758 129.584 203.509 128.324 203.512 127.053V124.38C203.508 121.816 202.488 119.358 200.675 117.544C198.861 115.731 196.403 114.711 193.839 114.707H191.167C188.6 114.7 186.14 113.681 184.321 111.872L182.423 109.97C180.581 108.208 178.13 107.224 175.581 107.224C173.032 107.224 170.581 108.208 168.74 109.97L166.842 111.872C165.022 113.681 162.562 114.7 159.996 114.707H157.324Z" fill="white"/>
<path d="M179.564 132.94V134.032C179.564 134.735 179.164 135.306 178.461 135.306H172.462C171.761 135.306 171.372 134.735 171.372 134.032V132.94C171.372 132.236 171.76 131.665 172.462 131.665H178.461C179.164 131.665 179.564 132.236 179.564 132.94Z" fill="#F7B43D"/>
<path d="M167.843 152.96C167.602 152.943 167.361 152.945 167.12 152.966C166.539 153.059 166.418 152.792 166.393 152.257C166.319 150.17 165.468 148.187 164.007 146.695C162.546 145.204 160.581 144.312 158.496 144.195C157.663 144.143 157.508 143.85 157.525 143.104C157.574 140.8 157.548 140.799 159.843 141.1C165.097 141.791 169.307 146.408 169.563 151.761C169.62 152.936 169.615 152.943 168.477 152.951C168.265 152.953 168.054 152.951 167.843 152.951L167.843 152.96Z" fill="#F7B43D"/>
<path d="M183.072 152.954C181.213 152.97 181.153 152.944 181.441 151.003C181.782 148.267 183.101 145.747 185.154 143.907C187.207 142.067 189.855 141.032 192.612 140.992C193.22 140.969 193.373 141.2 193.392 141.77C193.463 143.997 193.48 143.997 191.267 144.357C187.842 144.916 184.761 148.353 184.663 151.875C184.637 152.797 184.41 153.123 183.523 152.96C183.373 152.945 183.221 152.943 183.071 152.954" fill="#F7B43D"/>
<path d="M175.423 144.552C175.766 144.437 175.808 144.147 175.93 143.918C178.982 138.235 183.66 134.821 190.025 133.719C190.949 133.588 191.881 133.514 192.814 133.497C193.289 133.472 193.46 133.64 193.378 134.239C193.311 134.799 193.311 135.365 193.378 135.924C193.448 136.604 193.193 136.749 192.631 136.752C185.976 136.789 180.115 141.205 177.956 147.424C177.416 148.934 177.14 150.526 177.143 152.129C177.15 152.797 176.945 153.051 176.256 152.968C175.684 152.912 175.108 152.908 174.536 152.958C173.966 152.996 173.815 152.752 173.822 152.217C173.915 145.525 169.029 139.096 162.191 137.263C160.966 136.935 159.717 136.661 158.44 136.759C157.688 136.816 157.477 136.512 157.537 135.83C157.584 135.408 157.583 134.982 157.534 134.561C157.398 133.631 157.825 133.442 158.661 133.492C165.948 133.932 171.378 137.334 174.951 143.7C175.11 143.984 175.267 144.27 175.423 144.552Z" fill="#F7B43D"/>
<path d="M214.118 116.785L214.118 116.782C214.114 113.402 212.769 110.16 210.378 107.77C207.988 105.379 204.747 104.034 201.366 104.03H201.363C198.841 104.03 196.375 104.778 194.277 106.18C192.18 107.581 190.545 109.573 189.58 111.904C188.614 114.234 188.362 116.799 188.854 119.273C189.346 121.747 190.561 124.02 192.345 125.804C194.128 127.587 196.401 128.802 198.875 129.294C201.349 129.786 203.914 129.534 206.244 128.569C208.575 127.603 210.567 125.968 211.969 123.871C213.37 121.773 214.118 119.307 214.118 116.785Z" fill="white" stroke="#1D1B29" stroke-width="3.63598"/>
<path d="M206.788 114.255L200.596 120.447C200.488 120.555 200.36 120.641 200.219 120.699C200.079 120.758 199.928 120.788 199.775 120.788C199.623 120.788 199.472 120.758 199.331 120.699C199.19 120.641 199.062 120.555 198.955 120.447L195.858 117.351C195.653 117.131 195.542 116.84 195.547 116.539C195.552 116.238 195.674 115.951 195.887 115.738C196.1 115.526 196.387 115.404 196.687 115.399C196.988 115.393 197.279 115.505 197.499 115.71L199.775 117.984L205.147 112.614C205.367 112.409 205.658 112.297 205.959 112.302C206.26 112.308 206.547 112.43 206.759 112.642C206.972 112.855 207.094 113.142 207.099 113.443C207.105 113.744 206.993 114.035 206.788 114.255Z" fill="#1D1B29"/>
<path d="M83.4624 310.5L78.1374 299.175H82.3374L86.1624 307.65L85.4374 307.425H87.5374L86.7624 307.65L90.2124 299.175H94.1874L89.2874 310.5H83.4624ZM84.3624 317.425V309.925H88.3874V317.425H84.3624ZM101.501 317.9C100.301 317.9 99.2348 317.717 98.3015 317.35C97.3681 316.967 96.5765 316.45 95.9265 315.8C95.2931 315.15 94.8098 314.408 94.4765 313.575C94.1431 312.725 93.9765 311.833 93.9765 310.9V310.325C93.9765 309.375 94.1431 308.475 94.4765 307.625C94.8265 306.758 95.3265 306 95.9765 305.35C96.6431 304.7 97.4431 304.192 98.3765 303.825C99.3098 303.442 100.351 303.25 101.501 303.25C102.685 303.25 103.735 303.442 104.651 303.825C105.585 304.192 106.376 304.7 107.026 305.35C107.676 306 108.176 306.758 108.526 307.625C108.876 308.475 109.051 309.375 109.051 310.325V310.9C109.051 311.833 108.885 312.725 108.551 313.575C108.218 314.408 107.726 315.15 107.076 315.8C106.443 316.45 105.66 316.967 104.726 317.35C103.793 317.717 102.718 317.9 101.501 317.9ZM101.501 314.525C102.285 314.525 102.935 314.358 103.451 314.025C103.968 313.692 104.36 313.225 104.626 312.625C104.91 312.025 105.051 311.358 105.051 310.625C105.051 309.842 104.91 309.158 104.626 308.575C104.343 307.975 103.935 307.5 103.401 307.15C102.885 306.8 102.251 306.625 101.501 306.625C100.768 306.625 100.135 306.8 99.6015 307.15C99.0681 307.5 98.6598 307.975 98.3765 308.575C98.1098 309.158 97.9765 309.842 97.9765 310.625C97.9765 311.358 98.1098 312.025 98.3765 312.625C98.6431 313.225 99.0431 313.692 99.5765 314.025C100.11 314.358 100.751 314.525 101.501 314.525ZM116.468 317.85C114.885 317.85 113.668 317.342 112.818 316.325C111.968 315.292 111.543 313.742 111.543 311.675V303.725H115.543V311.875C115.543 312.608 115.751 313.192 116.168 313.625C116.585 314.058 117.143 314.275 117.843 314.275C118.56 314.275 119.143 314.05 119.593 313.6C120.043 313.15 120.268 312.542 120.268 311.775V303.725H124.268V317.425H121.093V311.65H121.368C121.368 313.033 121.185 314.192 120.818 315.125C120.468 316.042 119.943 316.725 119.243 317.175C118.543 317.625 117.676 317.85 116.643 317.85H116.468ZM134.87 317.425V299.175H136.22V317.425H134.87ZM135.795 317.425V316.2H145.195V317.425H135.795ZM135.795 308.775V307.525H144.295V308.775H135.795ZM135.795 300.4V299.175H144.895V300.4H135.795ZM157.557 317.425V313.5H157.307V308.675C157.307 307.625 157.032 306.817 156.482 306.25C155.932 305.667 155.023 305.375 153.757 305.375C153.307 305.375 152.848 305.392 152.382 305.425C151.915 305.442 151.473 305.467 151.057 305.5C150.64 305.517 150.265 305.55 149.932 305.6V304.4C150.265 304.35 150.615 304.308 150.982 304.275C151.365 304.242 151.748 304.217 152.132 304.2C152.515 304.183 152.882 304.175 153.232 304.175C154.548 304.175 155.598 304.35 156.382 304.7C157.165 305.033 157.732 305.55 158.082 306.25C158.432 306.933 158.607 307.808 158.607 308.875V317.425H157.557ZM152.982 317.775C152.098 317.775 151.307 317.617 150.607 317.3C149.907 316.983 149.348 316.517 148.932 315.9C148.532 315.283 148.332 314.533 148.332 313.65C148.332 312.8 148.523 312.075 148.907 311.475C149.307 310.875 149.873 310.417 150.607 310.1C151.357 309.783 152.257 309.625 153.307 309.625H157.432V310.7H153.182C152.048 310.7 151.173 310.975 150.557 311.525C149.957 312.058 149.657 312.767 149.657 313.65C149.657 314.583 149.982 315.325 150.632 315.875C151.282 316.408 152.132 316.675 153.182 316.675C153.832 316.675 154.465 316.55 155.082 316.3C155.698 316.05 156.215 315.633 156.632 315.05C157.048 314.45 157.273 313.65 157.307 312.65L157.807 313.225C157.757 314.242 157.507 315.092 157.057 315.775C156.623 316.442 156.057 316.942 155.357 317.275C154.657 317.608 153.865 317.775 152.982 317.775ZM163.57 317.425V304.3H164.62V309.85H164.42C164.42 307.95 164.845 306.533 165.695 305.6C166.545 304.667 167.92 304.2 169.82 304.2H170.27V305.4H169.57C168.02 305.4 166.853 305.8 166.07 306.6C165.286 307.383 164.895 308.542 164.895 310.075V317.425H163.57ZM173.506 317.425V304.3H174.556V309.675H174.256C174.256 308.525 174.439 307.525 174.806 306.675C175.189 305.808 175.748 305.142 176.481 304.675C177.231 304.192 178.156 303.95 179.256 303.95H179.331C180.981 303.95 182.223 304.467 183.056 305.5C183.889 306.517 184.306 307.908 184.306 309.675V317.425H182.956V309.375C182.956 308.125 182.614 307.117 181.931 306.35C181.264 305.567 180.298 305.175 179.031 305.175C177.748 305.175 176.723 305.575 175.956 306.375C175.206 307.158 174.831 308.2 174.831 309.5V317.425H173.506ZM196.609 310.45V309.225H201.009C202.109 309.225 202.992 309.025 203.659 308.625C204.326 308.225 204.817 307.692 205.134 307.025C205.451 306.342 205.609 305.592 205.609 304.775C205.609 303.958 205.451 303.217 205.134 302.55C204.817 301.867 204.326 301.325 203.659 300.925C202.992 300.525 202.109 300.325 201.009 300.325H196.609V299.1H200.834C202.251 299.1 203.409 299.35 204.309 299.85C205.209 300.333 205.876 300.992 206.309 301.825C206.742 302.658 206.959 303.592 206.959 304.625V304.925C206.959 305.942 206.742 306.875 206.309 307.725C205.876 308.558 205.209 309.225 204.309 309.725C203.409 310.208 202.251 310.45 200.834 310.45H196.609ZM195.734 317.425V299.1H197.084V317.425H195.734ZM210.811 317.425V304.3H211.861V309.85H211.661C211.661 307.95 212.086 306.533 212.936 305.6C213.786 304.667 215.161 304.2 217.061 304.2H217.511V305.4H216.811C215.261 305.4 214.094 305.8 213.311 306.6C212.528 307.383 212.136 308.542 212.136 310.075V317.425H210.811ZM226.276 317.85C225.176 317.85 224.201 317.65 223.351 317.25C222.501 316.85 221.785 316.325 221.201 315.675C220.635 315.025 220.201 314.3 219.901 313.5C219.618 312.683 219.476 311.85 219.476 311V310.75C219.476 309.883 219.626 309.042 219.926 308.225C220.226 307.408 220.668 306.675 221.251 306.025C221.835 305.375 222.543 304.858 223.376 304.475C224.226 304.092 225.193 303.9 226.276 303.9C227.343 303.9 228.293 304.092 229.126 304.475C229.976 304.858 230.693 305.375 231.276 306.025C231.86 306.675 232.301 307.408 232.601 308.225C232.918 309.042 233.076 309.883 233.076 310.75V311C233.076 311.85 232.926 312.683 232.626 313.5C232.326 314.3 231.885 315.025 231.301 315.675C230.735 316.325 230.026 316.85 229.176 317.25C228.343 317.65 227.376 317.85 226.276 317.85ZM226.276 316.625C227.443 316.625 228.426 316.358 229.226 315.825C230.043 315.292 230.66 314.592 231.076 313.725C231.51 312.842 231.726 311.892 231.726 310.875C231.726 309.825 231.51 308.867 231.076 308C230.643 307.117 230.018 306.417 229.201 305.9C228.401 305.367 227.426 305.1 226.276 305.1C225.143 305.1 224.16 305.367 223.326 305.9C222.51 306.417 221.885 307.117 221.451 308C221.018 308.867 220.801 309.825 220.801 310.875C220.801 311.892 221.01 312.842 221.426 313.725C221.86 314.592 222.485 315.292 223.301 315.825C224.118 316.358 225.11 316.625 226.276 316.625ZM237.48 317.425V302.8C237.48 301.5 237.805 300.542 238.455 299.925C239.121 299.308 240.121 299 241.455 299H242.98V300.15H241.155C240.388 300.15 239.796 300.358 239.38 300.775C238.98 301.175 238.78 301.742 238.78 302.475V317.425H237.48ZM235.455 305.4V304.35H243.105V305.4H235.455ZM246.705 317.425V304.3H248.03V317.425H246.705ZM244.555 305.45V304.3H248.03V305.45H244.555ZM246.83 301.55C246.48 301.55 246.205 301.458 246.005 301.275C245.821 301.075 245.73 300.825 245.73 300.525C245.73 300.208 245.821 299.95 246.005 299.75C246.205 299.55 246.48 299.45 246.83 299.45C247.196 299.45 247.471 299.55 247.655 299.75C247.838 299.95 247.93 300.208 247.93 300.525C247.93 300.825 247.838 301.075 247.655 301.275C247.471 301.458 247.196 301.55 246.83 301.55ZM257.593 317.55C256.776 317.55 256.06 317.433 255.443 317.2C254.826 316.95 254.351 316.533 254.018 315.95C253.685 315.367 253.518 314.583 253.518 313.6V300.025H254.818V313.825C254.818 314.625 255.035 315.25 255.468 315.7C255.918 316.133 256.535 316.35 257.318 316.35H259.768V317.55H257.593ZM251.018 305.375V304.3H259.768V305.375H251.018ZM267.47 317.8C265.837 317.8 264.579 317.425 263.695 316.675C262.829 315.925 262.387 314.967 262.37 313.8H263.67C263.67 314.55 263.962 315.208 264.545 315.775C265.145 316.325 266.12 316.6 267.47 316.6C268.787 316.6 269.754 316.325 270.37 315.775C270.987 315.208 271.295 314.542 271.295 313.775C271.295 313.025 271.012 312.45 270.445 312.05C269.895 311.65 269.145 311.4 268.195 311.3L266.645 311.125C265.495 310.992 264.579 310.633 263.895 310.05C263.229 309.467 262.895 308.675 262.895 307.675C262.895 306.958 263.079 306.317 263.445 305.75C263.812 305.183 264.337 304.733 265.02 304.4C265.72 304.067 266.537 303.9 267.47 303.9C268.837 303.9 269.937 304.233 270.77 304.9C271.62 305.567 272.054 306.475 272.07 307.625H270.77C270.787 306.908 270.504 306.308 269.92 305.825C269.354 305.342 268.537 305.1 267.47 305.1C266.354 305.1 265.52 305.358 264.97 305.875C264.437 306.392 264.17 307 264.17 307.7C264.17 308.283 264.379 308.783 264.795 309.2C265.229 309.617 265.879 309.875 266.745 309.975L268.295 310.15C269.529 310.267 270.545 310.625 271.345 311.225C272.162 311.825 272.57 312.683 272.57 313.8C272.57 314.55 272.362 315.225 271.945 315.825C271.545 316.425 270.97 316.908 270.22 317.275C269.47 317.625 268.554 317.8 267.47 317.8Z" fill="white"/>
<defs>
<linearGradient id="paint0_linear_493_4658" x1="91.3177" y1="193.826" x2="197.483" y2="144.537" gradientUnits="userSpaceOnUse">
<stop stop-color="#7C5719"/>
<stop offset="1" stop-color="#1D1B29"/>
</linearGradient>
<linearGradient id="paint1_linear_493_4658" x1="116.747" y1="80.6242" x2="259.619" y2="197.415" gradientUnits="userSpaceOnUse">
<stop stop-color="white"/>
<stop offset="1" stop-color="white" stop-opacity="0"/>
</linearGradient>
<linearGradient id="paint2_linear_493_4658" x1="175.596" y1="190.4" x2="175.596" y2="264.4" gradientUnits="userSpaceOnUse">
<stop stop-color="white"/>
<stop offset="1" stop-color="white" stop-opacity="0"/>
</linearGradient>
</defs>
</svg>
