<svg width="353" height="351" viewBox="0 0 353 351" fill="none" xmlns="http://www.w3.org/2000/svg">
<path d="M107.146 210.436C101.853 207.384 97.4714 202.969 94.4438 197.638C91.4162 192.307 89.8499 186.249 89.9035 180.076L90.463 119.653C90.5185 113.569 92.1536 107.586 95.206 102.299C98.2584 97.012 102.622 92.6046 107.864 89.5144L159.912 58.8182C165.231 55.6857 171.26 54.0131 177.391 53.9696C183.521 53.9261 189.536 55.5131 194.825 58.5703L245.78 87.9889C251.072 91.0414 255.454 95.4565 258.482 100.787C261.509 106.119 263.075 112.176 263.022 118.349L262.462 178.772C262.407 184.856 260.772 190.839 257.719 196.126C254.667 201.413 250.303 205.82 245.062 208.911L193.013 239.607C187.695 242.739 181.665 244.412 175.535 244.456C169.404 244.499 163.39 242.912 158.1 239.855L107.146 210.436Z" fill="url(#paint0_linear_20_19)"/>
<path fill-rule="evenodd" clip-rule="evenodd" d="M263.022 118.349L262.462 178.772C262.407 184.856 260.772 190.839 257.72 196.126C254.667 201.413 250.303 205.82 245.062 208.911L193.014 239.607C187.695 242.739 181.666 244.412 175.535 244.456C169.404 244.499 163.39 242.912 158.1 239.855L107.146 210.436C101.853 207.384 97.4716 202.969 94.444 197.638C91.4163 192.307 89.8501 186.249 89.9037 180.076L90.4632 119.653C90.5187 113.569 92.1537 107.586 95.2062 102.299C98.2586 97.012 102.622 92.6046 107.864 89.5144L159.912 58.8182C165.231 55.6857 171.26 54.0131 177.391 53.9696C183.521 53.9261 189.536 55.5131 194.826 58.5703L245.78 87.9889C251.072 91.0414 255.454 95.4565 258.482 100.787C261.509 106.119 263.076 112.176 263.022 118.349ZM246.28 87.1226C246.28 87.1227 246.28 87.1228 246.28 87.1228C251.727 90.2647 256.236 94.8085 259.351 100.294C262.466 105.779 264.077 112.01 264.022 118.357L264.022 118.358L263.462 178.781C263.462 178.781 263.462 178.781 263.462 178.781C263.405 185.039 261.724 191.19 258.586 196.626C255.447 202.062 250.96 206.594 245.57 209.772C245.57 209.772 245.57 209.772 245.57 209.772L193.522 240.468L193.521 240.469C188.052 243.69 181.85 245.411 175.542 245.456C169.234 245.5 163.045 243.867 157.6 240.721L106.646 211.302C101.199 208.16 96.6896 203.617 93.5744 198.131C90.4592 192.646 88.8486 186.415 88.9037 180.068L88.9037 180.067L89.4633 119.644C89.4633 119.644 89.4633 119.644 89.4633 119.644C89.5203 113.386 91.2018 107.235 94.3402 101.799C97.4785 96.3632 101.965 91.8312 107.356 88.653C107.356 88.653 107.356 88.653 107.356 88.653L159.404 57.9568L159.405 57.9565C164.874 54.7353 171.076 53.0144 177.384 52.9696C183.692 52.9248 189.881 54.5578 195.326 57.7043M246.28 87.1226L195.326 57.7045Z" fill="url(#paint1_linear_20_19)"/>
<mask id="mask0_20_19" style="mask-type:alpha" maskUnits="userSpaceOnUse" x="88" y="52" width="174" height="191">
<path d="M106.004 208.969C100.725 205.924 96.3545 201.52 93.3345 196.203C90.3146 190.885 88.7524 184.843 88.8058 178.686L89.3639 118.416C89.4192 112.347 91.0501 106.38 94.0948 101.106C97.1395 95.8326 101.492 91.4364 106.72 88.354L158.636 57.7358C163.941 54.6113 169.956 52.9429 176.071 52.8995C182.186 52.8561 188.185 54.4392 193.461 57.4886L244.286 86.8324C249.565 89.8772 253.936 94.2811 256.956 99.5985C259.976 104.916 261.538 110.959 261.484 117.115L260.926 177.385C260.871 183.454 259.24 189.421 256.195 194.695C253.151 199.968 248.798 204.365 243.57 207.447L191.654 238.065C186.349 241.19 180.335 242.858 174.22 242.902C168.105 242.945 162.105 241.362 156.829 238.313L106.004 208.969Z" fill="white"/>
</mask>
<g mask="url(#mask0_20_19)">
<path opacity="0.2" d="M160.024 247.506C156.688 247.506 153.855 246.963 151.527 245.877C149.199 244.751 147.298 243.238 145.824 241.337C144.35 239.397 143.263 237.186 142.565 234.702C141.905 232.181 141.575 229.542 141.575 226.787V223.528C141.575 219.61 142.235 216.079 143.554 212.936C144.873 209.794 146.891 207.31 149.607 205.487C152.323 203.625 155.795 202.693 160.024 202.693C164.215 202.693 167.668 203.625 170.384 205.487C173.1 207.31 175.098 209.794 176.378 212.936C177.697 216.079 178.357 219.61 178.357 223.528V226.787C178.357 229.542 178.008 232.181 177.309 234.702C176.65 237.186 175.583 239.397 174.108 241.337C172.673 243.238 170.791 244.751 168.463 245.877C166.135 246.963 163.322 247.506 160.024 247.506ZM160.024 239.94C163.477 239.94 166.019 238.757 167.648 236.39C169.278 233.985 170.093 230.26 170.093 225.216C170.093 219.862 169.258 216.04 167.59 213.751C165.922 211.423 163.4 210.259 160.024 210.259C156.61 210.259 154.049 211.423 152.342 213.751C150.674 216.04 149.84 219.823 149.84 225.1C149.84 230.182 150.674 233.926 152.342 236.332C154.011 238.738 156.571 239.94 160.024 239.94ZM197.184 247.506C193.925 247.506 191.112 246.885 188.745 245.644C186.417 244.402 184.632 242.753 183.391 240.697C182.149 238.602 181.529 236.274 181.529 233.713H189.502C189.502 235.769 190.181 237.438 191.539 238.718C192.935 239.96 194.817 240.581 197.184 240.581C198.775 240.581 200.133 240.29 201.258 239.708C202.422 239.087 203.314 238.253 203.935 237.205C204.556 236.119 204.866 234.877 204.866 233.48C204.866 231.385 204.187 229.678 202.829 228.359C201.471 227.001 199.609 226.322 197.242 226.322C196.078 226.322 195.05 226.477 194.158 226.787C193.304 227.098 192.547 227.505 191.888 228.01L188.105 221.491L202.073 211.947L201.549 210.958H183.274V203.916H211.035V212.412L196.66 221.957L192.179 221.142C192.916 220.909 193.711 220.735 194.565 220.618C195.419 220.463 196.35 220.386 197.358 220.386C200.579 220.386 203.334 220.948 205.623 222.073C207.951 223.16 209.735 224.673 210.977 226.613C212.218 228.553 212.839 230.784 212.839 233.306V234.062C212.839 236.507 212.218 238.757 210.977 240.813C209.735 242.831 207.951 244.46 205.623 245.702C203.295 246.905 200.482 247.506 197.184 247.506Z" fill="url(#paint2_linear_20_19)"/>
</g>
<path d="M175.581 184.583C173.462 184.585 171.364 184.168 169.407 183.355C167.45 182.543 165.673 181.352 164.179 179.85L162.277 177.952C161.671 177.348 160.851 177.007 159.996 177.005H157.324C153.048 177.001 148.949 175.3 145.925 172.277C142.902 169.253 141.201 165.154 141.197 160.878V158.206C141.194 157.35 140.854 156.531 140.25 155.925L138.352 154.023C135.331 150.998 133.633 146.897 133.633 142.621C133.633 138.345 135.331 134.243 138.352 131.218L140.25 129.316C140.854 128.71 141.194 127.891 141.197 127.035V124.38C141.201 120.105 142.902 116.005 145.925 112.982C148.949 109.958 153.048 108.258 157.324 108.253H159.996C160.851 108.251 161.671 107.911 162.277 107.306L164.179 105.409C167.204 102.387 171.305 100.69 175.581 100.69C179.857 100.69 183.959 102.387 186.984 105.409L188.886 107.306C189.491 107.911 190.311 108.251 191.167 108.253H193.839C198.114 108.258 202.214 109.958 205.237 112.982C208.261 116.005 209.961 120.105 209.966 124.38V127.053C209.968 127.908 210.308 128.728 210.913 129.333L212.81 131.235C215.832 134.261 217.529 138.362 217.529 142.638C217.529 146.914 215.832 151.015 212.81 154.041L210.913 155.942C210.308 156.548 209.968 157.368 209.966 158.223V160.895C209.961 165.171 208.261 169.27 205.237 172.294C202.214 175.317 198.114 177.018 193.839 177.023H191.167C190.312 177.025 189.493 177.363 188.886 177.965L186.984 179.867C185.488 181.366 183.711 182.554 181.754 183.363C179.797 184.173 177.699 184.587 175.581 184.583ZM157.324 114.707C154.76 114.711 152.301 115.731 150.488 117.544C148.675 119.358 147.654 121.816 147.651 124.38V127.053C147.654 128.324 147.404 129.584 146.918 130.759C146.431 131.934 145.716 133.001 144.815 133.899L142.913 135.796C141.1 137.611 140.082 140.072 140.082 142.638C140.082 145.203 141.1 147.664 142.913 149.479L144.815 151.377C145.716 152.274 146.431 153.341 146.918 154.516C147.404 155.691 147.654 156.951 147.651 158.223V160.895C147.654 163.46 148.675 165.918 150.488 167.731C152.301 169.544 154.76 170.565 157.324 170.568H159.996C162.563 170.574 165.023 171.593 166.842 173.404L168.74 175.306C170.581 177.068 173.032 178.051 175.581 178.051C178.13 178.051 180.581 177.068 182.423 175.306L184.321 173.404C186.139 171.593 188.6 170.574 191.167 170.568H193.839C196.403 170.565 198.861 169.544 200.675 167.731C202.488 165.918 203.508 163.46 203.512 160.895V158.223C203.509 156.951 203.758 155.691 204.245 154.516C204.732 153.341 205.446 152.274 206.347 151.377L208.249 149.479C210.062 147.664 211.081 145.203 211.081 142.638C211.081 140.072 210.062 137.611 208.249 135.796L206.347 133.899C205.446 133.001 204.732 131.934 204.245 130.759C203.758 129.584 203.509 128.324 203.512 127.053V124.38C203.508 121.816 202.488 119.358 200.675 117.544C198.861 115.731 196.403 114.711 193.839 114.707H191.167C188.6 114.7 186.14 113.681 184.321 111.872L182.423 109.97C180.581 108.208 178.13 107.224 175.581 107.224C173.032 107.224 170.581 108.208 168.74 109.97L166.842 111.872C165.022 113.681 162.562 114.7 159.996 114.707H157.324Z" fill="white"/>
<path d="M179.564 132.94V134.032C179.564 134.735 179.164 135.306 178.461 135.306H172.462C171.761 135.306 171.372 134.735 171.372 134.032V132.94C171.372 132.236 171.76 131.665 172.462 131.665H178.461C179.164 131.665 179.564 132.236 179.564 132.94Z" fill="#F7B43D"/>
<path d="M167.843 152.96C167.602 152.943 167.361 152.945 167.12 152.966C166.539 153.059 166.418 152.792 166.393 152.257C166.319 150.17 165.468 148.187 164.007 146.695C162.546 145.204 160.581 144.312 158.496 144.195C157.663 144.143 157.508 143.85 157.525 143.104C157.574 140.8 157.548 140.799 159.843 141.1C165.097 141.791 169.307 146.408 169.563 151.761C169.62 152.936 169.615 152.943 168.477 152.951C168.265 152.953 168.054 152.951 167.843 152.951L167.843 152.96Z" fill="#F7B43D"/>
<path d="M183.072 152.954C181.213 152.97 181.153 152.944 181.441 151.003C181.782 148.267 183.101 145.747 185.154 143.907C187.207 142.067 189.855 141.032 192.612 140.992C193.22 140.969 193.373 141.2 193.392 141.77C193.463 143.997 193.48 143.997 191.267 144.357C187.842 144.916 184.761 148.353 184.663 151.875C184.637 152.797 184.41 153.123 183.523 152.96C183.373 152.945 183.221 152.943 183.071 152.954" fill="#F7B43D"/>
<path d="M175.423 144.552C175.766 144.437 175.808 144.147 175.93 143.918C178.982 138.235 183.66 134.821 190.025 133.719C190.949 133.588 191.881 133.514 192.814 133.497C193.289 133.472 193.46 133.64 193.378 134.239C193.311 134.799 193.311 135.365 193.378 135.924C193.448 136.604 193.193 136.749 192.631 136.752C185.976 136.789 180.115 141.205 177.956 147.424C177.416 148.934 177.14 150.526 177.143 152.129C177.15 152.797 176.945 153.051 176.256 152.968C175.684 152.912 175.108 152.908 174.536 152.958C173.966 152.996 173.815 152.752 173.822 152.217C173.915 145.525 169.029 139.096 162.191 137.263C160.966 136.935 159.717 136.661 158.44 136.759C157.688 136.816 157.477 136.512 157.537 135.83C157.584 135.408 157.583 134.982 157.534 134.561C157.398 133.631 157.825 133.442 158.661 133.492C165.948 133.932 171.378 137.334 174.951 143.7C175.11 143.984 175.267 144.27 175.423 144.552Z" fill="#F7B43D"/>
<path d="M214.118 116.785L214.118 116.782C214.114 113.402 212.769 110.16 210.378 107.77C207.988 105.379 204.747 104.034 201.366 104.03H201.363C198.841 104.03 196.375 104.778 194.277 106.18C192.18 107.581 190.545 109.573 189.58 111.904C188.614 114.234 188.362 116.799 188.854 119.273C189.346 121.747 190.561 124.02 192.345 125.804C194.128 127.587 196.401 128.802 198.875 129.294C201.349 129.786 203.914 129.534 206.244 128.569C208.575 127.603 210.567 125.968 211.969 123.871C213.37 121.773 214.118 119.307 214.118 116.785Z" fill="white" stroke="#1D1B29" stroke-width="3.63598"/>
<path d="M206.788 114.255L200.596 120.447C200.488 120.555 200.36 120.641 200.219 120.699C200.079 120.758 199.928 120.788 199.775 120.788C199.623 120.788 199.472 120.758 199.331 120.699C199.19 120.641 199.062 120.555 198.955 120.447L195.858 117.351C195.653 117.131 195.542 116.84 195.547 116.539C195.552 116.238 195.674 115.951 195.887 115.738C196.1 115.526 196.387 115.404 196.687 115.399C196.988 115.393 197.279 115.505 197.499 115.71L199.775 117.984L205.147 112.614C205.367 112.409 205.658 112.297 205.959 112.302C206.26 112.308 206.547 112.43 206.759 112.642C206.972 112.855 207.094 113.142 207.099 113.443C207.105 113.744 206.993 114.035 206.788 114.255Z" fill="#1D1B29"/>
<path d="M77.9874 317.425L73.4874 299.175H77.7124L81.2374 314.675L80.3624 314.1H82.6374L81.6624 314.675L84.3874 299.85H87.7874L84.2124 317.425H77.9874ZM88.8624 317.425L85.0124 299.85H88.5874L91.7374 314.675L90.7874 314.1H92.9624L92.1374 314.675L95.2124 299.175H99.2124L95.2124 317.425H88.8624ZM101.795 317.425V299.175H105.795V317.425H101.795ZM105.295 317.425V314.025H113.27V317.425H105.295ZM105.295 309.85V306.45H112.695V309.85H105.295ZM105.295 302.575V299.175H113.095V302.575H105.295ZM129.077 317.85C127.527 317.85 126.235 317.608 125.202 317.125C124.169 316.625 123.394 315.95 122.877 315.1C122.36 314.233 122.102 313.258 122.102 312.175H123.452C123.452 313.008 123.644 313.758 124.027 314.425C124.427 315.092 125.044 315.625 125.877 316.025C126.71 316.408 127.777 316.6 129.077 316.6C130.294 316.6 131.31 316.425 132.127 316.075C132.944 315.725 133.552 315.25 133.952 314.65C134.369 314.033 134.577 313.325 134.577 312.525C134.577 311.542 134.21 310.708 133.477 310.025C132.744 309.325 131.627 308.9 130.127 308.75L127.952 308.575C126.435 308.442 125.235 307.958 124.352 307.125C123.469 306.292 123.027 305.2 123.027 303.85C123.027 302.883 123.252 302.017 123.702 301.25C124.152 300.467 124.827 299.85 125.727 299.4C126.627 298.933 127.735 298.7 129.052 298.7C130.385 298.7 131.51 298.95 132.427 299.45C133.344 299.933 134.035 300.592 134.502 301.425C134.985 302.242 135.227 303.167 135.227 304.2H133.877C133.877 303.45 133.71 302.758 133.377 302.125C133.044 301.475 132.519 300.95 131.802 300.55C131.102 300.15 130.185 299.95 129.052 299.95C127.952 299.95 127.06 300.133 126.377 300.5C125.694 300.85 125.185 301.325 124.852 301.925C124.535 302.508 124.377 303.15 124.377 303.85C124.377 304.85 124.694 305.65 125.327 306.25C125.977 306.85 126.902 307.208 128.102 307.325L130.277 307.5C131.494 307.6 132.519 307.883 133.352 308.35C134.202 308.8 134.844 309.383 135.277 310.1C135.71 310.817 135.927 311.625 135.927 312.525C135.927 313.542 135.66 314.458 135.127 315.275C134.594 316.075 133.819 316.708 132.802 317.175C131.785 317.625 130.544 317.85 129.077 317.85ZM140.454 317.425V299.175H141.779V308.925L141.304 309.775C141.304 308.625 141.479 307.617 141.829 306.75C142.196 305.867 142.746 305.183 143.479 304.7C144.213 304.2 145.138 303.95 146.254 303.95H146.304C147.938 303.95 149.171 304.467 150.004 305.5C150.838 306.517 151.254 307.908 151.254 309.675V317.425H149.904V309.375C149.904 308.108 149.563 307.092 148.879 306.325C148.196 305.558 147.229 305.175 145.979 305.175C144.696 305.175 143.671 305.583 142.904 306.4C142.154 307.2 141.779 308.25 141.779 309.55V317.425H140.454ZM164.251 317.425V313.5H164.001V308.675C164.001 307.625 163.726 306.817 163.176 306.25C162.626 305.667 161.718 305.375 160.451 305.375C160.001 305.375 159.543 305.392 159.076 305.425C158.609 305.442 158.168 305.467 157.751 305.5C157.334 305.517 156.959 305.55 156.626 305.6V304.4C156.959 304.35 157.309 304.308 157.676 304.275C158.059 304.242 158.443 304.217 158.826 304.2C159.209 304.183 159.576 304.175 159.926 304.175C161.243 304.175 162.293 304.35 163.076 304.7C163.859 305.033 164.426 305.55 164.776 306.25C165.126 306.933 165.301 307.808 165.301 308.875V317.425H164.251ZM159.676 317.775C158.793 317.775 158.001 317.617 157.301 317.3C156.601 316.983 156.043 316.517 155.626 315.9C155.226 315.283 155.026 314.533 155.026 313.65C155.026 312.8 155.218 312.075 155.601 311.475C156.001 310.875 156.568 310.417 157.301 310.1C158.051 309.783 158.951 309.625 160.001 309.625H164.126V310.7H159.876C158.743 310.7 157.868 310.975 157.251 311.525C156.651 312.058 156.351 312.767 156.351 313.65C156.351 314.583 156.676 315.325 157.326 315.875C157.976 316.408 158.826 316.675 159.876 316.675C160.526 316.675 161.159 316.55 161.776 316.3C162.393 316.05 162.909 315.633 163.326 315.05C163.743 314.45 163.968 313.65 164.001 312.65L164.501 313.225C164.451 314.242 164.201 315.092 163.751 315.775C163.318 316.442 162.751 316.942 162.051 317.275C161.351 317.608 160.559 317.775 159.676 317.775ZM170.264 317.425V304.3H171.314V309.85H171.114C171.114 307.95 171.539 306.533 172.389 305.6C173.239 304.667 174.614 304.2 176.514 304.2H176.964V305.4H176.264C174.714 305.4 173.547 305.8 172.764 306.6C171.981 307.383 171.589 308.542 171.589 310.075V317.425H170.264ZM185.38 317.85C184.263 317.85 183.296 317.658 182.48 317.275C181.663 316.875 180.996 316.35 180.48 315.7C179.963 315.033 179.571 314.292 179.305 313.475C179.055 312.642 178.93 311.8 178.93 310.95V310.7C178.93 309.833 179.055 309 179.305 308.2C179.571 307.4 179.963 306.675 180.48 306.025C181.013 305.358 181.671 304.842 182.455 304.475C183.255 304.092 184.18 303.9 185.23 303.9C186.563 303.9 187.68 304.2 188.58 304.8C189.496 305.383 190.188 306.15 190.655 307.1C191.121 308.05 191.355 309.05 191.355 310.1V311H179.555V309.9H190.48L190.08 310.4C190.08 309.383 189.888 308.475 189.505 307.675C189.138 306.875 188.588 306.25 187.855 305.8C187.138 305.333 186.263 305.1 185.23 305.1C184.113 305.1 183.18 305.358 182.43 305.875C181.68 306.392 181.113 307.083 180.73 307.95C180.363 308.817 180.18 309.775 180.18 310.825C180.18 311.875 180.363 312.842 180.73 313.725C181.113 314.592 181.688 315.3 182.455 315.85C183.221 316.383 184.196 316.65 185.38 316.65C186.646 316.65 187.663 316.358 188.43 315.775C189.213 315.192 189.688 314.492 189.855 313.675H191.155C190.971 314.492 190.621 315.217 190.105 315.85C189.588 316.483 188.93 316.975 188.13 317.325C187.346 317.675 186.43 317.85 185.38 317.85ZM202.498 310.45V309.225H206.898C207.998 309.225 208.881 309.025 209.548 308.625C210.214 308.225 210.706 307.692 211.023 307.025C211.339 306.342 211.498 305.592 211.498 304.775C211.498 303.958 211.339 303.217 211.023 302.55C210.706 301.867 210.214 301.325 209.548 300.925C208.881 300.525 207.998 300.325 206.898 300.325H202.498V299.1H206.723C208.139 299.1 209.298 299.35 210.198 299.85C211.098 300.333 211.764 300.992 212.198 301.825C212.631 302.658 212.848 303.592 212.848 304.625V304.925C212.848 305.942 212.631 306.875 212.198 307.725C211.764 308.558 211.098 309.225 210.198 309.725C209.298 310.208 208.139 310.45 206.723 310.45H202.498ZM201.623 317.425V299.1H202.973V317.425H201.623ZM216.7 317.425V304.3H217.75V309.85H217.55C217.55 307.95 217.975 306.533 218.825 305.6C219.675 304.667 221.05 304.2 222.95 304.2H223.4V305.4H222.7C221.15 305.4 219.983 305.8 219.2 306.6C218.416 307.383 218.025 308.542 218.025 310.075V317.425H216.7ZM232.165 317.85C231.065 317.85 230.09 317.65 229.24 317.25C228.39 316.85 227.673 316.325 227.09 315.675C226.523 315.025 226.09 314.3 225.79 313.5C225.507 312.683 225.365 311.85 225.365 311V310.75C225.365 309.883 225.515 309.042 225.815 308.225C226.115 307.408 226.557 306.675 227.14 306.025C227.723 305.375 228.432 304.858 229.265 304.475C230.115 304.092 231.082 303.9 232.165 303.9C233.232 303.9 234.182 304.092 235.015 304.475C235.865 304.858 236.582 305.375 237.165 306.025C237.748 306.675 238.19 307.408 238.49 308.225C238.807 309.042 238.965 309.883 238.965 310.75V311C238.965 311.85 238.815 312.683 238.515 313.5C238.215 314.3 237.773 315.025 237.19 315.675C236.623 316.325 235.915 316.85 235.065 317.25C234.232 317.65 233.265 317.85 232.165 317.85ZM232.165 316.625C233.332 316.625 234.315 316.358 235.115 315.825C235.932 315.292 236.548 314.592 236.965 313.725C237.398 312.842 237.615 311.892 237.615 310.875C237.615 309.825 237.398 308.867 236.965 308C236.532 307.117 235.907 306.417 235.09 305.9C234.29 305.367 233.315 305.1 232.165 305.1C231.032 305.1 230.048 305.367 229.215 305.9C228.398 306.417 227.773 307.117 227.34 308C226.907 308.867 226.69 309.825 226.69 310.875C226.69 311.892 226.898 312.842 227.315 313.725C227.748 314.592 228.373 315.292 229.19 315.825C230.007 316.358 230.998 316.625 232.165 316.625ZM243.368 317.425V302.8C243.368 301.5 243.693 300.542 244.343 299.925C245.01 299.308 246.01 299 247.343 299H248.868V300.15H247.043C246.277 300.15 245.685 300.358 245.268 300.775C244.868 301.175 244.668 301.742 244.668 302.475V317.425H243.368ZM241.343 305.4V304.35H248.993V305.4H241.343ZM252.593 317.425V304.3H253.918V317.425H252.593ZM250.443 305.45V304.3H253.918V305.45H250.443ZM252.718 301.55C252.368 301.55 252.093 301.458 251.893 301.275C251.71 301.075 251.618 300.825 251.618 300.525C251.618 300.208 251.71 299.95 251.893 299.75C252.093 299.55 252.368 299.45 252.718 299.45C253.085 299.45 253.36 299.55 253.543 299.75C253.727 299.95 253.818 300.208 253.818 300.525C253.818 300.825 253.727 301.075 253.543 301.275C253.36 301.458 253.085 301.55 252.718 301.55ZM263.482 317.55C262.665 317.55 261.948 317.433 261.332 317.2C260.715 316.95 260.24 316.533 259.907 315.95C259.573 315.367 259.407 314.583 259.407 313.6V300.025H260.707V313.825C260.707 314.625 260.923 315.25 261.357 315.7C261.807 316.133 262.423 316.35 263.207 316.35H265.657V317.55H263.482ZM256.907 305.375V304.3H265.657V305.375H256.907ZM273.359 317.8C271.726 317.8 270.467 317.425 269.584 316.675C268.717 315.925 268.276 314.967 268.259 313.8H269.559C269.559 314.55 269.851 315.208 270.434 315.775C271.034 316.325 272.009 316.6 273.359 316.6C274.676 316.6 275.642 316.325 276.259 315.775C276.876 315.208 277.184 314.542 277.184 313.775C277.184 313.025 276.901 312.45 276.334 312.05C275.784 311.65 275.034 311.4 274.084 311.3L272.534 311.125C271.384 310.992 270.467 310.633 269.784 310.05C269.117 309.467 268.784 308.675 268.784 307.675C268.784 306.958 268.967 306.317 269.334 305.75C269.701 305.183 270.226 304.733 270.909 304.4C271.609 304.067 272.426 303.9 273.359 303.9C274.726 303.9 275.826 304.233 276.659 304.9C277.509 305.567 277.942 306.475 277.959 307.625H276.659C276.676 306.908 276.392 306.308 275.809 305.825C275.242 305.342 274.426 305.1 273.359 305.1C272.242 305.1 271.409 305.358 270.859 305.875C270.326 306.392 270.059 307 270.059 307.7C270.059 308.283 270.267 308.783 270.684 309.2C271.117 309.617 271.767 309.875 272.634 309.975L274.184 310.15C275.417 310.267 276.434 310.625 277.234 311.225C278.051 311.825 278.459 312.683 278.459 313.8C278.459 314.55 278.251 315.225 277.834 315.825C277.434 316.425 276.859 316.908 276.109 317.275C275.359 317.625 274.442 317.8 273.359 317.8Z" fill="white"/>
<defs>
<linearGradient id="paint0_linear_20_19" x1="91.3177" y1="193.826" x2="197.483" y2="144.537" gradientUnits="userSpaceOnUse">
<stop stop-color="#7C5719"/>
<stop offset="1" stop-color="#1D1B29"/>
</linearGradient>
<linearGradient id="paint1_linear_20_19" x1="116.747" y1="80.6242" x2="259.619" y2="197.415" gradientUnits="userSpaceOnUse">
<stop stop-color="white"/>
<stop offset="1" stop-color="white" stop-opacity="0"/>
</linearGradient>
<linearGradient id="paint2_linear_20_19" x1="175.596" y1="190.4" x2="175.596" y2="264.4" gradientUnits="userSpaceOnUse">
<stop stop-color="white"/>
<stop offset="1" stop-color="white" stop-opacity="0"/>
</linearGradient>
</defs>
</svg>
