<svg width="350" height="348" viewBox="0 0 350 348" fill="none" xmlns="http://www.w3.org/2000/svg">
<g filter="url(#filter0_i_268_4872)">
<path d="M105.638 208.603C100.359 205.558 95.9882 201.154 92.9683 195.836C89.9484 190.519 88.3862 184.476 88.4396 178.32L88.9977 118.05C89.053 111.981 90.6839 106.014 93.7286 100.74C96.7733 95.4664 101.126 91.0703 106.354 87.9879L158.27 57.3696C163.575 54.2451 169.589 52.5768 175.704 52.5334C181.819 52.4899 187.819 54.073 193.095 57.1224L243.92 86.4662C249.199 89.511 253.569 93.9149 256.589 99.2323C259.609 104.55 261.172 110.592 261.118 116.749L260.56 177.019C260.505 183.088 258.874 189.055 255.829 194.329C252.784 199.602 248.432 203.998 243.204 207.081L191.288 237.699C185.983 240.824 179.968 242.492 173.853 242.535C167.738 242.579 161.739 240.996 156.463 237.946L105.638 208.603Z" fill="url(#paint0_linear_268_4872)"/>
</g>
<path d="M87.9396 178.315L87.9396 178.315L88.4977 118.045C88.5538 111.89 90.208 105.838 93.2956 100.49C96.3832 95.142 100.797 90.6835 106.1 87.5572L158.016 56.9389L158.016 56.9388C163.397 53.7699 169.497 52.0774 175.701 52.0334C181.905 51.9893 187.991 53.5953 193.345 56.6895L244.17 86.0332C249.526 89.1226 253.96 93.5908 257.024 98.9854C260.088 104.38 261.672 110.509 261.618 116.753L261.618 116.754L261.06 177.023C261.004 183.179 259.35 189.231 256.262 194.579C253.175 199.927 248.76 204.385 243.458 207.512L191.542 238.13L191.541 238.13C186.161 241.299 180.061 242.991 173.857 243.035C167.653 243.079 161.567 241.473 156.213 238.379C156.213 238.379 156.213 238.379 156.213 238.379L87.9396 178.315ZM87.9396 178.315C87.8854 184.559 89.4699 190.689 92.5335 196.083C95.5972 201.478 100.031 205.946 105.388 209.036L87.9396 178.315Z" stroke="url(#paint1_linear_268_4872)" stroke-linecap="round"/>
<mask id="mask0_268_4872" style="mask-type:alpha" maskUnits="userSpaceOnUse" x="88" y="52" width="174" height="191">
<path d="M105.638 208.603C100.359 205.558 95.9882 201.154 92.9683 195.836C89.9484 190.519 88.3862 184.476 88.4396 178.32L88.9977 118.05C89.053 111.981 90.6839 106.014 93.7286 100.74C96.7733 95.4664 101.126 91.0703 106.354 87.9879L158.27 57.3696C163.575 54.2451 169.589 52.5768 175.704 52.5334C181.819 52.4899 187.819 54.073 193.095 57.1224L243.92 86.4662C249.199 89.511 253.569 93.9149 256.589 99.2323C259.609 104.55 261.172 110.592 261.118 116.749L260.56 177.019C260.505 183.088 258.874 189.055 255.829 194.329C252.784 199.602 248.432 203.998 243.204 207.081L191.288 237.699C185.983 240.824 179.968 242.492 173.853 242.535C167.738 242.579 161.739 240.996 156.463 237.946L105.638 208.603Z" fill="white"/>
</mask>
<g mask="url(#mask0_268_4872)">
<path opacity="0.2" d="M159.658 247.14C156.321 247.14 153.489 246.597 151.161 245.51C148.833 244.385 146.932 242.872 145.458 240.971C143.983 239.031 142.897 236.819 142.199 234.336C141.539 231.814 141.209 229.176 141.209 226.421V223.162C141.209 219.244 141.869 215.713 143.188 212.57C144.507 209.427 146.525 206.944 149.241 205.121C151.957 203.258 155.429 202.327 159.658 202.327C163.848 202.327 167.302 203.258 170.017 205.121C172.733 206.944 174.732 209.427 176.012 212.57C177.331 215.713 177.991 219.244 177.991 223.162V226.421C177.991 229.176 177.641 231.814 176.943 234.336C176.283 236.819 175.217 239.031 173.742 240.971C172.307 242.872 170.425 244.385 168.097 245.51C165.769 246.597 162.956 247.14 159.658 247.14ZM159.658 239.574C163.111 239.574 165.653 238.391 167.282 236.024C168.912 233.619 169.726 229.894 169.726 224.85C169.726 219.496 168.892 215.674 167.224 213.385C165.556 211.057 163.034 209.893 159.658 209.893C156.244 209.893 153.683 211.057 151.976 213.385C150.308 215.674 149.473 219.457 149.473 224.734C149.473 229.816 150.308 233.56 151.976 235.966C153.644 238.371 156.205 239.574 159.658 239.574ZM196.818 247.14C193.559 247.14 190.746 246.519 188.379 245.278C186.051 244.036 184.266 242.387 183.025 240.331C181.783 238.236 181.162 235.908 181.162 233.347H189.135C189.135 235.403 189.814 237.072 191.172 238.352C192.569 239.594 194.451 240.214 196.818 240.214C198.408 240.214 199.766 239.923 200.892 239.341C202.056 238.721 202.948 237.886 203.569 236.839C204.189 235.752 204.5 234.511 204.5 233.114C204.5 231.019 203.821 229.312 202.463 227.993C201.105 226.635 199.243 225.956 196.876 225.956C195.712 225.956 194.684 226.111 193.791 226.421C192.938 226.732 192.181 227.139 191.522 227.643L187.739 221.125L201.706 211.581L201.183 210.591H182.908V203.549H210.669V212.046L196.294 221.591L191.813 220.776C192.55 220.543 193.345 220.369 194.199 220.252C195.052 220.097 195.984 220.02 196.992 220.02C200.213 220.02 202.967 220.582 205.256 221.707C207.584 222.794 209.369 224.307 210.611 226.247C211.852 228.187 212.473 230.418 212.473 232.94V233.696C212.473 236.14 211.852 238.391 210.611 240.447C209.369 242.465 207.584 244.094 205.256 245.336C202.929 246.539 200.116 247.14 196.818 247.14Z" fill="url(#paint2_linear_268_4872)"/>
</g>
<path d="M175.215 184.217C173.096 184.219 170.998 183.802 169.041 182.989C167.084 182.177 165.307 180.985 163.812 179.483L161.91 177.586C161.305 176.982 160.485 176.641 159.63 176.639H156.958C152.682 176.635 148.582 174.934 145.559 171.911C142.536 168.887 140.835 164.788 140.83 160.512V157.84C140.828 156.984 140.488 156.165 139.884 155.559L137.986 153.657C134.964 150.632 133.267 146.53 133.267 142.254C133.267 137.978 134.964 133.877 137.986 130.852L139.884 128.95C140.488 128.344 140.828 127.525 140.83 126.669V124.014C140.835 119.738 142.536 115.639 145.559 112.616C148.582 109.592 152.682 107.891 156.958 107.887H159.63C160.485 107.885 161.305 107.544 161.91 106.94L163.812 105.043C166.838 102.021 170.939 100.324 175.215 100.324C179.491 100.324 183.592 102.021 186.618 105.043L188.52 106.94C189.125 107.544 189.945 107.885 190.8 107.887H193.472C197.748 107.891 201.848 109.592 204.871 112.616C207.895 115.639 209.595 119.738 209.6 124.014V126.686C209.602 127.542 209.942 128.362 210.546 128.967L212.444 130.869C215.466 133.894 217.163 137.996 217.163 142.272C217.163 146.548 215.466 150.649 212.444 153.674L210.546 155.576C209.942 156.182 209.602 157.001 209.6 157.857V160.529C209.595 164.805 207.895 168.904 204.871 171.928C201.848 174.951 197.748 176.652 193.472 176.656H190.8C189.946 176.659 189.127 176.997 188.52 177.599L186.618 179.501C185.122 181 183.344 182.188 181.387 182.997C179.43 183.807 177.333 184.221 175.215 184.217ZM156.958 114.341C154.393 114.345 151.935 115.365 150.122 117.178C148.308 118.991 147.288 121.45 147.285 124.014V126.686C147.287 127.958 147.038 129.218 146.551 130.393C146.065 131.568 145.35 132.635 144.449 133.532L142.547 135.43C140.734 137.245 139.716 139.706 139.716 142.272C139.716 144.837 140.734 147.298 142.547 149.113L144.449 151.011C145.35 151.908 146.065 152.975 146.551 154.15C147.038 155.325 147.287 156.585 147.285 157.857V160.529C147.288 163.093 148.308 165.552 150.122 167.365C151.935 169.178 154.393 170.199 156.958 170.202H159.63C162.196 170.208 164.657 171.227 166.476 173.038L168.373 174.939C170.215 176.702 172.666 177.685 175.215 177.685C177.764 177.685 180.215 176.702 182.057 174.939L183.954 173.038C185.773 171.227 188.234 170.208 190.8 170.202H193.472C196.037 170.199 198.495 169.178 200.309 167.365C202.122 165.552 203.142 163.093 203.145 160.529V157.857C203.143 156.585 203.392 155.325 203.879 154.15C204.365 152.975 205.08 151.908 205.981 151.011L207.883 149.113C209.696 147.298 210.714 144.837 210.714 142.272C210.714 139.706 209.696 137.245 207.883 135.43L205.981 133.532C205.08 132.635 204.365 131.568 203.879 130.393C203.392 129.218 203.143 127.958 203.145 126.686V124.014C203.142 121.45 202.122 118.991 200.309 117.178C198.495 115.365 196.037 114.345 193.472 114.341H190.8C188.234 114.334 185.774 113.315 183.954 111.506L182.057 109.604C180.215 107.842 177.764 106.858 175.215 106.858C172.666 106.858 170.215 107.842 168.373 109.604L166.476 111.506C164.656 113.315 162.196 114.334 159.63 114.341H156.958Z" fill="white"/>
<path d="M179.198 132.573V133.665C179.198 134.369 178.797 134.94 178.095 134.94H172.096C171.394 134.94 171.006 134.369 171.006 133.665V132.573C171.006 131.87 171.394 131.299 172.096 131.299H178.095C178.797 131.299 179.198 131.87 179.198 132.573Z" fill="#F7B43D"/>
<path d="M167.477 152.594C167.236 152.577 166.994 152.579 166.754 152.6C166.173 152.693 166.051 152.426 166.026 151.891C165.953 149.804 165.102 147.821 163.641 146.329C162.18 144.838 160.214 143.946 158.13 143.829C157.297 143.777 157.142 143.484 157.158 142.738C157.208 140.433 157.182 140.433 159.477 140.734C164.731 141.425 168.94 146.042 169.197 151.394C169.253 152.57 169.248 152.576 168.11 152.585C167.899 152.587 167.688 152.585 167.477 152.585L167.477 152.594Z" fill="#F7B43D"/>
<path d="M182.705 152.587C180.847 152.603 180.787 152.578 181.074 150.636C181.415 147.901 182.734 145.381 184.787 143.541C186.84 141.701 189.489 140.666 192.245 140.626C192.853 140.603 193.007 140.834 193.025 141.404C193.097 143.631 193.114 143.631 190.9 143.991C187.475 144.549 184.395 147.987 184.297 151.509C184.271 152.431 184.043 152.757 183.156 152.593C183.006 152.579 182.855 152.577 182.705 152.587" fill="#F7B43D"/>
<path d="M175.057 144.186C175.399 144.071 175.441 143.781 175.564 143.552C178.616 137.869 183.293 134.455 189.658 133.352C190.583 133.222 191.514 133.148 192.448 133.13C192.923 133.106 193.093 133.274 193.012 133.873C192.945 134.433 192.945 134.998 193.012 135.558C193.081 136.238 192.827 136.383 192.265 136.386C185.61 136.423 179.748 140.839 177.59 147.058C177.049 148.568 176.774 150.159 176.777 151.763C176.783 152.431 176.578 152.685 175.889 152.602C175.318 152.546 174.742 152.542 174.17 152.592C173.6 152.63 173.449 152.386 173.456 151.851C173.549 145.159 168.662 138.73 161.825 136.897C160.6 136.569 159.35 136.295 158.073 136.393C157.322 136.45 157.11 136.146 157.17 135.463C157.218 135.042 157.217 134.616 157.168 134.195C157.032 133.265 157.459 133.076 158.294 133.126C165.581 133.565 171.011 136.968 174.584 143.334C174.744 143.618 174.901 143.904 175.057 144.186Z" fill="#F7B43D"/>
<path d="M213.752 116.419L213.752 116.416C213.748 113.035 212.403 109.794 210.012 107.404C207.622 105.013 204.38 103.668 201 103.664H200.997C198.475 103.664 196.009 104.412 193.911 105.813C191.814 107.215 190.179 109.207 189.213 111.538C188.248 113.868 187.995 116.433 188.488 118.907C188.98 121.381 190.195 123.654 191.978 125.437C193.762 127.221 196.035 128.436 198.509 128.928C200.983 129.42 203.548 129.168 205.878 128.202C208.209 127.237 210.201 125.602 211.602 123.505C213.004 121.407 213.752 118.941 213.752 116.419Z" fill="white" stroke="#1D1B29" stroke-width="3.63598"/>
<path d="M206.422 113.889L200.229 120.081C200.122 120.189 199.994 120.275 199.853 120.333C199.712 120.392 199.561 120.422 199.409 120.422C199.256 120.422 199.105 120.392 198.965 120.333C198.824 120.275 198.696 120.189 198.588 120.081L195.492 116.985C195.287 116.765 195.176 116.474 195.181 116.173C195.186 115.872 195.308 115.585 195.521 115.372C195.733 115.159 196.02 115.038 196.321 115.032C196.622 115.027 196.913 115.139 197.133 115.344L199.409 117.618L204.781 112.248C205.001 112.043 205.292 111.931 205.593 111.936C205.893 111.942 206.18 112.063 206.393 112.276C206.606 112.489 206.728 112.776 206.733 113.077C206.738 113.377 206.627 113.668 206.422 113.889Z" fill="#1D1B29"/>
<path d="M81.7788 307.144L76.4538 295.819H80.6538L84.4788 304.294L83.7538 304.069H85.8538L85.0788 304.294L88.5288 295.819H92.5038L87.6038 307.144H81.7788ZM82.6788 314.069V306.569H86.7038V314.069H82.6788ZM99.8179 314.544C98.6179 314.544 97.5512 314.361 96.6179 313.994C95.6845 313.611 94.8929 313.094 94.2429 312.444C93.6095 311.794 93.1262 311.052 92.7929 310.219C92.4595 309.369 92.2929 308.477 92.2929 307.544V306.969C92.2929 306.019 92.4595 305.119 92.7929 304.269C93.1429 303.402 93.6429 302.644 94.2929 301.994C94.9595 301.344 95.7595 300.836 96.6929 300.469C97.6262 300.086 98.6679 299.894 99.8179 299.894C101.001 299.894 102.051 300.086 102.968 300.469C103.901 300.836 104.693 301.344 105.343 301.994C105.993 302.644 106.493 303.402 106.843 304.269C107.193 305.119 107.368 306.019 107.368 306.969V307.544C107.368 308.477 107.201 309.369 106.868 310.219C106.535 311.052 106.043 311.794 105.393 312.444C104.76 313.094 103.976 313.611 103.043 313.994C102.11 314.361 101.035 314.544 99.8179 314.544ZM99.8179 311.169C100.601 311.169 101.251 311.002 101.768 310.669C102.285 310.336 102.676 309.869 102.943 309.269C103.226 308.669 103.368 308.002 103.368 307.269C103.368 306.486 103.226 305.802 102.943 305.219C102.66 304.619 102.251 304.144 101.718 303.794C101.201 303.444 100.568 303.269 99.8179 303.269C99.0845 303.269 98.4512 303.444 97.9179 303.794C97.3845 304.144 96.9762 304.619 96.6929 305.219C96.4262 305.802 96.2929 306.486 96.2929 307.269C96.2929 308.002 96.4262 308.669 96.6929 309.269C96.9595 309.869 97.3595 310.336 97.8929 310.669C98.4262 311.002 99.0679 311.169 99.8179 311.169ZM114.784 314.494C113.201 314.494 111.984 313.986 111.134 312.969C110.284 311.936 109.859 310.386 109.859 308.319V300.369H113.859V308.519C113.859 309.252 114.068 309.836 114.484 310.269C114.901 310.702 115.459 310.919 116.159 310.919C116.876 310.919 117.459 310.694 117.909 310.244C118.359 309.794 118.584 309.186 118.584 308.419V300.369H122.584V314.069H119.409V308.294H119.684C119.684 309.677 119.501 310.836 119.134 311.769C118.784 312.686 118.259 313.369 117.559 313.819C116.859 314.269 115.993 314.494 114.959 314.494H114.784ZM133.186 314.069V295.819H134.536V314.069H133.186ZM134.111 314.069V312.844H143.511V314.069H134.111ZM134.111 305.419V304.169H142.611V305.419H134.111ZM134.111 297.044V295.819H143.211V297.044H134.111ZM155.873 314.069V310.144H155.623V305.319C155.623 304.269 155.348 303.461 154.798 302.894C154.248 302.311 153.34 302.019 152.073 302.019C151.623 302.019 151.165 302.036 150.698 302.069C150.231 302.086 149.79 302.111 149.373 302.144C148.956 302.161 148.581 302.194 148.248 302.244V301.044C148.581 300.994 148.931 300.952 149.298 300.919C149.681 300.886 150.065 300.861 150.448 300.844C150.831 300.827 151.198 300.819 151.548 300.819C152.865 300.819 153.915 300.994 154.698 301.344C155.481 301.677 156.048 302.194 156.398 302.894C156.748 303.577 156.923 304.452 156.923 305.519V314.069H155.873ZM151.298 314.419C150.415 314.419 149.623 314.261 148.923 313.944C148.223 313.627 147.665 313.161 147.248 312.544C146.848 311.927 146.648 311.177 146.648 310.294C146.648 309.444 146.84 308.719 147.223 308.119C147.623 307.519 148.19 307.061 148.923 306.744C149.673 306.427 150.573 306.269 151.623 306.269H155.748V307.344H151.498C150.365 307.344 149.49 307.619 148.873 308.169C148.273 308.702 147.973 309.411 147.973 310.294C147.973 311.227 148.298 311.969 148.948 312.519C149.598 313.052 150.448 313.319 151.498 313.319C152.148 313.319 152.781 313.194 153.398 312.944C154.015 312.694 154.531 312.277 154.948 311.694C155.365 311.094 155.59 310.294 155.623 309.294L156.123 309.869C156.073 310.886 155.823 311.736 155.373 312.419C154.94 313.086 154.373 313.586 153.673 313.919C152.973 314.252 152.181 314.419 151.298 314.419ZM161.886 314.069V300.944H162.936V306.494H162.736C162.736 304.594 163.161 303.177 164.011 302.244C164.861 301.311 166.236 300.844 168.136 300.844H168.586V302.044H167.886C166.336 302.044 165.169 302.444 164.386 303.244C163.603 304.027 163.211 305.186 163.211 306.719V314.069H161.886ZM171.823 314.069V300.944H172.873V306.319H172.573C172.573 305.169 172.756 304.169 173.123 303.319C173.506 302.452 174.064 301.786 174.798 301.319C175.548 300.836 176.473 300.594 177.573 300.594H177.648C179.298 300.594 180.539 301.111 181.373 302.144C182.206 303.161 182.623 304.552 182.623 306.319V314.069H181.273V306.019C181.273 304.769 180.931 303.761 180.248 302.994C179.581 302.211 178.614 301.819 177.348 301.819C176.064 301.819 175.039 302.219 174.273 303.019C173.523 303.802 173.148 304.844 173.148 306.144V314.069H171.823ZM194.925 307.094V305.869H199.325C200.425 305.869 201.309 305.669 201.975 305.269C202.642 304.869 203.134 304.336 203.45 303.669C203.767 302.986 203.925 302.236 203.925 301.419C203.925 300.602 203.767 299.861 203.45 299.194C203.134 298.511 202.642 297.969 201.975 297.569C201.309 297.169 200.425 296.969 199.325 296.969H194.925V295.744H199.15C200.567 295.744 201.725 295.994 202.625 296.494C203.525 296.977 204.192 297.636 204.625 298.469C205.059 299.302 205.275 300.236 205.275 301.269V301.569C205.275 302.586 205.059 303.519 204.625 304.369C204.192 305.202 203.525 305.869 202.625 306.369C201.725 306.852 200.567 307.094 199.15 307.094H194.925ZM194.05 314.069V295.744H195.4V314.069H194.05ZM209.127 314.069V300.944H210.177V306.494H209.977C209.977 304.594 210.402 303.177 211.252 302.244C212.102 301.311 213.477 300.844 215.377 300.844H215.827V302.044H215.127C213.577 302.044 212.411 302.444 211.627 303.244C210.844 304.027 210.452 305.186 210.452 306.719V314.069H209.127ZM224.593 314.494C223.493 314.494 222.518 314.294 221.668 313.894C220.818 313.494 220.101 312.969 219.518 312.319C218.951 311.669 218.518 310.944 218.218 310.144C217.935 309.327 217.793 308.494 217.793 307.644V307.394C217.793 306.527 217.943 305.686 218.243 304.869C218.543 304.052 218.985 303.319 219.568 302.669C220.151 302.019 220.86 301.502 221.693 301.119C222.543 300.736 223.51 300.544 224.593 300.544C225.66 300.544 226.61 300.736 227.443 301.119C228.293 301.502 229.01 302.019 229.593 302.669C230.176 303.319 230.618 304.052 230.918 304.869C231.235 305.686 231.393 306.527 231.393 307.394V307.644C231.393 308.494 231.243 309.327 230.943 310.144C230.643 310.944 230.201 311.669 229.618 312.319C229.051 312.969 228.343 313.494 227.493 313.894C226.66 314.294 225.693 314.494 224.593 314.494ZM224.593 313.269C225.76 313.269 226.743 313.002 227.543 312.469C228.36 311.936 228.976 311.236 229.393 310.369C229.826 309.486 230.043 308.536 230.043 307.519C230.043 306.469 229.826 305.511 229.393 304.644C228.96 303.761 228.335 303.061 227.518 302.544C226.718 302.011 225.743 301.744 224.593 301.744C223.46 301.744 222.476 302.011 221.643 302.544C220.826 303.061 220.201 303.761 219.768 304.644C219.335 305.511 219.118 306.469 219.118 307.519C219.118 308.536 219.326 309.486 219.743 310.369C220.176 311.236 220.801 311.936 221.618 312.469C222.435 313.002 223.426 313.269 224.593 313.269ZM235.796 314.069V299.444C235.796 298.144 236.121 297.186 236.771 296.569C237.438 295.952 238.438 295.644 239.771 295.644H241.296V296.794H239.471C238.705 296.794 238.113 297.002 237.696 297.419C237.296 297.819 237.096 298.386 237.096 299.119V314.069H235.796ZM233.771 302.044V300.994H241.421V302.044H233.771ZM245.021 314.069V300.944H246.346V314.069H245.021ZM242.871 302.094V300.944H246.346V302.094H242.871ZM245.146 298.194C244.796 298.194 244.521 298.102 244.321 297.919C244.138 297.719 244.046 297.469 244.046 297.169C244.046 296.852 244.138 296.594 244.321 296.394C244.521 296.194 244.796 296.094 245.146 296.094C245.513 296.094 245.788 296.194 245.971 296.394C246.155 296.594 246.246 296.852 246.246 297.169C246.246 297.469 246.155 297.719 245.971 297.919C245.788 298.102 245.513 298.194 245.146 298.194ZM255.909 314.194C255.093 314.194 254.376 314.077 253.759 313.844C253.143 313.594 252.668 313.177 252.334 312.594C252.001 312.011 251.834 311.227 251.834 310.244V296.669H253.134V310.469C253.134 311.269 253.351 311.894 253.784 312.344C254.234 312.777 254.851 312.994 255.634 312.994H258.084V314.194H255.909ZM249.334 302.019V300.944H258.084V302.019H249.334ZM265.787 314.444C264.153 314.444 262.895 314.069 262.012 313.319C261.145 312.569 260.703 311.611 260.687 310.444H261.987C261.987 311.194 262.278 311.852 262.862 312.419C263.462 312.969 264.437 313.244 265.787 313.244C267.103 313.244 268.07 312.969 268.687 312.419C269.303 311.852 269.612 311.186 269.612 310.419C269.612 309.669 269.328 309.094 268.762 308.694C268.212 308.294 267.462 308.044 266.512 307.944L264.962 307.769C263.812 307.636 262.895 307.277 262.212 306.694C261.545 306.111 261.212 305.319 261.212 304.319C261.212 303.602 261.395 302.961 261.762 302.394C262.128 301.827 262.653 301.377 263.337 301.044C264.037 300.711 264.853 300.544 265.787 300.544C267.153 300.544 268.253 300.877 269.087 301.544C269.937 302.211 270.37 303.119 270.387 304.269H269.087C269.103 303.552 268.82 302.952 268.237 302.469C267.67 301.986 266.853 301.744 265.787 301.744C264.67 301.744 263.837 302.002 263.287 302.519C262.753 303.036 262.487 303.644 262.487 304.344C262.487 304.927 262.695 305.427 263.112 305.844C263.545 306.261 264.195 306.519 265.062 306.619L266.612 306.794C267.845 306.911 268.862 307.269 269.662 307.869C270.478 308.469 270.887 309.327 270.887 310.444C270.887 311.194 270.678 311.869 270.262 312.469C269.862 313.069 269.287 313.552 268.537 313.919C267.787 314.269 266.87 314.444 265.787 314.444Z" fill="white"/>
<defs>
<filter id="filter0_i_268_4872" x="87.4382" y="49.5962" width="181.781" height="193.94" filterUnits="userSpaceOnUse" color-interpolation-filters="sRGB">
<feFlood flood-opacity="0" result="BackgroundImageFix"/>
<feBlend mode="normal" in="SourceGraphic" in2="BackgroundImageFix" result="shape"/>
<feColorMatrix in="SourceAlpha" type="matrix" values="0 0 0 0 0 0 0 0 0 0 0 0 0 0 0 0 0 0 127 0" result="hardAlpha"/>
<feOffset dx="7.09984" dy="-1.93632"/>
<feGaussianBlur stdDeviation="13.877"/>
<feComposite in2="hardAlpha" operator="arithmetic" k2="-1" k3="1"/>
<feColorMatrix type="matrix" values="0 0 0 0 0.113725 0 0 0 0 0.105882 0 0 0 0 0.160784 0 0 0 1 0"/>
<feBlend mode="normal" in2="shape" result="effect1_innerShadow_268_4872"/>
</filter>
<linearGradient id="paint0_linear_268_4872" x1="89.8503" y1="192.035" x2="195.745" y2="142.87" gradientUnits="userSpaceOnUse">
<stop stop-color="#7C5719"/>
<stop offset="1" stop-color="#1D1B29"/>
</linearGradient>
<linearGradient id="paint1_linear_268_4872" x1="115.832" y1="79.8604" x2="256.822" y2="195.141" gradientUnits="userSpaceOnUse">
<stop stop-color="white"/>
<stop offset="1" stop-color="white" stop-opacity="0"/>
</linearGradient>
<linearGradient id="paint2_linear_268_4872" x1="175.229" y1="190.034" x2="175.229" y2="264.034" gradientUnits="userSpaceOnUse">
<stop stop-color="white"/>
<stop offset="1" stop-color="white" stop-opacity="0"/>
</linearGradient>
</defs>
</svg>
