<svg width="749" height="767" viewBox="0 0 749 767" fill="none" xmlns="http://www.w3.org/2000/svg">
<path d="M215.145 755.456C210.132 755.106 205.099 755.149 200.092 755.584C187.991 757.526 185.466 751.957 184.947 740.82C184.94 740.624 184.933 699.051 184.926 696.301C184.829 661.27 184.68 435.27 184.479 432.801C181.176 392.32 163.82 354.165 135.282 325.03C104.867 293.978 63.9444 275.413 20.5458 272.978C3.19733 271.898 -0.0230774 265.789 0.313943 250.27C1.35175 202.284 0.811451 202.274 48.588 208.543C157.97 222.928 245.611 319.054 250.955 430.49C251.137 434.277 251.289 661.189 251.327 696.301C251.33 699.042 251.332 740.614 251.333 740.82C251.44 755.006 248.072 755.128 228.332 755.279C223.935 755.317 219.537 755.279 215.14 755.279L215.145 755.456Z" fill="url(#paint0_linear_493_11533)"/>
<path d="M532.207 765.333C501.401 765.597 494.332 765.319 495.75 744.8C496.113 739.544 497.033 422.959 498.254 414.714C505.353 357.761 532.806 305.294 575.548 266.991C618.291 228.687 673.441 207.129 730.83 206.292C743.487 205.815 746.68 210.635 747.066 222.49C748.558 268.865 748.906 268.854 702.82 276.365C631.516 287.984 567.386 359.545 565.337 432.887C565.294 434.439 565.223 745.909 565.12 747.3C563.947 763.111 558.574 768.588 541.596 765.456C538.47 765.155 535.324 765.114 532.191 765.333" fill="url(#paint1_linear_493_11533)"/>
<path d="M372.967 280.414C380.092 278.023 380.964 271.983 383.521 267.217C447.063 148.907 544.446 77.817 676.959 54.8676C696.207 52.1478 715.603 50.6043 735.039 50.2456C744.93 49.7427 748.471 53.236 746.775 65.711C745.388 77.3621 745.388 89.1368 746.775 100.788C748.225 114.937 742.929 117.96 731.224 118.029C592.672 118.8 470.638 210.737 425.697 340.216C414.443 371.645 408.714 404.784 408.766 438.166C408.905 452.075 404.636 457.366 390.294 455.638C378.393 454.465 366.409 454.394 354.495 455.424C342.63 456.21 339.479 451.144 339.634 440.006C341.565 300.667 239.833 166.822 97.4717 128.664C71.9759 121.833 45.9558 116.13 19.3687 118.168C3.72666 119.356 -0.675993 113.033 0.570446 98.8192C1.5606 90.0407 1.54265 81.1777 0.51695 72.4033C-2.3076 53.0541 6.57261 49.1061 23.9693 50.1546C175.685 59.3023 288.739 130.142 363.129 262.675C366.446 268.597 369.709 274.546 372.967 280.414Z" fill="#262432"/>
<g filter="url(#filter0_b_493_11533)">
<path d="M374.57 230.3C374.57 230.3 384.248 217.725 384.521 217.217C448.063 98.9068 545.446 27.817 677.959 4.86756C697.207 2.14779 716.603 0.604266 736.039 0.24557C745.93 -0.257285 749.471 3.23595 747.775 15.711C746.388 27.3621 746.388 39.1368 747.775 50.7879C749.225 64.9374 743.929 67.9598 732.224 68.0294C593.672 68.7997 471.638 160.737 426.697 290.216C415.443 321.645 409.714 354.784 409.766 388.166C409.905 402.075 405.636 407.366 391.294 405.638C379.393 404.465 367.409 404.394 355.495 405.424C343.63 406.21 340.479 401.144 340.634 390.006C342.565 250.667 240.833 116.822 98.4717 78.6642C72.9759 71.8329 46.9558 66.1303 20.3687 68.1685C4.72667 69.3561 0.324007 63.0329 1.57045 48.8192C2.5606 40.0407 2.54265 31.1777 1.51695 22.4033C-1.3076 3.05407 7.57261 -0.893879 24.9693 0.154628C176.685 9.30231 289.739 80.1425 364.129 212.675C367.446 218.597 374.57 230.3 374.57 230.3Z" fill="url(#paint2_linear_493_11533)"/>
</g>
<defs>
<filter id="filter0_b_493_11533" x="-92" y="-93" width="933.182" height="591.954" filterUnits="userSpaceOnUse" color-interpolation-filters="sRGB">
<feFlood flood-opacity="0" result="BackgroundImageFix"/>
<feGaussianBlur in="BackgroundImageFix" stdDeviation="46.5"/>
<feComposite in2="SourceAlpha" operator="in" result="effect1_backgroundBlur_493_11533"/>
<feBlend mode="normal" in="SourceGraphic" in2="effect1_backgroundBlur_493_11533" result="shape"/>
</filter>
<linearGradient id="paint0_linear_493_11533" x1="125.813" y1="205.658" x2="125.813" y2="755.965" gradientUnits="userSpaceOnUse">
<stop stop-color="#282633"/>
<stop offset="1" stop-color="#1D1B29"/>
</linearGradient>
<linearGradient id="paint1_linear_493_11533" x1="621.544" y1="206.26" x2="621.544" y2="766.301" gradientUnits="userSpaceOnUse">
<stop stop-color="#252331"/>
<stop offset="1" stop-color="#1D1B29"/>
</linearGradient>
<linearGradient id="paint2_linear_493_11533" x1="1" y1="0" x2="603.818" y2="561.062" gradientUnits="userSpaceOnUse">
<stop stop-color="#29FAFE"/>
<stop offset="0.522" stop-color="#DA2CFE"/>
<stop offset="1" stop-color="#F7B53B"/>
</linearGradient>
</defs>
</svg>
