<svg width="880" height="478" viewBox="0 0 880 478" fill="none" xmlns="http://www.w3.org/2000/svg">
<path d="M439.502 270.946C439.502 270.946 450.888 256.151 451.209 255.553C525.965 116.363 640.535 32.7264 796.435 5.72663C819.08 2.52686 841.899 0.710912 864.765 0.28891C876.402 -0.302693 880.568 3.80707 878.573 18.4839C876.941 32.1913 876.941 46.044 878.573 59.7514C880.279 76.3981 874.048 79.954 860.278 80.0358C697.272 80.9421 553.701 189.105 500.828 341.437C487.588 378.411 480.848 417.399 480.909 456.673C481.072 473.037 476.05 479.261 459.177 477.229C445.175 475.849 431.076 475.765 417.059 476.977C403.1 477.902 399.393 471.942 399.576 458.839C401.848 294.908 282.161 137.44 114.674 92.5476C84.6789 84.5106 54.0665 77.8016 22.787 80.1995C4.38438 81.5967 -0.795299 74.1576 0.671123 57.4353C1.83603 47.1075 1.81491 36.6803 0.608187 26.3572C-2.71486 3.59308 7.73261 -1.05164 28.1996 0.181918C206.692 10.9441 339.698 94.2868 427.217 250.21C431.12 257.177 439.502 270.946 439.502 270.946Z" fill="url(#paint0_linear_268_6247)"/>
<defs>
<linearGradient id="paint0_linear_268_6247" x1="0" y1="0" x2="709.209" y2="660.084" gradientUnits="userSpaceOnUse">
<stop stop-color="#29FAFE"/>
<stop offset="0.522" stop-color="#DA2CFE"/>
<stop offset="1" stop-color="#F7B53B"/>
</linearGradient>
</defs>
</svg>
