<svg width="455" height="811" viewBox="0 0 455 811" fill="none" xmlns="http://www.w3.org/2000/svg">
<g opacity="0.14">
<path d="M438.14 579.14L438.23 579.137C437.964 584.092 438.046 589.061 438.476 594.006L438.481 594.062L438.49 594.117C439.515 600.502 438.46 603.768 436.315 605.632C434.008 607.637 430 608.474 423.936 608.758C376.425 610.439 331.258 629.814 297.296 663.08C263.332 696.347 243.027 741.105 240.363 788.572C239.781 797.898 237.86 802.888 234.486 805.634C231.058 808.423 225.729 809.25 217.303 809.067L217.303 809.067C216.745 809.055 216.193 809.043 215.648 809.031C203.425 808.768 194.282 808.572 187.471 807.709C180.322 806.805 176.158 805.206 173.726 802.424C171.297 799.647 170.288 795.339 170.429 788.162C170.568 781.033 171.822 771.479 173.522 758.524L173.533 758.441C173.533 758.441 173.533 758.441 173.533 758.441C189.04 640.526 292.702 545.997 412.865 540.234C419.537 539.914 424.424 539.688 428.069 539.915C431.735 540.143 433.794 540.816 435.078 541.986C436.35 543.147 437.156 545.066 437.6 548.57C438.042 552.063 438.09 556.782 438.14 563.246L438.14 563.247C438.167 566.419 438.158 569.584 438.149 572.759C438.144 574.351 438.14 575.946 438.14 577.546L438.14 579.14Z" stroke="url(#paint0_linear_268_6198)" stroke-width="3.0922"/>
<mask id="path-2-inside-1_268_6198" fill="white">
<path d="M439.738 233.582C440.098 275.566 439.529 276.913 395.67 270.418C333.881 262.716 276.96 232.933 235.404 186.561C193.848 140.189 170.459 80.3561 169.551 18.0951C169.034 4.36343 174.263 0.89859 187.124 0.480712C237.437 -1.13852 237.425 -1.51572 245.574 48.4835C258.18 125.842 335.816 195.417 415.385 197.639C436.209 198.22 443.568 203.356 439.871 223.396C439.544 226.788 439.5 230.201 439.738 233.599"/>
</mask>
<path d="M395.67 270.418L396.123 267.359L396.088 267.354L396.053 267.35L395.67 270.418ZM169.551 18.0951L172.643 18.05L172.642 18.0144L172.641 17.9788L169.551 18.0951ZM187.124 0.480712L187.025 -2.60989L187.024 -2.60986L187.124 0.480712ZM245.574 48.4835L248.626 47.9862L248.626 47.9861L245.574 48.4835ZM415.385 197.639L415.299 200.73L415.299 200.73L415.385 197.639ZM439.871 223.396L436.83 222.836L436.806 222.967L436.793 223.1L439.871 223.396ZM436.646 233.609C436.736 244.175 436.761 251.911 436.1 257.607C435.434 263.352 434.139 266.236 432.276 267.83C430.394 269.44 427.223 270.343 421.174 270.215C415.193 270.089 407.14 268.991 396.123 267.359L395.217 273.477C406.129 275.093 414.595 276.262 421.044 276.398C427.426 276.533 432.598 275.692 436.296 272.529C440.013 269.35 441.534 264.432 442.243 258.319C442.958 252.157 442.919 243.981 442.83 233.555L436.646 233.609ZM396.053 267.35C335.004 259.74 278.765 230.314 237.706 184.497L233.101 188.625C275.155 235.552 332.758 265.692 395.288 273.487L396.053 267.35ZM237.706 184.497C196.648 138.681 173.54 79.565 172.643 18.05L166.459 18.1402C167.378 81.1472 191.047 141.697 233.101 188.625L237.706 184.497ZM172.641 17.9788C172.392 11.3634 173.595 8.2525 175.42 6.56589C177.371 4.76269 180.845 3.77856 187.225 3.57129L187.024 -2.60986C180.543 -2.39929 174.972 -1.44202 171.222 2.0246C167.346 5.60776 166.193 11.0951 166.461 18.2113L172.641 17.9788ZM187.224 3.57132C199.88 3.164 209.115 2.84741 216.115 3.3511C223.109 3.85437 227.299 5.15201 230.207 7.52215C233.112 9.8898 235.226 13.7251 237.099 20.4874C238.974 27.257 240.473 36.41 242.522 48.9809L248.626 47.9861C246.6 35.5573 245.045 26.0078 243.059 18.8364C241.07 11.6579 238.514 6.31378 234.114 2.72821C229.718 -0.854831 223.968 -2.28424 216.559 -2.81732C209.156 -3.34995 199.525 -3.01218 187.025 -2.60989L187.224 3.57132ZM242.522 48.9808C248.959 88.4846 271.954 125.828 303.32 153.554C334.688 181.281 374.66 199.595 415.299 200.73L415.472 194.548C376.542 193.461 337.911 175.876 307.416 148.92C276.92 121.964 254.794 85.8404 248.626 47.9862L242.522 48.9808ZM415.299 200.73C420.414 200.873 424.527 201.293 427.777 202.093C431.021 202.892 433.208 204.021 434.671 205.44C437.453 208.139 438.647 212.987 436.83 222.836L442.912 223.957C444.792 213.765 444.155 206.025 438.977 201.001C436.459 198.559 433.132 197.042 429.255 196.088C425.384 195.135 420.769 194.696 415.472 194.548L415.299 200.73ZM436.793 223.1C436.45 226.662 436.403 230.246 436.653 233.816L442.823 233.383C442.596 230.155 442.639 226.914 442.949 223.693L436.793 223.1Z" fill="url(#paint1_linear_268_6198)" mask="url(#path-2-inside-1_268_6198)"/>
<path d="M253.03 406.406L250.725 407.678L249.978 406.325C250.725 407.678 250.725 407.678 250.725 407.678L250.724 407.679L250.723 407.68L250.716 407.683L250.688 407.699L250.58 407.759L250.162 407.989L248.622 408.84C247.32 409.559 245.517 410.556 243.513 411.665C239.506 413.883 234.698 416.549 231.49 418.346C88.1625 498.795 11.6038 620.975 1.71105 785.048C1.1419 794.491 1.9973 801.052 5.13929 804.93C8.15873 808.657 13.7394 810.378 24.0822 808.868L24.104 808.865L24.126 808.863C33.7562 807.737 43.4835 807.716 53.1183 808.802C60.7484 809.469 65.7233 808.548 68.6896 805.867C71.6184 803.22 73.0495 798.422 72.4148 790.063C70.1824 760.939 76.4329 732.493 83.85 704.811L83.85 704.811C125.441 549.642 264.49 453.16 416.329 455.264C419.687 455.311 423.912 456.78 428.147 458.573C430.685 459.648 433.376 460.908 435.987 462.131C437.734 462.949 439.445 463.75 441.05 464.468C445.208 466.326 448.664 467.627 450.967 467.773C452.101 467.845 452.616 467.613 452.847 467.392C453.06 467.189 453.376 466.667 453.287 465.284C452.722 458.733 452.406 442.498 452.386 426.343C452.367 410.183 452.645 393.922 453.29 387.375L453.292 387.358L453.294 387.341C453.717 383.828 452.882 381.012 451.222 378.715C449.536 376.382 446.932 374.494 443.697 373.022C437.209 370.068 428.567 368.958 421.14 369.032L421.127 369.032C384.733 369.088 348.604 362.843 314.341 350.574C173.284 301.61 73.099 168.657 72.2594 17.6577C72.2217 11.3118 71.3534 7.28521 69.0724 4.9386C66.8484 2.65057 62.8386 1.53979 55.2695 2.31372C42.5121 3.83209 29.6195 3.83154 16.8621 2.31213L16.8494 2.31067L16.8367 2.3089C10.0929 1.39221 6.3675 2.00421 4.34588 3.63342C2.40322 5.19897 1.54111 8.13312 1.81049 13.4319L1.81176 13.4568L1.81222 13.4819C2.20006 34.4971 3.86853 55.4692 6.80833 76.2813C31.6328 219.586 105.42 325.876 233.331 394.574L253.03 406.406ZM253.03 406.406L250.796 405.013M253.03 406.406L250.796 405.013M250.796 405.013L250.699 405.169M250.796 405.013L250.699 405.169M250.699 405.169C250.796 405.013 250.796 405.013 250.796 405.013M250.699 405.169L250.796 405.013M250.796 405.013L250.796 405.012M250.796 405.013L250.796 405.012M250.796 405.012L250.794 405.011M250.796 405.012L250.794 405.011M250.794 405.011L250.787 405.007M250.794 405.011L250.787 405.007M250.787 405.007L250.76 404.991M250.787 405.007L250.76 404.991M250.76 404.991L250.657 404.926M250.76 404.991L250.657 404.926M250.657 404.926L250.259 404.679M250.657 404.926L250.259 404.679M250.259 404.679C250.065 404.558 249.822 404.407 249.537 404.231M250.259 404.679L249.537 404.231M249.537 404.231C249.317 404.094 249.071 403.942 248.803 403.776M249.537 404.231L248.803 403.776M248.803 403.776C247.575 403.018 245.885 401.978 244.032 400.85M248.803 403.776L244.032 400.85M244.032 400.85C240.34 398.603 235.961 395.985 233.332 394.574L244.032 400.85Z" stroke="url(#paint2_linear_268_6198)" stroke-width="3.0922"/>
</g>
<defs>
<linearGradient id="paint0_linear_268_6198" x1="440.655" y1="710.15" x2="168.87" y2="710.15" gradientUnits="userSpaceOnUse">
<stop stop-color="white"/>
<stop offset="1" stop-color="white" stop-opacity="0"/>
</linearGradient>
<linearGradient id="paint1_linear_268_6198" x1="441.012" y1="172.478" x2="169.516" y2="172.478" gradientUnits="userSpaceOnUse">
<stop stop-color="white"/>
<stop offset="1" stop-color="white" stop-opacity="0"/>
</linearGradient>
<linearGradient id="paint2_linear_268_6198" x1="455.326" y1="511.878" x2="-2.44523e-05" y2="511.878" gradientUnits="userSpaceOnUse">
<stop stop-color="white"/>
<stop offset="1" stop-color="white" stop-opacity="0"/>
</linearGradient>
</defs>
</svg>
