<svg width="45" height="49" viewBox="0 0 45 49" fill="none" xmlns="http://www.w3.org/2000/svg">
<g filter="url(#filter0_b_268_5553)">
<path d="M43.8666 32.0348C43.8672 33.5487 43.4681 35.0359 42.7096 36.3461C41.9511 37.6562 40.8601 38.7428 39.5469 39.496L26.6868 46.8619C25.392 47.6038 23.9256 47.9941 22.4333 47.9941C20.9409 47.9941 19.4745 47.6038 18.1797 46.8619L5.31966 39.496C4.00646 38.7428 2.91543 37.6562 2.15691 36.3461C1.3984 35.0359 0.999294 33.5487 0.999962 32.0348V17.4561C0.999294 15.9423 1.3984 14.455 2.15691 13.1449C2.91543 11.8348 4.00646 10.7482 5.31966 9.99495L18.1795 2.62931C19.4743 1.8874 20.9407 1.49707 22.433 1.49707C23.9254 1.49707 25.3918 1.8874 26.6866 2.62931L39.5469 9.99517C40.86 10.7484 41.9511 11.8349 42.7096 13.145C43.4681 14.4551 43.8672 15.9423 43.8666 17.4561V32.0348Z" fill="white" fill-opacity="0.11"/>
<path d="M39.7956 39.9297L39.7954 39.9299L26.9354 47.2957C25.5649 48.081 24.0128 48.4941 22.4333 48.4941C20.8537 48.4941 19.3016 48.081 17.9311 47.2957L5.07115 39.9299L5.0709 39.9297C3.68132 39.1327 2.52683 37.9829 1.7242 36.5966C0.921608 35.2103 0.499294 33.6367 0.499962 32.0348L39.7956 39.9297ZM39.7956 39.9297C41.1852 39.1327 42.3397 37.9829 43.1423 36.5966C43.9449 35.2103 44.3672 33.6367 44.3666 32.0348M39.7956 39.9297L44.3666 32.0348M5.0709 9.56123L5.07116 9.56108L17.9309 2.19547C17.9309 2.19546 17.9309 2.19545 17.931 2.19543C19.3015 1.4102 20.8535 0.99707 22.433 0.99707C24.0126 0.99707 25.5646 1.4102 26.9351 2.19543C26.9352 2.19545 26.9352 2.19546 26.9352 2.19547L39.7954 9.5613L39.7956 9.56145C41.1852 10.3584 42.3396 11.5082 43.1423 12.8945C43.9449 14.2808 44.3672 15.8543 44.3666 17.4561C44.3666 17.4562 44.3666 17.4563 44.3666 17.4563L43.8666 17.4561L5.0709 9.56123ZM5.0709 9.56123C3.68132 10.3582 2.52683 11.508 1.7242 12.8944C0.921608 14.2807 0.499294 15.8543 0.499962 17.4561C0.499962 17.4562 0.499962 17.4563 0.499962 17.4564M5.0709 9.56123L0.499962 17.4564M44.3666 32.0348C44.3666 32.0348 44.3666 32.0347 44.3666 32.0346L44.3666 32.0348ZM0.499962 17.4564V32.0346V17.4564Z" stroke="url(#paint0_linear_268_5553)" stroke-linecap="round"/>
</g>
<path opacity="0.5" d="M17.3009 26.7409L19.2367 32.099C19.2367 32.099 19.4787 32.6003 19.7379 32.6003C19.9971 32.6003 23.8517 28.5903 23.8517 28.5903L28.1382 20.311L17.37 25.3579L17.3009 26.7409Z" fill="white"/>
<path opacity="0.5" d="M19.8676 28.1152L19.496 32.0646C19.496 32.0646 19.3405 33.2748 20.5503 32.0646C21.7602 30.8545 22.9183 29.9213 22.9183 29.9213" fill="white"/>
<path d="M17.3358 26.9326L13.3538 25.6352C13.3538 25.6352 12.8779 25.4421 13.0311 25.0042C13.0627 24.914 13.1263 24.8371 13.3167 24.7051C14.199 24.0901 29.6476 18.5375 29.6476 18.5375C29.6476 18.5375 30.0838 18.3905 30.341 18.4883C30.4046 18.508 30.4619 18.5442 30.507 18.5933C30.552 18.6424 30.5832 18.7026 30.5973 18.7677C30.6251 18.8827 30.6367 19.001 30.6318 19.1192C30.6306 19.2214 30.6183 19.3162 30.6089 19.4648C30.5148 20.9829 27.6991 32.3131 27.6991 32.3131C27.6991 32.3131 27.5306 32.9761 26.9271 32.9988C26.7787 33.0036 26.631 32.9784 26.4925 32.9249C26.3541 32.8714 26.2279 32.7905 26.1214 32.6871C24.937 31.6683 20.8432 28.9171 19.9386 28.312C19.9182 28.2981 19.901 28.28 19.8882 28.2589C19.8754 28.2378 19.8672 28.2142 19.8643 28.1896C19.8517 28.1259 19.921 28.0469 19.921 28.0469C19.921 28.0469 27.0494 21.7106 27.2391 21.0455C27.2538 20.9939 27.1983 20.9685 27.1238 20.9911C26.6504 21.1653 18.4429 26.3483 17.5371 26.9203C17.4719 26.9401 17.4029 26.9443 17.3358 26.9326Z" fill="white"/>
<defs>
<filter id="filter0_b_268_5553" x="-94" y="-93.5029" width="232.867" height="236.497" filterUnits="userSpaceOnUse" color-interpolation-filters="sRGB">
<feFlood flood-opacity="0" result="BackgroundImageFix"/>
<feGaussianBlur in="BackgroundImageFix" stdDeviation="47"/>
<feComposite in2="SourceAlpha" operator="in" result="effect1_backgroundBlur_268_5553"/>
<feBlend mode="normal" in="SourceGraphic" in2="effect1_backgroundBlur_268_5553" result="shape"/>
</filter>
<linearGradient id="paint0_linear_268_5553" x1="22.5416" y1="37.2122" x2="22.5493" y2="1.50892" gradientUnits="userSpaceOnUse">
<stop stop-color="white"/>
<stop offset="1" stop-color="white" stop-opacity="0"/>
</linearGradient>
</defs>
</svg>
