<svg width="45" height="50" viewBox="0 0 45 50" fill="none" xmlns="http://www.w3.org/2000/svg">
<g filter="url(#filter0_b_268_5559)">
<path d="M43.8666 32.5319C43.8672 34.0458 43.4681 35.533 42.7096 36.8431C41.9511 38.1533 40.8601 39.2399 39.5469 39.9931L26.6868 47.359C25.392 48.1009 23.9256 48.4912 22.4333 48.4912C20.9409 48.4912 19.4745 48.1009 18.1797 47.359L5.31966 39.9931C4.00646 39.2399 2.91543 38.1533 2.15691 36.8431C1.3984 35.533 0.999294 34.0458 0.999962 32.5319V17.9532C0.999294 16.4393 1.3984 14.9521 2.15691 13.642C2.91543 12.3318 4.00646 11.2452 5.31966 10.492L18.1795 3.12638C19.4743 2.38447 20.9407 1.99414 22.433 1.99414C23.9254 1.99414 25.3918 2.38447 26.6866 3.12638L39.5469 10.4922C40.86 11.2454 41.9511 12.332 42.7096 13.6421C43.4681 14.9522 43.8672 16.4394 43.8666 17.9532V32.5319Z" fill="white" fill-opacity="0.11"/>
<path d="M39.7956 40.4268L39.7954 40.427L26.9354 47.7928C25.5649 48.5781 24.0128 48.9912 22.4333 48.9912C20.8537 48.9912 19.3016 48.5781 17.9311 47.7928L5.07115 40.427L5.0709 40.4268C3.68132 39.6298 2.52683 38.48 1.7242 37.0937C0.921608 35.7074 0.499294 34.1338 0.499962 32.5319L39.7956 40.4268ZM39.7956 40.4268C41.1852 39.6298 42.3397 38.48 43.1423 37.0937C43.9449 35.7074 44.3672 34.1338 44.3666 32.5319M39.7956 40.4268L44.3666 32.5319M5.0709 10.0583L5.07116 10.0582L17.9309 2.69254C17.9309 2.69253 17.9309 2.69252 17.931 2.69251C19.3015 1.90727 20.8535 1.49414 22.433 1.49414C24.0126 1.49414 25.5646 1.90727 26.9351 2.6925C26.9352 2.69252 26.9352 2.69253 26.9352 2.69254L39.7954 10.0584L39.7956 10.0585C41.1852 10.8555 42.3396 12.0053 43.1423 13.3916C43.9449 14.7778 44.3672 16.3514 44.3666 17.9532C44.3666 17.9532 44.3666 17.9534 44.3666 17.9534L43.8666 17.9532L5.0709 10.0583ZM5.0709 10.0583C3.68132 10.8553 2.52683 12.0051 1.7242 13.3915C0.921608 14.7777 0.499294 16.3514 0.499962 17.9532C0.499962 17.9533 0.499962 17.9533 0.499962 17.9534M5.0709 10.0583L0.499962 17.9534M44.3666 32.5319C44.3666 32.5318 44.3666 32.5318 44.3666 32.5317L44.3666 32.5319ZM0.499962 17.9534V32.5317V17.9534Z" stroke="url(#paint0_linear_268_5559)" stroke-linecap="round"/>
</g>
<g clip-path="url(#clip0_268_5559)">
<path d="M31.4384 20.549C31.4524 20.7512 31.4524 20.9533 31.4524 21.1573C31.4524 27.3735 26.7202 34.5427 18.067 34.5427V34.539C15.5109 34.5427 13.0078 33.8105 10.856 32.43C11.2276 32.4747 11.6012 32.497 11.9757 32.498C14.094 32.4998 16.1518 31.7891 17.8183 30.4802C15.8053 30.442 14.04 29.1295 13.4233 27.2133C14.1285 27.3493 14.8551 27.3214 15.5472 27.1323C13.3525 26.6889 11.7735 24.7606 11.7735 22.5211V22.4615C12.4275 22.8257 13.1597 23.0279 13.9086 23.0502C11.8415 21.6688 11.2044 18.9188 12.4526 16.7688C14.8411 19.7079 18.3651 21.4946 22.1481 21.6837C21.769 20.0497 22.2869 18.3376 23.5091 17.189C25.4039 15.4079 28.3839 15.4991 30.165 17.393C31.2186 17.1852 32.2284 16.7987 33.1525 16.2509C32.8013 17.3399 32.0663 18.2649 31.0844 18.8527C32.0169 18.7428 32.928 18.4931 33.7859 18.1121C33.1543 19.0586 32.3588 19.883 31.4384 20.549Z" fill="white"/>
</g>
<defs>
<filter id="filter0_b_268_5559" x="-94" y="-93.0059" width="232.867" height="236.497" filterUnits="userSpaceOnUse" color-interpolation-filters="sRGB">
<feFlood flood-opacity="0" result="BackgroundImageFix"/>
<feGaussianBlur in="BackgroundImageFix" stdDeviation="47"/>
<feComposite in2="SourceAlpha" operator="in" result="effect1_backgroundBlur_268_5559"/>
<feBlend mode="normal" in="SourceGraphic" in2="effect1_backgroundBlur_268_5559" result="shape"/>
</filter>
<linearGradient id="paint0_linear_268_5559" x1="22.5416" y1="37.7093" x2="22.5493" y2="2.00599" gradientUnits="userSpaceOnUse">
<stop stop-color="white"/>
<stop offset="1" stop-color="white" stop-opacity="0"/>
</linearGradient>
<clipPath id="clip0_268_5559">
<rect width="23.1023" height="19.0035" fill="white" transform="translate(10.7628 15.7715)"/>
</clipPath>
</defs>
</svg>
