<svg width="20" height="20" viewBox="0 0 20 20" fill="none" xmlns="http://www.w3.org/2000/svg">
<path d="M2.27273 0C1.02983 0 0 1.02983 0 2.27273V17.7273C0 18.9702 1.02983 20 2.27273 20H17.7273C18.9702 20 20 18.9702 20 17.7273V2.27273C20 1.02983 18.9702 0 17.7273 0H2.27273ZM2.27273 1.81818H17.7273C17.9865 1.81818 18.1818 2.01349 18.1818 2.27273V17.7273C18.1818 17.9865 17.9865 18.1818 17.7273 18.1818H2.27273C2.01349 18.1818 1.81818 17.9865 1.81818 17.7273V2.27273C1.81818 2.01349 2.01349 1.81818 2.27273 1.81818Z" fill="white"/>
<path d="M17 5.42016C16.5208 5.66184 16.0071 5.82411 15.4671 5.89777C16.0182 5.52259 16.4417 4.92874 16.6403 4.22212C16.1256 4.56852 15.5532 4.82056 14.9463 4.95636C14.46 4.36712 13.767 4 13 4C11.5268 4 10.3323 5.35571 10.3323 7.02906C10.3323 7.26614 10.3566 7.49746 10.4022 7.71957C8.18541 7.59298 6.22087 6.38688 4.90476 4.55356C4.67477 5.0024 4.54407 5.52259 4.54407 6.0773C4.54407 7.12803 5.01418 8.05562 5.7305 8.59998C5.29281 8.58387 4.88146 8.44692 4.52178 8.2202C4.52178 8.23286 4.52178 8.24552 4.52178 8.25818C4.52178 9.72667 5.44174 10.95 6.66059 11.2297C6.43769 11.2987 6.20162 11.3356 5.95846 11.3356C5.78622 11.3356 5.61905 11.3172 5.45593 11.2803C5.79635 12.483 6.78116 13.3611 7.94732 13.3852C7.03546 14.1978 5.88551 14.6811 4.63526 14.6811C4.41945 14.6811 4.2077 14.6673 4 14.6385C5.17933 15.4994 6.58156 16 8.08815 16C12.9939 16 15.6768 11.3839 15.6768 7.38122C15.6768 7.25002 15.6738 7.11768 15.6697 6.98878C16.1905 6.56181 16.6424 6.02781 17 5.42016Z" fill="white"/>
</svg>
