<svg width="45" height="49" viewBox="0 0 45 49" fill="none" xmlns="http://www.w3.org/2000/svg">
<g filter="url(#filter0_b_118_18)">
<path d="M43.8667 31.5378C43.8674 33.0516 43.4683 34.5389 42.7097 35.849C41.9512 37.1591 40.8602 38.2458 39.547 38.9989L26.687 46.3648C25.3921 47.1067 23.9257 47.4971 22.4334 47.4971C20.9411 47.4971 19.4747 47.1067 18.1798 46.3648L5.31978 38.9989C4.00658 38.2458 2.91555 37.1591 2.15704 35.849C1.39852 34.5389 0.999416 33.0516 1.00008 31.5378V16.9591C0.999416 15.4452 1.39852 13.958 2.15704 12.6478C2.91555 11.3377 4.00658 10.2511 5.31978 9.49788L18.1796 2.13224C19.4744 1.39033 20.9408 1 22.4332 1C23.9255 1 25.3919 1.39033 26.6867 2.13224L39.547 9.4981C40.8602 10.2513 41.9512 11.3379 42.7097 12.648C43.4682 13.9581 43.8673 15.4452 43.8667 16.9591V31.5378Z" fill="white" fill-opacity="0.11"/>
<path d="M39.7958 39.4327L39.7955 39.4328L26.9355 46.7987C25.565 47.5839 24.0129 47.9971 22.4334 47.9971C20.8538 47.9971 19.3018 47.5839 17.9312 46.7987L5.07127 39.4328L5.07102 39.4327C3.68144 38.6357 2.52695 37.4859 1.72432 36.0995C0.92173 34.7132 0.499416 33.1396 0.500084 31.5378L39.7958 39.4327ZM39.7958 39.4327C41.1853 38.6357 42.3398 37.4859 43.1425 36.0995C43.9451 34.7132 44.3674 33.1396 44.3667 31.5378M39.7958 39.4327L44.3667 31.5378M5.07102 9.06416L5.07128 9.06401L17.931 1.6984C17.931 1.69839 17.9311 1.69838 17.9311 1.69836C19.3016 0.913126 20.8536 0.5 22.4332 0.5C24.0127 0.5 25.5647 0.913125 26.9353 1.69836C26.9353 1.69838 26.9353 1.69839 26.9353 1.6984L39.7955 9.06423L39.7958 9.06438C41.1853 9.86137 42.3398 11.0111 43.1424 12.3974C43.945 13.7837 44.3673 15.3572 44.3667 16.9591C44.3667 16.9591 44.3667 16.9592 44.3667 16.9593L43.8667 16.9591L5.07102 9.06416ZM5.07102 9.06416C3.68144 9.86117 2.52695 11.011 1.72432 12.3973C0.92173 13.7836 0.499416 15.3572 0.500084 16.9591C0.500084 16.9591 0.500084 16.9592 0.500084 16.9593M5.07102 9.06416L0.500084 16.9593M44.3667 31.5378C44.3667 31.5377 44.3667 31.5376 44.3667 31.5375L44.3667 31.5378ZM0.500084 16.9593V31.5375V16.9593Z" stroke="url(#paint0_linear_118_18)" stroke-linecap="round"/>
</g>
<path d="M16.1304 33.1739H12V20.7826H16.1304V33.1739ZM14.066 19.1304C12.9236 19.1304 12 18.2044 12 17.0644C12 15.9244 12.9252 15 14.066 15C15.2044 15 16.1304 15.926 16.1304 17.0644C16.1304 18.2044 15.2044 19.1304 14.066 19.1304ZM31 33.1739H27.029V27.1435C27.029 25.7053 27.0017 23.8557 24.9646 23.8557C22.8969 23.8557 22.5789 25.4219 22.5789 27.0394V33.1739H18.6087V20.7735H22.4203V22.4678H22.474C23.0043 21.493 24.3004 20.4654 26.2335 20.4654C30.2565 20.4654 31 23.0337 31 26.3727V33.1739Z" fill="white"/>
<defs>
<filter id="filter0_b_118_18" x="-93.9999" y="-94" width="232.867" height="236.497" filterUnits="userSpaceOnUse" color-interpolation-filters="sRGB">
<feFlood flood-opacity="0" result="BackgroundImageFix"/>
<feGaussianBlur in="BackgroundImageFix" stdDeviation="47"/>
<feComposite in2="SourceAlpha" operator="in" result="effect1_backgroundBlur_118_18"/>
<feBlend mode="normal" in="SourceGraphic" in2="effect1_backgroundBlur_118_18" result="shape"/>
</filter>
<linearGradient id="paint0_linear_118_18" x1="22.5417" y1="36.7151" x2="22.5494" y2="1.01185" gradientUnits="userSpaceOnUse">
<stop stop-color="white"/>
<stop offset="1" stop-color="white" stop-opacity="0"/>
</linearGradient>
</defs>
</svg>
