<svg width="43" height="47" viewBox="0 0 43 47" fill="none" xmlns="http://www.w3.org/2000/svg">
<g filter="url(#filter0_b_493_4720)">
<path d="M42.8666 30.5378C42.8672 32.0516 42.4681 33.5389 41.7096 34.849C40.9511 36.1591 39.8601 37.2457 38.5469 37.9989L25.6868 45.3648C24.392 46.1067 22.9256 46.4971 21.4333 46.4971C19.9409 46.4971 18.4745 46.1067 17.1797 45.3648L4.31966 37.9989C3.00645 37.2457 1.91543 36.1591 1.15691 34.849C0.398398 33.5389 -0.000706018 32.0516 -3.8147e-05 30.5378V15.9591C-0.000706018 14.4452 0.398398 12.958 1.15691 11.6478C1.91543 10.3377 3.00645 9.25108 4.31966 8.49788L17.1795 1.13224C18.4743 0.390329 19.9407 0 21.433 0C22.9254 0 24.3918 0.390329 25.6866 1.13224L38.5469 8.4981C39.86 9.25128 40.9511 10.3379 41.7096 11.648C42.4681 12.9581 42.8672 14.4452 42.8666 15.9591V30.5378Z" fill="white" fill-opacity="0.11"/>
</g>
<g filter="url(#filter1_b_493_4720)">
<path fill-rule="evenodd" clip-rule="evenodd" d="M41.8666 30.5378L41.8666 15.9591C41.8671 14.6213 41.5144 13.3067 40.8442 12.149C40.1739 10.9914 39.2099 10.0312 38.0495 9.36564C38.0494 9.36561 38.0496 9.36567 38.0495 9.36564L25.1896 1.99998C24.0461 1.34478 22.751 1 21.433 1C20.1151 1 18.8201 1.34471 17.6766 1.9999L4.81719 9.36533C3.65674 10.0309 2.69262 10.9911 2.02234 12.1489C1.35205 13.3066 0.999371 14.6208 0.999962 15.9586V30.5378C0.999371 31.8755 1.35205 33.1902 2.02234 34.348C2.69262 35.5057 3.65674 36.4659 4.81719 37.1315L17.6767 44.4971C18.8202 45.1523 20.1154 45.4971 21.4333 45.4971C22.7512 45.4971 24.0462 45.1523 25.1897 44.4972L38.0493 37.1315C38.0494 37.1315 38.0493 37.1315 38.0493 37.1315C39.2097 36.4659 40.1739 35.5056 40.8442 34.348C41.5145 33.1902 41.8672 31.8755 41.8666 30.5378ZM38.5469 37.9989C39.8601 37.2457 40.9511 36.1591 41.7096 34.849C42.4681 33.5389 42.8672 32.0516 42.8666 30.5378V15.9591C42.8672 14.4452 42.4681 12.9581 41.7096 11.648C40.9511 10.3379 39.86 9.25128 38.5469 8.4981L25.6866 1.13224C24.3918 0.390329 22.9254 0 21.433 0C19.9407 0 18.4743 0.390329 17.1795 1.13224L4.31966 8.49788C3.00645 9.25108 1.91543 10.3377 1.15691 11.6478C0.398399 12.958 -0.000705719 14.4452 -3.8147e-05 15.9591V30.5378C-0.000705719 32.0516 0.398399 33.5389 1.15691 34.849C1.91543 36.1591 3.00645 37.2457 4.31966 37.9989L17.1797 45.3648C18.4745 46.1067 19.9409 46.4971 21.4333 46.4971C22.9256 46.4971 24.392 46.1067 25.6868 45.3648L38.5469 37.9989Z" fill="url(#paint0_linear_493_4720)"/>
</g>
<path opacity="0.5" d="M16.3009 25.7409L18.2367 31.099C18.2367 31.099 18.4787 31.6003 18.7379 31.6003C18.9971 31.6003 22.8517 27.5903 22.8517 27.5903L27.1382 19.311L16.37 24.3579L16.3009 25.7409Z" fill="white"/>
<path opacity="0.5" d="M18.8676 27.1152L18.496 31.0646C18.496 31.0646 18.3405 32.2748 19.5503 31.0646C20.7602 29.8545 21.9183 28.9213 21.9183 28.9213" fill="white"/>
<path d="M16.3358 25.9326L12.3538 24.6352C12.3538 24.6352 11.8779 24.4421 12.0311 24.0042C12.0627 23.914 12.1263 23.8371 12.3167 23.7051C13.199 23.0901 28.6476 17.5375 28.6476 17.5375C28.6476 17.5375 29.0838 17.3905 29.341 17.4883C29.4046 17.508 29.4619 17.5442 29.507 17.5933C29.552 17.6424 29.5832 17.7026 29.5973 17.7677C29.6251 17.8827 29.6367 18.001 29.6318 18.1192C29.6306 18.2214 29.6183 18.3162 29.6089 18.4648C29.5148 19.9829 26.6991 31.3131 26.6991 31.3131C26.6991 31.3131 26.5306 31.9761 25.9271 31.9988C25.7787 32.0036 25.631 31.9784 25.4925 31.9249C25.3541 31.8714 25.2279 31.7905 25.1214 31.6871C23.937 30.6683 19.8432 27.9171 18.9386 27.312C18.9182 27.2981 18.901 27.28 18.8882 27.2589C18.8754 27.2378 18.8672 27.2142 18.8643 27.1896C18.8517 27.1259 18.921 27.0469 18.921 27.0469C18.921 27.0469 26.0494 20.7106 26.2391 20.0455C26.2538 19.9939 26.1983 19.9685 26.1238 19.9911C25.6504 20.1653 17.4429 25.3483 16.5371 25.9203C16.4719 25.9401 16.4029 25.9443 16.3358 25.9326Z" fill="white"/>
<defs>
<filter id="filter0_b_493_4720" x="-94" y="-94" width="230.867" height="234.497" filterUnits="userSpaceOnUse" color-interpolation-filters="sRGB">
<feFlood flood-opacity="0" result="BackgroundImageFix"/>
<feGaussianBlur in="BackgroundImageFix" stdDeviation="47"/>
<feComposite in2="SourceAlpha" operator="in" result="effect1_backgroundBlur_493_4720"/>
<feBlend mode="normal" in="SourceGraphic" in2="effect1_backgroundBlur_493_4720" result="shape"/>
</filter>
<filter id="filter1_b_493_4720" x="-94" y="-94" width="230.867" height="234.497" filterUnits="userSpaceOnUse" color-interpolation-filters="sRGB">
<feFlood flood-opacity="0" result="BackgroundImageFix"/>
<feGaussianBlur in="BackgroundImageFix" stdDeviation="47"/>
<feComposite in2="SourceAlpha" operator="in" result="effect1_backgroundBlur_493_4720"/>
<feBlend mode="normal" in="SourceGraphic" in2="effect1_backgroundBlur_493_4720" result="shape"/>
</filter>
<linearGradient id="paint0_linear_493_4720" x1="21.5416" y1="35.7151" x2="21.5493" y2="0.0118453" gradientUnits="userSpaceOnUse">
<stop stop-color="white"/>
<stop offset="1" stop-color="white" stop-opacity="0"/>
</linearGradient>
</defs>
</svg>
