<svg width="45" height="49" viewBox="0 0 45 49" fill="none" xmlns="http://www.w3.org/2000/svg">
<g filter="url(#filter0_b_268_5563)">
<path d="M43.8666 32.029C43.8672 33.5429 43.4681 35.0301 42.7096 36.3402C41.9511 37.6503 40.8601 38.737 39.5469 39.4902L26.6868 46.856C25.392 47.5979 23.9256 47.9883 22.4333 47.9883C20.9409 47.9883 19.4745 47.5979 18.1797 46.856L5.31966 39.4902C4.00646 38.737 2.91543 37.6503 2.15691 36.3402C1.3984 35.0301 0.999294 33.5429 0.999962 32.029V17.4503C0.999294 15.9364 1.3984 14.4492 2.15691 13.139C2.91543 11.8289 4.00646 10.7423 5.31966 9.98909L18.1795 2.62345C19.4743 1.88154 20.9407 1.49121 22.433 1.49121C23.9254 1.49121 25.3918 1.88154 26.6866 2.62345L39.5469 9.98932C40.86 10.7425 41.9511 11.8291 42.7096 13.1392C43.4681 14.4493 43.8672 15.9364 43.8666 17.4503V32.029Z" fill="white" fill-opacity="0.11"/>
<path d="M39.7956 39.9239L39.7954 39.924L26.9354 47.2899C25.5649 48.0751 24.0128 48.4883 22.4333 48.4883C20.8537 48.4883 19.3016 48.0751 17.9311 47.2899L5.07115 39.924L5.0709 39.9239C3.68132 39.1269 2.52683 37.9771 1.7242 36.5907C0.921608 35.2045 0.499294 33.6308 0.499962 32.029L39.7956 39.9239ZM39.7956 39.9239C41.1852 39.1269 42.3397 37.9771 43.1423 36.5907C43.9449 35.2045 44.3672 33.6308 44.3666 32.029M39.7956 39.9239L44.3666 32.029M5.0709 9.55537L5.07116 9.55522L17.9309 2.18961C17.9309 2.1896 17.9309 2.18959 17.931 2.18958C19.3015 1.40434 20.8535 0.991211 22.433 0.991211C24.0126 0.991211 25.5646 1.40434 26.9351 2.18958C26.9352 2.18959 26.9352 2.1896 26.9352 2.18961L39.7954 9.55544L39.7956 9.55559C41.1852 10.3526 42.3396 11.5024 43.1423 12.8886C43.9449 14.2749 44.3672 15.8484 44.3666 17.4503C44.3666 17.4503 44.3666 17.4504 44.3666 17.4505L43.8666 17.4503L5.0709 9.55537ZM5.0709 9.55537C3.68132 10.3524 2.52683 11.5022 1.7242 12.8885C0.921608 14.2748 0.499294 15.8484 0.499962 17.4503C0.499962 17.4503 0.499962 17.4504 0.499962 17.4505M5.0709 9.55537L0.499962 17.4505M44.3666 32.029C44.3666 32.0289 44.3666 32.0288 44.3666 32.0288L44.3666 32.029ZM0.499962 17.4505V32.0288V17.4505Z" stroke="url(#paint0_linear_268_5563)" stroke-linecap="round"/>
</g>
<g clip-path="url(#clip0_268_5563)">
<path d="M30.5474 17.4829C29.0204 16.7838 27.4084 16.2878 25.7525 16.0077C25.526 16.4128 25.3209 16.8295 25.1383 17.2562C23.3745 16.9904 21.5808 16.9904 19.817 17.2562C19.6343 16.8296 19.4293 16.4128 19.2028 16.0077C17.5459 16.2902 15.9328 16.7873 14.4043 17.4865C11.3699 21.9761 10.5473 26.3542 10.9586 30.6701C12.7356 31.983 14.7247 32.9816 16.8392 33.6223C17.3154 32.9819 17.7367 32.3025 18.0987 31.5914C17.4111 31.3346 16.7474 31.0177 16.1153 30.6445C16.2817 30.5238 16.4444 30.3995 16.6016 30.2789C18.4407 31.1438 20.4481 31.5922 22.4804 31.5922C24.5128 31.5922 26.5201 31.1438 28.3593 30.2789C28.5183 30.4087 28.681 30.533 28.8455 30.6445C28.2122 31.0183 27.5473 31.3358 26.8585 31.5932C27.2201 32.304 27.6414 32.9828 28.118 33.6223C30.2343 32.9841 32.2249 31.9861 34.0023 30.6719C34.4849 25.6668 33.1779 21.329 30.5474 17.4829ZM18.6197 28.0158C17.4735 28.0158 16.5266 26.9757 16.5266 25.6961C16.5266 24.4165 17.4406 23.3672 18.616 23.3672C19.7914 23.3672 20.731 24.4165 20.7109 25.6961C20.6908 26.9757 19.7878 28.0158 18.6197 28.0158ZM26.3412 28.0158C25.1932 28.0158 24.2499 26.9757 24.2499 25.6961C24.2499 24.4165 25.1639 23.3672 26.3412 23.3672C27.5184 23.3672 28.4507 24.4165 28.4306 25.6961C28.4105 26.9757 27.5093 28.0158 26.3412 28.0158Z" fill="white"/>
</g>
<defs>
<filter id="filter0_b_268_5563" x="-94" y="-93.5088" width="232.867" height="236.497" filterUnits="userSpaceOnUse" color-interpolation-filters="sRGB">
<feFlood flood-opacity="0" result="BackgroundImageFix"/>
<feGaussianBlur in="BackgroundImageFix" stdDeviation="47"/>
<feComposite in2="SourceAlpha" operator="in" result="effect1_backgroundBlur_268_5563"/>
<feBlend mode="normal" in="SourceGraphic" in2="effect1_backgroundBlur_268_5563" result="shape"/>
</filter>
<linearGradient id="paint0_linear_268_5563" x1="22.5416" y1="37.2063" x2="22.5493" y2="1.50306" gradientUnits="userSpaceOnUse">
<stop stop-color="white"/>
<stop offset="1" stop-color="white" stop-opacity="0"/>
</linearGradient>
<clipPath id="clip0_268_5563">
<rect width="23.2412" height="17.6146" fill="white" transform="translate(10.8596 16.0065)"/>
</clipPath>
</defs>
</svg>
