<svg width="43" height="47" viewBox="0 0 43 47" fill="none" xmlns="http://www.w3.org/2000/svg">
<g filter="url(#filter0_b_493_4730)">
<path d="M42.8666 30.5378C42.8672 32.0516 42.4681 33.5389 41.7096 34.849C40.9511 36.1591 39.8601 37.2457 38.5469 37.9989L25.6868 45.3648C24.392 46.1067 22.9256 46.4971 21.4333 46.4971C19.9409 46.4971 18.4745 46.1067 17.1797 45.3648L4.31966 37.9989C3.00645 37.2457 1.91543 36.1591 1.15691 34.849C0.398398 33.5389 -0.000706018 32.0516 -3.8147e-05 30.5378V15.9591C-0.000706018 14.4452 0.398398 12.958 1.15691 11.6478C1.91543 10.3377 3.00645 9.25108 4.31966 8.49788L17.1795 1.13224C18.4743 0.390329 19.9407 0 21.433 0C22.9254 0 24.3918 0.390329 25.6866 1.13224L38.5469 8.4981C39.86 9.25128 40.9511 10.3379 41.7096 11.648C42.4681 12.9581 42.8672 14.4452 42.8666 15.9591V30.5378Z" fill="white" fill-opacity="0.11"/>
</g>
<g filter="url(#filter1_b_493_4730)">
<path fill-rule="evenodd" clip-rule="evenodd" d="M41.8666 30.5378L41.8666 15.9591C41.8671 14.6213 41.5144 13.3067 40.8442 12.149C40.1739 10.9914 39.2099 10.0312 38.0495 9.36564C38.0494 9.36561 38.0496 9.36567 38.0495 9.36564L25.1896 1.99998C24.0461 1.34478 22.751 1 21.433 1C20.1151 1 18.8201 1.34471 17.6766 1.9999L4.81719 9.36533C3.65674 10.0309 2.69262 10.9911 2.02234 12.1489C1.35205 13.3066 0.999371 14.6208 0.999962 15.9586V30.5378C0.999371 31.8755 1.35205 33.1902 2.02234 34.348C2.69262 35.5057 3.65674 36.4659 4.81719 37.1315L17.6767 44.4971C18.8202 45.1523 20.1154 45.4971 21.4333 45.4971C22.7512 45.4971 24.0462 45.1523 25.1897 44.4972L38.0493 37.1315C38.0494 37.1315 38.0493 37.1315 38.0493 37.1315C39.2097 36.4659 40.1739 35.5056 40.8442 34.348C41.5145 33.1902 41.8672 31.8755 41.8666 30.5378ZM38.5469 37.9989C39.8601 37.2457 40.9511 36.1591 41.7096 34.849C42.4681 33.5389 42.8672 32.0516 42.8666 30.5378V15.9591C42.8672 14.4452 42.4681 12.9581 41.7096 11.648C40.9511 10.3379 39.86 9.25128 38.5469 8.4981L25.6866 1.13224C24.3918 0.390329 22.9254 0 21.433 0C19.9407 0 18.4743 0.390329 17.1795 1.13224L4.31966 8.49788C3.00645 9.25108 1.91543 10.3377 1.15691 11.6478C0.398399 12.958 -0.000705719 14.4452 -3.8147e-05 15.9591V30.5378C-0.000705719 32.0516 0.398399 33.5389 1.15691 34.849C1.91543 36.1591 3.00645 37.2457 4.31966 37.9989L17.1797 45.3648C18.4745 46.1067 19.9409 46.4971 21.4333 46.4971C22.9256 46.4971 24.392 46.1067 25.6868 45.3648L38.5469 37.9989Z" fill="url(#paint0_linear_493_4730)"/>
</g>
<g clip-path="url(#clip0_493_4730)">
<path d="M29.5474 16.4829C28.0204 15.7838 26.4084 15.2878 24.7525 15.0077C24.526 15.4128 24.3209 15.8295 24.1383 16.2562C22.3745 15.9904 20.5808 15.9904 18.817 16.2562C18.6343 15.8296 18.4293 15.4128 18.2028 15.0077C16.5459 15.2902 14.9328 15.7873 13.4043 16.4865C10.3699 20.9761 9.54726 25.3542 9.95856 29.6701C11.7356 30.983 13.7247 31.9816 15.8392 32.6223C16.3154 31.9819 16.7367 31.3025 17.0987 30.5914C16.4111 30.3346 15.7474 30.0177 15.1153 29.6445C15.2817 29.5238 15.4444 29.3995 15.6016 29.2789C17.4407 30.1438 19.4481 30.5922 21.4804 30.5922C23.5128 30.5922 25.5201 30.1438 27.3593 29.2789C27.5183 29.4087 27.681 29.533 27.8455 29.6445C27.2122 30.0183 26.5473 30.3358 25.8585 30.5932C26.2201 31.304 26.6414 31.9828 27.118 32.6223C29.2343 31.9841 31.2249 30.9861 33.0023 29.6719C33.4849 24.6668 32.1779 20.329 29.5474 16.4829ZM17.6197 27.0158C16.4735 27.0158 15.5266 25.9757 15.5266 24.6961C15.5266 23.4165 16.4406 22.3672 17.616 22.3672C18.7914 22.3672 19.731 23.4165 19.7109 24.6961C19.6908 25.9757 18.7878 27.0158 17.6197 27.0158ZM25.3412 27.0158C24.1932 27.0158 23.2499 25.9757 23.2499 24.6961C23.2499 23.4165 24.1639 22.3672 25.3412 22.3672C26.5184 22.3672 27.4507 23.4165 27.4306 24.6961C27.4105 25.9757 26.5093 27.0158 25.3412 27.0158Z" fill="white"/>
</g>
<defs>
<filter id="filter0_b_493_4730" x="-94" y="-94" width="230.867" height="234.497" filterUnits="userSpaceOnUse" color-interpolation-filters="sRGB">
<feFlood flood-opacity="0" result="BackgroundImageFix"/>
<feGaussianBlur in="BackgroundImageFix" stdDeviation="47"/>
<feComposite in2="SourceAlpha" operator="in" result="effect1_backgroundBlur_493_4730"/>
<feBlend mode="normal" in="SourceGraphic" in2="effect1_backgroundBlur_493_4730" result="shape"/>
</filter>
<filter id="filter1_b_493_4730" x="-94" y="-94" width="230.867" height="234.497" filterUnits="userSpaceOnUse" color-interpolation-filters="sRGB">
<feFlood flood-opacity="0" result="BackgroundImageFix"/>
<feGaussianBlur in="BackgroundImageFix" stdDeviation="47"/>
<feComposite in2="SourceAlpha" operator="in" result="effect1_backgroundBlur_493_4730"/>
<feBlend mode="normal" in="SourceGraphic" in2="effect1_backgroundBlur_493_4730" result="shape"/>
</filter>
<linearGradient id="paint0_linear_493_4730" x1="21.5416" y1="35.7151" x2="21.5493" y2="0.0118453" gradientUnits="userSpaceOnUse">
<stop stop-color="white"/>
<stop offset="1" stop-color="white" stop-opacity="0"/>
</linearGradient>
<clipPath id="clip0_493_4730">
<rect width="23.2412" height="17.6146" fill="white" transform="translate(9.85962 15.0065)"/>
</clipPath>
</defs>
</svg>
