<svg width="43" height="47" viewBox="0 0 43 47" fill="none" xmlns="http://www.w3.org/2000/svg">
<g filter="url(#filter0_b_493_4726)">
<path d="M42.8666 30.5378C42.8672 32.0516 42.4681 33.5389 41.7096 34.849C40.9511 36.1591 39.8601 37.2457 38.5469 37.9989L25.6868 45.3648C24.392 46.1067 22.9256 46.4971 21.4333 46.4971C19.9409 46.4971 18.4745 46.1067 17.1797 45.3648L4.31966 37.9989C3.00645 37.2457 1.91543 36.1591 1.15691 34.849C0.398398 33.5389 -0.000706018 32.0516 -3.8147e-05 30.5378V15.9591C-0.000706018 14.4452 0.398398 12.958 1.15691 11.6478C1.91543 10.3377 3.00645 9.25108 4.31966 8.49788L17.1795 1.13224C18.4743 0.390329 19.9407 0 21.433 0C22.9254 0 24.3918 0.390329 25.6866 1.13224L38.5469 8.4981C39.86 9.25128 40.9511 10.3379 41.7096 11.648C42.4681 12.9581 42.8672 14.4452 42.8666 15.9591V30.5378Z" fill="white" fill-opacity="0.11"/>
</g>
<g filter="url(#filter1_b_493_4726)">
<path fill-rule="evenodd" clip-rule="evenodd" d="M41.8666 30.5378L41.8666 15.9591C41.8671 14.6213 41.5144 13.3067 40.8442 12.149C40.1739 10.9914 39.2099 10.0312 38.0495 9.36564C38.0494 9.36561 38.0496 9.36567 38.0495 9.36564L25.1896 1.99998C24.0461 1.34478 22.751 1 21.433 1C20.1151 1 18.8201 1.34471 17.6766 1.9999L4.81719 9.36533C3.65674 10.0309 2.69262 10.9911 2.02234 12.1489C1.35205 13.3066 0.999371 14.6208 0.999962 15.9586V30.5378C0.999371 31.8755 1.35205 33.1902 2.02234 34.348C2.69262 35.5057 3.65674 36.4659 4.81719 37.1315L17.6767 44.4971C18.8202 45.1523 20.1154 45.4971 21.4333 45.4971C22.7512 45.4971 24.0462 45.1523 25.1897 44.4972L38.0493 37.1315C38.0494 37.1315 38.0493 37.1315 38.0493 37.1315C39.2097 36.4659 40.1739 35.5056 40.8442 34.348C41.5145 33.1902 41.8672 31.8755 41.8666 30.5378ZM38.5469 37.9989C39.8601 37.2457 40.9511 36.1591 41.7096 34.849C42.4681 33.5389 42.8672 32.0516 42.8666 30.5378V15.9591C42.8672 14.4452 42.4681 12.9581 41.7096 11.648C40.9511 10.3379 39.86 9.25128 38.5469 8.4981L25.6866 1.13224C24.3918 0.390329 22.9254 0 21.433 0C19.9407 0 18.4743 0.390329 17.1795 1.13224L4.31966 8.49788C3.00645 9.25108 1.91543 10.3377 1.15691 11.6478C0.398399 12.958 -0.000705719 14.4452 -3.8147e-05 15.9591V30.5378C-0.000705719 32.0516 0.398399 33.5389 1.15691 34.849C1.91543 36.1591 3.00645 37.2457 4.31966 37.9989L17.1797 45.3648C18.4745 46.1067 19.9409 46.4971 21.4333 46.4971C22.9256 46.4971 24.392 46.1067 25.6868 45.3648L38.5469 37.9989Z" fill="url(#paint0_linear_493_4726)"/>
</g>
<g clip-path="url(#clip0_493_4726)">
<path d="M30.4384 18.549C30.4524 18.7512 30.4524 18.9533 30.4524 19.1573C30.4524 25.3735 25.7202 32.5427 17.067 32.5427V32.539C14.5109 32.5427 12.0078 31.8105 9.85596 30.43C10.2276 30.4747 10.6012 30.497 10.9757 30.498C13.094 30.4998 15.1518 29.7891 16.8183 28.4802C14.8053 28.442 13.04 27.1295 12.4233 25.2133C13.1285 25.3493 13.8551 25.3214 14.5472 25.1323C12.3525 24.6889 10.7735 22.7606 10.7735 20.5211V20.4615C11.4275 20.8257 12.1597 21.0279 12.9086 21.0502C10.8415 19.6688 10.2044 16.9188 11.4526 14.7688C13.8411 17.7079 17.3651 19.4946 21.1481 19.6837C20.769 18.0497 21.2869 16.3376 22.5091 15.189C24.4039 13.4079 27.3839 13.4991 29.165 15.393C30.2186 15.1852 31.2284 14.7987 32.1525 14.2509C31.8013 15.3399 31.0663 16.2649 30.0844 16.8527C31.0169 16.7428 31.928 16.4931 32.7859 16.1121C32.1543 17.0586 31.3588 17.883 30.4384 18.549Z" fill="white"/>
</g>
<defs>
<filter id="filter0_b_493_4726" x="-94" y="-94" width="230.867" height="234.497" filterUnits="userSpaceOnUse" color-interpolation-filters="sRGB">
<feFlood flood-opacity="0" result="BackgroundImageFix"/>
<feGaussianBlur in="BackgroundImageFix" stdDeviation="47"/>
<feComposite in2="SourceAlpha" operator="in" result="effect1_backgroundBlur_493_4726"/>
<feBlend mode="normal" in="SourceGraphic" in2="effect1_backgroundBlur_493_4726" result="shape"/>
</filter>
<filter id="filter1_b_493_4726" x="-94" y="-94" width="230.867" height="234.497" filterUnits="userSpaceOnUse" color-interpolation-filters="sRGB">
<feFlood flood-opacity="0" result="BackgroundImageFix"/>
<feGaussianBlur in="BackgroundImageFix" stdDeviation="47"/>
<feComposite in2="SourceAlpha" operator="in" result="effect1_backgroundBlur_493_4726"/>
<feBlend mode="normal" in="SourceGraphic" in2="effect1_backgroundBlur_493_4726" result="shape"/>
</filter>
<linearGradient id="paint0_linear_493_4726" x1="21.5416" y1="35.7151" x2="21.5493" y2="0.0118453" gradientUnits="userSpaceOnUse">
<stop stop-color="white"/>
<stop offset="1" stop-color="white" stop-opacity="0"/>
</linearGradient>
<clipPath id="clip0_493_4726">
<rect width="23.1023" height="19.0035" fill="white" transform="translate(9.76282 13.7715)"/>
</clipPath>
</defs>
</svg>
