<svg width="45" height="50" viewBox="0 0 45 50" fill="none" xmlns="http://www.w3.org/2000/svg">
<g filter="url(#filter0_b_116_49)">
<path d="M43.8667 32.526C43.8674 34.0399 43.4683 35.5271 42.7097 36.8372C41.9512 38.1474 40.8602 39.234 39.547 39.9872L26.687 47.353C25.3921 48.0949 23.9257 48.4853 22.4334 48.4853C20.9411 48.4853 19.4747 48.0949 18.1798 47.353L5.31978 39.9872C4.00658 39.234 2.91555 38.1474 2.15703 36.8372C1.39852 35.5271 0.999417 34.0399 1.00009 32.526V17.9473C0.999417 16.4334 1.39852 14.9462 2.15703 13.6361C2.91555 12.3259 4.00658 11.2393 5.31978 10.4861L18.1796 3.12046C19.4744 2.37855 20.9408 1.98822 22.4332 1.98822C23.9255 1.98822 25.3919 2.37855 26.6867 3.12046L39.547 10.4863C40.8602 11.2395 41.9512 12.3261 42.7097 13.6362C43.4682 14.9463 43.8673 16.4334 43.8667 17.9473V32.526Z" fill="white" fill-opacity="0.11"/>
<path d="M39.7958 40.4209L39.7955 40.421L26.9355 47.7869C25.565 48.5721 24.0129 48.9853 22.4334 48.9853C20.8538 48.9853 19.3018 48.5721 17.9312 47.7869L5.07127 40.421L5.07102 40.4209C3.68144 39.6239 2.52695 38.4741 1.72432 37.0877C0.92173 35.7015 0.499416 34.1278 0.500084 32.526L39.7958 40.4209ZM39.7958 40.4209C41.1853 39.6239 42.3398 38.4741 43.1425 37.0877C43.9451 35.7015 44.3674 34.1278 44.3667 32.526C44.3667 32.5259 44.3667 32.5258 44.3667 32.5258L39.7958 40.4209ZM5.07102 10.0524L5.07128 10.0522L17.931 2.68662C19.3015 1.90136 20.8536 1.48822 22.4332 1.48822C24.0127 1.48822 25.5648 1.90136 26.9353 2.68662L39.7955 10.0525L39.7958 10.0526C41.1853 10.8496 42.3398 11.9994 43.1424 13.3857C43.945 14.7719 44.3673 16.3454 44.3667 17.9473C44.3667 17.9473 44.3667 17.9474 44.3667 17.9475L5.07102 10.0524ZM5.07102 10.0524C3.68144 10.8494 2.52695 11.9992 1.72432 13.3855C0.92173 14.7718 0.499416 16.3454 0.500084 17.9473C0.500084 17.9474 0.500084 17.9474 0.500084 17.9475M5.07102 10.0524L0.500084 17.9475M0.500084 17.9475V32.5258V17.9475Z" stroke="url(#paint0_linear_116_49)" stroke-linecap="round"/>
</g>
<path d="M14.804 16.9062C13.5611 16.9062 12.5312 17.9361 12.5312 19.179V34.6335C12.5312 35.8764 13.5611 36.9063 14.804 36.9063H30.2585C31.5014 36.9063 32.5313 35.8764 32.5313 34.6335V19.179C32.5313 17.9361 31.5014 16.9062 30.2585 16.9062H14.804ZM14.804 18.7244H30.2585C30.5178 18.7244 30.7131 18.9197 30.7131 19.179V34.6335C30.7131 34.8928 30.5178 35.0881 30.2585 35.0881H14.804C14.5447 35.0881 14.3494 34.8928 14.3494 34.6335V19.179C14.3494 18.9197 14.5447 18.7244 14.804 18.7244ZM17.4744 20.2869C16.6115 20.2869 15.9119 20.9865 15.9119 21.8494C15.9119 22.7124 16.6115 23.4119 17.4744 23.4119C18.3374 23.4119 19.0369 22.7124 19.0369 21.8494C19.0369 20.9865 18.3374 20.2869 17.4744 20.2869ZM25.6847 24.4347C24.3814 24.4347 23.5149 25.1484 23.1563 25.8267H23.0994V24.6335H20.5426V33.2699H23.2131V29.0085C23.2131 27.8828 23.4368 26.7926 24.8324 26.7926C26.2067 26.7926 26.2244 28.0639 26.2244 29.0653V33.2699H28.8949V28.5256C28.8949 26.2031 28.4013 24.4347 25.6847 24.4347ZM16.1676 24.6335V33.2699H18.8665V24.6335H16.1676Z" fill="white"/>
<defs>
<filter id="filter0_b_116_49" x="-93.9999" y="-93.0118" width="232.867" height="236.497" filterUnits="userSpaceOnUse" color-interpolation-filters="sRGB">
<feFlood flood-opacity="0" result="BackgroundImageFix"/>
<feGaussianBlur in="BackgroundImageFix" stdDeviation="47"/>
<feComposite in2="SourceAlpha" operator="in" result="effect1_backgroundBlur_116_49"/>
<feBlend mode="normal" in="SourceGraphic" in2="effect1_backgroundBlur_116_49" result="shape"/>
</filter>
<linearGradient id="paint0_linear_116_49" x1="22.5417" y1="37.7033" x2="22.5494" y2="2.00007" gradientUnits="userSpaceOnUse">
<stop stop-color="white"/>
<stop offset="1" stop-color="white" stop-opacity="0"/>
</linearGradient>
</defs>
</svg>
