<svg width="45" height="49" viewBox="0 0 45 49" fill="none" xmlns="http://www.w3.org/2000/svg">
<g filter="url(#filter0_b_268_5549)">
<path d="M43.8666 31.5378C43.8672 33.0516 43.4681 34.5389 42.7096 35.849C41.9511 37.1591 40.8601 38.2458 39.5469 38.9989L26.6868 46.3648C25.392 47.1067 23.9256 47.4971 22.4333 47.4971C20.9409 47.4971 19.4745 47.1067 18.1797 46.3648L5.31966 38.9989C4.00646 38.2458 2.91543 37.1591 2.15691 35.849C1.3984 34.5389 0.999294 33.0516 0.999962 31.5378V16.9591C0.999294 15.4452 1.3984 13.958 2.15691 12.6478C2.91543 11.3377 4.00646 10.2511 5.31966 9.49788L18.1795 2.13224C19.4743 1.39033 20.9407 1 22.433 1C23.9254 1 25.3918 1.39033 26.6866 2.13224L39.5469 9.4981C40.86 10.2513 41.9511 11.3379 42.7096 12.648C43.4681 13.9581 43.8672 15.4452 43.8666 16.9591V31.5378Z" fill="white" fill-opacity="0.11"/>
<path d="M39.7956 39.4327L39.7954 39.4328L26.9354 46.7987C25.5649 47.5839 24.0128 47.9971 22.4333 47.9971C20.8537 47.9971 19.3016 47.5839 17.9311 46.7987L5.07115 39.4328L5.0709 39.4327C3.68132 38.6357 2.52683 37.4859 1.7242 36.0995C0.921608 34.7132 0.499294 33.1396 0.499962 31.5378L39.7956 39.4327ZM39.7956 39.4327C41.1852 38.6357 42.3397 37.4859 43.1423 36.0995C43.9449 34.7132 44.3672 33.1396 44.3666 31.5378M39.7956 39.4327L44.3666 31.5378M5.0709 9.06416L5.07116 9.06401L17.9309 1.6984C17.9309 1.69839 17.9309 1.69838 17.931 1.69836C19.3015 0.913126 20.8535 0.5 22.433 0.5C24.0126 0.5 25.5646 0.913125 26.9351 1.69836C26.9352 1.69838 26.9352 1.69839 26.9352 1.6984L39.7954 9.06423L39.7956 9.06438C41.1852 9.86137 42.3396 11.0111 43.1423 12.3974C43.9449 13.7837 44.3672 15.3572 44.3666 16.9591C44.3666 16.9591 44.3666 16.9592 44.3666 16.9593L43.8666 16.9591L5.0709 9.06416ZM5.0709 9.06416C3.68132 9.86117 2.52683 11.011 1.7242 12.3973C0.921608 13.7836 0.499294 15.3572 0.499962 16.9591C0.499962 16.9591 0.499962 16.9592 0.499962 16.9593M5.0709 9.06416L0.499962 16.9593M44.3666 31.5378C44.3666 31.5377 44.3666 31.5376 44.3666 31.5375L44.3666 31.5378ZM0.499962 16.9593V31.5375V16.9593Z" stroke="url(#paint0_linear_268_5549)" stroke-linecap="round"/>
</g>
<path d="M24.081 24.3661C24.081 28.3467 20.8761 31.5738 16.9224 31.5738C12.9688 31.5738 9.76404 28.3477 9.76404 24.3661C9.76404 20.3844 12.969 17.1586 16.9224 17.1586C20.8758 17.1586 24.081 20.3854 24.081 24.3661ZM31.9341 24.3661C31.9341 28.1133 30.3315 31.1508 28.3548 31.1508C26.3781 31.1508 24.7755 28.1124 24.7755 24.3661C24.7755 20.6197 26.3781 17.5813 28.3548 17.5813C30.3315 17.5813 31.9341 20.6197 31.9341 24.3661ZM35.1462 24.3661C35.1462 27.7234 34.5825 30.4449 33.8873 30.4449C33.1921 30.4449 32.6284 27.7225 32.6284 24.3661C32.6284 21.0096 33.1921 18.2872 33.8875 18.2872C34.5829 18.2872 35.1462 21.0089 35.1462 24.3661Z" fill="white"/>
<defs>
<filter id="filter0_b_268_5549" x="-94" y="-94" width="232.867" height="236.497" filterUnits="userSpaceOnUse" color-interpolation-filters="sRGB">
<feFlood flood-opacity="0" result="BackgroundImageFix"/>
<feGaussianBlur in="BackgroundImageFix" stdDeviation="47"/>
<feComposite in2="SourceAlpha" operator="in" result="effect1_backgroundBlur_268_5549"/>
<feBlend mode="normal" in="SourceGraphic" in2="effect1_backgroundBlur_268_5549" result="shape"/>
</filter>
<linearGradient id="paint0_linear_268_5549" x1="22.5416" y1="36.7151" x2="22.5493" y2="1.01185" gradientUnits="userSpaceOnUse">
<stop stop-color="white"/>
<stop offset="1" stop-color="white" stop-opacity="0"/>
</linearGradient>
</defs>
</svg>
