<svg width="100" height="100" viewBox="0 0 100 100" fill="none" xmlns="http://www.w3.org/2000/svg">
<path d="M11.3636 0C5.14915 0 0 5.14915 0 11.3636V88.6364C0 94.8509 5.14915 100 11.3636 100H88.6364C94.8509 100 100 94.8509 100 88.6364V11.3636C100 5.14915 94.8509 0 88.6364 0H11.3636ZM11.3636 9.09091H88.6364C89.9325 9.09091 90.9091 10.0675 90.9091 11.3636V88.6364C90.9091 89.9325 89.9325 90.9091 88.6364 90.9091H11.3636C10.0675 90.9091 9.09091 89.9325 9.09091 88.6364V11.3636C9.09091 10.0675 10.0675 9.09091 11.3636 9.09091Z" fill="white"/>
<path d="M85 27.1008C82.6038 28.3092 80.0355 29.1206 77.3354 29.4888C80.0912 27.6129 82.2087 24.6437 83.2016 21.1106C80.6282 22.8426 77.766 24.1028 74.7315 24.7818C72.2999 21.8356 68.8349 20 65 20C57.6342 20 51.6616 26.7786 51.6616 35.1453C51.6616 36.3307 51.7832 37.4873 52.0111 38.5979C40.9271 37.9649 31.1044 31.9344 24.5238 22.7678C23.3739 25.012 22.7204 27.6129 22.7204 30.3865C22.7204 35.6402 25.0709 40.2781 28.6525 42.9999C26.464 42.9193 24.4073 42.2346 22.6089 41.101C22.6089 41.1643 22.6089 41.2276 22.6089 41.2909C22.6089 48.6334 27.2087 54.7502 33.3029 56.1485C32.1884 56.4937 31.0081 56.6779 29.7923 56.6779C28.9311 56.6779 28.0952 56.5858 27.2796 56.4016C28.9818 62.4149 33.9058 66.8054 39.7366 66.9262C35.1773 70.9888 29.4276 73.4056 23.1763 73.4056C22.0973 73.4056 21.0385 73.3365 20 73.1927C25.8967 77.4969 32.9078 80 40.4407 80C64.9696 80 78.384 56.9195 78.384 36.9061C78.384 36.2501 78.3688 35.5884 78.3485 34.9439C80.9524 32.8091 83.2118 30.1391 85 27.1008Z" fill="white"/>
</svg>
