<svg width="45" height="49" viewBox="0 0 45 49" fill="none" xmlns="http://www.w3.org/2000/svg">
<g filter="url(#filter0_b_116_49)">
<path d="M43.8666 31.5378C43.8672 33.0516 43.4681 34.5389 42.7096 35.849C41.9511 37.1591 40.8601 38.2458 39.5469 38.9989L26.6868 46.3648C25.392 47.1067 23.9256 47.4971 22.4333 47.4971C20.9409 47.4971 19.4745 47.1067 18.1797 46.3648L5.31966 38.9989C4.00646 38.2458 2.91543 37.1591 2.15691 35.849C1.3984 34.5389 0.999294 33.0516 0.999962 31.5378V16.9591C0.999294 15.4452 1.3984 13.958 2.15691 12.6478C2.91543 11.3377 4.00646 10.2511 5.31966 9.49788L18.1795 2.13224C19.4743 1.39033 20.9407 1 22.433 1C23.9254 1 25.3918 1.39033 26.6866 2.13224L39.5469 9.4981C40.86 10.2513 41.9511 11.3379 42.7096 12.648C43.4681 13.9581 43.8672 15.4452 43.8666 16.9591V31.5378Z" fill="white" fill-opacity="0.11"/>
<path d="M39.7956 39.4327L39.7954 39.4328L26.9354 46.7987C25.5649 47.5839 24.0128 47.9971 22.4333 47.9971C20.8537 47.9971 19.3016 47.5839 17.9311 46.7987L5.07115 39.4328L5.0709 39.4327C3.68132 38.6357 2.52683 37.4859 1.7242 36.0995C0.921608 34.7132 0.499294 33.1396 0.499962 31.5378L39.7956 39.4327ZM39.7956 39.4327C41.1852 38.6357 42.3397 37.4859 43.1423 36.0995C43.9449 34.7132 44.3672 33.1396 44.3666 31.5378M39.7956 39.4327L44.3666 31.5378M5.0709 9.06416L5.07116 9.06401L17.9309 1.6984C17.9309 1.69839 17.9309 1.69838 17.931 1.69836C19.3015 0.913126 20.8535 0.5 22.433 0.5C24.0126 0.5 25.5646 0.913125 26.9351 1.69836C26.9352 1.69838 26.9352 1.69839 26.9352 1.6984L39.7954 9.06423L39.7956 9.06438C41.1852 9.86137 42.3396 11.0111 43.1423 12.3974C43.9449 13.7837 44.3672 15.3572 44.3666 16.9591C44.3666 16.9591 44.3666 16.9592 44.3666 16.9593L43.8666 16.9591L5.0709 9.06416ZM5.0709 9.06416C3.68132 9.86117 2.52683 11.011 1.7242 12.3973C0.921608 13.7836 0.499294 15.3572 0.499962 16.9591C0.499962 16.9591 0.499962 16.9592 0.499962 16.9593M5.0709 9.06416L0.499962 16.9593M44.3666 31.5378C44.3666 31.5377 44.3666 31.5376 44.3666 31.5375L44.3666 31.5378ZM0.499962 16.9593V31.5375V16.9593Z" stroke="url(#paint0_linear_116_49)" stroke-linecap="round"/>
</g>
<path d="M14.2727 14C13.0298 14 12 15.0298 12 16.2727V31.7273C12 32.9702 13.0298 34 14.2727 34H29.7273C30.9702 34 32 32.9702 32 31.7273V16.2727C32 15.0298 30.9702 14 29.7273 14H14.2727ZM14.2727 15.8182H29.7273C29.9865 15.8182 30.1818 16.0135 30.1818 16.2727V31.7273C30.1818 31.9865 29.9865 32.1818 29.7273 32.1818H14.2727C14.0135 32.1818 13.8182 31.9865 13.8182 31.7273V16.2727C13.8182 16.0135 14.0135 15.8182 14.2727 15.8182ZM16.9432 17.3807C16.0803 17.3807 15.3807 18.0803 15.3807 18.9432C15.3807 19.8061 16.0803 20.5057 16.9432 20.5057C17.8061 20.5057 18.5057 19.8061 18.5057 18.9432C18.5057 18.0803 17.8061 17.3807 16.9432 17.3807ZM25.1534 21.5284C23.8501 21.5284 22.9837 22.2422 22.625 22.9205H22.5682V21.7273H20.0114V30.3636H22.6818V26.1023C22.6818 24.9766 22.9055 23.8864 24.3011 23.8864C25.6754 23.8864 25.6932 25.1577 25.6932 26.1591V30.3636H28.3636V25.6193C28.3636 23.2969 27.87 21.5284 25.1534 21.5284ZM15.6364 21.7273V30.3636H18.3352V21.7273H15.6364Z" fill="white"/>
<defs>
<filter id="filter0_b_116_49" x="-94" y="-94" width="232.867" height="236.497" filterUnits="userSpaceOnUse" color-interpolation-filters="sRGB">
<feFlood flood-opacity="0" result="BackgroundImageFix"/>
<feGaussianBlur in="BackgroundImageFix" stdDeviation="47"/>
<feComposite in2="SourceAlpha" operator="in" result="effect1_backgroundBlur_116_49"/>
<feBlend mode="normal" in="SourceGraphic" in2="effect1_backgroundBlur_116_49" result="shape"/>
</filter>
<linearGradient id="paint0_linear_116_49" x1="22.5416" y1="36.7151" x2="22.5493" y2="1.01185" gradientUnits="userSpaceOnUse">
<stop stop-color="white"/>
<stop offset="1" stop-color="white" stop-opacity="0"/>
</linearGradient>
</defs>
</svg>
