<svg width="26" height="26" viewBox="0 0 26 26" fill="none" xmlns="http://www.w3.org/2000/svg">
<path d="M16.749 25.5005H9.249C4.42416 25.5005 0.499023 21.5747 0.499023 16.7505V9.25051C0.499023 4.42631 4.42416 0.500526 9.249 0.500526H16.749C21.5738 0.500526 25.499 4.42631 25.499 9.25051V16.7505C25.499 21.5747 21.5738 25.5005 16.749 25.5005ZM22.999 9.25051C22.9971 7.5935 22.338 6.00492 21.1663 4.83323C19.9946 3.66155 18.406 3.00244 16.749 3.00049H9.249C7.592 3.00244 6.00341 3.66155 4.83173 4.83323C3.66005 6.00492 3.00094 7.5935 2.99898 9.25051V16.7505C3.00094 18.4075 3.66005 19.9961 4.83173 21.1678C6.00341 22.3395 7.592 22.9986 9.249 23.0005H16.749C18.406 22.9986 19.9946 22.3395 21.1663 21.1678C22.338 19.9961 22.9971 18.4075 22.999 16.7505V9.25051ZM19.249 13.0005C19.2491 12.8363 19.2168 12.6738 19.154 12.5221C19.0912 12.3704 18.9991 12.2326 18.883 12.1165C18.7669 12.0004 18.6291 11.9084 18.4774 11.8456C18.3257 11.7828 18.1632 11.7505 17.999 11.7505H7.99902C7.66751 11.7505 7.34957 11.8822 7.11515 12.1166C6.88074 12.3511 6.74904 12.669 6.74904 13.0005C6.74904 13.332 6.88074 13.65 7.11515 13.8844C7.34957 14.1188 7.66751 14.2505 7.99902 14.2505H17.999C18.1632 14.2505 18.3257 14.2182 18.4774 14.1555C18.6291 14.0927 18.7669 14.0006 18.883 13.8845C18.9991 13.7684 19.0912 13.6306 19.154 13.4789C19.2168 13.3272 19.2491 13.1647 19.249 13.0005Z" fill="white"/>
</svg>
