<svg width="26" height="26" viewBox="0 0 26 26" fill="none" xmlns="http://www.w3.org/2000/svg">
<path d="M16.751 25.5005H9.25096C4.42611 25.5005 0.500977 21.5747 0.500977 16.7505V9.25051C0.500977 4.42631 4.42611 0.500526 9.25096 0.500526H16.751C21.5758 0.500526 25.5009 4.42631 25.5009 9.25051V16.7505C25.5009 21.5747 21.5758 25.5005 16.751 25.5005ZM23.001 9.25051C22.999 7.5935 22.3399 6.00492 21.1682 4.83323C19.9965 3.66155 18.408 3.00244 16.751 3.00049H9.25096C7.59395 3.00244 6.00537 3.66155 4.83368 4.83323C3.662 6.00492 3.00289 7.5935 3.00094 9.25051V16.7505C3.00289 18.4075 3.662 19.9961 4.83368 21.1678C6.00537 22.3395 7.59395 22.9986 9.25096 23.0005H16.751C18.408 22.9986 19.9965 22.3395 21.1682 21.1678C22.3399 19.9961 22.999 18.4075 23.001 16.7505V9.25051ZM19.251 13.0005C19.251 12.8363 19.2187 12.6738 19.1559 12.5221C19.0931 12.3704 19.001 12.2326 18.8849 12.1165C18.7689 12.0004 18.631 11.9084 18.4794 11.8456C18.3277 11.7828 18.1651 11.7505 18.0009 11.7505H14.2509V8.00053C14.2509 7.66901 14.1192 7.35107 13.8848 7.11666C13.6504 6.88224 13.3325 6.75055 13.001 6.75055C12.6694 6.75055 12.3515 6.88224 12.1171 7.11666C11.8827 7.35107 11.751 7.66901 11.751 8.00053V11.7505H8.00098C7.66946 11.7505 7.35152 11.8822 7.11711 12.1166C6.88269 12.3511 6.751 12.669 6.751 13.0005C6.751 13.332 6.88269 13.65 7.11711 13.8844C7.35152 14.1188 7.66946 14.2505 8.00098 14.2505H11.751V18.0005C11.751 18.332 11.8827 18.6499 12.1171 18.8844C12.3515 19.1188 12.6694 19.2505 13.001 19.2505C13.3325 19.2505 13.6504 19.1188 13.8848 18.8844C14.1192 18.6499 14.2509 18.332 14.2509 18.0005V14.2505H18.0009C18.1651 14.2505 18.3277 14.2182 18.4794 14.1555C18.631 14.0927 18.7689 14.0006 18.8849 13.8845C19.001 13.7684 19.0931 13.6306 19.1559 13.4789C19.2187 13.3272 19.251 13.1647 19.251 13.0005Z" fill="white"/>
</svg>
