<svg width="180" height="33" viewBox="0 0 180 33" fill="none" xmlns="http://www.w3.org/2000/svg">
<path d="M45.7955 23.4545C44.8759 23.4545 44.0789 23.3243 43.4045 23.0637C42.7455 22.8032 42.232 22.3587 41.8642 21.7303C41.5117 21.0866 41.3354 20.2206 41.3354 19.1324V7.31559H43.4505V19.4083C43.4505 20.0674 43.6267 20.5808 43.9793 20.9486C44.3471 21.3011 44.8605 21.4774 45.5196 21.4774H47.6806V23.4545H45.7955ZM39.2203 12.6952V11.04H47.6806V12.6952H39.2203Z" fill="#F2F2F2"/>
<path d="M50.8022 23.3166V11.04H52.5495V16.0978H52.4575C52.4575 14.3045 52.8483 12.9941 53.63 12.1665C54.427 11.3235 55.6148 10.902 57.1934 10.902H57.6073V12.8792H56.8256C55.5995 12.8792 54.6569 13.2087 53.9978 13.8677C53.3388 14.5114 53.0093 15.4464 53.0093 16.6725V23.3166H50.8022Z" fill="#F2F2F2"/>
<path d="M67.6126 23.3166V19.6382H67.2447V15.3851C67.2447 14.5421 67.0225 13.906 66.578 13.4769C66.1489 13.0478 65.5128 12.8332 64.6699 12.8332C64.1947 12.8332 63.7043 12.8408 63.1985 12.8562C62.6927 12.8715 62.2099 12.8868 61.7501 12.9022C61.2903 12.9175 60.8918 12.9405 60.5547 12.9711V11.04C60.8918 11.0093 61.2444 10.9863 61.6122 10.971C61.9954 10.9403 62.3862 10.925 62.7847 10.925C63.1832 10.9097 63.5663 10.902 63.9342 10.902C65.191 10.902 66.2178 11.0553 67.0148 11.3618C67.8118 11.653 68.4019 12.1358 68.7851 12.8102C69.1682 13.4846 69.3598 14.3965 69.3598 15.546V23.3166H67.6126ZM63.5893 23.6385C62.6697 23.6385 61.8727 23.4852 61.1984 23.1787C60.5393 22.8568 60.0259 22.397 59.658 21.7993C59.3055 21.2015 59.1293 20.4812 59.1293 19.6382C59.1293 18.7646 59.3209 18.0366 59.704 17.4542C60.1025 16.8717 60.6773 16.4349 61.4283 16.1437C62.1793 15.8372 63.0835 15.6839 64.1411 15.6839H67.4746V17.3392H64.0491C63.1602 17.3392 62.4781 17.5538 62.003 17.9829C61.5279 18.4121 61.2903 18.9638 61.2903 19.6382C61.2903 20.3126 61.5279 20.8567 62.003 21.2705C62.4781 21.6843 63.1602 21.8912 64.0491 21.8912C64.5702 21.8912 65.0683 21.7993 65.5435 21.6153C66.0186 21.4161 66.4094 21.0942 66.716 20.6498C67.0378 20.19 67.2141 19.5616 67.2447 18.7646L67.8425 19.6382C67.7658 20.5118 67.5513 21.2475 67.1987 21.8452C66.8616 22.4277 66.3864 22.8721 65.7734 23.1787C65.1756 23.4852 64.4476 23.6385 63.5893 23.6385Z" fill="#F2F2F2"/>
<path d="M78.5373 23.7304C77.6637 23.7304 76.859 23.5695 76.1233 23.2476C75.3877 22.9258 74.7439 22.4736 74.1922 21.8912C73.6558 21.3088 73.2343 20.6344 72.9277 19.8681C72.6365 19.1018 72.4909 18.2741 72.4909 17.3852V16.9714C72.4909 16.0978 72.6365 15.2778 72.9277 14.5114C73.2189 13.7451 73.6251 13.0707 74.1462 12.4883C74.6826 11.9059 75.311 11.4538 76.0314 11.1319C76.7671 10.7947 77.5794 10.6261 78.4683 10.6261C79.4032 10.6261 80.2539 10.8254 81.0202 11.2239C81.7865 11.6071 82.4149 12.2125 82.9054 13.0401C83.3958 13.8677 83.6717 14.9406 83.733 16.2587L82.8134 14.7873V6.53394H85.0204V23.3166H83.2732V17.868H83.9169C83.8556 19.2627 83.5644 20.3969 83.0433 21.2705C82.5222 22.1288 81.8632 22.7572 81.0662 23.1557C80.2845 23.5388 79.4416 23.7304 78.5373 23.7304ZM78.8362 21.7993C79.5872 21.7993 80.2692 21.6307 80.8823 21.2935C81.4953 20.9563 81.9858 20.4735 82.3536 19.8451C82.7215 19.2014 82.9054 18.4504 82.9054 17.5921V16.5346C82.9054 15.6916 82.7138 14.9789 82.3306 14.3965C81.9628 13.7988 81.4647 13.3466 80.8363 13.0401C80.2232 12.7182 79.5488 12.5573 78.8132 12.5573C78.0009 12.5573 77.2805 12.7489 76.6521 13.1321C76.039 13.5152 75.5563 14.0516 75.2037 14.7413C74.8666 15.431 74.698 16.2434 74.698 17.1783C74.698 18.1132 74.8742 18.9332 75.2267 19.6382C75.5792 20.3279 76.0697 20.8643 76.6981 21.2475C77.3265 21.6153 78.0392 21.7993 78.8362 21.7993Z" fill="#F2F2F2"/>
<path d="M94.4797 23.7304C93.4069 23.7304 92.4796 23.5465 91.698 23.1787C90.9163 22.8108 90.2802 22.328 89.7898 21.7303C89.2993 21.1172 88.9315 20.4352 88.6863 19.6842C88.4564 18.9332 88.3414 18.1669 88.3414 17.3852V16.9714C88.3414 16.1744 88.4564 15.4004 88.6863 14.6494C88.9315 13.8984 89.2993 13.224 89.7898 12.6263C90.2802 12.0132 90.901 11.5304 91.652 11.1779C92.4183 10.8101 93.3149 10.6261 94.3418 10.6261C95.6752 10.6261 96.7711 10.9174 97.6294 11.4998C98.503 12.0669 99.1467 12.8025 99.5605 13.7068C99.9897 14.6111 100.204 15.5766 100.204 16.6035V17.5921H89.307V15.9368H98.5949L98.0892 16.8334C98.0892 15.9598 97.9512 15.2088 97.6753 14.5804C97.3995 13.9367 96.9856 13.4386 96.4339 13.0861C95.8821 12.7336 95.1848 12.5573 94.3418 12.5573C93.4682 12.5573 92.7402 12.7565 92.1578 13.155C91.5907 13.5535 91.1615 14.0976 90.8703 14.7873C90.5944 15.477 90.4565 16.274 90.4565 17.1783C90.4565 18.0519 90.5944 18.8412 90.8703 19.5462C91.1615 20.2359 91.606 20.7877 92.2037 21.2015C92.8015 21.6 93.5601 21.7993 94.4797 21.7993C95.4453 21.7993 96.227 21.5847 96.8247 21.1555C97.4378 20.7264 97.8056 20.2283 97.9282 19.6612H99.9973C99.8287 20.5042 99.4915 21.2322 98.9858 21.8452C98.48 22.4583 97.8439 22.9258 97.0776 23.2476C96.3113 23.5695 95.4453 23.7304 94.4797 23.7304Z" fill="#F2F2F2"/>
<path d="M103.326 23.3166V11.04H105.073V16.3047H104.797C104.797 15.1092 104.95 14.0976 105.257 13.27C105.579 12.427 106.054 11.7833 106.682 11.3388C107.311 10.8944 108.108 10.6721 109.073 10.6721H109.165C110.131 10.6721 110.928 10.8944 111.556 11.3388C112.2 11.7833 112.675 12.427 112.981 13.27C113.288 14.0976 113.441 15.1092 113.441 16.3047H112.798C112.798 15.1092 112.958 14.0976 113.28 13.27C113.602 12.427 114.077 11.7833 114.706 11.3388C115.349 10.8944 116.154 10.6721 117.12 10.6721H117.212C118.177 10.6721 118.982 10.8944 119.626 11.3388C120.269 11.7833 120.744 12.427 121.051 13.27C121.373 14.0976 121.534 15.1092 121.534 16.3047V23.3166H119.327V15.8219C119.327 14.8256 119.081 14.0593 118.591 13.5229C118.101 12.9711 117.419 12.6952 116.545 12.6952C115.641 12.6952 114.913 12.9864 114.361 13.5689C113.809 14.1359 113.533 14.9329 113.533 15.9598V23.3166H111.326V15.8219C111.326 14.8256 111.081 14.0593 110.591 13.5229C110.1 12.9711 109.418 12.6952 108.544 12.6952C107.64 12.6952 106.912 12.9864 106.36 13.5689C105.809 14.1359 105.533 14.9329 105.533 15.9598V23.3166H103.326Z" fill="white" fill-opacity="0.3"/>
<path d="M129.828 23.6844C128.372 23.6844 127.253 23.2093 126.471 22.2591C125.69 21.3088 125.299 19.9371 125.299 18.1439V11.017H127.506V18.5807C127.506 19.5462 127.766 20.3049 128.288 20.8567C128.809 21.3931 129.514 21.6613 130.403 21.6613C131.322 21.6613 132.073 21.3701 132.656 20.7877C133.238 20.19 133.529 19.3777 133.529 18.3508V11.017H135.736V23.3166H133.989V18.0519H134.265C134.265 19.2627 134.104 20.2896 133.782 21.1326C133.46 21.9602 132.978 22.5962 132.334 23.0407C131.705 23.4699 130.901 23.6844 129.92 23.6844H129.828Z" fill="white" fill-opacity="0.3"/>
<path d="M144.793 23.4545C143.873 23.4545 143.076 23.3243 142.402 23.0637C141.743 22.8032 141.229 22.3587 140.861 21.7303C140.509 21.0866 140.333 20.2206 140.333 19.1324V7.31559H142.448V19.4083C142.448 20.0674 142.624 20.5808 142.977 20.9486C143.344 21.3011 143.858 21.4774 144.517 21.4774H146.678V23.4545H144.793ZM138.218 12.6952V11.04H146.678V12.6952H138.218Z" fill="white" fill-opacity="0.3"/>
<path d="M154.053 23.6844C152.597 23.6844 151.478 23.2093 150.696 22.2591C149.914 21.3088 149.524 19.9371 149.524 18.1439V11.017H151.731V18.5807C151.731 19.5462 151.991 20.3049 152.512 20.8567C153.033 21.3931 153.738 21.6613 154.627 21.6613C155.547 21.6613 156.298 21.3701 156.88 20.7877C157.463 20.19 157.754 19.3777 157.754 18.3508V11.017H159.961V23.3166H158.214V18.0519H158.49C158.49 19.2627 158.329 20.2896 158.007 21.1326C157.685 21.9602 157.202 22.5962 156.559 23.0407C155.93 23.4699 155.126 23.6844 154.145 23.6844H154.053Z" fill="white" fill-opacity="0.3"/>
<path d="M171.661 23.3166V19.6382H171.294V15.3851C171.294 14.5421 171.071 13.906 170.627 13.4769C170.198 13.0478 169.562 12.8332 168.719 12.8332C168.243 12.8332 167.753 12.8408 167.247 12.8562C166.741 12.8715 166.259 12.8868 165.799 12.9022C165.339 12.9175 164.941 12.9405 164.603 12.9711V11.04C164.941 11.0093 165.293 10.9863 165.661 10.971C166.044 10.9403 166.435 10.925 166.833 10.925C167.232 10.9097 167.615 10.902 167.983 10.902C169.24 10.902 170.267 11.0553 171.064 11.3618C171.861 11.653 172.451 12.1358 172.834 12.8102C173.217 13.4846 173.409 14.3965 173.409 15.546V23.3166H171.661ZM167.638 23.6385C166.718 23.6385 165.922 23.4852 165.247 23.1787C164.588 22.8568 164.075 22.397 163.707 21.7993C163.354 21.2015 163.178 20.4812 163.178 19.6382C163.178 18.7646 163.37 18.0366 163.753 17.4542C164.151 16.8718 164.726 16.4349 165.477 16.1437C166.228 15.8372 167.132 15.6839 168.19 15.6839H171.523V17.3392H168.098C167.209 17.3392 166.527 17.5538 166.052 17.9829C165.577 18.4121 165.339 18.9638 165.339 19.6382C165.339 20.3126 165.577 20.8567 166.052 21.2705C166.527 21.6843 167.209 21.8912 168.098 21.8912C168.619 21.8912 169.117 21.7993 169.592 21.6153C170.067 21.4161 170.458 21.0942 170.765 20.6498C171.087 20.19 171.263 19.5616 171.294 18.7646L171.891 19.6382C171.815 20.5118 171.6 21.2475 171.248 21.8452C170.91 22.4277 170.435 22.8721 169.822 23.1787C169.224 23.4852 168.496 23.6385 167.638 23.6385Z" fill="white" fill-opacity="0.3"/>
<path d="M177.597 23.3166V6.53394H179.804V23.3166H177.597ZM175.896 8.28117V6.53394H179.804V8.28117H175.896Z" fill="white" fill-opacity="0.3"/>
<path fill-rule="evenodd" clip-rule="evenodd" d="M29.7101 21.1652C29.7105 22.2144 29.4339 23.2452 28.9082 24.1532C28.3825 25.0612 27.6263 25.8143 26.7162 26.3364L17.8031 31.4415C16.9057 31.9557 15.8893 32.2263 14.855 32.2263C13.8207 32.2263 12.8044 31.9557 11.907 31.4415L2.9939 26.3364C2.08375 25.8143 1.32757 25.0612 0.801861 24.1532C0.276148 23.2452 -0.000462309 22.2144 5.80007e-07 21.1652V11.0609C-0.000462309 10.0117 0.276148 8.98094 0.801861 8.0729C1.32757 7.16487 2.08375 6.41176 2.9939 5.88973L11.9068 0.784732C12.8042 0.27053 13.8206 0 14.8549 0C15.8892 0 16.9055 0.27053 17.803 0.784732L26.7162 5.88988C27.6263 6.4119 28.3825 7.16498 28.9082 8.07299C29.4339 8.981 29.7105 10.0117 29.7101 11.0609V21.1652ZM17.3995 10.5105V11.1618C17.3995 11.5816 17.1607 11.9219 16.7418 11.9219H13.1635C12.7448 11.9219 12.5131 11.5816 12.5131 11.1618V10.5105C12.5131 10.0907 12.7446 9.75041 13.1635 9.75041H16.7418C17.1607 9.75041 17.3995 10.0907 17.3995 10.5105ZM9.97714 22.4558C10.1206 22.4433 10.2648 22.4421 10.4084 22.4521L10.4083 22.447L10.5343 22.4473C10.6183 22.4475 10.7022 22.4478 10.7862 22.447C11.4651 22.4418 11.4681 22.4378 11.4344 21.7368C11.2813 18.5441 8.77032 15.7901 5.63648 15.3779L5.63136 15.3773C4.95197 15.2881 4.61488 15.2439 4.44398 15.3917C4.27569 15.5373 4.26855 15.8692 4.25439 16.5279L4.25341 16.5734C4.24375 17.018 4.33602 17.1931 4.83306 17.224C6.07645 17.2938 7.24889 17.8257 8.12032 18.7153C8.99174 19.605 9.49925 20.7882 9.54324 22.0328C9.55811 22.3519 9.63045 22.5114 9.97714 22.4558ZM19.492 22.4484C18.3833 22.4579 18.3477 22.4429 18.5192 21.2847C18.7226 19.6529 19.5092 18.1497 20.7338 17.0523C21.9584 15.9549 23.5384 15.3372 25.1826 15.3132C25.5453 15.2996 25.6368 15.4377 25.6478 15.7773L25.6488 15.8068C25.6906 17.106 25.6907 17.1073 24.3801 17.3209C22.3373 17.6538 20.4999 19.704 20.4412 21.8053C20.4259 22.3552 20.2902 22.5496 19.761 22.4519C19.6714 22.4433 19.5813 22.4421 19.4916 22.4484H19.492ZM15.1881 17.1538C15.1391 17.2672 15.0887 17.3838 14.9299 17.4371C14.8959 17.3759 14.862 17.3145 14.8279 17.2528C14.7683 17.1451 14.7085 17.0368 14.648 16.9289C12.5167 13.1317 9.27769 11.1021 4.93095 10.8401C4.43253 10.81 4.17811 10.9231 4.25904 11.4775C4.28842 11.7289 4.28894 11.9828 4.26057 12.2343C4.22486 12.6415 4.35099 12.8227 4.79915 12.7887C5.56088 12.7303 6.30637 12.8937 7.03683 13.0894C11.1156 14.1826 14.0302 18.0174 13.9749 22.0095C13.9705 22.3286 14.0607 22.4737 14.4007 22.4512C14.742 22.4217 15.0854 22.4237 15.4263 22.4573C15.8372 22.5068 15.9595 22.3553 15.9556 21.9568C15.9541 21.0003 16.1182 20.0509 16.4406 19.1505C17.7282 15.4408 21.2245 12.8068 25.1941 12.7847C25.5295 12.7827 25.6812 12.6961 25.6397 12.2907C25.5999 11.9569 25.5999 11.6196 25.6397 11.2858C25.6883 10.9283 25.5868 10.8283 25.3034 10.8427C24.7466 10.8529 24.1909 10.8972 23.6394 10.9751C19.8428 11.6326 17.0528 13.6693 15.2323 17.059C15.216 17.0893 15.2021 17.1214 15.1881 17.1538Z" fill="white"/>
</svg>
