<svg width="350" height="348" viewBox="0 0 350 348" fill="none" xmlns="http://www.w3.org/2000/svg">
<g filter="url(#filter0_i_268_4837)">
<path d="M105.638 208.603C100.359 205.558 95.9882 201.154 92.9683 195.836C89.9484 190.519 88.3862 184.476 88.4396 178.32L88.9977 118.05C89.053 111.981 90.6839 106.014 93.7286 100.74C96.7733 95.4664 101.126 91.0703 106.354 87.9879L158.27 57.3696C163.575 54.2451 169.589 52.5768 175.704 52.5334C181.819 52.4899 187.819 54.073 193.095 57.1224L243.92 86.4662C249.199 89.511 253.569 93.9149 256.589 99.2323C259.609 104.55 261.172 110.592 261.118 116.749L260.56 177.019C260.505 183.088 258.874 189.055 255.829 194.329C252.784 199.602 248.432 203.998 243.204 207.081L191.288 237.699C185.983 240.824 179.968 242.492 173.853 242.535C167.738 242.579 161.739 240.996 156.463 237.946L105.638 208.603Z" fill="url(#paint0_linear_268_4837)"/>
</g>
<path d="M87.9396 178.315L87.9396 178.315L88.4977 118.045C88.5538 111.89 90.208 105.838 93.2956 100.49C96.3832 95.142 100.797 90.6835 106.1 87.5572L158.016 56.9389L158.016 56.9388C163.397 53.7699 169.497 52.0774 175.701 52.0334C181.905 51.9893 187.991 53.5953 193.345 56.6895L244.17 86.0332C249.526 89.1226 253.96 93.5908 257.024 98.9854C260.088 104.38 261.672 110.509 261.618 116.753L261.618 116.754L261.06 177.023C261.004 183.179 259.35 189.231 256.262 194.579C253.175 199.927 248.76 204.385 243.458 207.512L191.542 238.13L191.541 238.13C186.161 241.299 180.061 242.991 173.857 243.035C167.653 243.079 161.567 241.473 156.213 238.379C156.213 238.379 156.213 238.379 156.213 238.379L87.9396 178.315ZM87.9396 178.315C87.8854 184.559 89.4699 190.689 92.5335 196.083C95.5972 201.478 100.031 205.946 105.388 209.036L87.9396 178.315Z" stroke="url(#paint1_linear_268_4837)" stroke-linecap="round"/>
<mask id="mask0_268_4837" style="mask-type:alpha" maskUnits="userSpaceOnUse" x="88" y="52" width="174" height="191">
<path d="M105.638 208.603C100.359 205.558 95.9882 201.154 92.9683 195.836C89.9484 190.519 88.3862 184.476 88.4396 178.32L88.9977 118.05C89.053 111.981 90.6839 106.014 93.7286 100.74C96.7733 95.4664 101.126 91.0703 106.354 87.9879L158.27 57.3696C163.575 54.2451 169.589 52.5768 175.704 52.5334C181.819 52.4899 187.819 54.073 193.095 57.1224L243.92 86.4662C249.199 89.511 253.569 93.9149 256.589 99.2323C259.609 104.55 261.172 110.592 261.118 116.749L260.56 177.019C260.505 183.088 258.874 189.055 255.829 194.329C252.784 199.602 248.432 203.998 243.204 207.081L191.288 237.699C185.983 240.824 179.968 242.492 173.853 242.535C167.738 242.579 161.739 240.996 156.463 237.946L105.638 208.603Z" fill="white"/>
</mask>
<g mask="url(#mask0_268_4837)">
<path opacity="0.2" d="M159.63 247.14C156.293 247.14 153.461 246.597 151.133 245.51C148.805 244.385 146.904 242.872 145.429 240.971C143.955 239.031 142.869 236.819 142.17 234.336C141.511 231.814 141.181 229.176 141.181 226.421V223.162C141.181 219.244 141.84 215.713 143.16 212.57C144.479 209.427 146.496 206.944 149.212 205.121C151.928 203.258 155.401 202.327 159.63 202.327C163.82 202.327 167.273 203.258 169.989 205.121C172.705 206.944 174.703 209.427 175.983 212.57C177.303 215.713 177.962 219.244 177.962 223.162V226.421C177.962 229.176 177.613 231.814 176.915 234.336C176.255 236.819 175.188 239.031 173.714 240.971C172.278 242.872 170.396 244.385 168.068 245.51C165.741 246.597 162.928 247.14 159.63 247.14ZM159.63 239.574C163.083 239.574 165.624 238.391 167.254 236.024C168.883 233.619 169.698 229.894 169.698 224.85C169.698 219.496 168.864 215.674 167.196 213.385C165.527 211.057 163.005 209.893 159.63 209.893C156.215 209.893 153.655 211.057 151.948 213.385C150.279 215.674 149.445 219.457 149.445 224.734C149.445 229.816 150.279 233.56 151.948 235.966C153.616 238.371 156.177 239.574 159.63 239.574ZM182.763 246.034V237.886C182.763 236.102 183.035 234.55 183.578 233.231C184.16 231.911 185.091 230.747 186.372 229.739C187.691 228.691 189.417 227.702 191.551 226.771L198.768 223.57C200.553 222.755 201.911 221.765 202.842 220.601C203.812 219.399 204.297 217.866 204.297 216.004C204.297 213.947 203.676 212.318 202.435 211.115C201.232 209.874 199.505 209.253 197.255 209.253C195.005 209.253 193.259 209.874 192.017 211.115C190.814 212.357 190.213 214.083 190.213 216.295H182.24C182.24 213.656 182.802 211.29 183.927 209.195C185.053 207.061 186.721 205.392 188.932 204.19C191.144 202.948 193.918 202.327 197.255 202.327C200.592 202.327 203.366 202.929 205.577 204.131C207.789 205.334 209.457 206.944 210.582 208.962C211.707 210.941 212.27 213.152 212.27 215.596V216.353C212.27 219.535 211.378 222.192 209.593 224.326C207.808 226.421 205.189 228.245 201.736 229.797L194.52 232.998C193.162 233.58 192.211 234.201 191.668 234.86C191.125 235.481 190.853 236.334 190.853 237.421V241.146L188.874 238.992H212.445V246.034H182.763Z" fill="url(#paint2_linear_268_4837)"/>
</g>
<g clip-path="url(#clip0_268_4837)">
<path fill-rule="evenodd" clip-rule="evenodd" d="M174 138.75C173.569 138.75 173.156 138.921 172.851 139.226C172.546 139.531 172.375 139.944 172.375 140.375V145.25H165.875C163.202 145.25 161 147.452 161 150.125V163.125C161 165.798 163.202 168 165.875 168H172.375V177.75C172.375 178.181 172.546 178.594 172.851 178.899C173.156 179.204 173.569 179.375 174 179.375C174.431 179.375 174.844 179.204 175.149 178.899C175.454 178.594 175.625 178.181 175.625 177.75V168H182.125C184.798 168 187 165.798 187 163.125V150.125C187 147.452 184.798 145.25 182.125 145.25H175.625V140.375C175.625 139.944 175.454 139.531 175.149 139.226C174.844 138.921 174.431 138.75 174 138.75ZM144.75 146.875C144.319 146.875 143.906 147.046 143.601 147.351C143.296 147.656 143.125 148.069 143.125 148.5V164.75H136.625C133.952 164.75 131.75 166.952 131.75 169.625V179.375C131.75 182.048 133.952 184.25 136.625 184.25H152.875C155.548 184.25 157.75 182.048 157.75 179.375V169.625C157.75 166.952 155.548 164.75 152.875 164.75H146.375V148.5C146.375 148.069 146.204 147.656 145.899 147.351C145.594 147.046 145.181 146.875 144.75 146.875ZM203.25 151.75C202.819 151.75 202.406 151.921 202.101 152.226C201.796 152.531 201.625 152.944 201.625 153.375V159.875H195.125C192.452 159.875 190.25 162.077 190.25 164.75V174.5C190.25 177.173 192.452 179.375 195.125 179.375H201.625V182.625C201.625 183.056 201.796 183.469 202.101 183.774C202.406 184.079 202.819 184.25 203.25 184.25C203.681 184.25 204.094 184.079 204.399 183.774C204.704 183.469 204.875 183.056 204.875 182.625V179.375H211.375C214.048 179.375 216.25 177.173 216.25 174.5V164.75C216.25 162.077 214.048 159.875 211.375 159.875H204.875V153.375C204.875 152.944 204.704 152.531 204.399 152.226C204.094 151.921 203.681 151.75 203.25 151.75Z" fill="white"/>
<path d="M126.875 105.75C126.311 105.75 125.771 105.974 125.372 106.372C124.974 106.771 124.75 107.311 124.75 107.875V185.875C124.75 188.824 127.176 191.25 130.125 191.25H221.125C221.689 191.25 222.229 191.026 222.628 190.628C223.026 190.229 223.25 189.689 223.25 189.125C223.25 188.561 223.026 188.021 222.628 187.622C222.229 187.224 221.689 187 221.125 187H130.125C129.473 187 129 186.527 129 185.875V107.875C129 107.311 128.776 106.771 128.378 106.372C127.979 105.974 127.439 105.75 126.875 105.75Z" fill="white" stroke="white"/>
<path fill-rule="evenodd" clip-rule="evenodd" d="M201.625 93.25C189.977 93.25 180.5 102.727 180.5 114.375C180.5 126.023 189.977 135.5 201.625 135.5C213.273 135.5 222.75 126.023 222.75 114.375C222.75 102.727 213.273 93.25 201.625 93.25Z" stroke="white" stroke-width="3"/>
<path d="M205.156 107.33V108.183C205.156 108.733 204.844 109.178 204.295 109.178H199.609C199.061 109.178 198.758 108.733 198.758 108.183V107.33C198.758 106.78 199.061 106.335 199.609 106.335H204.295C204.844 106.335 205.156 106.78 205.156 107.33Z" fill="#DD38ED"/>
<path d="M196.001 122.968C195.813 122.955 195.624 122.957 195.436 122.973C194.982 123.046 194.888 122.837 194.868 122.419C194.811 120.789 194.146 119.24 193.005 118.075C191.864 116.91 190.328 116.213 188.7 116.122C188.049 116.081 187.928 115.852 187.941 115.27C187.98 113.47 187.96 113.469 189.752 113.705C193.856 114.244 197.144 117.851 197.345 122.032C197.389 122.95 197.385 122.955 196.496 122.962C196.331 122.963 196.166 122.962 196.001 122.962L196.001 122.968Z" fill="#DD38ED"/>
<path d="M207.897 122.963C206.445 122.976 206.398 122.956 206.623 121.439C206.889 119.303 207.919 117.334 209.523 115.897C211.126 114.46 213.196 113.651 215.349 113.62C215.824 113.602 215.943 113.783 215.958 114.227C216.014 115.967 216.027 115.967 214.298 116.249C211.623 116.685 209.217 119.37 209.14 122.121C209.12 122.841 208.942 123.096 208.249 122.968C208.132 122.957 208.014 122.955 207.896 122.963" fill="#DD38ED"/>
<path d="M201.922 116.401C202.19 116.311 202.223 116.084 202.318 115.906C204.702 111.467 208.356 108.799 213.328 107.938C214.05 107.836 214.778 107.778 215.507 107.765C215.878 107.746 216.011 107.877 215.947 108.345C215.895 108.782 215.895 109.224 215.947 109.661C216.002 110.192 215.803 110.306 215.364 110.308C210.166 110.337 205.587 113.786 203.901 118.644C203.479 119.824 203.264 121.067 203.266 122.319C203.271 122.841 203.111 123.04 202.573 122.975C202.126 122.931 201.676 122.928 201.229 122.967C200.784 122.996 200.666 122.806 200.672 122.388C200.744 117.161 196.927 112.139 191.586 110.707C190.63 110.451 189.653 110.237 188.656 110.313C188.069 110.358 187.904 110.121 187.951 109.587C187.988 109.258 187.987 108.926 187.949 108.596C187.843 107.87 188.176 107.722 188.828 107.762C194.521 108.105 198.762 110.763 201.553 115.735C201.678 115.957 201.8 116.18 201.922 116.401Z" fill="#DD38ED"/>
</g>
<path d="M74.8038 314.069L70.3038 295.819H74.5288L78.0538 311.319L77.1788 310.744H79.4538L78.4788 311.319L81.2038 296.494H84.6038L81.0288 314.069H74.8038ZM85.6788 314.069L81.8288 296.494H85.4038L88.5538 311.319L87.6038 310.744H89.7788L88.9538 311.319L92.0288 295.819H96.0288L92.0288 314.069H85.6788ZM104.002 314.544C102.835 314.544 101.802 314.344 100.902 313.944C100.019 313.544 99.2769 313.011 98.6769 312.344C98.0935 311.661 97.6435 310.902 97.3269 310.069C97.0269 309.219 96.8769 308.352 96.8769 307.469V306.969C96.8769 306.052 97.0269 305.177 97.3269 304.344C97.6435 303.494 98.0935 302.736 98.6769 302.069C99.2602 301.402 99.9852 300.877 100.852 300.494C101.735 300.094 102.735 299.894 103.852 299.894C105.319 299.894 106.552 300.227 107.552 300.894C108.569 301.544 109.344 302.402 109.877 303.469C110.41 304.519 110.677 305.669 110.677 306.919V308.269H98.5519V305.994H108.252L106.952 307.044C106.952 306.227 106.835 305.527 106.602 304.944C106.369 304.361 106.019 303.919 105.552 303.619C105.102 303.302 104.535 303.144 103.852 303.144C103.152 303.144 102.56 303.302 102.077 303.619C101.594 303.936 101.227 304.402 100.977 305.019C100.727 305.619 100.602 306.361 100.602 307.244C100.602 308.061 100.719 308.777 100.952 309.394C101.185 309.994 101.552 310.461 102.052 310.794C102.552 311.127 103.202 311.294 104.002 311.294C104.735 311.294 105.335 311.152 105.802 310.869C106.269 310.586 106.585 310.236 106.752 309.819H110.427C110.227 310.736 109.835 311.552 109.252 312.269C108.669 312.986 107.935 313.544 107.052 313.944C106.169 314.344 105.152 314.544 104.002 314.544ZM123.351 314.069V296.619H124.701V314.069H123.351ZM117.501 297.044V295.819H130.551V297.044H117.501ZM133.145 314.069V300.944H134.195V306.494H133.995C133.995 304.594 134.42 303.177 135.27 302.244C136.12 301.311 137.495 300.844 139.395 300.844H139.845V302.044H139.145C137.595 302.044 136.428 302.444 135.645 303.244C134.861 304.027 134.47 305.186 134.47 306.719V314.069H133.145ZM151.058 314.069V310.144H150.808V305.319C150.808 304.269 150.533 303.461 149.983 302.894C149.433 302.311 148.524 302.019 147.258 302.019C146.808 302.019 146.349 302.036 145.883 302.069C145.416 302.086 144.974 302.111 144.558 302.144C144.141 302.161 143.766 302.194 143.433 302.244V301.044C143.766 300.994 144.116 300.952 144.483 300.919C144.866 300.886 145.249 300.861 145.633 300.844C146.016 300.827 146.383 300.819 146.733 300.819C148.049 300.819 149.099 300.994 149.883 301.344C150.666 301.677 151.233 302.194 151.583 302.894C151.933 303.577 152.108 304.452 152.108 305.519V314.069H151.058ZM146.483 314.419C145.599 314.419 144.808 314.261 144.108 313.944C143.408 313.627 142.849 313.161 142.433 312.544C142.033 311.927 141.833 311.177 141.833 310.294C141.833 309.444 142.024 308.719 142.408 308.119C142.808 307.519 143.374 307.061 144.108 306.744C144.858 306.427 145.758 306.269 146.808 306.269H150.933V307.344H146.683C145.549 307.344 144.674 307.619 144.058 308.169C143.458 308.702 143.158 309.411 143.158 310.294C143.158 311.227 143.483 311.969 144.133 312.519C144.783 313.052 145.633 313.319 146.683 313.319C147.333 313.319 147.966 313.194 148.583 312.944C149.199 312.694 149.716 312.277 150.133 311.694C150.549 311.094 150.774 310.294 150.808 309.294L151.308 309.869C151.258 310.886 151.008 311.736 150.558 312.419C150.124 313.086 149.558 313.586 148.858 313.919C148.158 314.252 147.366 314.419 146.483 314.419ZM162.346 314.494C161.362 314.494 160.471 314.311 159.671 313.944C158.887 313.561 158.221 313.052 157.671 312.419C157.121 311.769 156.696 311.036 156.396 310.219C156.112 309.402 155.971 308.544 155.971 307.644V307.394C155.971 306.527 156.112 305.694 156.396 304.894C156.679 304.077 157.087 303.344 157.621 302.694C158.171 302.027 158.837 301.502 159.621 301.119C160.404 300.736 161.304 300.544 162.321 300.544C163.504 300.544 164.529 300.811 165.396 301.344C166.279 301.877 166.962 302.611 167.446 303.544C167.946 304.461 168.212 305.511 168.246 306.694L167.571 305.219V295.819H168.896V314.069H167.846V308.244H168.346C168.312 309.494 168.037 310.594 167.521 311.544C167.004 312.477 166.296 313.202 165.396 313.719C164.512 314.236 163.496 314.494 162.346 314.494ZM162.471 313.294C163.487 313.294 164.379 313.069 165.146 312.619C165.929 312.169 166.537 311.561 166.971 310.794C167.421 310.011 167.646 309.119 167.646 308.119V306.819C167.646 305.869 167.421 305.011 166.971 304.244C166.537 303.477 165.929 302.869 165.146 302.419C164.379 301.969 163.487 301.744 162.471 301.744C161.371 301.744 160.437 302.011 159.671 302.544C158.904 303.077 158.312 303.786 157.896 304.669C157.496 305.536 157.296 306.486 157.296 307.519C157.296 308.586 157.504 309.561 157.921 310.444C158.337 311.311 158.929 312.002 159.696 312.519C160.479 313.036 161.404 313.294 162.471 313.294ZM179.388 314.494C178.272 314.494 177.305 314.302 176.488 313.919C175.672 313.519 175.005 312.994 174.488 312.344C173.972 311.677 173.58 310.936 173.313 310.119C173.063 309.286 172.938 308.444 172.938 307.594V307.344C172.938 306.477 173.063 305.644 173.313 304.844C173.58 304.044 173.972 303.319 174.488 302.669C175.022 302.002 175.68 301.486 176.463 301.119C177.263 300.736 178.188 300.544 179.238 300.544C180.572 300.544 181.688 300.844 182.588 301.444C183.505 302.027 184.197 302.794 184.663 303.744C185.13 304.694 185.363 305.694 185.363 306.744V307.644H173.563V306.544H184.488L184.088 307.044C184.088 306.027 183.897 305.119 183.513 304.319C183.147 303.519 182.597 302.894 181.863 302.444C181.147 301.977 180.272 301.744 179.238 301.744C178.122 301.744 177.188 302.002 176.438 302.519C175.688 303.036 175.122 303.727 174.738 304.594C174.372 305.461 174.188 306.419 174.188 307.469C174.188 308.519 174.372 309.486 174.738 310.369C175.122 311.236 175.697 311.944 176.463 312.494C177.23 313.027 178.205 313.294 179.388 313.294C180.655 313.294 181.672 313.002 182.438 312.419C183.222 311.836 183.697 311.136 183.863 310.319H185.163C184.98 311.136 184.63 311.861 184.113 312.494C183.597 313.127 182.938 313.619 182.138 313.969C181.355 314.319 180.438 314.494 179.388 314.494ZM203.257 314.494C201.673 314.494 200.307 314.211 199.157 313.644C198.007 313.061 197.065 312.311 196.332 311.394C195.615 310.461 195.082 309.444 194.732 308.344C194.382 307.227 194.207 306.144 194.207 305.094V304.719C194.207 303.586 194.382 302.469 194.732 301.369C195.098 300.252 195.64 299.244 196.357 298.344C197.09 297.427 198.015 296.702 199.132 296.169C200.248 295.619 201.565 295.344 203.082 295.344C204.565 295.344 205.865 295.619 206.982 296.169C208.115 296.702 209.023 297.461 209.707 298.444C210.39 299.411 210.807 300.544 210.957 301.844H209.582C209.432 300.711 209.057 299.752 208.457 298.969C207.857 298.186 207.09 297.594 206.157 297.194C205.24 296.794 204.215 296.594 203.082 296.594C201.848 296.594 200.765 296.819 199.832 297.269C198.898 297.702 198.115 298.311 197.482 299.094C196.848 299.861 196.373 300.744 196.057 301.744C195.74 302.744 195.582 303.802 195.582 304.919C195.582 305.952 195.74 306.969 196.057 307.969C196.373 308.969 196.848 309.861 197.482 310.644C198.115 311.427 198.907 312.061 199.857 312.544C200.823 313.011 201.957 313.244 203.257 313.244C205.023 313.244 206.507 312.794 207.707 311.894C208.923 310.977 209.665 309.677 209.932 307.994H211.307C211.123 309.261 210.682 310.386 209.982 311.369C209.298 312.336 208.39 313.102 207.257 313.669C206.123 314.219 204.79 314.494 203.257 314.494ZM214.981 314.069V300.944H216.031V306.494H215.831C215.831 304.594 216.256 303.177 217.106 302.244C217.956 301.311 219.331 300.844 221.231 300.844H221.681V302.044H220.981C219.431 302.044 218.264 302.444 217.481 303.244C216.697 304.027 216.306 305.186 216.306 306.719V314.069H214.981ZM223.882 319.169V317.944H225.382C225.965 317.944 226.473 317.869 226.907 317.719C227.34 317.586 227.715 317.336 228.032 316.969C228.365 316.602 228.64 316.077 228.857 315.394L233.532 300.944H234.857L229.982 315.819C229.715 316.636 229.357 317.286 228.907 317.769C228.473 318.269 227.948 318.627 227.332 318.844C226.732 319.061 226.048 319.169 225.282 319.169H223.882ZM228.432 313.744V312.569H230.282V313.744H228.432ZM228.182 313.744L223.407 300.944H224.757L229.482 313.744H228.182ZM238.394 319.069V300.944H239.444V306.544L239.044 306.719C239.061 305.486 239.319 304.411 239.819 303.494C240.336 302.561 241.036 301.836 241.919 301.319C242.802 300.802 243.827 300.544 244.994 300.544C245.994 300.544 246.886 300.736 247.669 301.119C248.452 301.486 249.111 301.994 249.644 302.644C250.194 303.277 250.611 304.002 250.894 304.819C251.177 305.636 251.319 306.494 251.319 307.394V307.644C251.319 308.494 251.177 309.327 250.894 310.144C250.611 310.944 250.194 311.677 249.644 312.344C249.111 312.994 248.452 313.519 247.669 313.919C246.886 314.302 245.994 314.494 244.994 314.494C243.827 314.494 242.794 314.227 241.894 313.694C241.011 313.161 240.319 312.427 239.819 311.494C239.319 310.544 239.052 309.469 239.019 308.269L239.719 310.019V319.069H238.394ZM244.819 313.294C245.919 313.294 246.852 313.027 247.619 312.494C248.402 311.944 248.994 311.236 249.394 310.369C249.794 309.486 249.994 308.536 249.994 307.519C249.994 306.452 249.786 305.486 249.369 304.619C248.969 303.736 248.377 303.036 247.594 302.519C246.827 302.002 245.902 301.744 244.819 301.744C243.819 301.744 242.927 301.969 242.144 302.419C241.377 302.852 240.769 303.461 240.319 304.244C239.869 305.011 239.644 305.894 239.644 306.894V308.169C239.644 309.119 239.861 309.986 240.294 310.769C240.744 311.536 241.352 312.152 242.119 312.619C242.902 313.069 243.802 313.294 244.819 313.294ZM259.737 314.194C258.92 314.194 258.203 314.077 257.587 313.844C256.97 313.594 256.495 313.177 256.162 312.594C255.828 312.011 255.662 311.227 255.662 310.244V296.669H256.962V310.469C256.962 311.269 257.178 311.894 257.612 312.344C258.062 312.777 258.678 312.994 259.462 312.994H261.912V314.194H259.737ZM253.162 302.019V300.944H261.912V302.019H253.162ZM271.364 314.494C270.264 314.494 269.289 314.294 268.439 313.894C267.589 313.494 266.873 312.969 266.289 312.319C265.723 311.669 265.289 310.944 264.989 310.144C264.706 309.327 264.564 308.494 264.564 307.644V307.394C264.564 306.527 264.714 305.686 265.014 304.869C265.314 304.052 265.756 303.319 266.339 302.669C266.923 302.019 267.631 301.502 268.464 301.119C269.314 300.736 270.281 300.544 271.364 300.544C272.431 300.544 273.381 300.736 274.214 301.119C275.064 301.502 275.781 302.019 276.364 302.669C276.948 303.319 277.389 304.052 277.689 304.869C278.006 305.686 278.164 306.527 278.164 307.394V307.644C278.164 308.494 278.014 309.327 277.714 310.144C277.414 310.944 276.973 311.669 276.389 312.319C275.823 312.969 275.114 313.494 274.264 313.894C273.431 314.294 272.464 314.494 271.364 314.494ZM271.364 313.269C272.531 313.269 273.514 313.002 274.314 312.469C275.131 311.936 275.748 311.236 276.164 310.369C276.598 309.486 276.814 308.536 276.814 307.519C276.814 306.469 276.598 305.511 276.164 304.644C275.731 303.761 275.106 303.061 274.289 302.544C273.489 302.011 272.514 301.744 271.364 301.744C270.231 301.744 269.248 302.011 268.414 302.544C267.598 303.061 266.973 303.761 266.539 304.644C266.106 305.511 265.889 306.469 265.889 307.519C265.889 308.536 266.098 309.486 266.514 310.369C266.948 311.236 267.573 311.936 268.389 312.469C269.206 313.002 270.198 313.269 271.364 313.269Z" fill="white"/>
<defs>
<filter id="filter0_i_268_4837" x="87.4382" y="49.5962" width="181.781" height="193.94" filterUnits="userSpaceOnUse" color-interpolation-filters="sRGB">
<feFlood flood-opacity="0" result="BackgroundImageFix"/>
<feBlend mode="normal" in="SourceGraphic" in2="BackgroundImageFix" result="shape"/>
<feColorMatrix in="SourceAlpha" type="matrix" values="0 0 0 0 0 0 0 0 0 0 0 0 0 0 0 0 0 0 127 0" result="hardAlpha"/>
<feOffset dx="7.09984" dy="-1.93632"/>
<feGaussianBlur stdDeviation="13.877"/>
<feComposite in2="hardAlpha" operator="arithmetic" k2="-1" k3="1"/>
<feColorMatrix type="matrix" values="0 0 0 0 0.113725 0 0 0 0 0.105882 0 0 0 0 0.160784 0 0 0 1 0"/>
<feBlend mode="normal" in2="shape" result="effect1_innerShadow_268_4837"/>
</filter>
<linearGradient id="paint0_linear_268_4837" x1="89.8503" y1="192.035" x2="195.745" y2="142.87" gradientUnits="userSpaceOnUse">
<stop stop-color="#661A71"/>
<stop offset="1" stop-color="#1D1B29"/>
</linearGradient>
<linearGradient id="paint1_linear_268_4837" x1="115.832" y1="79.8604" x2="256.822" y2="195.141" gradientUnits="userSpaceOnUse">
<stop stop-color="white"/>
<stop offset="1" stop-color="white" stop-opacity="0"/>
</linearGradient>
<linearGradient id="paint2_linear_268_4837" x1="175.229" y1="190.034" x2="175.229" y2="264.034" gradientUnits="userSpaceOnUse">
<stop stop-color="white"/>
<stop offset="1" stop-color="white" stop-opacity="0"/>
</linearGradient>
<clipPath id="clip0_268_4837">
<rect width="103.27" height="103.27" fill="white" transform="translate(122.289 90.6365)"/>
</clipPath>
</defs>
</svg>
