<svg width="353" height="351" viewBox="0 0 353 351" fill="none" xmlns="http://www.w3.org/2000/svg">
<path d="M107.146 210.436C101.853 207.384 97.4714 202.969 94.4438 197.638C91.4162 192.307 89.8499 186.249 89.9035 180.076L90.463 119.653C90.5185 113.569 92.1536 107.586 95.206 102.299C98.2584 97.012 102.622 92.6046 107.864 89.5144L159.912 58.8182C165.231 55.6857 171.26 54.0131 177.391 53.9696C183.521 53.9261 189.536 55.5131 194.825 58.5703L245.78 87.9889C251.072 91.0414 255.454 95.4565 258.482 100.787C261.509 106.119 263.075 112.176 263.022 118.349L262.462 178.772C262.407 184.856 260.772 190.839 257.719 196.126C254.667 201.413 250.303 205.82 245.062 208.911L193.013 239.607C187.695 242.739 181.665 244.412 175.535 244.456C169.404 244.499 163.39 242.912 158.1 239.855L107.146 210.436Z" fill="url(#paint0_linear_493_4640)"/>
<path fill-rule="evenodd" clip-rule="evenodd" d="M263.022 118.349L262.462 178.772C262.407 184.856 260.772 190.839 257.72 196.126C254.667 201.413 250.303 205.82 245.062 208.911L193.014 239.607C187.695 242.739 181.666 244.412 175.535 244.456C169.404 244.499 163.39 242.912 158.1 239.855L107.146 210.436C101.853 207.384 97.4716 202.969 94.444 197.638C91.4163 192.307 89.8501 186.249 89.9037 180.076L90.4632 119.653C90.5187 113.569 92.1537 107.586 95.2062 102.299C98.2586 97.012 102.622 92.6046 107.864 89.5144L159.912 58.8182C165.231 55.6857 171.26 54.0131 177.391 53.9696C183.521 53.9261 189.536 55.5131 194.826 58.5703L245.78 87.9889C251.072 91.0414 255.454 95.4565 258.482 100.787C261.509 106.119 263.076 112.176 263.022 118.349ZM246.28 87.1226C246.28 87.1227 246.28 87.1228 246.28 87.1228C251.727 90.2647 256.236 94.8085 259.351 100.294C262.466 105.779 264.077 112.01 264.022 118.357L264.022 118.358L263.462 178.781C263.462 178.781 263.462 178.781 263.462 178.781C263.405 185.039 261.724 191.19 258.586 196.626C255.447 202.062 250.96 206.594 245.57 209.772C245.57 209.772 245.57 209.772 245.57 209.772L193.522 240.468L193.521 240.469C188.052 243.69 181.85 245.411 175.542 245.456C169.234 245.5 163.045 243.867 157.6 240.721L106.646 211.302C101.199 208.16 96.6896 203.617 93.5744 198.131C90.4592 192.646 88.8486 186.415 88.9037 180.068L88.9037 180.067L89.4633 119.644C89.4633 119.644 89.4633 119.644 89.4633 119.644C89.5203 113.386 91.2018 107.235 94.3402 101.799C97.4785 96.3632 101.965 91.8312 107.356 88.653C107.356 88.653 107.356 88.653 107.356 88.653L159.404 57.9568L159.405 57.9565C164.874 54.7353 171.076 53.0144 177.384 52.9696C183.692 52.9248 189.881 54.5578 195.326 57.7043M246.28 87.1226L195.326 57.7045L246.28 87.1226Z" fill="url(#paint1_linear_493_4640)"/>
<mask id="mask0_493_4640" style="mask-type:alpha" maskUnits="userSpaceOnUse" x="88" y="52" width="174" height="191">
<path d="M106.004 208.969C100.725 205.924 96.3545 201.52 93.3345 196.203C90.3146 190.885 88.7524 184.843 88.8058 178.686L89.3639 118.416C89.4192 112.347 91.0501 106.38 94.0948 101.106C97.1395 95.8326 101.492 91.4365 106.72 88.3541L158.636 57.7358C163.941 54.6113 169.956 52.943 176.071 52.8996C182.186 52.8561 188.185 54.4392 193.461 57.4886L244.286 86.8324C249.565 89.8772 253.936 94.2811 256.956 99.5985C259.976 104.916 261.538 110.959 261.484 117.115L260.926 177.385C260.871 183.454 259.24 189.421 256.195 194.695C253.151 199.968 248.798 204.365 243.57 207.447L191.654 238.065C186.349 241.19 180.335 242.858 174.22 242.902C168.105 242.945 162.105 241.362 156.829 238.313L106.004 208.969Z" fill="white"/>
</mask>
<g mask="url(#mask0_493_4640)">
<path opacity="0.2" d="M159.996 247.506C156.659 247.506 153.827 246.963 151.499 245.877C149.171 244.751 147.27 243.238 145.796 241.337C144.321 239.397 143.235 237.186 142.536 234.702C141.877 232.181 141.547 229.542 141.547 226.788V223.528C141.547 219.61 142.207 216.079 143.526 212.936C144.845 209.794 146.862 207.31 149.578 205.487C152.294 203.625 155.767 202.693 159.996 202.693C164.186 202.693 167.639 203.625 170.355 205.487C173.071 207.31 175.069 209.794 176.35 212.936C177.669 216.079 178.328 219.61 178.328 223.528V226.788C178.328 229.542 177.979 232.181 177.281 234.702C176.621 237.186 175.554 239.397 174.08 241.337C172.644 243.238 170.763 244.751 168.435 245.877C166.107 246.963 163.294 247.506 159.996 247.506ZM159.996 239.94C163.449 239.94 165.99 238.757 167.62 236.39C169.249 233.985 170.064 230.26 170.064 225.216C170.064 219.862 169.23 216.04 167.562 213.751C165.893 211.423 163.371 210.259 159.996 210.259C156.582 210.259 154.021 211.423 152.314 213.751C150.645 216.04 149.811 219.823 149.811 225.1C149.811 230.182 150.645 233.927 152.314 236.332C153.982 238.738 156.543 239.94 159.996 239.94ZM183.13 246.4V238.253C183.13 236.468 183.401 234.916 183.944 233.597C184.526 232.278 185.458 231.114 186.738 230.105C188.057 229.057 189.784 228.068 191.918 227.137L199.134 223.936C200.919 223.121 202.277 222.132 203.208 220.968C204.178 219.765 204.663 218.232 204.663 216.37C204.663 214.314 204.042 212.684 202.801 211.481C201.598 210.24 199.871 209.619 197.621 209.619C195.371 209.619 193.625 210.24 192.383 211.481C191.18 212.723 190.579 214.449 190.579 216.661H182.606C182.606 214.023 183.168 211.656 184.294 209.561C185.419 207.427 187.087 205.758 189.299 204.556C191.51 203.314 194.284 202.693 197.621 202.693C200.958 202.693 203.732 203.295 205.943 204.498C208.155 205.7 209.823 207.31 210.948 209.328C212.074 211.307 212.636 213.518 212.636 215.963V216.719C212.636 219.901 211.744 222.558 209.959 224.692C208.174 226.788 205.555 228.611 202.102 230.163L194.886 233.364C193.528 233.946 192.577 234.567 192.034 235.226C191.491 235.847 191.219 236.701 191.219 237.787V241.512L189.24 239.358H212.811V246.4H183.13Z" fill="url(#paint2_linear_493_4640)"/>
</g>
<g clip-path="url(#clip0_493_4640)">
<path fill-rule="evenodd" clip-rule="evenodd" d="M174.366 139.116C173.935 139.116 173.522 139.287 173.217 139.592C172.912 139.897 172.741 140.31 172.741 140.741V145.616H166.241C163.569 145.616 161.366 147.819 161.366 150.491V163.491C161.366 166.164 163.569 168.366 166.241 168.366H172.741V178.116C172.741 178.547 172.912 178.96 173.217 179.265C173.522 179.57 173.935 179.741 174.366 179.741C174.797 179.741 175.211 179.57 175.515 179.265C175.82 178.96 175.991 178.547 175.991 178.116V168.366H182.491C185.164 168.366 187.366 166.164 187.366 163.491V150.491C187.366 147.819 185.164 145.616 182.491 145.616H175.991V140.741C175.991 140.31 175.82 139.897 175.515 139.592C175.211 139.287 174.797 139.116 174.366 139.116ZM145.116 147.241C144.685 147.241 144.272 147.412 143.967 147.717C143.662 148.022 143.491 148.435 143.491 148.866V165.116H136.991C134.319 165.116 132.116 167.319 132.116 169.991V179.741C132.116 182.414 134.319 184.616 136.991 184.616H153.241C155.914 184.616 158.116 182.414 158.116 179.741V169.991C158.116 167.319 155.914 165.116 153.241 165.116H146.741V148.866C146.741 148.435 146.57 148.022 146.265 147.717C145.961 147.412 145.547 147.241 145.116 147.241ZM203.616 152.116C203.185 152.116 202.772 152.287 202.467 152.592C202.162 152.897 201.991 153.31 201.991 153.741V160.241H195.491C192.819 160.241 190.616 162.444 190.616 165.116V174.866C190.616 177.539 192.819 179.741 195.491 179.741H201.991V182.991C201.991 183.422 202.162 183.835 202.467 184.14C202.772 184.445 203.185 184.616 203.616 184.616C204.047 184.616 204.461 184.445 204.765 184.14C205.07 183.835 205.241 183.422 205.241 182.991V179.741H211.741C214.414 179.741 216.616 177.539 216.616 174.866V165.116C216.616 162.444 214.414 160.241 211.741 160.241H205.241V153.741C205.241 153.31 205.07 152.897 204.765 152.592C204.461 152.287 204.047 152.116 203.616 152.116Z" fill="white"/>
<path d="M127.241 106.116C126.678 106.116 126.137 106.34 125.739 106.739C125.34 107.137 125.116 107.678 125.116 108.241V186.241C125.116 189.19 127.542 191.616 130.491 191.616H221.491C222.055 191.616 222.595 191.392 222.994 190.994C223.392 190.595 223.616 190.055 223.616 189.491C223.616 188.928 223.392 188.387 222.994 187.989C222.595 187.59 222.055 187.366 221.491 187.366H130.491C129.839 187.366 129.366 186.893 129.366 186.241V108.241C129.366 107.678 129.142 107.137 128.744 106.739C128.345 106.34 127.805 106.116 127.241 106.116Z" fill="white" stroke="white"/>
<path fill-rule="evenodd" clip-rule="evenodd" d="M201.991 93.6162C190.344 93.6162 180.866 103.093 180.866 114.741C180.866 126.389 190.344 135.866 201.991 135.866C213.639 135.866 223.116 126.389 223.116 114.741C223.116 103.093 213.639 93.6162 201.991 93.6162Z" stroke="white" stroke-width="3"/>
<path d="M205.523 107.696V108.549C205.523 109.099 205.21 109.544 204.662 109.544H199.976C199.427 109.544 199.124 109.099 199.124 108.549V107.696C199.124 107.146 199.427 106.701 199.976 106.701H204.662C205.21 106.701 205.523 107.146 205.523 107.696Z" fill="#DD38ED"/>
<path d="M196.367 123.334C196.179 123.321 195.99 123.323 195.802 123.339C195.348 123.412 195.254 123.203 195.234 122.785C195.177 121.156 194.512 119.606 193.371 118.441C192.23 117.276 190.694 116.579 189.066 116.488C188.415 116.448 188.294 116.218 188.307 115.636C188.346 113.836 188.326 113.835 190.118 114.071C194.222 114.61 197.51 118.217 197.711 122.398C197.755 123.316 197.751 123.321 196.862 123.328C196.697 123.329 196.532 123.328 196.367 123.328L196.367 123.334Z" fill="#DD38ED"/>
<path d="M208.263 123.33C206.811 123.342 206.764 123.322 206.989 121.806C207.255 119.669 208.285 117.7 209.889 116.263C211.493 114.826 213.562 114.017 215.715 113.986C216.19 113.968 216.31 114.149 216.324 114.594C216.38 116.334 216.393 116.333 214.664 116.615C211.989 117.051 209.583 119.736 209.506 122.487C209.486 123.208 209.308 123.462 208.615 123.334C208.498 123.323 208.38 123.321 208.262 123.33" fill="#DD38ED"/>
<path d="M202.289 116.767C202.556 116.677 202.589 116.45 202.685 116.272C205.069 111.833 208.722 109.166 213.694 108.305C214.416 108.203 215.144 108.145 215.873 108.131C216.244 108.112 216.377 108.243 216.314 108.711C216.261 109.149 216.261 109.59 216.314 110.027C216.368 110.558 216.169 110.672 215.73 110.674C210.532 110.703 205.953 114.153 204.267 119.01C203.845 120.19 203.63 121.433 203.632 122.685C203.637 123.207 203.477 123.406 202.939 123.341C202.492 123.297 202.043 123.294 201.596 123.333C201.15 123.362 201.032 123.172 201.038 122.754C201.111 117.527 197.294 112.505 191.952 111.073C190.996 110.817 190.02 110.603 189.022 110.68C188.435 110.724 188.27 110.487 188.317 109.954C188.354 109.624 188.353 109.292 188.315 108.962C188.209 108.237 188.542 108.088 189.195 108.128C194.887 108.471 199.129 111.129 201.92 116.101C202.044 116.323 202.166 116.547 202.289 116.767Z" fill="#DD38ED"/>
</g>
<path d="M76.4874 317.425L71.9874 299.175H76.2124L79.7374 314.675L78.8624 314.1H81.1374L80.1624 314.675L82.8874 299.85H86.2874L82.7124 317.425H76.4874ZM87.3624 317.425L83.5124 299.85H87.0874L90.2374 314.675L89.2874 314.1H91.4624L90.6374 314.675L93.7124 299.175H97.7124L93.7124 317.425H87.3624ZM105.685 317.9C104.519 317.9 103.485 317.7 102.585 317.3C101.702 316.9 100.96 316.367 100.36 315.7C99.7771 315.017 99.3271 314.258 99.0104 313.425C98.7104 312.575 98.5604 311.708 98.5604 310.825V310.325C98.5604 309.408 98.7104 308.533 99.0104 307.7C99.3271 306.85 99.7771 306.092 100.36 305.425C100.944 304.758 101.669 304.233 102.535 303.85C103.419 303.45 104.419 303.25 105.535 303.25C107.002 303.25 108.235 303.583 109.235 304.25C110.252 304.9 111.027 305.758 111.56 306.825C112.094 307.875 112.36 309.025 112.36 310.275V311.625H100.235V309.35H109.935L108.635 310.4C108.635 309.583 108.519 308.883 108.285 308.3C108.052 307.717 107.702 307.275 107.235 306.975C106.785 306.658 106.219 306.5 105.535 306.5C104.835 306.5 104.244 306.658 103.76 306.975C103.277 307.292 102.91 307.758 102.66 308.375C102.41 308.975 102.285 309.717 102.285 310.6C102.285 311.417 102.402 312.133 102.635 312.75C102.869 313.35 103.235 313.817 103.735 314.15C104.235 314.483 104.885 314.65 105.685 314.65C106.419 314.65 107.019 314.508 107.485 314.225C107.952 313.942 108.269 313.592 108.435 313.175H112.11C111.91 314.092 111.519 314.908 110.935 315.625C110.352 316.342 109.619 316.9 108.735 317.3C107.852 317.7 106.835 317.9 105.685 317.9ZM125.035 317.425V299.975H126.385V317.425H125.035ZM119.185 300.4V299.175H132.235V300.4H119.185ZM134.828 317.425V304.3H135.878V309.85H135.678C135.678 307.95 136.103 306.533 136.953 305.6C137.803 304.667 139.178 304.2 141.078 304.2H141.528V305.4H140.828C139.278 305.4 138.112 305.8 137.328 306.6C136.545 307.383 136.153 308.542 136.153 310.075V317.425H134.828ZM152.741 317.425V313.5H152.491V308.675C152.491 307.625 152.216 306.817 151.666 306.25C151.116 305.667 150.208 305.375 148.941 305.375C148.491 305.375 148.033 305.392 147.566 305.425C147.099 305.442 146.658 305.467 146.241 305.5C145.824 305.517 145.449 305.55 145.116 305.6V304.4C145.449 304.35 145.799 304.308 146.166 304.275C146.549 304.242 146.933 304.217 147.316 304.2C147.699 304.183 148.066 304.175 148.416 304.175C149.733 304.175 150.783 304.35 151.566 304.7C152.349 305.033 152.916 305.55 153.266 306.25C153.616 306.933 153.791 307.808 153.791 308.875V317.425H152.741ZM148.166 317.775C147.283 317.775 146.491 317.617 145.791 317.3C145.091 316.983 144.533 316.517 144.116 315.9C143.716 315.283 143.516 314.533 143.516 313.65C143.516 312.8 143.708 312.075 144.091 311.475C144.491 310.875 145.058 310.417 145.791 310.1C146.541 309.783 147.441 309.625 148.491 309.625H152.616V310.7H148.366C147.233 310.7 146.358 310.975 145.741 311.525C145.141 312.058 144.841 312.767 144.841 313.65C144.841 314.583 145.166 315.325 145.816 315.875C146.466 316.408 147.316 316.675 148.366 316.675C149.016 316.675 149.649 316.55 150.266 316.3C150.883 316.05 151.399 315.633 151.816 315.05C152.233 314.45 152.458 313.65 152.491 312.65L152.991 313.225C152.941 314.242 152.691 315.092 152.241 315.775C151.808 316.442 151.241 316.942 150.541 317.275C149.841 317.608 149.049 317.775 148.166 317.775ZM164.029 317.85C163.046 317.85 162.154 317.667 161.354 317.3C160.571 316.917 159.904 316.408 159.354 315.775C158.804 315.125 158.379 314.392 158.079 313.575C157.796 312.758 157.654 311.9 157.654 311V310.75C157.654 309.883 157.796 309.05 158.079 308.25C158.363 307.433 158.771 306.7 159.304 306.05C159.854 305.383 160.521 304.858 161.304 304.475C162.088 304.092 162.988 303.9 164.004 303.9C165.188 303.9 166.213 304.167 167.079 304.7C167.963 305.233 168.646 305.967 169.129 306.9C169.629 307.817 169.896 308.867 169.929 310.05L169.254 308.575V299.175H170.579V317.425H169.529V311.6H170.029C169.996 312.85 169.721 313.95 169.204 314.9C168.688 315.833 167.979 316.558 167.079 317.075C166.196 317.592 165.179 317.85 164.029 317.85ZM164.154 316.65C165.171 316.65 166.063 316.425 166.829 315.975C167.613 315.525 168.221 314.917 168.654 314.15C169.104 313.367 169.329 312.475 169.329 311.475V310.175C169.329 309.225 169.104 308.367 168.654 307.6C168.221 306.833 167.613 306.225 166.829 305.775C166.063 305.325 165.171 305.1 164.154 305.1C163.054 305.1 162.121 305.367 161.354 305.9C160.588 306.433 159.996 307.142 159.579 308.025C159.179 308.892 158.979 309.842 158.979 310.875C158.979 311.942 159.188 312.917 159.604 313.8C160.021 314.667 160.613 315.358 161.379 315.875C162.163 316.392 163.088 316.65 164.154 316.65ZM181.072 317.85C179.955 317.85 178.989 317.658 178.172 317.275C177.355 316.875 176.689 316.35 176.172 315.7C175.655 315.033 175.264 314.292 174.997 313.475C174.747 312.642 174.622 311.8 174.622 310.95V310.7C174.622 309.833 174.747 309 174.997 308.2C175.264 307.4 175.655 306.675 176.172 306.025C176.705 305.358 177.364 304.842 178.147 304.475C178.947 304.092 179.872 303.9 180.922 303.9C182.255 303.9 183.372 304.2 184.272 304.8C185.189 305.383 185.88 306.15 186.347 307.1C186.814 308.05 187.047 309.05 187.047 310.1V311H175.247V309.9H186.172L185.772 310.4C185.772 309.383 185.58 308.475 185.197 307.675C184.83 306.875 184.28 306.25 183.547 305.8C182.83 305.333 181.955 305.1 180.922 305.1C179.805 305.1 178.872 305.358 178.122 305.875C177.372 306.392 176.805 307.083 176.422 307.95C176.055 308.817 175.872 309.775 175.872 310.825C175.872 311.875 176.055 312.842 176.422 313.725C176.805 314.592 177.38 315.3 178.147 315.85C178.914 316.383 179.889 316.65 181.072 316.65C182.339 316.65 183.355 316.358 184.122 315.775C184.905 315.192 185.38 314.492 185.547 313.675H186.847C186.664 314.492 186.314 315.217 185.797 315.85C185.28 316.483 184.622 316.975 183.822 317.325C183.039 317.675 182.122 317.85 181.072 317.85ZM204.94 317.85C203.357 317.85 201.99 317.567 200.84 317C199.69 316.417 198.748 315.667 198.015 314.75C197.298 313.817 196.765 312.8 196.415 311.7C196.065 310.583 195.89 309.5 195.89 308.45V308.075C195.89 306.942 196.065 305.825 196.415 304.725C196.782 303.608 197.323 302.6 198.04 301.7C198.773 300.783 199.698 300.058 200.815 299.525C201.932 298.975 203.248 298.7 204.765 298.7C206.248 298.7 207.548 298.975 208.665 299.525C209.798 300.058 210.707 300.817 211.39 301.8C212.073 302.767 212.49 303.9 212.64 305.2H211.265C211.115 304.067 210.74 303.108 210.14 302.325C209.54 301.542 208.773 300.95 207.84 300.55C206.923 300.15 205.898 299.95 204.765 299.95C203.532 299.95 202.448 300.175 201.515 300.625C200.582 301.058 199.798 301.667 199.165 302.45C198.532 303.217 198.057 304.1 197.74 305.1C197.423 306.1 197.265 307.158 197.265 308.275C197.265 309.308 197.423 310.325 197.74 311.325C198.057 312.325 198.532 313.217 199.165 314C199.798 314.783 200.59 315.417 201.54 315.9C202.507 316.367 203.64 316.6 204.94 316.6C206.707 316.6 208.19 316.15 209.39 315.25C210.607 314.333 211.348 313.033 211.615 311.35H212.99C212.807 312.617 212.365 313.742 211.665 314.725C210.982 315.692 210.073 316.458 208.94 317.025C207.807 317.575 206.473 317.85 204.94 317.85ZM216.664 317.425V304.3H217.714V309.85H217.514C217.514 307.95 217.939 306.533 218.789 305.6C219.639 304.667 221.014 304.2 222.914 304.2H223.364V305.4H222.664C221.114 305.4 219.948 305.8 219.164 306.6C218.381 307.383 217.989 308.542 217.989 310.075V317.425H216.664ZM225.565 322.525V321.3H227.065C227.649 321.3 228.157 321.225 228.59 321.075C229.024 320.942 229.399 320.692 229.715 320.325C230.049 319.958 230.324 319.433 230.54 318.75L235.215 304.3H236.54L231.665 319.175C231.399 319.992 231.04 320.642 230.59 321.125C230.157 321.625 229.632 321.983 229.015 322.2C228.415 322.417 227.732 322.525 226.965 322.525H225.565ZM230.115 317.1V315.925H231.965V317.1H230.115ZM229.865 317.1L225.09 304.3H226.44L231.165 317.1H229.865ZM240.077 322.425V304.3H241.127V309.9L240.727 310.075C240.744 308.842 241.002 307.767 241.502 306.85C242.019 305.917 242.719 305.192 243.602 304.675C244.486 304.158 245.511 303.9 246.677 303.9C247.677 303.9 248.569 304.092 249.352 304.475C250.136 304.842 250.794 305.35 251.327 306C251.877 306.633 252.294 307.358 252.577 308.175C252.861 308.992 253.002 309.85 253.002 310.75V311C253.002 311.85 252.861 312.683 252.577 313.5C252.294 314.3 251.877 315.033 251.327 315.7C250.794 316.35 250.136 316.875 249.352 317.275C248.569 317.658 247.677 317.85 246.677 317.85C245.511 317.85 244.477 317.583 243.577 317.05C242.694 316.517 242.002 315.783 241.502 314.85C241.002 313.9 240.736 312.825 240.702 311.625L241.402 313.375V322.425H240.077ZM246.502 316.65C247.602 316.65 248.536 316.383 249.302 315.85C250.086 315.3 250.677 314.592 251.077 313.725C251.477 312.842 251.677 311.892 251.677 310.875C251.677 309.808 251.469 308.842 251.052 307.975C250.652 307.092 250.061 306.392 249.277 305.875C248.511 305.358 247.586 305.1 246.502 305.1C245.502 305.1 244.611 305.325 243.827 305.775C243.061 306.208 242.452 306.817 242.002 307.6C241.552 308.367 241.327 309.25 241.327 310.25V311.525C241.327 312.475 241.544 313.342 241.977 314.125C242.427 314.892 243.036 315.508 243.802 315.975C244.586 316.425 245.486 316.65 246.502 316.65ZM261.42 317.55C260.604 317.55 259.887 317.433 259.27 317.2C258.654 316.95 258.179 316.533 257.845 315.95C257.512 315.367 257.345 314.583 257.345 313.6V300.025H258.645V313.825C258.645 314.625 258.862 315.25 259.295 315.7C259.745 316.133 260.362 316.35 261.145 316.35H263.595V317.55H261.42ZM254.845 305.375V304.3H263.595V305.375H254.845ZM273.048 317.85C271.948 317.85 270.973 317.65 270.123 317.25C269.273 316.85 268.556 316.325 267.973 315.675C267.406 315.025 266.973 314.3 266.673 313.5C266.39 312.683 266.248 311.85 266.248 311V310.75C266.248 309.883 266.398 309.042 266.698 308.225C266.998 307.408 267.44 306.675 268.023 306.025C268.606 305.375 269.315 304.858 270.148 304.475C270.998 304.092 271.965 303.9 273.048 303.9C274.115 303.9 275.065 304.092 275.898 304.475C276.748 304.858 277.465 305.375 278.048 306.025C278.631 306.675 279.073 307.408 279.373 308.225C279.69 309.042 279.848 309.883 279.848 310.75V311C279.848 311.85 279.698 312.683 279.398 313.5C279.098 314.3 278.656 315.025 278.073 315.675C277.506 316.325 276.798 316.85 275.948 317.25C275.115 317.65 274.148 317.85 273.048 317.85ZM273.048 316.625C274.215 316.625 275.198 316.358 275.998 315.825C276.815 315.292 277.431 314.592 277.848 313.725C278.281 312.842 278.498 311.892 278.498 310.875C278.498 309.825 278.281 308.867 277.848 308C277.415 307.117 276.79 306.417 275.973 305.9C275.173 305.367 274.198 305.1 273.048 305.1C271.915 305.1 270.931 305.367 270.098 305.9C269.281 306.417 268.656 307.117 268.223 308C267.79 308.867 267.573 309.825 267.573 310.875C267.573 311.892 267.781 312.842 268.198 313.725C268.631 314.592 269.256 315.292 270.073 315.825C270.89 316.358 271.881 316.625 273.048 316.625Z" fill="white"/>
<defs>
<linearGradient id="paint0_linear_493_4640" x1="91.3177" y1="193.826" x2="197.483" y2="144.537" gradientUnits="userSpaceOnUse">
<stop stop-color="#661A71"/>
<stop offset="1" stop-color="#1D1B29"/>
</linearGradient>
<linearGradient id="paint1_linear_493_4640" x1="116.747" y1="80.6242" x2="259.619" y2="197.415" gradientUnits="userSpaceOnUse">
<stop stop-color="white"/>
<stop offset="1" stop-color="white" stop-opacity="0"/>
</linearGradient>
<linearGradient id="paint2_linear_493_4640" x1="175.596" y1="190.4" x2="175.596" y2="264.4" gradientUnits="userSpaceOnUse">
<stop stop-color="white"/>
<stop offset="1" stop-color="white" stop-opacity="0"/>
</linearGradient>
<clipPath id="clip0_493_4640">
<rect width="103.27" height="103.27" fill="white" transform="translate(122.656 91.0027)"/>
</clipPath>
</defs>
</svg>
