<svg width="361" height="351" viewBox="0 0 361 351" fill="none" xmlns="http://www.w3.org/2000/svg">
<path d="M111.183 210.436C105.891 207.384 101.509 202.969 98.4814 197.638C95.4538 192.307 93.8875 186.249 93.9411 180.076L94.5006 119.653C94.5561 113.569 96.1912 107.586 99.2436 102.299C102.296 97.012 106.66 92.6046 111.901 89.5144L163.95 58.8182C169.268 55.6857 175.298 54.0131 181.428 53.9696C187.559 53.9261 193.573 55.5131 198.863 58.5703L249.817 87.9889C255.11 91.0414 259.492 95.4565 262.519 100.787C265.547 106.119 267.113 112.176 267.059 118.349L266.5 178.772C266.444 184.856 264.809 190.839 261.757 196.126C258.704 201.413 254.341 205.82 249.099 208.911L197.051 239.607C191.732 242.739 185.703 244.412 179.572 244.456C173.442 244.499 167.427 242.912 162.138 239.855L111.183 210.436Z" fill="url(#paint0_linear_493_4640)"/>
<path fill-rule="evenodd" clip-rule="evenodd" d="M267.06 118.349L266.5 178.772C266.445 184.856 264.81 190.839 261.757 196.126C258.705 201.413 254.341 205.82 249.1 208.911L197.051 239.607C191.733 242.739 185.703 244.412 179.573 244.456C173.442 244.499 167.428 242.912 162.138 239.855L111.183 210.436C105.891 207.384 101.509 202.969 98.4816 197.638C95.4539 192.307 93.8877 186.249 93.9413 180.076L94.5008 119.653C94.5562 113.569 96.1913 107.586 99.2438 102.299C102.296 97.012 106.66 92.6046 111.901 89.5144L163.95 58.8182C169.268 55.6857 175.298 54.0131 181.428 53.9696C187.559 53.9261 193.573 55.5131 198.863 58.5703L249.818 87.9889C255.11 91.0414 259.492 95.4565 262.519 100.787C265.547 106.119 267.113 112.176 267.06 118.349ZM250.317 87.1226C250.317 87.1227 250.317 87.1228 250.318 87.1228C255.765 90.2647 260.274 94.8085 263.389 100.294C266.504 105.779 268.115 112.01 268.06 118.357L268.06 118.358L267.5 178.781C267.5 178.781 267.5 178.781 267.5 178.781C267.443 185.039 265.761 191.19 262.623 196.626C259.485 202.062 254.998 206.594 249.608 209.772C249.607 209.772 249.607 209.772 249.607 209.772L197.559 240.468L197.559 240.469C192.089 243.69 185.888 245.411 179.58 245.456C173.272 245.5 167.082 243.867 161.638 240.721L110.683 211.302C105.236 208.16 100.727 203.617 97.612 198.131C94.4968 192.646 92.8862 186.415 92.9413 180.068L92.9413 180.067L93.5009 119.644C93.5009 119.644 93.5009 119.644 93.5009 119.644C93.5579 113.386 95.2394 107.235 98.3777 101.799C101.516 96.3632 106.003 91.8312 111.393 88.653C111.393 88.653 111.393 88.653 111.394 88.653L163.442 57.9568L163.442 57.9565C168.911 54.7353 175.113 53.0144 181.421 52.9696C187.729 52.9248 193.919 54.5578 199.363 57.7043M250.317 87.1226L199.364 57.7045L250.317 87.1226Z" fill="url(#paint1_linear_493_4640)"/>
<mask id="mask0_493_4640" style="mask-type:alpha" maskUnits="userSpaceOnUse" x="92" y="52" width="174" height="191">
<path d="M110.042 208.969C104.763 205.924 100.392 201.52 97.3721 196.203C94.3522 190.885 92.79 184.843 92.8434 178.686L93.4015 118.416C93.4568 112.347 95.0877 106.38 98.1324 101.106C101.177 95.8326 105.53 91.4365 110.758 88.3541L162.674 57.7358C167.979 54.6113 173.993 52.943 180.108 52.8996C186.223 52.8561 192.222 54.4392 197.499 57.4886L248.324 86.8324C253.603 89.8772 257.973 94.2811 260.993 99.5985C264.013 104.916 265.575 110.959 265.522 117.115L264.964 177.385C264.909 183.454 263.278 189.421 260.233 194.695C257.188 199.968 252.836 204.365 247.608 207.447L195.691 238.065C190.386 241.19 184.372 242.858 178.257 242.902C172.142 242.945 166.143 241.362 160.867 238.313L110.042 208.969Z" fill="white"/>
</mask>
<g mask="url(#mask0_493_4640)">
<path opacity="0.2" d="M164.034 247.506C160.697 247.506 157.864 246.963 155.537 245.877C153.209 244.751 151.307 243.238 149.833 241.337C148.359 239.397 147.272 237.186 146.574 234.702C145.914 232.181 145.585 229.542 145.585 226.788V223.528C145.585 219.61 146.244 216.079 147.563 212.936C148.883 209.794 150.9 207.31 153.616 205.487C156.332 203.625 159.804 202.693 164.034 202.693C168.224 202.693 171.677 203.625 174.393 205.487C177.109 207.31 179.107 209.794 180.387 212.936C181.706 216.079 182.366 219.61 182.366 223.528V226.788C182.366 229.542 182.017 232.181 181.318 234.702C180.659 237.186 179.592 239.397 178.118 241.337C176.682 243.238 174.8 244.751 172.472 245.877C170.144 246.963 167.331 247.506 164.034 247.506ZM164.034 239.94C167.487 239.94 170.028 238.757 171.658 236.39C173.287 233.985 174.102 230.26 174.102 225.216C174.102 219.862 173.268 216.04 171.599 213.751C169.931 211.423 167.409 210.259 164.034 210.259C160.619 210.259 158.058 211.423 156.351 213.751C154.683 216.04 153.849 219.823 153.849 225.1C153.849 230.182 154.683 233.927 156.351 236.332C158.02 238.738 160.58 239.94 164.034 239.94ZM187.167 246.4V238.253C187.167 236.468 187.439 234.916 187.982 233.597C188.564 232.278 189.495 231.114 190.776 230.105C192.095 229.057 193.821 228.068 195.955 227.137L203.172 223.936C204.957 223.121 206.315 222.132 207.246 220.968C208.216 219.765 208.701 218.232 208.701 216.37C208.701 214.314 208.08 212.684 206.838 211.481C205.636 210.24 203.909 209.619 201.659 209.619C199.408 209.619 197.662 210.24 196.421 211.481C195.218 212.723 194.617 214.449 194.617 216.661H186.643C186.643 214.023 187.206 211.656 188.331 209.561C189.456 207.427 191.125 205.758 193.336 204.556C195.548 203.314 198.322 202.693 201.659 202.693C204.995 202.693 207.769 203.295 209.981 204.498C212.193 205.7 213.861 207.31 214.986 209.328C216.111 211.307 216.674 213.518 216.674 215.963V216.719C216.674 219.901 215.781 222.558 213.997 224.692C212.212 226.788 209.593 228.611 206.14 230.163L198.923 233.364C197.565 233.946 196.615 234.567 196.072 235.226C195.528 235.847 195.257 236.701 195.257 237.787V241.512L193.278 239.358H216.848V246.4H187.167Z" fill="url(#paint2_linear_493_4640)"/>
</g>
<g clip-path="url(#clip0_493_4640)">
<path fill-rule="evenodd" clip-rule="evenodd" d="M178.404 139.116C177.973 139.116 177.56 139.287 177.255 139.592C176.95 139.897 176.779 140.31 176.779 140.741V145.616H170.279C167.606 145.616 165.404 147.819 165.404 150.491V163.491C165.404 166.164 167.606 168.366 170.279 168.366H176.779V178.116C176.779 178.547 176.95 178.96 177.255 179.265C177.56 179.57 177.973 179.741 178.404 179.741C178.835 179.741 179.248 179.57 179.553 179.265C179.858 178.96 180.029 178.547 180.029 178.116V168.366H186.529C189.201 168.366 191.404 166.164 191.404 163.491V150.491C191.404 147.819 189.201 145.616 186.529 145.616H180.029V140.741C180.029 140.31 179.858 139.897 179.553 139.592C179.248 139.287 178.835 139.116 178.404 139.116ZM149.154 147.241C148.723 147.241 148.31 147.412 148.005 147.717C147.7 148.022 147.529 148.435 147.529 148.866V165.116H141.029C138.356 165.116 136.154 167.319 136.154 169.991V179.741C136.154 182.414 138.356 184.616 141.029 184.616H157.279C159.951 184.616 162.154 182.414 162.154 179.741V169.991C162.154 167.319 159.951 165.116 157.279 165.116H150.779V148.866C150.779 148.435 150.608 148.022 150.303 147.717C149.998 147.412 149.585 147.241 149.154 147.241ZM207.654 152.116C207.223 152.116 206.81 152.287 206.505 152.592C206.2 152.897 206.029 153.31 206.029 153.741V160.241H199.529C196.856 160.241 194.654 162.444 194.654 165.116V174.866C194.654 177.539 196.856 179.741 199.529 179.741H206.029V182.991C206.029 183.422 206.2 183.835 206.505 184.14C206.81 184.445 207.223 184.616 207.654 184.616C208.085 184.616 208.498 184.445 208.803 184.14C209.108 183.835 209.279 183.422 209.279 182.991V179.741H215.779C218.451 179.741 220.654 177.539 220.654 174.866V165.116C220.654 162.444 218.451 160.241 215.779 160.241H209.279V153.741C209.279 153.31 209.108 152.897 208.803 152.592C208.498 152.287 208.085 152.116 207.654 152.116Z" fill="white"/>
<path d="M131.279 106.116C130.715 106.116 130.175 106.34 129.776 106.739C129.378 107.137 129.154 107.678 129.154 108.241V186.241C129.154 189.19 131.58 191.616 134.529 191.616H225.529C226.092 191.616 226.633 191.392 227.031 190.994C227.43 190.595 227.654 190.055 227.654 189.491C227.654 188.928 227.43 188.387 227.031 187.989C226.633 187.59 226.092 187.366 225.529 187.366H134.529C133.877 187.366 133.404 186.893 133.404 186.241V108.241C133.404 107.678 133.18 107.137 132.781 106.739C132.383 106.34 131.842 106.116 131.279 106.116Z" fill="white" stroke="white"/>
<path fill-rule="evenodd" clip-rule="evenodd" d="M206.029 93.6162C194.381 93.6162 184.904 103.093 184.904 114.741C184.904 126.389 194.381 135.866 206.029 135.866C217.676 135.866 227.154 126.389 227.154 114.741C227.154 103.093 217.676 93.6162 206.029 93.6162Z" stroke="white" stroke-width="3"/>
<path d="M209.561 107.696V108.549C209.561 109.099 209.248 109.544 208.699 109.544H204.013C203.465 109.544 203.162 109.099 203.162 108.549V107.696C203.162 107.146 203.465 106.701 204.013 106.701H208.699C209.248 106.701 209.561 107.146 209.561 107.696Z" fill="#DD38ED"/>
<path d="M200.405 123.334C200.217 123.321 200.028 123.323 199.84 123.339C199.386 123.412 199.291 123.203 199.272 122.785C199.214 121.156 198.55 119.606 197.408 118.441C196.267 117.276 194.732 116.579 193.104 116.488C192.453 116.448 192.332 116.218 192.345 115.636C192.384 113.836 192.363 113.835 194.156 114.071C198.26 114.61 201.548 118.217 201.748 122.398C201.793 123.316 201.789 123.321 200.9 123.328C200.735 123.329 200.57 123.328 200.405 123.328L200.405 123.334Z" fill="#DD38ED"/>
<path d="M212.3 123.33C210.849 123.342 210.802 123.322 211.027 121.806C211.293 119.669 212.323 117.7 213.927 116.263C215.53 114.826 217.599 114.017 219.753 113.986C220.227 113.968 220.347 114.149 220.362 114.594C220.418 116.334 220.431 116.333 218.702 116.615C216.026 117.051 213.62 119.736 213.543 122.487C213.523 123.208 213.346 123.462 212.653 123.334C212.535 123.323 212.417 123.321 212.3 123.33" fill="#DD38ED"/>
<path d="M206.326 116.767C206.594 116.677 206.626 116.45 206.722 116.272C209.106 111.833 212.76 109.166 217.732 108.305C218.454 108.203 219.182 108.145 219.911 108.131C220.282 108.112 220.415 108.243 220.351 108.711C220.299 109.149 220.299 109.59 220.351 110.027C220.405 110.558 220.207 110.672 219.768 110.674C214.569 110.703 209.991 114.153 208.305 119.01C207.882 120.19 207.667 121.433 207.669 122.685C207.675 123.207 207.514 123.406 206.976 123.341C206.53 123.297 206.08 123.294 205.633 123.333C205.188 123.362 205.07 123.172 205.076 122.754C205.148 117.527 201.331 112.505 195.99 111.073C195.033 110.817 194.057 110.603 193.06 110.68C192.473 110.724 192.308 110.487 192.354 109.954C192.392 109.624 192.391 109.292 192.352 108.962C192.246 108.237 192.58 108.088 193.232 108.128C198.925 108.471 203.166 111.129 205.957 116.101C206.082 116.323 206.204 116.547 206.326 116.767Z" fill="#DD38ED"/>
</g>
<path d="M55.025 317.425L50.525 299.175H54.75L58.275 314.675L57.4 314.1H59.675L58.7 314.675L61.425 299.85H64.825L61.25 317.425H55.025ZM65.9 317.425L62.05 299.85H65.625L68.775 314.675L67.825 314.1H70L69.175 314.675L72.25 299.175H76.25L72.25 317.425H65.9ZM84.223 317.9C83.0564 317.9 82.023 317.7 81.123 317.3C80.2397 316.9 79.498 316.367 78.898 315.7C78.3147 315.017 77.8647 314.258 77.548 313.425C77.248 312.575 77.098 311.708 77.098 310.825V310.325C77.098 309.408 77.248 308.533 77.548 307.7C77.8647 306.85 78.3147 306.092 78.898 305.425C79.4814 304.758 80.2064 304.233 81.073 303.85C81.9564 303.45 82.9564 303.25 84.073 303.25C85.5397 303.25 86.773 303.583 87.773 304.25C88.7897 304.9 89.5647 305.758 90.098 306.825C90.6314 307.875 90.898 309.025 90.898 310.275V311.625H78.773V309.35H88.473L87.173 310.4C87.173 309.583 87.0564 308.883 86.823 308.3C86.5897 307.717 86.2397 307.275 85.773 306.975C85.323 306.658 84.7564 306.5 84.073 306.5C83.373 306.5 82.7814 306.658 82.298 306.975C81.8147 307.292 81.448 307.758 81.198 308.375C80.948 308.975 80.823 309.717 80.823 310.6C80.823 311.417 80.9397 312.133 81.173 312.75C81.4064 313.35 81.773 313.817 82.273 314.15C82.773 314.483 83.423 314.65 84.223 314.65C84.9564 314.65 85.5564 314.508 86.023 314.225C86.4897 313.942 86.8064 313.592 86.973 313.175H90.648C90.448 314.092 90.0564 314.908 89.473 315.625C88.8897 316.342 88.1564 316.9 87.273 317.3C86.3897 317.7 85.373 317.9 84.223 317.9ZM100.805 317.425V299.175H102.155V317.425H100.805ZM107.824 317.425V304.3H108.874V309.675H108.574C108.574 308.525 108.757 307.525 109.124 306.675C109.507 305.808 110.066 305.142 110.799 304.675C111.549 304.192 112.474 303.95 113.574 303.95H113.649C115.299 303.95 116.541 304.467 117.374 305.5C118.207 306.517 118.624 307.908 118.624 309.675V317.425H117.274V309.375C117.274 308.125 116.932 307.117 116.249 306.35C115.582 305.567 114.616 305.175 113.349 305.175C112.066 305.175 111.041 305.575 110.274 306.375C109.524 307.158 109.149 308.2 109.149 309.5V317.425H107.824ZM126.523 317.425L121.748 304.3H123.148L127.848 317.425H126.523ZM126.923 317.425V316.3H128.748V317.425H126.923ZM127.823 317.425L132.023 304.3H133.323L129.098 317.425H127.823ZM142.031 317.85C140.915 317.85 139.948 317.658 139.131 317.275C138.315 316.875 137.648 316.35 137.131 315.7C136.615 315.033 136.223 314.292 135.956 313.475C135.706 312.642 135.581 311.8 135.581 310.95V310.7C135.581 309.833 135.706 309 135.956 308.2C136.223 307.4 136.615 306.675 137.131 306.025C137.665 305.358 138.323 304.842 139.106 304.475C139.906 304.092 140.831 303.9 141.881 303.9C143.215 303.9 144.331 304.2 145.231 304.8C146.148 305.383 146.84 306.15 147.306 307.1C147.773 308.05 148.006 309.05 148.006 310.1V311H136.206V309.9H147.131L146.731 310.4C146.731 309.383 146.54 308.475 146.156 307.675C145.79 306.875 145.24 306.25 144.506 305.8C143.79 305.333 142.915 305.1 141.881 305.1C140.765 305.1 139.831 305.358 139.081 305.875C138.331 306.392 137.765 307.083 137.381 307.95C137.015 308.817 136.831 309.775 136.831 310.825C136.831 311.875 137.015 312.842 137.381 313.725C137.765 314.592 138.34 315.3 139.106 315.85C139.873 316.383 140.848 316.65 142.031 316.65C143.298 316.65 144.315 316.358 145.081 315.775C145.865 315.192 146.34 314.492 146.506 313.675H147.806C147.623 314.492 147.273 315.217 146.756 315.85C146.24 316.483 145.581 316.975 144.781 317.325C143.998 317.675 143.081 317.85 142.031 317.85ZM155.743 317.8C154.11 317.8 152.851 317.425 151.968 316.675C151.101 315.925 150.66 314.967 150.643 313.8H151.943C151.943 314.55 152.235 315.208 152.818 315.775C153.418 316.325 154.393 316.6 155.743 316.6C157.06 316.6 158.026 316.325 158.643 315.775C159.26 315.208 159.568 314.542 159.568 313.775C159.568 313.025 159.285 312.45 158.718 312.05C158.168 311.65 157.418 311.4 156.468 311.3L154.918 311.125C153.768 310.992 152.851 310.633 152.168 310.05C151.501 309.467 151.168 308.675 151.168 307.675C151.168 306.958 151.351 306.317 151.718 305.75C152.085 305.183 152.61 304.733 153.293 304.4C153.993 304.067 154.81 303.9 155.743 303.9C157.11 303.9 158.21 304.233 159.043 304.9C159.893 305.567 160.326 306.475 160.343 307.625H159.043C159.06 306.908 158.776 306.308 158.193 305.825C157.626 305.342 156.81 305.1 155.743 305.1C154.626 305.1 153.793 305.358 153.243 305.875C152.71 306.392 152.443 307 152.443 307.7C152.443 308.283 152.651 308.783 153.068 309.2C153.501 309.617 154.151 309.875 155.018 309.975L156.568 310.15C157.801 310.267 158.818 310.625 159.618 311.225C160.435 311.825 160.843 312.683 160.843 313.8C160.843 314.55 160.635 315.225 160.218 315.825C159.818 316.425 159.243 316.908 158.493 317.275C157.743 317.625 156.826 317.8 155.743 317.8ZM169.279 317.55C168.462 317.55 167.746 317.433 167.129 317.2C166.512 316.95 166.037 316.533 165.704 315.95C165.371 315.367 165.204 314.583 165.204 313.6V300.025H166.504V313.825C166.504 314.625 166.721 315.25 167.154 315.7C167.604 316.133 168.221 316.35 169.004 316.35H171.454V317.55H169.279ZM162.704 305.375V304.3H171.454V305.375H162.704ZM181.835 317.425V299.175H183.185V317.425H181.835ZM188.854 317.425V304.3H189.904V309.675H189.604C189.604 308.525 189.788 307.525 190.154 306.675C190.538 305.808 191.096 305.142 191.829 304.675C192.579 304.192 193.504 303.95 194.604 303.95H194.679C196.329 303.95 197.571 304.467 198.404 305.5C199.238 306.517 199.654 307.908 199.654 309.675V317.425H198.304V309.375C198.304 308.125 197.963 307.117 197.279 306.35C196.613 305.567 195.646 305.175 194.379 305.175C193.096 305.175 192.071 305.575 191.304 306.375C190.554 307.158 190.179 308.2 190.179 309.5V317.425H188.854ZM211.957 310.45V309.225H216.357C217.457 309.225 218.341 309.025 219.007 308.625C219.674 308.225 220.166 307.692 220.482 307.025C220.799 306.342 220.957 305.592 220.957 304.775C220.957 303.958 220.799 303.217 220.482 302.55C220.166 301.867 219.674 301.325 219.007 300.925C218.341 300.525 217.457 300.325 216.357 300.325H211.957V299.1H216.182C217.599 299.1 218.757 299.35 219.657 299.85C220.557 300.333 221.224 300.992 221.657 301.825C222.091 302.658 222.307 303.592 222.307 304.625V304.925C222.307 305.942 222.091 306.875 221.657 307.725C221.224 308.558 220.557 309.225 219.657 309.725C218.757 310.208 217.599 310.45 216.182 310.45H211.957ZM211.082 317.425V299.1H212.432V317.425H211.082ZM226.159 317.425V304.3H227.209V309.85H227.009C227.009 307.95 227.434 306.533 228.284 305.6C229.134 304.667 230.509 304.2 232.409 304.2H232.859V305.4H232.159C230.609 305.4 229.442 305.8 228.659 306.6C227.876 307.383 227.484 308.542 227.484 310.075V317.425H226.159ZM241.625 317.85C240.525 317.85 239.55 317.65 238.7 317.25C237.85 316.85 237.133 316.325 236.55 315.675C235.983 315.025 235.55 314.3 235.25 313.5C234.966 312.683 234.825 311.85 234.825 311V310.75C234.825 309.883 234.975 309.042 235.275 308.225C235.575 307.408 236.016 306.675 236.6 306.025C237.183 305.375 237.891 304.858 238.725 304.475C239.575 304.092 240.541 303.9 241.625 303.9C242.691 303.9 243.641 304.092 244.475 304.475C245.325 304.858 246.041 305.375 246.625 306.025C247.208 306.675 247.65 307.408 247.95 308.225C248.266 309.042 248.425 309.883 248.425 310.75V311C248.425 311.85 248.275 312.683 247.975 313.5C247.675 314.3 247.233 315.025 246.65 315.675C246.083 316.325 245.375 316.85 244.525 317.25C243.691 317.65 242.725 317.85 241.625 317.85ZM241.625 316.625C242.791 316.625 243.775 316.358 244.575 315.825C245.391 315.292 246.008 314.592 246.425 313.725C246.858 312.842 247.075 311.892 247.075 310.875C247.075 309.825 246.858 308.867 246.425 308C245.991 307.117 245.366 306.417 244.55 305.9C243.75 305.367 242.775 305.1 241.625 305.1C240.491 305.1 239.508 305.367 238.675 305.9C237.858 306.417 237.233 307.117 236.8 308C236.366 308.867 236.15 309.825 236.15 310.875C236.15 311.892 236.358 312.842 236.775 313.725C237.208 314.592 237.833 315.292 238.65 315.825C239.466 316.358 240.458 316.625 241.625 316.625ZM249.753 322.5V321.275H251.378C252.045 321.275 252.553 321.075 252.903 320.675C253.253 320.275 253.428 319.692 253.428 318.925V304.3H254.728V318.575C254.728 319.525 254.603 320.283 254.353 320.85C254.103 321.417 253.711 321.833 253.178 322.1C252.645 322.367 251.936 322.5 251.053 322.5H249.753ZM251.178 305.45V304.3H254.728V305.45H251.178ZM253.503 301.325C253.153 301.325 252.886 301.233 252.703 301.05C252.52 300.85 252.428 300.592 252.428 300.275C252.428 299.975 252.52 299.725 252.703 299.525C252.886 299.325 253.161 299.225 253.528 299.225C253.878 299.225 254.145 299.325 254.328 299.525C254.511 299.725 254.603 299.975 254.603 300.275C254.603 300.592 254.511 300.85 254.328 301.05C254.161 301.233 253.886 301.325 253.503 301.325ZM265.249 317.85C264.133 317.85 263.166 317.658 262.349 317.275C261.533 316.875 260.866 316.35 260.349 315.7C259.833 315.033 259.441 314.292 259.174 313.475C258.924 312.642 258.799 311.8 258.799 310.95V310.7C258.799 309.833 258.924 309 259.174 308.2C259.441 307.4 259.833 306.675 260.349 306.025C260.883 305.358 261.541 304.842 262.324 304.475C263.124 304.092 264.049 303.9 265.099 303.9C266.433 303.9 267.549 304.2 268.449 304.8C269.366 305.383 270.058 306.15 270.524 307.1C270.991 308.05 271.224 309.05 271.224 310.1V311H259.424V309.9H270.349L269.949 310.4C269.949 309.383 269.758 308.475 269.374 307.675C269.008 306.875 268.458 306.25 267.724 305.8C267.008 305.333 266.133 305.1 265.099 305.1C263.983 305.1 263.049 305.358 262.299 305.875C261.549 306.392 260.983 307.083 260.599 307.95C260.233 308.817 260.049 309.775 260.049 310.825C260.049 311.875 260.233 312.842 260.599 313.725C260.983 314.592 261.558 315.3 262.324 315.85C263.091 316.383 264.066 316.65 265.249 316.65C266.516 316.65 267.533 316.358 268.299 315.775C269.083 315.192 269.558 314.492 269.724 313.675H271.024C270.841 314.492 270.491 315.217 269.974 315.85C269.458 316.483 268.799 316.975 267.999 317.325C267.216 317.675 266.299 317.85 265.249 317.85ZM280.411 317.85C279.328 317.85 278.378 317.65 277.561 317.25C276.761 316.85 276.086 316.317 275.536 315.65C275.003 314.983 274.603 314.242 274.336 313.425C274.069 312.608 273.936 311.783 273.936 310.95V310.7C273.936 309.85 274.069 309.017 274.336 308.2C274.603 307.383 275.003 306.658 275.536 306.025C276.086 305.375 276.761 304.858 277.561 304.475C278.378 304.092 279.328 303.9 280.411 303.9C281.461 303.9 282.394 304.092 283.211 304.475C284.044 304.858 284.719 305.4 285.236 306.1C285.769 306.783 286.103 307.608 286.236 308.575H284.936C284.786 307.575 284.319 306.75 283.536 306.1C282.753 305.433 281.711 305.1 280.411 305.1C279.261 305.1 278.303 305.358 277.536 305.875C276.769 306.392 276.194 307.083 275.811 307.95C275.444 308.817 275.261 309.775 275.261 310.825C275.261 311.842 275.453 312.792 275.836 313.675C276.219 314.558 276.794 315.275 277.561 315.825C278.328 316.358 279.278 316.625 280.411 316.625C281.294 316.625 282.069 316.467 282.736 316.15C283.419 315.817 283.969 315.383 284.386 314.85C284.803 314.3 285.053 313.7 285.136 313.05H286.436C286.319 314.017 285.986 314.858 285.436 315.575C284.886 316.275 284.178 316.833 283.311 317.25C282.444 317.65 281.478 317.85 280.411 317.85ZM294.45 317.55C293.633 317.55 292.917 317.433 292.3 317.2C291.683 316.95 291.208 316.533 290.875 315.95C290.542 315.367 290.375 314.583 290.375 313.6V300.025H291.675V313.825C291.675 314.625 291.892 315.25 292.325 315.7C292.775 316.133 293.392 316.35 294.175 316.35H296.625V317.55H294.45ZM287.875 305.375V304.3H296.625V305.375H287.875ZM304.327 317.8C302.694 317.8 301.435 317.425 300.552 316.675C299.685 315.925 299.244 314.967 299.227 313.8H300.527C300.527 314.55 300.819 315.208 301.402 315.775C302.002 316.325 302.977 316.6 304.327 316.6C305.644 316.6 306.61 316.325 307.227 315.775C307.844 315.208 308.152 314.542 308.152 313.775C308.152 313.025 307.869 312.45 307.302 312.05C306.752 311.65 306.002 311.4 305.052 311.3L303.502 311.125C302.352 310.992 301.435 310.633 300.752 310.05C300.085 309.467 299.752 308.675 299.752 307.675C299.752 306.958 299.935 306.317 300.302 305.75C300.669 305.183 301.194 304.733 301.877 304.4C302.577 304.067 303.394 303.9 304.327 303.9C305.694 303.9 306.794 304.233 307.627 304.9C308.477 305.567 308.91 306.475 308.927 307.625H307.627C307.644 306.908 307.36 306.308 306.777 305.825C306.21 305.342 305.394 305.1 304.327 305.1C303.21 305.1 302.377 305.358 301.827 305.875C301.294 306.392 301.027 307 301.027 307.7C301.027 308.283 301.235 308.783 301.652 309.2C302.085 309.617 302.735 309.875 303.602 309.975L305.152 310.15C306.385 310.267 307.402 310.625 308.202 311.225C309.019 311.825 309.427 312.683 309.427 313.8C309.427 314.55 309.219 315.225 308.802 315.825C308.402 316.425 307.827 316.908 307.077 317.275C306.327 317.625 305.41 317.8 304.327 317.8Z" fill="white"/>
<defs>
<linearGradient id="paint0_linear_493_4640" x1="95.3553" y1="193.826" x2="201.52" y2="144.537" gradientUnits="userSpaceOnUse">
<stop stop-color="#661A71"/>
<stop offset="1" stop-color="#1D1B29"/>
</linearGradient>
<linearGradient id="paint1_linear_493_4640" x1="120.785" y1="80.6242" x2="263.656" y2="197.415" gradientUnits="userSpaceOnUse">
<stop stop-color="white"/>
<stop offset="1" stop-color="white" stop-opacity="0"/>
</linearGradient>
<linearGradient id="paint2_linear_493_4640" x1="179.633" y1="190.4" x2="179.633" y2="264.4" gradientUnits="userSpaceOnUse">
<stop stop-color="white"/>
<stop offset="1" stop-color="white" stop-opacity="0"/>
</linearGradient>
<clipPath id="clip0_493_4640">
<rect width="103.27" height="103.27" fill="white" transform="translate(126.693 91.0027)"/>
</clipPath>
</defs>
</svg>
