<svg width="721" height="709" viewBox="0 0 721 709" fill="none" xmlns="http://www.w3.org/2000/svg">
<path d="M527.102 296.634C527.105 284.901 524.009 273.376 518.126 263.224C512.243 253.073 503.783 244.655 493.602 238.824L393.869 181.754C383.825 176.006 372.454 172.982 360.881 172.982C349.309 172.982 337.937 176.006 327.894 181.754L228.161 238.824C217.98 244.655 209.52 253.073 203.637 263.224C197.754 273.376 194.658 284.901 194.661 296.634V409.59C194.658 421.323 197.754 432.848 203.637 443C209.52 453.151 217.98 461.568 228.161 467.399L327.894 524.47C337.937 530.218 349.309 533.242 360.881 533.242C372.454 533.242 383.825 530.218 393.869 524.47L493.602 467.399C503.784 461.568 512.244 453.151 518.126 442.999C524.009 432.847 527.105 421.321 527.102 409.588V296.634ZM530.532 296.634L530.532 409.59C530.536 421.926 527.279 434.045 521.094 444.719C514.908 455.393 506.012 464.242 495.306 470.373L395.573 527.443C385.01 533.488 373.051 536.669 360.88 536.669C348.71 536.669 336.751 533.488 326.188 527.443L226.455 470.373C215.75 464.242 206.854 455.391 200.669 444.717C194.484 434.043 191.229 421.924 191.233 409.588V296.634C191.229 284.297 194.485 272.179 200.671 261.505C206.857 250.831 215.753 241.981 226.459 235.851L326.192 178.781C336.755 172.735 348.714 169.555 360.885 169.555C373.055 169.555 385.014 172.735 395.577 178.781L495.31 235.851C506.015 241.982 514.91 250.832 521.095 261.506C527.281 272.179 530.536 284.298 530.532 296.634Z" stroke="#919097" stroke-width="5.98683"/>
<path d="M527.143 409.602C527.146 421.338 524.048 432.866 518.164 443.019C512.279 453.172 503.817 461.591 493.633 467.423L393.877 524.503C383.831 530.253 372.457 533.278 360.881 533.278C349.306 533.278 337.932 530.253 327.885 524.503L228.128 467.42C217.944 461.589 209.482 453.171 203.597 443.018C197.713 432.865 194.615 421.337 194.617 409.602V296.622C194.616 284.888 197.714 273.362 203.599 263.21C209.483 253.058 217.945 244.641 228.128 238.81L327.885 181.719C337.932 175.969 349.306 172.944 360.881 172.944C372.457 172.944 383.831 175.969 393.877 181.719L493.633 238.81C503.816 244.641 512.277 253.058 518.162 263.21C524.046 273.362 527.145 284.888 527.143 296.622V409.602Z" fill="#1D1B29"/>
<path d="M391.088 291.187V298.387C391.088 303.027 388.447 306.787 383.815 306.787H344.269C339.64 306.787 337.08 303.027 337.08 298.387V291.187C337.08 286.548 339.64 282.787 344.269 282.787H383.815C388.447 282.787 391.088 286.548 391.088 291.187Z" fill="#CB3CFE"/>
<path d="M313.817 423.175C312.23 423.064 310.636 423.078 309.051 423.217C305.22 423.84 304.42 422.068 304.255 418.542C303.77 404.786 298.162 391.707 288.53 381.874C278.899 372.04 265.94 366.161 252.197 365.39C246.703 365.049 245.683 363.115 245.789 358.201C246.117 343.006 245.947 343.002 261.075 344.993C295.712 349.549 323.464 379.982 325.156 415.265C325.528 423.013 325.49 423.054 317.994 423.115C316.602 423.127 315.209 423.115 313.817 423.115V423.175Z" fill="#2DF5FE"/>
<path d="M414.209 423.132C401.95 423.238 401.562 423.072 403.457 410.271C405.704 392.236 414.397 375.621 427.932 363.492C441.467 351.362 458.931 344.536 477.103 344.27C481.111 344.119 482.123 345.646 482.244 349.398C482.717 364.084 482.828 364.08 468.233 366.459C445.654 370.139 425.346 392.799 424.704 416.024C424.536 422.102 423.042 424.25 417.185 423.17C416.195 423.075 415.199 423.062 414.207 423.132" fill="#F6AF44"/>
<path d="M363.792 367.749C366.048 366.993 366.324 365.079 367.135 363.571C387.254 326.106 418.092 303.598 460.053 296.328C466.148 295.47 472.29 294.984 478.445 294.873C481.576 294.716 482.698 295.821 482.162 299.771C481.723 303.46 481.723 307.189 482.162 310.878C482.621 315.36 480.945 316.316 477.238 316.337C433.351 316.572 394.715 345.691 380.482 386.684C376.921 396.636 375.109 407.13 375.128 417.701C375.172 422.114 373.819 423.78 369.279 423.232C365.51 422.86 361.716 422.837 357.943 423.163C354.186 423.412 353.187 421.813 353.237 418.28C353.841 374.157 321.627 331.77 276.548 319.694C268.554 317.193 260.193 316.069 251.823 316.37C246.874 316.748 245.475 314.745 245.868 310.245C246.179 307.465 246.172 304.659 245.845 301.882C244.958 295.754 247.761 294.504 253.279 294.836C301.321 297.732 337.12 320.165 360.675 362.133C361.724 364.003 362.753 365.892 363.792 367.743" fill="url(#paint0_linear_268_6204)"/>
<mask id="mask0_268_6204" style="mask-type:alpha" maskUnits="userSpaceOnUse" x="89" y="99" width="544" height="509">
<path d="M276.346 605.569C258.785 605.577 241.534 600.884 226.337 591.965C211.14 583.047 198.535 570.219 189.799 554.778L104.358 403.574C95.7518 388.35 91.2241 371.108 91.2241 353.562C91.2241 336.015 95.7518 318.774 104.358 303.55L189.799 152.345C198.535 136.905 211.14 124.077 226.337 115.158C241.534 106.24 258.785 101.547 276.346 101.555L445.454 101.555C463.014 101.547 480.265 106.24 495.463 115.158C510.66 124.077 523.264 136.905 532.001 152.345L617.442 303.55C626.048 318.774 630.575 336.015 630.575 353.562C630.575 371.108 626.048 388.35 617.442 403.574L532.001 554.779C523.264 570.219 510.66 583.047 495.463 591.966C480.265 600.884 463.014 605.577 445.454 605.569L276.346 605.569Z" fill="white" stroke="white" stroke-opacity="0.2" stroke-width="4.19336"/>
</mask>
<g mask="url(#mask0_268_6204)">
<path d="M360.899 638.099L495.737 593.153C495.737 593.153 300.562 523.569 240.107 418.988C180.607 316.058 214.825 115.603 214.825 115.603L77.1782 202.685C65.0054 242.949 40.6597 325.163 40.6597 331.905C40.6597 338.647 130.552 514.498 175.497 601.581L360.899 638.099Z" fill="black" fill-opacity="0.1"/>
</g>
<mask id="mask1_268_6204" style="mask-type:alpha" maskUnits="userSpaceOnUse" x="109" y="77" width="503" height="552">
<path d="M413.326 613.607C398.122 622.394 380.836 626.955 363.215 626.83C345.595 626.705 328.265 621.898 312.979 612.895L163.383 524.668C148.318 515.786 135.776 503.119 127.003 487.923C118.229 472.727 113.53 455.532 113.37 438.044L111.762 264.377C111.608 246.637 116.11 229.225 124.812 213.903C133.514 198.581 146.107 185.891 161.319 177.118L307.771 92.5636C322.975 83.7768 340.261 79.2153 357.882 79.3404C375.502 79.4655 392.832 84.2727 408.118 93.276L557.714 181.502C572.779 190.384 585.321 203.052 594.094 218.247C602.867 233.443 607.567 250.638 607.726 268.126L609.335 441.793C609.489 459.534 604.987 476.945 596.285 492.267C587.583 507.59 574.99 520.279 559.778 529.053L413.326 613.607Z" fill="white" stroke="white" stroke-opacity="0.2" stroke-width="4.19336"/>
</mask>
<g mask="url(#mask1_268_6204)">
<path d="M554.872 82.8932L680.604 227.63C680.604 227.63 516.735 516.861 397.723 316.345C278.712 115.83 115.064 220.043 115.064 220.043L202.691 23.4858C212.281 64.442 285.045 20.0524 288.416 25.8911C291.787 31.7297 358.59 -21.111 441.056 31.8319L554.872 82.8932Z" fill="white" fill-opacity="0.1"/>
</g>
<path d="M413.325 615.613C398.121 624.4 380.835 628.961 363.215 628.836C345.594 628.711 328.265 623.904 312.978 614.9L163.382 526.674C148.317 517.792 135.775 505.125 127.002 489.929C118.229 474.733 113.529 457.538 113.37 440.05L111.762 266.383C111.608 248.643 116.109 231.231 124.811 215.909C133.513 200.587 146.106 187.897 161.318 179.124L307.77 94.5695C322.974 85.7827 340.26 81.2212 357.881 81.3463C375.501 81.4714 392.831 86.2786 408.117 95.2819L557.713 183.508C572.779 192.39 585.32 205.058 594.094 220.253C602.867 235.449 607.566 252.644 607.726 270.132L609.334 443.799C609.488 461.539 604.986 478.951 596.284 494.273C587.583 509.596 574.989 522.285 559.777 531.059L413.325 615.613Z" fill="white" fill-opacity="0.08" stroke="white" stroke-opacity="0.2" stroke-width="4.19336"/>
<mask id="mask2_268_6204" style="mask-type:alpha" maskUnits="userSpaceOnUse" x="108" y="77" width="503" height="552">
<path d="M412.327 613.604C397.123 622.391 379.837 626.953 362.216 626.828C344.596 626.703 327.266 621.895 311.98 612.892L162.384 524.666C147.318 515.784 134.777 503.116 126.003 487.92C117.23 472.725 112.531 455.529 112.371 438.042L110.763 264.374C110.609 246.634 115.111 229.223 123.813 213.9C132.515 198.578 145.108 185.889 160.32 177.115L306.772 92.561C321.976 83.7741 339.262 79.2126 356.882 79.3377C374.503 79.4628 391.833 84.27 407.119 93.2734L556.715 181.5C571.78 190.382 584.322 203.049 593.095 218.245C601.868 233.44 606.568 250.636 606.727 268.123L608.336 441.791C608.49 459.531 603.988 476.942 595.286 492.265C586.584 507.587 573.991 520.277 558.779 529.05L412.327 613.604Z" fill="white" stroke="white" stroke-opacity="0.2" stroke-width="4.19336"/>
</mask>
<g mask="url(#mask2_268_6204)">
<path d="M553.873 82.8908L679.604 227.627C679.604 227.627 603.214 443.647 484.203 243.131C365.192 42.6159 227.653 141.486 227.653 141.486L201.692 23.4834C211.282 64.4395 284.045 20.05 287.416 25.8886C290.787 31.7273 357.591 -21.1134 440.056 31.8295L553.873 82.8908Z" fill="url(#paint1_linear_268_6204)" fill-opacity="0.4"/>
</g>
<defs>
<linearGradient id="paint0_linear_268_6204" x1="245.683" y1="351.99" x2="482.245" y2="348.071" gradientUnits="userSpaceOnUse">
<stop stop-color="#29FAFE"/>
<stop offset="0.522" stop-color="#DA2CFE"/>
<stop offset="1" stop-color="#F7B53B"/>
</linearGradient>
<linearGradient id="paint1_linear_268_6204" x1="418.519" y1="-25.2257" x2="328.563" y2="260.258" gradientUnits="userSpaceOnUse">
<stop stop-color="white"/>
<stop offset="1" stop-color="white" stop-opacity="0"/>
</linearGradient>
</defs>
</svg>
